<svg width="792" height="612" viewBox="0 0 792 612" fill="none" xmlns="http://www.w3.org/2000/svg">
<rect width="792" height="612" fill="white"/>
<g clip-path="url(#clip0_336_7279)">
<path fill-rule="evenodd" clip-rule="evenodd" d="M65.7 69.09H725.7V539.09H65.7V69.09ZM59.57 94.27C57.22 92.44 55.7 89.58 55.7 86.37V85.38C55.7 82.17 57.21 79.31 59.57 77.48C57.22 75.65 55.7 72.79 55.7 69.58V59.09H66.2C69.45 59.09 72.34 60.64 74.16 63.04C75.99 60.64 78.8699 59.09 82.1199 59.09H83.1199C86.3699 59.09 89.26 60.64 91.08 63.04C92.91 60.64 95.79 59.09 99.04 59.09H100.04C103.29 59.09 106.18 60.64 108 63.04C109.83 60.64 112.72 59.09 115.96 59.09H116.96C120.21 59.09 123.1 60.64 124.92 63.04C126.75 60.64 129.64 59.09 132.88 59.09H133.88C137.13 59.09 140.02 60.64 141.84 63.04C143.67 60.64 146.55 59.09 149.8 59.09H150.8C154.05 59.09 156.94 60.64 158.76 63.04C160.59 60.64 163.47 59.09 166.72 59.09H167.72C170.97 59.09 173.86 60.64 175.68 63.04C177.51 60.64 180.39 59.09 183.64 59.09H184.63C187.88 59.09 190.77 60.64 192.59 63.04C194.42 60.64 197.3 59.09 200.55 59.09H201.55C204.8 59.09 207.69 60.64 209.51 63.04C211.34 60.64 214.22 59.09 217.47 59.09H218.46C221.71 59.09 224.6 60.64 226.42 63.04C228.25 60.64 231.13 59.09 234.38 59.09H235.37C238.62 59.09 241.51 60.64 243.33 63.04C245.16 60.64 248.04 59.09 251.29 59.09H252.28C255.53 59.09 258.42 60.64 260.24 63.04C262.07 60.64 264.95 59.09 268.2 59.09H269.2C272.45 59.09 275.34 60.64 277.16 63.04C278.99 60.64 281.87 59.09 285.12 59.09H286.12C289.37 59.09 292.26 60.64 294.08 63.04C295.91 60.64 298.79 59.09 302.04 59.09H303.04C306.29 59.09 309.18 60.64 311 63.04C312.83 60.64 315.71 59.09 318.96 59.09H319.96C323.21 59.09 326.1 60.64 327.92 63.04C329.75 60.64 332.63 59.09 335.88 59.09H336.88C340.13 59.09 343.02 60.64 344.84 63.04C346.67 60.64 349.55 59.09 352.8 59.09H353.79C357.04 59.09 359.93 60.64 361.75 63.04C363.58 60.64 366.46 59.09 369.71 59.09H370.7C373.95 59.09 376.84 60.64 378.66 63.04C380.49 60.64 383.37 59.09 386.62 59.09H387.62C390.87 59.09 393.76 60.64 395.58 63.04C397.41 60.64 400.29 59.09 403.54 59.09H404.54C407.79 59.09 410.68 60.64 412.5 63.04C414.33 60.64 417.21 59.09 420.46 59.09H421.45C424.7 59.09 427.59 60.64 429.41 63.04C431.24 60.64 434.12 59.09 437.37 59.09H438.36C441.61 59.09 444.5 60.64 446.32 63.04C448.15 60.64 451.03 59.09 454.28 59.09H455.28C458.53 59.09 461.42 60.64 463.24 63.04C465.07 60.64 467.96 59.09 471.2 59.09H472.2C475.45 59.09 478.34 60.64 480.16 63.04C481.99 60.64 484.87 59.09 488.12 59.09H489.12C492.37 59.09 495.26 60.64 497.08 63.04C498.91 60.64 501.79 59.09 505.04 59.09H506.04C509.29 59.09 512.18 60.64 514 63.04C515.83 60.64 518.71 59.09 521.96 59.09H522.96C526.21 59.09 529.1 60.64 530.92 63.04C532.75 60.64 535.63 59.09 538.88 59.09H539.88C543.13 59.09 546.02 60.64 547.84 63.04C549.67 60.64 552.55 59.09 555.8 59.09H556.8C560.05 59.09 562.94 60.64 564.76 63.04C566.59 60.64 569.47 59.09 572.72 59.09H573.71C576.96 59.09 579.85 60.64 581.67 63.04C583.5 60.64 586.38 59.09 589.63 59.09H590.62C593.87 59.09 596.76 60.64 598.58 63.04C600.41 60.64 603.29 59.09 606.54 59.09H607.53C610.78 59.09 613.67 60.64 615.49 63.04C617.32 60.64 620.2 59.09 623.45 59.09H624.44C627.69 59.09 630.58 60.64 632.4 63.04C634.23 60.64 637.11 59.09 640.36 59.09H641.35C644.6 59.09 647.49 60.64 649.31 63.04C651.14 60.64 654.02 59.09 657.27 59.09H658.26C661.51 59.09 664.4 60.64 666.22 63.04C668.05 60.64 670.93 59.09 674.18 59.09H675.18C678.43 59.09 681.32 60.64 683.14 63.04C684.97 60.64 687.85 59.09 691.1 59.09H692.1C695.35 59.09 698.24 60.64 700.06 63.04C701.89 60.64 704.78 59.09 708.02 59.09H709.02C712.27 59.09 715.16 60.64 716.98 63.04C718.81 60.64 721.69 59.09 724.94 59.09H735.44V69.58C735.44 72.79 733.93 75.65 731.57 77.48C733.92 79.31 735.44 82.17 735.44 85.38V86.37C735.44 89.58 733.93 92.44 731.57 94.27C733.92 96.1 735.44 98.96 735.44 102.17V103.16C735.44 106.37 733.93 109.23 731.57 111.06C733.92 112.89 735.44 115.75 735.44 118.96V119.95C735.44 123.16 733.93 126.02 731.57 127.85C733.92 129.68 735.44 132.54 735.44 135.75V136.74C735.44 139.95 733.93 142.81 731.57 144.64C733.92 146.47 735.44 149.33 735.44 152.54V153.53C735.44 156.74 733.93 159.6 731.57 161.43C733.92 163.26 735.44 166.12 735.44 169.33V170.32C735.44 173.53 733.93 176.39 731.57 178.22C733.92 180.05 735.44 182.91 735.44 186.12V187.11C735.44 190.32 733.93 193.18 731.57 195.01C733.92 196.84 735.44 199.7 735.44 202.91V203.9C735.44 207.11 733.93 209.97 731.57 211.8C733.92 213.63 735.44 216.49 735.44 219.7V220.69C735.44 223.9 733.93 226.76 731.57 228.59C733.92 230.42 735.44 233.28 735.44 236.49V237.48C735.44 240.69 733.93 243.55 731.57 245.38C733.92 247.21 735.44 250.07 735.44 253.28V254.27C735.44 257.48 733.93 260.34 731.57 262.17C733.92 264 735.44 266.86 735.44 270.07V271.06C735.44 274.27 733.93 277.13 731.57 278.96C733.92 280.79 735.44 283.65 735.44 286.86V287.85C735.44 291.06 733.93 293.92 731.57 295.75C733.92 297.58 735.44 300.44 735.44 303.65V304.64C735.44 307.85 733.93 310.71 731.57 312.54C733.92 314.37 735.44 317.23 735.44 320.44V321.43C735.44 324.64 733.93 327.5 731.57 329.33C733.92 331.16 735.44 334.02 735.44 337.23V338.22C735.44 341.43 733.93 344.29 731.57 346.12C733.92 347.95 735.44 350.81 735.44 354.02V355.01C735.44 358.22 733.93 361.08 731.57 362.91C733.92 364.74 735.44 367.6 735.44 370.81V371.8C735.44 375.01 733.93 377.87 731.57 379.7C733.92 381.53 735.44 384.39 735.44 387.6V388.59C735.44 391.8 733.93 394.66 731.57 396.49C733.92 398.32 735.44 401.18 735.44 404.39V405.38C735.44 408.59 733.93 411.45 731.57 413.28C733.92 415.11 735.44 417.97 735.44 421.18V422.17C735.44 425.38 733.93 428.24 731.57 430.07C733.92 431.9 735.44 434.76 735.44 437.97V438.96C735.44 442.17 733.93 445.03 731.57 446.86C733.92 448.69 735.44 451.55 735.44 454.76V455.75C735.44 458.96 733.93 461.82 731.57 463.65C733.92 465.48 735.44 468.34 735.44 471.55V472.54C735.44 475.75 733.93 478.61 731.57 480.44C733.92 482.27 735.44 485.13 735.44 488.34V489.33C735.44 492.54 733.93 495.4 731.57 497.23C733.92 499.06 735.44 501.92 735.44 505.13V506.12C735.44 509.33 733.93 512.19 731.57 514.02C733.92 515.85 735.44 518.71 735.44 521.92V522.91C735.44 526.12 733.93 528.98 731.57 530.81C733.92 532.64 735.44 535.5 735.44 538.71V549.2H724.94C721.69 549.2 718.8 547.65 716.98 545.25C715.15 547.65 712.27 549.2 709.02 549.2H708.03C704.78 549.2 701.89 547.65 700.07 545.25C698.24 547.65 695.36 549.2 692.11 549.2H691.11C687.86 549.2 684.97 547.65 683.15 545.25C681.32 547.65 678.44 549.2 675.19 549.2H674.19C670.94 549.2 668.05 547.65 666.23 545.25C664.4 547.65 661.51 549.2 658.27 549.2H657.27C654.02 549.2 651.13 547.65 649.31 545.25C647.48 547.65 644.6 549.2 641.35 549.2H640.35C637.1 549.2 634.21 547.65 632.39 545.25C630.56 547.65 627.68 549.2 624.43 549.2H623.43C620.18 549.2 617.29 547.65 615.47 545.25C613.64 547.65 610.76 549.2 607.51 549.2H606.52C603.27 549.2 600.38 547.65 598.56 545.25C596.73 547.65 593.85 549.2 590.6 549.2H589.61C586.36 549.2 583.47 547.65 581.65 545.25C579.82 547.65 576.94 549.2 573.69 549.2H572.7C569.45 549.2 566.56 547.65 564.74 545.25C562.91 547.65 560.03 549.2 556.78 549.2H555.78C552.53 549.2 549.64 547.65 547.82 545.25C545.99 547.65 543.11 549.2 539.86 549.2H538.87C535.62 549.2 532.73 547.65 530.91 545.25C529.08 547.65 526.2 549.2 522.95 549.2H521.95C518.7 549.2 515.81 547.65 513.99 545.25C512.16 547.65 509.28 549.2 506.03 549.2H505.03C501.78 549.2 498.89 547.65 497.07 545.25C495.24 547.65 492.36 549.2 489.11 549.2H488.11C484.86 549.2 481.97 547.65 480.15 545.25C478.32 547.65 475.44 549.2 472.19 549.2H471.19C467.94 549.2 465.05 547.65 463.23 545.25C461.4 547.65 458.52 549.2 455.27 549.2H454.27C451.02 549.2 448.13 547.65 446.31 545.25C444.48 547.65 441.6 549.2 438.35 549.2H437.36C434.11 549.2 431.22 547.65 429.4 545.25C427.57 547.65 424.69 549.2 421.44 549.2H420.45C417.2 549.2 414.31 547.65 412.49 545.25C410.66 547.65 407.78 549.2 404.53 549.2H403.53C400.28 549.2 397.39 547.65 395.57 545.25C393.74 547.65 390.86 549.2 387.61 549.2H386.61C383.36 549.2 380.47 547.65 378.65 545.25C376.82 547.65 373.94 549.2 370.69 549.2H369.7C366.45 549.2 363.56 547.65 361.74 545.25C359.91 547.65 357.03 549.2 353.78 549.2H352.79C349.54 549.2 346.65 547.65 344.83 545.25C343 547.65 340.12 549.2 336.87 549.2H335.87C332.62 549.2 329.73 547.65 327.91 545.25C326.08 547.65 323.19 549.2 319.95 549.2H318.95C315.7 549.2 312.81 547.65 310.99 545.25C309.16 547.65 306.28 549.2 303.03 549.2H302.03C298.78 549.2 295.89 547.65 294.07 545.25C292.24 547.65 289.36 549.2 286.11 549.2H285.11C281.86 549.2 278.97 547.65 277.15 545.25C275.32 547.65 272.44 549.2 269.19 549.2H268.19C264.94 549.2 262.05 547.65 260.23 545.25C258.4 547.65 255.52 549.2 252.27 549.2H251.27C248.02 549.2 245.13 547.65 243.31 545.25C241.48 547.65 238.6 549.2 235.35 549.2H234.36C231.11 549.2 228.22 547.65 226.4 545.25C224.57 547.65 221.69 549.2 218.44 549.2H217.45C214.2 549.2 211.31 547.65 209.49 545.25C207.66 547.65 204.78 549.2 201.53 549.2H200.53C197.28 549.2 194.39 547.65 192.57 545.25C190.74 547.65 187.86 549.2 184.61 549.2H183.62C180.37 549.2 177.48 547.65 175.66 545.25C173.83 547.65 170.95 549.2 167.7 549.2H166.71C163.46 549.2 160.57 547.65 158.75 545.25C156.92 547.65 154.04 549.2 150.79 549.2H149.79C146.54 549.2 143.65 547.65 141.83 545.25C140 547.65 137.12 549.2 133.87 549.2H132.88C129.63 549.2 126.74 547.65 124.92 545.25C123.09 547.65 120.21 549.2 116.96 549.2H115.96C112.71 549.2 109.82 547.65 108 545.25C106.17 547.65 103.29 549.2 100.04 549.2H99.04C95.79 549.2 92.9 547.65 91.08 545.25C89.25 547.65 86.3699 549.2 83.1199 549.2H82.1199C78.8699 549.2 75.9799 547.65 74.16 545.25C72.33 547.65 69.45 549.2 66.2 549.2H55.7V538.71C55.7 535.5 57.21 532.64 59.57 530.81C57.22 528.98 55.7 526.12 55.7 522.91V521.92C55.7 518.71 57.21 515.85 59.57 514.02C57.22 512.19 55.7 509.33 55.7 506.12V505.13C55.7 501.92 57.21 499.06 59.57 497.23C57.22 495.4 55.7 492.54 55.7 489.33V488.34C55.7 485.13 57.21 482.27 59.57 480.44C57.22 478.61 55.7 475.75 55.7 472.54V471.55C55.7 468.34 57.21 465.48 59.57 463.65C57.22 461.82 55.7 458.96 55.7 455.75V454.76C55.7 451.55 57.21 448.69 59.57 446.86C57.22 445.03 55.7 442.17 55.7 438.96V437.97C55.7 434.76 57.21 431.9 59.57 430.07C57.22 428.24 55.7 425.38 55.7 422.17V421.18C55.7 417.97 57.21 415.11 59.57 413.28C57.22 411.45 55.7 408.59 55.7 405.38V404.39C55.7 401.18 57.21 398.32 59.57 396.49C57.22 394.66 55.7 391.8 55.7 388.59V387.6C55.7 384.39 57.21 381.53 59.57 379.7C57.22 377.87 55.7 375.01 55.7 371.8V370.81C55.7 367.6 57.21 364.74 59.57 362.91C57.22 361.08 55.7 358.22 55.7 355.01V354.02C55.7 350.81 57.21 347.95 59.57 346.12C57.22 344.29 55.7 341.43 55.7 338.22V337.23C55.7 334.02 57.21 331.16 59.57 329.33C57.22 327.5 55.7 324.64 55.7 321.43V320.44C55.7 317.23 57.21 314.37 59.57 312.54C57.22 310.71 55.7 307.85 55.7 304.64V303.65C55.7 300.44 57.21 297.58 59.57 295.75C57.22 293.92 55.7 291.06 55.7 287.85V286.86C55.7 283.65 57.21 280.79 59.57 278.96C57.22 277.13 55.7 274.27 55.7 271.06V270.07C55.7 266.86 57.21 264 59.57 262.17C57.22 260.34 55.7 257.48 55.7 254.27V253.28C55.7 250.07 57.21 247.21 59.57 245.38C57.22 243.55 55.7 240.69 55.7 237.48V236.49C55.7 233.28 57.21 230.42 59.57 228.59C57.22 226.76 55.7 223.9 55.7 220.69V219.7C55.7 216.49 57.21 213.63 59.57 211.8C57.22 209.97 55.7 207.11 55.7 203.9V202.91C55.7 199.7 57.21 196.84 59.57 195.01C57.22 193.18 55.7 190.32 55.7 187.11V186.12C55.7 182.91 57.21 180.05 59.57 178.22C57.22 176.39 55.7 173.53 55.7 170.32V169.33C55.7 166.12 57.21 163.26 59.57 161.43C57.22 159.6 55.7 156.74 55.7 153.53V152.54C55.7 149.33 57.21 146.47 59.57 144.64C57.22 142.81 55.7 139.95 55.7 136.74V135.75C55.7 132.54 57.21 129.68 59.57 127.85C57.22 126.02 55.7 123.16 55.7 119.95V118.96C55.7 115.75 57.21 112.89 59.57 111.06C57.22 109.23 55.7 106.37 55.7 103.16V102.17C55.7 98.96 57.21 96.1 59.57 94.27Z" fill="#40BEAD"/>
<path d="M435.7 516.09H356.7C346.759 516.09 338.7 524.149 338.7 534.09V551.09C338.7 561.031 346.759 569.09 356.7 569.09H435.7C445.641 569.09 453.7 561.031 453.7 551.09V534.09C453.7 524.149 445.641 516.09 435.7 516.09Z" fill="white" stroke="#40BEAD" stroke-width="10"/>
<path d="M133.7 521.59H317.7" stroke="#C9C9C9"/>
<path d="M474.7 521.59H658.7" stroke="#C9C9C9"/>
<path fill-rule="evenodd" clip-rule="evenodd" d="M84.41 53.51C83.66 52.25 82.18 51.56 80.71 51.85L67.89 54.63L60.99 43.18C60.22 41.91 58.73 41.27 57.28 41.59C55.82 41.91 54.74 43.11 54.57 44.58L53.02 57.86L40.18 60.64C38.74 60.97 37.67 62.23 37.51 63.68C37.34 65.14 38.12 66.56 39.46 67.21L51.47 72.95L50.38 85.9C50.26 87.38 51.09 88.76 52.42 89.35C53.76 89.96 55.35 89.65 56.36 88.58L65.39 79.08L77.54 83.98C78.21 84.25 78.92 84.3 79.59 84.16C80.3 84.01 80.96 83.63 81.46 83.06C82.44 81.96 82.6 80.35 81.88 79.07L75.53 67.74L84.09 57.54C85.03 56.41 85.15 54.8 84.4 53.53L84.41 53.51Z" fill="#40BEAD" stroke="#BDE6FA" stroke-width="11"/>
<path fill-rule="evenodd" clip-rule="evenodd" d="M84.41 533.51C83.66 532.25 82.18 531.56 80.71 531.85L67.89 534.63L60.99 523.18C60.22 521.91 58.73 521.27 57.28 521.58C55.82 521.9 54.74 523.1 54.57 524.57L53.02 537.85L40.18 540.63C38.74 540.96 37.67 542.22 37.51 543.67C37.34 545.13 38.12 546.55 39.46 547.2L51.47 552.94L50.38 565.89C50.26 567.37 51.09 568.75 52.42 569.34C53.76 569.95 55.35 569.64 56.36 568.57L65.39 559.08L77.54 563.98C78.21 564.25 78.92 564.3 79.59 564.16C80.3 564.01 80.96 563.63 81.46 563.06C82.44 561.96 82.6 560.35 81.88 559.07L75.53 547.74L84.09 537.54C85.03 536.41 85.15 534.8 84.4 533.53L84.41 533.51Z" fill="#40BEAD" stroke="#BDE6FA" stroke-width="11"/>
<path fill-rule="evenodd" clip-rule="evenodd" d="M707.96 53.51C708.71 52.25 710.19 51.56 711.66 51.85L724.48 54.63L731.38 43.18C732.15 41.91 733.64 41.27 735.09 41.59C736.54 41.91 737.63 43.11 737.8 44.58L739.35 57.86L752.19 60.64C753.63 60.97 754.7 62.23 754.86 63.68C755.03 65.14 754.25 66.56 752.91 67.21L740.9 72.95L741.99 85.9C742.11 87.38 741.28 88.76 739.95 89.34C738.61 89.95 737.02 89.64 736.01 88.57L726.98 79.07L714.83 83.97C714.16 84.24 713.45 84.29 712.79 84.15C712.08 84 711.42 83.62 710.92 83.05C709.94 81.95 709.78 80.34 710.5 79.06L716.85 67.73L708.28 57.53C707.34 56.4 707.21 54.79 707.97 53.52L707.96 53.51Z" fill="#40BEAD" stroke="#BDE6FA" stroke-width="11"/>
<path fill-rule="evenodd" clip-rule="evenodd" d="M707.96 535.51C708.71 534.25 710.19 533.56 711.66 533.85L724.48 536.63L731.38 525.18C732.15 523.91 733.64 523.27 735.09 523.58C736.54 523.9 737.63 525.1 737.8 526.57L739.35 539.85L752.19 542.63C753.63 542.96 754.7 544.22 754.86 545.67C755.03 547.13 754.25 548.55 752.91 549.2L740.9 554.94L741.99 567.89C742.11 569.37 741.28 570.75 739.95 571.34C738.61 571.95 737.02 571.64 736.01 570.57L726.98 561.08L714.83 565.98C714.16 566.25 713.45 566.3 712.78 566.16C712.07 566.01 711.41 565.63 710.91 565.06C709.93 563.96 709.77 562.35 710.49 561.07L716.84 549.74L708.27 539.54C707.33 538.41 707.2 536.8 707.96 535.53V535.51Z" fill="#40BEAD" stroke="#BDE6FA" stroke-width="11"/>
<path d="M133.63 155.46C136.93 155.46 139.61 158.14 139.61 161.44C139.61 164.74 136.93 167.42 133.63 167.42C130.33 167.42 127.65 164.74 127.65 161.44C127.65 158.14 130.33 155.46 133.63 155.46ZM164.39 155.46C167.69 155.46 170.37 158.14 170.37 161.44C170.37 164.74 167.69 167.42 164.39 167.42C161.09 167.42 158.41 164.74 158.41 161.44C158.41 158.14 161.09 155.46 164.39 155.46ZM195.15 155.46C198.45 155.46 201.13 158.14 201.13 161.44C201.13 164.74 198.45 167.42 195.15 167.42C191.85 167.42 189.17 164.74 189.17 161.44C189.17 158.14 191.85 155.46 195.15 155.46ZM225.91 155.46C229.21 155.46 231.89 158.14 231.89 161.44C231.89 164.74 229.21 167.42 225.91 167.42C222.61 167.42 219.93 164.74 219.93 161.44C219.93 158.14 222.61 155.46 225.91 155.46ZM256.67 155.46C259.97 155.46 262.65 158.14 262.65 161.44C262.65 164.74 259.97 167.42 256.67 167.42C253.37 167.42 250.69 164.74 250.69 161.44C250.69 158.14 253.37 155.46 256.67 155.46ZM287.43 155.46C290.73 155.46 293.41 158.14 293.41 161.44C293.41 164.74 290.73 167.42 287.43 167.42C284.13 167.42 281.45 164.74 281.45 161.44C281.45 158.14 284.13 155.46 287.43 155.46ZM318.19 155.46C321.49 155.46 324.17 158.14 324.17 161.44C324.17 164.74 321.49 167.42 318.19 167.42C314.89 167.42 312.21 164.74 312.21 161.44C312.21 158.14 314.89 155.46 318.19 155.46ZM348.95 155.46C352.25 155.46 354.93 158.14 354.93 161.44C354.93 164.74 352.25 167.42 348.95 167.42C345.65 167.42 342.97 164.74 342.97 161.44C342.97 158.14 345.65 155.46 348.95 155.46ZM379.71 155.46C383.01 155.46 385.69 158.14 385.69 161.44C385.69 164.74 383.01 167.42 379.71 167.42C376.41 167.42 373.73 164.74 373.73 161.44C373.73 158.14 376.41 155.46 379.71 155.46ZM410.47 155.46C413.77 155.46 416.45 158.14 416.45 161.44C416.45 164.74 413.77 167.42 410.47 167.42C407.17 167.42 404.49 164.74 404.49 161.44C404.49 158.14 407.17 155.46 410.47 155.46ZM441.23 155.46C444.53 155.46 447.21 158.14 447.21 161.44C447.21 164.74 444.53 167.42 441.23 167.42C437.93 167.42 435.25 164.74 435.25 161.44C435.25 158.14 437.93 155.46 441.23 155.46ZM471.99 155.46C475.29 155.46 477.97 158.14 477.97 161.44C477.97 164.74 475.29 167.42 471.99 167.42C468.69 167.42 466.01 164.74 466.01 161.44C466.01 158.14 468.69 155.46 471.99 155.46ZM502.75 155.46C506.05 155.46 508.73 158.14 508.73 161.44C508.73 164.74 506.05 167.42 502.75 167.42C499.45 167.42 496.77 164.74 496.77 161.44C496.77 158.14 499.45 155.46 502.75 155.46ZM533.51 155.46C536.81 155.46 539.49 158.14 539.49 161.44C539.49 164.74 536.81 167.42 533.51 167.42C530.21 167.42 527.53 164.74 527.53 161.44C527.53 158.14 530.21 155.46 533.51 155.46ZM564.27 155.46C567.57 155.46 570.25 158.14 570.25 161.44C570.25 164.74 567.57 167.42 564.27 167.42C560.97 167.42 558.29 164.74 558.29 161.44C558.29 158.14 560.97 155.46 564.27 155.46ZM595.03 155.46C598.33 155.46 601.01 158.14 601.01 161.44C601.01 164.74 598.33 167.42 595.03 167.42C591.73 167.42 589.05 164.74 589.05 161.44C589.05 158.14 591.73 155.46 595.03 155.46ZM625.79 155.46C629.09 155.46 631.77 158.14 631.77 161.44C631.77 164.74 629.09 167.42 625.79 167.42C622.49 167.42 619.81 164.74 619.81 161.44C619.81 158.14 622.49 155.46 625.79 155.46ZM656.55 155.46C659.85 155.46 662.53 158.14 662.53 161.44C662.53 164.74 659.85 167.42 656.55 167.42C653.25 167.42 650.57 164.74 650.57 161.44C650.57 158.14 653.25 155.46 656.55 155.46ZM133.63 256.46C136.93 256.46 139.61 259.14 139.61 262.44C139.61 265.74 136.93 268.42 133.63 268.42C130.33 268.42 127.65 265.74 127.65 262.44C127.65 259.14 130.33 256.46 133.63 256.46ZM164.39 256.46C167.69 256.46 170.37 259.14 170.37 262.44C170.37 265.74 167.69 268.42 164.39 268.42C161.09 268.42 158.41 265.74 158.41 262.44C158.41 259.14 161.09 256.46 164.39 256.46ZM195.15 256.46C198.45 256.46 201.13 259.14 201.13 262.44C201.13 265.74 198.45 268.42 195.15 268.42C191.85 268.42 189.17 265.74 189.17 262.44C189.17 259.14 191.85 256.46 195.15 256.46ZM225.91 256.46C229.21 256.46 231.89 259.14 231.89 262.44C231.89 265.74 229.21 268.42 225.91 268.42C222.61 268.42 219.93 265.74 219.93 262.44C219.93 259.14 222.61 256.46 225.91 256.46ZM256.67 256.46C259.97 256.46 262.65 259.14 262.65 262.44C262.65 265.74 259.97 268.42 256.67 268.42C253.37 268.42 250.69 265.74 250.69 262.44C250.69 259.14 253.37 256.46 256.67 256.46ZM287.43 256.46C290.73 256.46 293.41 259.14 293.41 262.44C293.41 265.74 290.73 268.42 287.43 268.42C284.13 268.42 281.45 265.74 281.45 262.44C281.45 259.14 284.13 256.46 287.43 256.46ZM318.19 256.46C321.49 256.46 324.17 259.14 324.17 262.44C324.17 265.74 321.49 268.42 318.19 268.42C314.89 268.42 312.21 265.74 312.21 262.44C312.21 259.14 314.89 256.46 318.19 256.46ZM471.98 256.46C475.28 256.46 477.96 259.14 477.96 262.44C477.96 265.74 475.28 268.42 471.98 268.42C468.68 268.42 466 265.74 466 262.44C466 259.14 468.68 256.46 471.98 256.46ZM502.74 256.46C506.04 256.46 508.72 259.14 508.72 262.44C508.72 265.74 506.04 268.42 502.74 268.42C499.44 268.42 496.76 265.74 496.76 262.44C496.76 259.14 499.44 256.46 502.74 256.46ZM533.5 256.46C536.8 256.46 539.48 259.14 539.48 262.44C539.48 265.74 536.8 268.42 533.5 268.42C530.2 268.42 527.52 265.74 527.52 262.44C527.52 259.14 530.2 256.46 533.5 256.46ZM564.26 256.46C567.56 256.46 570.24 259.14 570.24 262.44C570.24 265.74 567.56 268.42 564.26 268.42C560.96 268.42 558.28 265.74 558.28 262.44C558.28 259.14 560.96 256.46 564.26 256.46ZM595.02 256.46C598.32 256.46 601 259.14 601 262.44C601 265.74 598.32 268.42 595.02 268.42C591.72 268.42 589.04 265.74 589.04 262.44C589.04 259.14 591.72 256.46 595.02 256.46ZM625.78 256.46C629.08 256.46 631.76 259.14 631.76 262.44C631.76 265.74 629.08 268.42 625.78 268.42C622.48 268.42 619.8 265.74 619.8 262.44C619.8 259.14 622.48 256.46 625.78 256.46ZM656.54 256.46C659.84 256.46 662.52 259.14 662.52 262.44C662.52 265.74 659.84 268.42 656.54 268.42C653.24 268.42 650.56 265.74 650.56 262.44C650.56 259.14 653.24 256.46 656.54 256.46Z" fill="#BDE6FA"/>
<path d="M336 305C336 269.1 365.1 240 401 240C436.9 240 466 269.1 466 305C466 340.9 436.9 370 401 370C365.1 370 336 340.9 336 305Z" fill="#40BEAD"/>
<path d="M331.35 286.01C344.367 286.01 354.92 275.457 354.92 262.44C354.92 249.423 344.367 238.87 331.35 238.87C318.333 238.87 307.78 249.423 307.78 262.44C307.78 275.457 318.333 286.01 331.35 286.01Z" fill="#F15C5C" stroke="white" stroke-width="3"/>
<path d="M481.92 402.13C479.41 402.13 475.69 401.88 473.47 401.34C472.37 401.07 471.9 400.45 471.69 399.97C471.24 398.92 471.77 397.98 471.98 397.62C472.43 396.84 473.51 395.84 475.24 394.29C476.15 393.48 477.51 392.25 477.77 391.85C477.83 391.72 477.89 391.28 477.88 390.74C477.57 390.42 477.25 390.11 476.94 389.79C475.92 388.76 474.87 387.7 473.86 386.62C469.97 382.42 467.24 377.21 466.18 371.95C462.9 355.7 471.56 342.82 472.85 341.68C475.21 339.57 479.76 339.13 483.15 339.13C488.24 339.13 493.73 340.1 496.2 341.43L496.18 341.47C498.14 342.51 501.48 346.55 503.39 349.46C506.45 354.13 510.2 361.91 510.72 372.47C510.99 377.93 508.3 382.84 505.37 387.33C504.76 388.27 504.06 389.11 503.38 389.92C503.28 390.04 503.17 390.17 503.07 390.3C503.11 390.4 503.15 390.5 503.2 390.61C503.4 390.99 504.59 392.43 505.46 393.47C508.85 397.54 509.8 398.78 509.04 400.21C508.63 400.99 508.16 401.88 499.41 401.88C495.08 401.88 494.58 401.55 494.19 401.28C492.65 400.25 493.42 398.51 494.39 396.31C494.99 394.96 495.73 393.28 496.05 391.81C496.12 391.51 496.13 391.3 496.13 391.17C495.01 390.18 494.2 389.04 493.42 387.93C493.25 387.68 493.08 387.44 492.9 387.2C491.87 385.78 490.68 384.96 489.63 384.96C488.46 384.96 487.66 385.99 487.19 386.85L485.1 390.73C485.09 391.13 485.11 391.51 485.3 391.86C485.45 392.14 488.96 398.86 487.27 400.97C486.78 401.58 486 402.13 481.92 402.13Z" fill="#373636"/>
<path d="M483.16 340.87C488.03 340.87 493.25 341.81 495.37 342.96C495.68 342.96 508.01 352.97 508.97 372.55C509.21 377.47 506.72 382.05 503.9 386.37C503.08 387.62 502.07 388.72 501.14 389.89C501.22 390.36 501.38 390.84 501.6 391.31C502.18 392.61 507.91 398.61 507.5 399.38C507.25 399.86 502.89 400.12 499.42 400.12C497.28 400.12 495.48 400.02 495.17 399.82C494.55 399.4 497.03 395.53 497.76 392.18C497.92 391.46 498 390.51 497.53 390.04C497.53 390.04 497.5 390.04 497.49 390.04C496.17 388.95 495.3 387.53 494.32 386.19C492.89 384.22 491.21 383.23 489.64 383.23C488.07 383.23 486.68 384.16 485.66 386.03C484.92 387.4 484.18 388.77 483.44 390.15C483.42 390.15 483.4 390.15 483.39 390.15C483.35 390.83 483.26 391.75 483.76 392.7C485.32 395.66 486.38 399.31 485.91 399.89C485.63 400.24 483.98 400.4 481.93 400.4C479.22 400.4 475.8 400.12 473.9 399.66C473.05 399.45 473.23 399 473.51 398.5C474.16 397.36 478.63 393.9 479.29 392.76C479.65 392.13 479.7 390.88 479.6 389.98C479.6 389.98 479.59 389.98 479.58 389.98C478.1 388.47 476.59 387 475.15 385.45C471.43 381.44 468.9 376.56 467.9 371.62C464.83 356.41 472.85 344.04 474.02 343C475.73 341.47 479.33 340.89 483.16 340.89M483.16 337.39C477.78 337.39 473.92 338.4 471.69 340.39C470.25 341.68 460.98 355.02 464.47 372.32C465.6 377.9 468.48 383.41 472.58 387.84C473.61 388.95 474.67 390.02 475.7 391.05C475.78 391.13 475.86 391.21 475.94 391.29C475.43 391.79 474.61 392.53 474.07 393.02C472.15 394.74 471.04 395.77 470.46 396.79C469.68 398.15 469.56 399.47 470.09 400.7C470.39 401.39 471.17 402.62 473.06 403.08C475.43 403.66 479.22 403.92 481.92 403.92C485.84 403.92 487.54 403.46 488.63 402.11C490.73 399.5 488.45 394.16 486.88 391.16L487.09 390.77C487.64 389.76 488.18 388.74 488.73 387.73C489.11 387.02 489.49 386.76 489.63 386.76C489.84 386.76 490.58 387.03 491.48 388.28C491.65 388.52 491.82 388.75 491.99 388.99C492.63 389.9 493.34 390.9 494.25 391.84C493.93 393.06 493.3 394.49 492.79 395.65C491.81 397.88 490.46 400.94 493.22 402.78C494.03 403.32 494.89 403.67 499.41 403.67C501.33 403.67 503.35 403.6 504.94 403.47C507.19 403.29 509.51 403.11 510.59 401.07C511.93 398.54 510.32 396.61 506.8 392.39C506.32 391.81 505.68 391.05 505.23 390.47C505.77 389.81 506.32 389.11 506.83 388.33C509.93 383.59 512.76 378.38 512.47 372.42C511.93 361.47 508.03 353.38 504.86 348.53C503 345.69 501.19 343.64 500 342.42C498.39 340.77 497.43 340.05 496.68 339.73C493.4 338.13 487.45 337.4 483.16 337.4V337.39Z" fill="#010101"/>
<path d="M484.68 390.47C483.4 390.41 482.12 390.36 480.84 390.3L484.68 390.47Z" fill="#373636"/>
<path d="M502.41 390.24C501.2 390.46 499.98 390.67 498.75 390.36L502.41 390.24Z" fill="#373636"/>
<path d="M508.88 353.6C508.98 353.74 509.08 353.88 509.18 354.02L508.88 353.6Z" fill="#373636"/>
<path d="M509.17 354.03C509.12 353.85 509.07 353.68 509.03 353.5L508.88 353.61" fill="#373636"/>
<path d="M502.3 343.3C502.56 343.26 502.85 343.28 503.08 343.17L502.3 343.3Z" fill="#373636"/>
<path d="M504.61 371.6C506.06 367.72 506.38 363.7 505.86 359.63L504.61 371.6Z" fill="#373636"/>
<path d="M491.76 380.58C497.67 380.55 502.51 377.19 504.6 371.6L491.76 380.58Z" fill="#373636"/>
<path d="M478.71 371.62C480.88 377.29 485.7 380.61 491.76 380.58L478.71 371.62Z" fill="#373636"/>
<path d="M478.23 354.74C477.02 360.39 476.58 366.05 478.71 371.62L478.23 354.74Z" fill="#373636"/>
<path d="M480.95 343.32C480.04 347.13 479.05 350.92 478.24 354.74L480.95 343.32Z" fill="#373636"/>
<path d="M468.32 349.43C467.89 349.42 457.76 349.12 451.36 347.51C445.14 345.94 440.6 342.23 436.98 338.8C436.38 338.23 435.48 337.38 435.81 336.12C436.15 334.83 437.52 334.49 438.03 334.37C438.89 334.16 439.75 333.9 440.65 333.62C442.78 332.97 444.98 332.3 447.36 332.3C448.39 332.3 449.36 332.42 450.32 332.68C457.52 334.56 463.84 338.54 469.11 344.5C469.92 345.41 470.24 346.52 470.09 347.88L469.92 349.49L468.3 349.45L468.32 349.43Z" fill="#373636"/>
<path d="M447.37 334.05C448.2 334.05 449.03 334.14 449.89 334.37C457.05 336.24 462.94 340.15 467.81 345.66C468.33 346.25 468.45 346.9 468.36 347.69C468.36 347.69 458.06 347.4 451.78 345.82C446.35 344.45 442.12 341.27 438.18 337.53C437.41 336.8 437.03 336.41 438.44 336.07C441.41 335.35 444.29 334.05 447.36 334.05M447.36 330.55C444.71 330.55 442.28 331.29 440.13 331.95C439.25 332.22 438.42 332.47 437.61 332.67C435.7 333.14 434.52 334.15 434.11 335.67C433.51 337.93 435.09 339.43 435.76 340.07C439.32 343.45 444.26 347.54 450.91 349.21C457.49 350.86 467.81 351.17 468.24 351.18L471.47 351.27L471.82 348.06C472.02 346.21 471.54 344.62 470.41 343.34C464.91 337.11 458.29 332.96 450.75 330.98C449.65 330.69 448.51 330.55 447.34 330.55H447.36Z" fill="#010101"/>
<path d="M530.55 360.56C524.11 360.56 514.8 359.12 508 355.11C505.22 353.47 501.96 348.18 501.6 347.58L500.98 346.56L501.49 345.89C501.49 345.8 501.47 345.7 501.46 345.62C501.38 345.01 501.27 344.08 501.89 343.31C502.24 342.87 502.76 342.6 503.34 342.55C504.62 342.44 505.91 342.38 507.15 342.38C513.6 342.38 519.64 343.91 525.1 346.92C528.31 348.69 529.91 351.53 531.46 354.27C531.92 355.09 532.36 355.87 532.84 356.62C533.13 357.06 533.88 358.24 533.24 359.42C532.62 360.56 531.36 360.56 530.6 360.56H530.55Z" fill="#373636"/>
<path d="M507.14 344.14C513.13 344.14 518.86 345.49 524.25 348.46C527.91 350.48 529.27 354.31 531.37 357.57C532.14 358.77 531.63 358.81 530.6 358.81C530.58 358.81 530.57 358.81 530.55 358.81C525.12 358.81 515.84 357.7 508.88 353.6C506.4 352.14 503.09 346.67 503.09 346.67C503.57 346.04 502.7 344.36 503.48 344.29C504.71 344.18 505.93 344.13 507.14 344.13M507.14 340.63C505.84 340.63 504.51 340.69 503.17 340.81C502.11 340.9 501.17 341.4 500.52 342.21C499.62 343.32 499.6 344.57 499.67 345.39L498.86 346.45L500.1 348.49C500.99 349.95 504.11 354.85 507.11 356.62C516.06 361.89 527.31 362.31 530.55 362.31H530.6C531.44 362.31 533.66 362.31 534.78 360.26C535.54 358.88 535.38 357.33 534.31 355.68C533.86 354.98 533.43 354.22 532.98 353.42C531.39 350.6 529.58 347.4 525.94 345.39C520.22 342.24 513.89 340.64 507.14 340.64V340.63Z" fill="#010101"/>
<path d="M495.42 343.3C497.63 348.66 499.57 354.08 500.94 359.62C501.95 363.69 502.12 367.72 501.13 371.59C499.71 377.18 495.28 380.54 489.37 380.57C483.31 380.6 478.09 377.28 475.24 371.61C472.44 366.04 472.2 360.38 472.73 354.73C473.09 350.9 473.62 347.11 474.07 343.31C481.39 344.96 488.51 345.03 495.42 343.29V343.3Z" fill="#FDFEFF"/>
<path d="M479.27 389.5C480.53 390.24 482.4 390.07 483.67 389.69C483.17 390.7 483.41 391.59 483.89 392.68C485.23 395.71 486.78 399.23 486.1 399.81C485.15 400.63 476.82 400.48 473.78 399.66C473.01 399.45 472.86 398.73 473.32 398.24C474.39 397.09 477.98 393.84 479.05 392.7C479.75 391.95 479.78 390.38 479.26 389.49L479.27 389.5Z" fill="#F47621"/>
<path d="M497.21 389.79C498.44 390.1 500.57 390.01 501.58 389.37C501.53 390.01 501.39 390.67 501.6 391.32C502.03 392.62 508 398.62 507.5 399.39C507 400.16 495.14 400.36 494.41 399.82C493.84 399.4 496.63 395.53 497.76 392.18C498.08 391.24 497.95 390.57 497.21 389.79Z" fill="#F47621"/>
<path d="M509.87 344.23C502.3 343.29 496.89 344.23 496.89 344.23C496.89 344.23 499.67 350.1 500.57 351.47C503.11 352.34 516.29 356.23 518.71 356.9C519.73 352.96 517.44 345.16 509.87 344.23Z" fill="#373636"/>
<path d="M455.28 346.52C455.28 346.52 470.69 349.14 472.03 349.03C473.92 346.93 471.85 342 471.85 342C471.85 342 453.56 335.22 450.91 334.65C446.73 337.99 455.28 346.52 455.28 346.52Z" fill="#373636"/>
<path d="M471.86 342C480.94 344.46 489.66 343.49 498.04 339.28C499.53 339.83 500.79 339 501.81 338.25C507.07 334.4 510.74 329.33 512.38 322.99C514.71 313.97 513.57 305.22 509.79 296.79C505.51 287.24 498.01 282.14 487.68 281.27C482.43 280.83 477.21 281.35 472.09 282.61C463.3 284.77 456.36 289.25 453.02 298.1C449.48 307.5 449.6 316.97 453.11 326.3C455.86 333.59 460.98 338.84 468.21 341.87C469.32 342.34 470.61 343.03 471.85 342H471.86Z" fill="#070606"/>
<path d="M481.39 345.98C473.86 345.98 466.54 343.8 461.29 340C454.64 335.18 450.72 327.55 449.62 317.3C448.74 309.07 448.57 299.64 453.93 292.11C458.79 285.28 468.72 279.82 478.09 278.82C479.25 278.7 480.45 278.63 481.65 278.63C490.72 278.63 499.91 282.14 505.63 287.8C510.62 292.74 513.47 299.91 514.58 310.36C515.58 319.72 513.7 328.04 509.3 333.8C504.33 340.3 495.55 344.66 485.23 345.76C483.97 345.89 482.68 345.96 481.38 345.96L481.39 345.98Z" fill="#373737"/>
<path d="M481.66 280.4C489.91 280.4 498.74 283.46 504.41 289.06C509.97 294.56 512.02 302.7 512.85 310.56C513.7 318.55 512.41 326.88 507.92 332.75C502.87 339.36 494.05 343.08 485.06 344.04C483.85 344.17 482.63 344.23 481.39 344.23C474.46 344.23 467.35 342.23 462.32 338.59C455.66 333.77 452.33 326.11 451.37 317.13C450.46 308.64 450.53 299.93 455.36 293.15C460.19 286.37 469.79 281.49 478.28 280.58C479.39 280.46 480.52 280.4 481.66 280.4ZM481.66 276.9C480.39 276.9 479.13 276.97 477.91 277.1C467.93 278.17 457.72 283.8 452.51 291.12C446.81 299.13 446.98 308.95 447.89 317.51C449.04 328.27 453.2 336.32 460.27 341.44C465.81 345.45 473.51 347.75 481.39 347.75C482.75 347.75 484.11 347.68 485.43 347.54C496.23 346.39 505.44 341.78 510.7 334.9C515.38 328.78 517.38 320.01 516.33 310.21C515.17 299.34 512.16 291.83 506.87 286.59C500.84 280.62 491.18 276.91 481.66 276.91V276.9Z" fill="#010101"/>
<path d="M488.42 342.83C469.48 346.12 456.52 330.06 455.03 323.18C453.47 315.98 455.39 308.11 461.21 301.76C463 299.81 465.09 298.87 467.77 299.17C470.66 299.49 473.33 300.38 475.87 301.77C480.21 304.16 483.84 303.77 487.6 300.5C489.53 298.82 491.67 297.53 494.02 296.56C497.06 295.31 499.79 295.76 502.44 297.72C508.28 302.05 511.62 308.02 512.37 314.27C513.27 321.7 507.36 339.54 488.42 342.83Z" fill="#FDFEFF"/>
<path d="M484.14 319.4C484.53 319.36 484.91 319.31 485.3 319.27C489.52 318.803 493.42 320.287 497 323.72C497.75 324.43 497.78 324.79 497.36 325.46C494.81 329.54 492.25 333.72 489.67 337.99C489.21 338.75 488.81 338.78 488.01 338.16C483.48 334.65 479.01 331.25 474.63 327.94C473.9 327.39 473.7 326.98 474.13 326.2C475.09 324.48 475.97 322.71 476.81 320.94C477.13 320.26 477.65 320.09 478.33 320.02C480.27 319.83 482.2 319.6 484.13 319.38L484.14 319.4Z" fill="#151211"/>
<path d="M495.1 324.49C494.97 324.35 494.82 324.18 494.66 324.03C492.52 321.95 490.46 320.05 487.52 320.98C485.85 321.51 483.95 321.66 482.11 321.59C479.14 321.47 477.59 322.97 476.62 325.62C476.25 326.63 476.42 327.05 477.28 327.68C480.56 330.11 483.86 332.61 487.19 335.19C488.04 335.85 488.49 335.88 489 335.03C490.92 331.82 492.88 328.72 494.78 325.62C494.97 325.31 495.32 325.05 495.1 324.49Z" fill="#F47621"/>
<path d="M503.31 313.08C503.5 314.99 504.75 316.49 506.11 316.42C507.52 316.35 508.62 314.48 508.39 312.54C508.16 310.64 506.84 309.19 505.47 309.34C504.08 309.49 503.13 311.13 503.32 313.08H503.31Z" fill="#010101"/>
<path d="M465.92 318.44C465.72 316.48 464.51 315.06 463.12 315.16C461.66 315.26 460.68 316.98 460.92 319.02C461.15 320.93 462.47 322.38 463.82 322.22C465.17 322.06 466.11 320.35 465.91 318.44H465.92Z" fill="#010101"/>
<path d="M354.43 451.99L353.75 450.19C353.75 450.19 353.71 450.1 353.67 450.07C353.63 450.04 353.59 450.01 353.55 449.99L351.75 449.32C351.68 449.3 351.63 449.25 351.59 449.19C351.55 449.13 351.53 449.06 351.53 448.99C351.53 448.92 351.55 448.85 351.59 448.79C351.63 448.73 351.69 448.69 351.75 448.66L353.54 447.99C353.54 447.99 353.63 447.95 353.66 447.91C353.7 447.87 353.72 447.83 353.74 447.79L354.41 445.99C354.43 445.92 354.48 445.87 354.54 445.83C354.6 445.79 354.67 445.77 354.74 445.77C354.81 445.77 354.88 445.79 354.94 445.83C355 445.87 355.04 445.93 355.07 445.99L355.74 447.79C355.74 447.79 355.78 447.88 355.82 447.91C355.86 447.94 355.9 447.97 355.94 447.99L357.74 448.66C357.81 448.68 357.86 448.73 357.9 448.79C357.94 448.85 357.96 448.92 357.96 448.99C357.96 449.06 357.94 449.13 357.9 449.19C357.86 449.25 357.8 449.29 357.74 449.32L355.94 449.99C355.94 449.99 355.85 450.04 355.82 450.07C355.78 450.11 355.76 450.15 355.74 450.19L355.07 451.99C355.05 452.05 355 452.11 354.94 452.15C354.88 452.19 354.82 452.21 354.74 452.21C354.66 452.21 354.6 452.19 354.55 452.15C354.49 452.11 354.45 452.05 354.42 451.99H354.43Z" fill="#FFD670"/>
<path d="M396.97 446.47L396.3 444.67C396.3 444.67 396.26 444.58 396.22 444.55C396.19 444.51 396.14 444.49 396.1 444.47L394.3 443.8C394.23 443.78 394.18 443.73 394.14 443.67C394.1 443.61 394.08 443.54 394.08 443.47C394.08 443.4 394.1 443.33 394.14 443.27C394.18 443.21 394.24 443.17 394.3 443.14L396.1 442.47C396.1 442.47 396.19 442.43 396.22 442.39C396.25 442.35 396.28 442.31 396.3 442.27L396.97 440.47C397 440.4 397.04 440.35 397.1 440.31C397.16 440.27 397.23 440.25 397.3 440.25C397.37 440.25 397.44 440.27 397.5 440.31C397.56 440.35 397.6 440.41 397.63 440.47L398.3 442.27C398.3 442.27 398.34 442.36 398.38 442.39C398.42 442.42 398.46 442.45 398.5 442.47L400.3 443.14C400.37 443.16 400.42 443.21 400.46 443.27C400.5 443.33 400.52 443.4 400.52 443.47C400.52 443.54 400.5 443.61 400.46 443.67C400.42 443.73 400.36 443.77 400.3 443.8L398.5 444.47C398.5 444.47 398.41 444.51 398.38 444.55C398.34 444.59 398.32 444.63 398.3 444.67L397.63 446.47C397.61 446.54 397.56 446.59 397.5 446.63C397.44 446.67 397.37 446.69 397.3 446.69C397.23 446.69 397.16 446.67 397.1 446.63C397.04 446.59 397 446.53 396.97 446.47Z" fill="#E7B521"/>
<path d="M339.15 454.26L337.61 450.13C337.57 450.02 337.51 449.93 337.43 449.84C337.35 449.76 337.25 449.7 337.14 449.66L333.01 448.12C332.86 448.06 332.73 447.96 332.63 447.83C332.54 447.7 332.49 447.54 332.49 447.38C332.49 447.22 332.54 447.06 332.63 446.93C332.72 446.8 332.86 446.7 333.01 446.64L337.14 445.11C337.25 445.07 337.34 445.01 337.42 444.93C337.5 444.85 337.56 444.75 337.6 444.65L339.14 440.51C339.2 440.36 339.3 440.23 339.43 440.14C339.56 440.05 339.72 440 339.88 440C340.04 440 340.2 440.05 340.33 440.14C340.46 440.23 340.57 440.36 340.62 440.51L342.16 444.64C342.2 444.75 342.26 444.84 342.34 444.93C342.42 445.01 342.52 445.07 342.63 445.11L346.76 446.65C346.91 446.71 347.04 446.81 347.14 446.94C347.23 447.07 347.28 447.23 347.28 447.39C347.28 447.55 347.23 447.71 347.14 447.84C347.05 447.97 346.91 448.07 346.76 448.13L342.63 449.67C342.52 449.71 342.43 449.77 342.34 449.85C342.26 449.93 342.2 450.03 342.16 450.14L340.62 454.27C340.56 454.42 340.46 454.55 340.33 454.65C340.2 454.74 340.04 454.79 339.88 454.79C339.72 454.79 339.56 454.74 339.43 454.64C339.3 454.55 339.2 454.42 339.14 454.26H339.15Z" fill="#E7B521"/>
<path d="M448.03 454.14L446.49 450.01C446.45 449.9 446.39 449.81 446.31 449.72C446.23 449.64 446.13 449.58 446.02 449.54L441.89 448C441.74 447.94 441.61 447.84 441.52 447.71C441.43 447.58 441.38 447.42 441.38 447.26C441.38 447.1 441.43 446.94 441.52 446.81C441.61 446.68 441.74 446.58 441.89 446.52L446.02 444.98C446.13 444.94 446.23 444.88 446.31 444.8C446.39 444.72 446.45 444.62 446.49 444.51L448.03 440.37C448.09 440.22 448.19 440.09 448.32 439.99C448.45 439.9 448.61 439.85 448.77 439.85C448.93 439.85 449.09 439.9 449.22 439.99C449.35 440.08 449.45 440.21 449.51 440.37L451.06 444.51C451.1 444.62 451.16 444.71 451.24 444.8C451.32 444.88 451.42 444.94 451.52 444.98L455.65 446.52C455.8 446.58 455.93 446.68 456.03 446.81C456.12 446.94 456.17 447.1 456.17 447.26C456.17 447.42 456.12 447.58 456.03 447.71C455.94 447.84 455.81 447.94 455.65 448L451.52 449.54C451.41 449.58 451.32 449.64 451.23 449.72C451.15 449.8 451.09 449.9 451.05 450.01L449.51 454.14C449.45 454.29 449.35 454.43 449.22 454.52C449.09 454.62 448.93 454.66 448.76 454.66C448.59 454.66 448.44 454.61 448.3 454.52C448.17 454.43 448.06 454.29 448.01 454.14H448.03Z" fill="#FFD670"/>
<path d="M673.59 422.38L671.79 423.05C671.79 423.05 671.7 423.09 671.67 423.13C671.64 423.17 671.61 423.21 671.59 423.25L670.92 425.05C670.9 425.12 670.85 425.17 670.79 425.21C670.73 425.25 670.66 425.27 670.59 425.27C670.52 425.27 670.45 425.25 670.39 425.21C670.33 425.17 670.29 425.11 670.26 425.05L669.59 423.25C669.59 423.25 669.55 423.16 669.51 423.13C669.48 423.1 669.43 423.07 669.39 423.05L667.59 422.38C667.52 422.36 667.47 422.31 667.43 422.25C667.39 422.19 667.37 422.12 667.37 422.05C667.37 421.98 667.39 421.91 667.43 421.85C667.47 421.79 667.53 421.75 667.59 421.72L669.39 421.05C669.39 421.05 669.48 421.01 669.51 420.97C669.55 420.93 669.57 420.89 669.59 420.85L670.26 419.05C670.28 418.98 670.33 418.93 670.39 418.89C670.45 418.85 670.52 418.83 670.59 418.83C670.66 418.83 670.73 418.85 670.79 418.89C670.85 418.93 670.89 418.99 670.92 419.05L671.59 420.85C671.59 420.85 671.63 420.94 671.67 420.97C671.71 421.01 671.75 421.03 671.79 421.05L673.59 421.72C673.66 421.75 673.71 421.79 673.75 421.85C673.79 421.91 673.81 421.97 673.81 422.05C673.81 422.13 673.79 422.19 673.75 422.24C673.71 422.29 673.66 422.34 673.59 422.37V422.38Z" fill="#FFD670"/>
<path d="M559.08 444.78L554.95 446.33C554.84 446.37 554.75 446.43 554.66 446.51C554.58 446.59 554.52 446.69 554.48 446.79L552.94 450.92C552.89 451.08 552.79 451.21 552.65 451.31C552.52 451.41 552.35 451.46 552.19 451.46C552.03 451.46 551.86 451.41 551.73 451.31C551.6 451.21 551.5 451.08 551.44 450.92L549.9 446.79C549.86 446.68 549.8 446.59 549.72 446.51C549.64 446.43 549.55 446.37 549.44 446.33L545.31 444.79C545.15 444.74 545.02 444.64 544.92 444.5C544.82 444.37 544.77 444.2 544.77 444.04C544.77 443.88 544.82 443.71 544.92 443.58C545.02 443.45 545.15 443.35 545.31 443.29L549.44 441.75C549.54 441.71 549.64 441.65 549.72 441.57C549.8 441.49 549.86 441.4 549.9 441.29L551.44 437.16C551.49 437 551.6 436.87 551.73 436.77C551.87 436.67 552.03 436.62 552.19 436.62C552.35 436.62 552.52 436.67 552.65 436.77C552.78 436.87 552.89 437 552.94 437.16L554.47 441.29C554.51 441.4 554.57 441.5 554.65 441.58C554.73 441.66 554.83 441.72 554.93 441.76L559.06 443.3C559.21 443.36 559.34 443.46 559.44 443.59C559.53 443.72 559.58 443.88 559.58 444.04C559.58 444.2 559.53 444.36 559.44 444.49C559.35 444.62 559.22 444.72 559.06 444.78H559.08Z" fill="#FFD670"/>
<path d="M661.78 374.01L657.65 375.55C657.54 375.59 657.45 375.65 657.36 375.73C657.28 375.81 657.22 375.91 657.18 376.01L655.64 380.14C655.58 380.29 655.48 380.42 655.35 380.51C655.22 380.6 655.06 380.65 654.9 380.65C654.74 380.65 654.58 380.6 654.45 380.51C654.32 380.42 654.22 380.29 654.16 380.14L652.62 376.01C652.58 375.9 652.52 375.8 652.44 375.72C652.36 375.64 652.26 375.58 652.15 375.54L648.01 374C647.86 373.94 647.73 373.84 647.63 373.71C647.54 373.58 647.49 373.42 647.49 373.26C647.49 373.1 647.54 372.94 647.63 372.81C647.72 372.68 647.86 372.58 648.01 372.52L652.14 370.98C652.25 370.94 652.34 370.88 652.43 370.8C652.51 370.72 652.57 370.62 652.61 370.52L654.15 366.39C654.2 366.23 654.3 366.1 654.44 366C654.58 365.9 654.74 365.85 654.9 365.85C655.06 365.85 655.23 365.9 655.36 366C655.5 366.1 655.6 366.23 655.65 366.39L657.19 370.52C657.23 370.63 657.29 370.72 657.37 370.8C657.45 370.88 657.55 370.94 657.65 370.98L661.78 372.52C661.93 372.58 662.06 372.68 662.16 372.81C662.25 372.94 662.3 373.1 662.3 373.26C662.3 373.42 662.25 373.58 662.16 373.71C662.07 373.84 661.94 373.94 661.78 374V374.01Z" fill="#FFCB0D"/>
<path d="M669.65 407.99L665.52 409.53C665.41 409.57 665.32 409.63 665.24 409.71C665.16 409.79 665.1 409.89 665.06 409.99L663.52 414.12C663.46 414.27 663.36 414.4 663.23 414.5C663.1 414.59 662.94 414.64 662.78 414.64C662.62 414.64 662.46 414.59 662.33 414.5C662.2 414.41 662.09 414.28 662.04 414.12L660.51 409.99C660.47 409.88 660.41 409.79 660.33 409.71C660.25 409.63 660.15 409.57 660.05 409.53L655.91 407.99C655.76 407.93 655.63 407.83 655.54 407.7C655.45 407.57 655.4 407.41 655.4 407.25C655.4 407.09 655.45 406.93 655.54 406.8C655.63 406.67 655.76 406.56 655.91 406.51L660.04 404.97C660.15 404.93 660.25 404.87 660.33 404.79C660.41 404.71 660.47 404.61 660.51 404.5L662.05 400.37C662.11 400.22 662.21 400.09 662.34 399.99C662.47 399.9 662.63 399.85 662.79 399.85C662.95 399.85 663.11 399.9 663.24 399.99C663.37 400.08 663.47 400.21 663.53 400.37L665.07 404.5C665.11 404.61 665.17 404.7 665.25 404.79C665.33 404.87 665.43 404.93 665.53 404.97L669.66 406.51C669.81 406.57 669.94 406.67 670.04 406.8C670.13 406.93 670.18 407.09 670.18 407.25C670.18 407.41 670.13 407.57 670.04 407.7C669.95 407.83 669.81 407.93 669.66 407.99H669.65Z" fill="#E7B521"/>
<path d="M202.3 403.83L201.62 402.03C201.62 402.03 201.58 401.94 201.54 401.91C201.51 401.88 201.46 401.85 201.42 401.83L199.62 401.16C199.55 401.14 199.5 401.09 199.46 401.03C199.42 400.97 199.4 400.9 199.4 400.83C199.4 400.76 199.42 400.69 199.46 400.63C199.5 400.57 199.56 400.53 199.62 400.5L201.42 399.83C201.42 399.83 201.51 399.79 201.54 399.75C201.58 399.72 201.6 399.67 201.62 399.63L202.29 397.83C202.31 397.76 202.36 397.71 202.42 397.67C202.48 397.63 202.55 397.61 202.62 397.61C202.69 397.61 202.76 397.63 202.82 397.67C202.88 397.71 202.92 397.77 202.95 397.83L203.62 399.63C203.62 399.63 203.66 399.72 203.7 399.75C203.73 399.78 203.78 399.81 203.82 399.83L205.62 400.5C205.69 400.52 205.74 400.57 205.78 400.63C205.82 400.69 205.84 400.76 205.84 400.83C205.84 400.9 205.82 400.97 205.78 401.03C205.74 401.09 205.68 401.13 205.62 401.16L203.82 401.83C203.82 401.83 203.73 401.87 203.7 401.91C203.67 401.94 203.64 401.99 203.62 402.03L202.95 403.83C202.92 403.89 202.88 403.95 202.82 403.99C202.76 404.03 202.69 404.05 202.63 404.05C202.57 404.05 202.49 404.03 202.44 403.99C202.38 403.95 202.34 403.9 202.31 403.83H202.3Z" fill="#FFD670"/>
<path d="M255.49 339.01L253.94 334.88C253.9 334.77 253.84 334.68 253.76 334.6C253.68 334.52 253.58 334.46 253.48 334.42L249.35 332.89C249.19 332.84 249.06 332.74 248.96 332.6C248.86 332.47 248.81 332.3 248.81 332.14C248.81 331.98 248.86 331.81 248.96 331.68C249.06 331.55 249.19 331.44 249.35 331.39L253.48 329.85C253.59 329.81 253.68 329.75 253.76 329.67C253.84 329.59 253.9 329.5 253.94 329.39L255.48 325.26C255.53 325.1 255.63 324.97 255.77 324.87C255.91 324.77 256.07 324.72 256.23 324.72C256.39 324.72 256.56 324.77 256.69 324.87C256.82 324.97 256.93 325.1 256.98 325.26L258.52 329.39C258.56 329.49 258.62 329.59 258.7 329.67C258.78 329.75 258.87 329.81 258.98 329.85L263.11 331.39C263.27 331.44 263.4 331.54 263.5 331.68C263.6 331.81 263.65 331.98 263.65 332.14C263.65 332.3 263.6 332.47 263.5 332.6C263.4 332.73 263.27 332.84 263.11 332.89L258.98 334.42C258.87 334.46 258.78 334.52 258.69 334.6C258.61 334.68 258.55 334.78 258.51 334.89L256.98 339.02C256.92 339.17 256.82 339.3 256.69 339.4C256.56 339.49 256.4 339.54 256.24 339.54C256.08 339.54 255.92 339.49 255.79 339.4C255.66 339.31 255.56 339.18 255.5 339.02L255.49 339.01Z" fill="#FFD670"/>
<path d="M298.53 324L296.99 319.87C296.95 319.76 296.89 319.67 296.81 319.58C296.73 319.5 296.63 319.44 296.52 319.4L292.39 317.86C292.24 317.8 292.11 317.7 292.02 317.57C291.93 317.44 291.88 317.28 291.88 317.12C291.88 316.96 291.93 316.8 292.02 316.67C292.11 316.54 292.24 316.44 292.39 316.38L296.52 314.84C296.63 314.8 296.72 314.74 296.81 314.66C296.89 314.58 296.95 314.48 296.99 314.37L298.53 310.23C298.59 310.08 298.69 309.95 298.82 309.85C298.95 309.76 299.11 309.71 299.27 309.71C299.43 309.71 299.59 309.76 299.72 309.85C299.85 309.94 299.95 310.07 300.01 310.23L301.55 314.36C301.59 314.47 301.65 314.56 301.73 314.64C301.81 314.72 301.91 314.78 302.01 314.82L306.15 316.35C306.31 316.4 306.44 316.5 306.54 316.64C306.64 316.77 306.69 316.94 306.69 317.1C306.69 317.26 306.64 317.43 306.54 317.56C306.44 317.69 306.31 317.8 306.15 317.85L302.02 319.39C301.91 319.43 301.82 319.49 301.74 319.57C301.66 319.65 301.6 319.75 301.56 319.85L300.02 323.98C299.96 324.13 299.86 324.26 299.73 324.36C299.6 324.45 299.44 324.5 299.28 324.5C299.12 324.5 298.96 324.45 298.83 324.36C298.7 324.27 298.6 324.14 298.54 323.98L298.53 324Z" fill="#E7B521"/>
<path d="M187.01 400.1L185.47 395.97C185.43 395.86 185.37 395.77 185.29 395.69C185.21 395.61 185.11 395.55 185.01 395.51L180.88 393.98C180.73 393.92 180.6 393.82 180.5 393.69C180.41 393.56 180.36 393.4 180.36 393.24C180.36 393.08 180.41 392.92 180.5 392.79C180.59 392.66 180.72 392.56 180.88 392.5L185.01 390.96C185.12 390.92 185.21 390.86 185.29 390.78C185.37 390.7 185.43 390.6 185.47 390.5L187 386.37C187.06 386.22 187.16 386.09 187.29 386C187.42 385.91 187.58 385.86 187.74 385.86C187.9 385.86 188.06 385.91 188.19 386C188.32 386.09 188.42 386.22 188.48 386.37L190.02 390.5C190.06 390.61 190.12 390.71 190.2 390.79C190.28 390.87 190.38 390.93 190.49 390.97L194.62 392.51C194.77 392.57 194.9 392.67 195 392.8C195.09 392.93 195.14 393.09 195.14 393.25C195.14 393.41 195.09 393.57 195 393.7C194.91 393.83 194.78 393.93 194.62 393.99L190.49 395.53C190.38 395.57 190.29 395.63 190.21 395.71C190.13 395.79 190.07 395.89 190.03 395.99L188.49 400.12C188.43 400.27 188.33 400.4 188.2 400.49C188.07 400.58 187.91 400.63 187.75 400.63C187.59 400.63 187.43 400.58 187.3 400.49C187.17 400.4 187.07 400.26 187.01 400.11V400.1Z" fill="#E7B521"/>
<path d="M318.87 304.41L317.07 305.08C317.07 305.08 316.98 305.12 316.95 305.16C316.91 305.19 316.89 305.24 316.87 305.28L316.2 307.08C316.17 307.15 316.13 307.2 316.07 307.24C316.01 307.28 315.94 307.3 315.87 307.3C315.8 307.3 315.73 307.28 315.67 307.24C315.61 307.2 315.57 307.14 315.54 307.08L314.87 305.28C314.87 305.28 314.83 305.19 314.79 305.16C314.75 305.13 314.71 305.1 314.67 305.08L312.87 304.41C312.8 304.39 312.75 304.34 312.71 304.28C312.67 304.22 312.65 304.15 312.65 304.08C312.65 304.01 312.67 303.94 312.71 303.88C312.75 303.82 312.81 303.78 312.87 303.75L314.67 303.08C314.67 303.08 314.76 303.04 314.79 303C314.82 302.97 314.85 302.92 314.87 302.88L315.54 301.08C315.56 301.01 315.61 300.96 315.67 300.92C315.73 300.88 315.8 300.86 315.87 300.86C315.94 300.86 316.01 300.88 316.07 300.92C316.13 300.96 316.17 301.02 316.2 301.08L316.87 302.87C316.87 302.87 316.91 302.96 316.95 302.99C316.99 303.03 317.03 303.05 317.07 303.07L318.87 303.74C318.94 303.76 318.99 303.81 319.03 303.87C319.07 303.93 319.09 304 319.09 304.07C319.09 304.14 319.07 304.21 319.03 304.27C318.99 304.33 318.93 304.37 318.87 304.4V304.41Z" fill="#E7B521"/>
<path d="M225.69 319.15L223.89 319.83C223.89 319.83 223.8 319.87 223.77 319.91C223.73 319.94 223.71 319.99 223.69 320.03L223.02 321.83C223 321.9 222.95 321.95 222.89 321.99C222.83 322.03 222.76 322.05 222.69 322.05C222.62 322.05 222.55 322.03 222.49 321.99C222.43 321.95 222.39 321.89 222.36 321.83L221.69 320.04C221.69 320.04 221.65 319.95 221.61 319.92C221.58 319.88 221.53 319.86 221.49 319.84L219.69 319.17C219.62 319.15 219.57 319.1 219.53 319.04C219.49 318.98 219.47 318.91 219.47 318.84C219.47 318.77 219.49 318.7 219.53 318.64C219.57 318.58 219.63 318.54 219.69 318.51L221.49 317.84C221.49 317.84 221.58 317.8 221.61 317.76C221.64 317.72 221.67 317.68 221.69 317.64L222.36 315.84C222.38 315.77 222.43 315.72 222.49 315.68C222.55 315.64 222.62 315.62 222.69 315.62C222.76 315.62 222.83 315.64 222.89 315.68C222.95 315.72 222.99 315.78 223.02 315.84L223.69 317.64C223.69 317.64 223.74 317.73 223.77 317.76C223.81 317.79 223.85 317.82 223.89 317.84L225.69 318.51C225.75 318.54 225.81 318.58 225.85 318.64C225.89 318.7 225.91 318.77 225.91 318.83C225.91 318.89 225.89 318.97 225.85 319.02C225.81 319.08 225.76 319.12 225.69 319.15Z" fill="#FFD670"/>
<path d="M221.75 304.75L217.62 306.29C217.51 306.33 217.42 306.39 217.34 306.47C217.26 306.55 217.2 306.65 217.16 306.75L215.62 310.88C215.56 311.03 215.46 311.16 215.33 311.26C215.2 311.36 215.04 311.4 214.88 311.4C214.72 311.4 214.56 311.35 214.43 311.26C214.3 311.17 214.2 311.04 214.14 310.88L212.6 306.75C212.56 306.64 212.5 306.55 212.42 306.47C212.34 306.39 212.24 306.33 212.14 306.29L208.01 304.76C207.86 304.7 207.73 304.6 207.64 304.47C207.55 304.34 207.5 304.18 207.5 304.02C207.5 303.86 207.55 303.7 207.64 303.57C207.73 303.44 207.86 303.34 208.01 303.28L212.14 301.74C212.25 301.7 212.35 301.64 212.43 301.56C212.51 301.48 212.57 301.38 212.61 301.27L214.15 297.14C214.21 296.99 214.31 296.86 214.44 296.76C214.57 296.67 214.73 296.62 214.89 296.62C215.05 296.62 215.21 296.67 215.34 296.76C215.47 296.85 215.57 296.98 215.63 297.14L217.17 301.27C217.21 301.38 217.27 301.47 217.35 301.55C217.43 301.63 217.53 301.69 217.63 301.73L221.76 303.27C221.91 303.33 222.04 303.43 222.14 303.56C222.23 303.69 222.28 303.85 222.28 304.01C222.28 304.17 222.23 304.33 222.14 304.46C222.05 304.59 221.91 304.69 221.76 304.75H221.75Z" fill="#E7B521"/>
<path d="M192.69 354.53L189.53 355.71C189.45 355.74 189.37 355.79 189.31 355.85C189.25 355.91 189.2 355.99 189.17 356.07L187.99 359.23C187.95 359.35 187.87 359.45 187.77 359.52C187.67 359.59 187.55 359.63 187.43 359.63C187.31 359.63 187.19 359.59 187.08 359.52C186.98 359.45 186.9 359.35 186.86 359.23L185.68 356.07C185.65 355.99 185.6 355.91 185.54 355.85C185.48 355.79 185.4 355.74 185.32 355.71L182.15 354.54C182.03 354.5 181.93 354.42 181.86 354.32C181.79 354.22 181.75 354.1 181.75 353.97C181.75 353.84 181.79 353.72 181.86 353.62C181.93 353.52 182.03 353.44 182.15 353.4L185.32 352.22C185.4 352.19 185.48 352.14 185.54 352.08C185.6 352.02 185.65 351.94 185.68 351.86L186.85 348.7C186.89 348.58 186.97 348.48 187.07 348.41C187.17 348.34 187.29 348.3 187.42 348.3C187.55 348.3 187.66 348.34 187.77 348.41C187.87 348.48 187.95 348.58 187.99 348.7L189.17 351.86C189.2 351.94 189.25 352.02 189.31 352.08C189.37 352.14 189.45 352.19 189.53 352.22L192.69 353.4C192.81 353.44 192.91 353.52 192.98 353.62C193.05 353.72 193.09 353.84 193.09 353.97C193.09 354.1 193.05 354.22 192.98 354.32C192.91 354.42 192.81 354.5 192.69 354.54V354.53Z" fill="#FFD670"/>
<path d="M587.64 324.45L586.25 320.72C586.21 320.62 586.16 320.53 586.09 320.46C586.02 320.39 585.93 320.33 585.83 320.3L582.09 318.91C581.95 318.86 581.84 318.77 581.75 318.65C581.66 318.53 581.62 318.39 581.62 318.24C581.62 318.09 581.66 317.95 581.75 317.83C581.84 317.71 581.95 317.62 582.09 317.57L585.82 316.18C585.92 316.14 586.01 316.09 586.08 316.02C586.15 315.95 586.21 315.86 586.24 315.76L587.63 312.02C587.68 311.88 587.77 311.76 587.89 311.68C588.01 311.6 588.15 311.55 588.3 311.55C588.45 311.55 588.59 311.6 588.71 311.68C588.83 311.76 588.92 311.88 588.97 312.02L590.37 315.76C590.41 315.86 590.46 315.94 590.53 316.02C590.6 316.09 590.69 316.15 590.79 316.19L594.53 317.58C594.67 317.63 594.79 317.72 594.87 317.84C594.95 317.96 595 318.1 595 318.25C595 318.4 594.96 318.54 594.87 318.66C594.79 318.78 594.67 318.87 594.53 318.92L590.8 320.31C590.7 320.35 590.61 320.4 590.54 320.47C590.47 320.54 590.41 320.63 590.38 320.73L588.99 324.46C588.94 324.6 588.85 324.72 588.73 324.8C588.61 324.89 588.47 324.93 588.32 324.93C588.17 324.93 588.03 324.88 587.91 324.8C587.79 324.72 587.7 324.59 587.65 324.46L587.64 324.45Z" fill="#FFD670"/>
<path d="M564.03 374.24L562.23 374.92C562.23 374.92 562.14 374.96 562.11 375C562.07 375.03 562.05 375.08 562.03 375.12L561.36 376.92C561.34 376.99 561.29 377.04 561.23 377.08C561.17 377.12 561.1 377.14 561.03 377.14C560.96 377.14 560.89 377.12 560.83 377.08C560.77 377.04 560.73 376.98 560.7 376.92L560.03 375.13C560.03 375.13 559.99 375.04 559.95 375.01C559.92 374.97 559.87 374.95 559.83 374.93L558.03 374.26C557.96 374.24 557.91 374.19 557.87 374.13C557.83 374.07 557.81 374 557.81 373.93C557.81 373.86 557.83 373.79 557.87 373.73C557.91 373.67 557.97 373.63 558.03 373.6L559.83 372.93C559.83 372.93 559.92 372.89 559.95 372.85C559.98 372.81 560.01 372.77 560.03 372.73L560.7 370.93C560.72 370.86 560.77 370.81 560.83 370.77C560.89 370.73 560.96 370.71 561.03 370.71C561.1 370.71 561.17 370.73 561.23 370.77C561.29 370.81 561.33 370.87 561.36 370.93L562.03 372.73C562.03 372.73 562.08 372.82 562.11 372.85C562.15 372.88 562.19 372.91 562.23 372.93L564.03 373.6C564.09 373.63 564.15 373.67 564.19 373.73C564.23 373.79 564.25 373.86 564.25 373.92C564.25 373.98 564.23 374.06 564.19 374.11C564.15 374.17 564.1 374.21 564.03 374.24Z" fill="#FFD670"/>
<path d="M532.22 325.87L528.09 327.41C527.98 327.45 527.89 327.51 527.8 327.59C527.72 327.67 527.66 327.77 527.62 327.88L526.08 332.01C526.02 332.16 525.92 332.29 525.79 332.38C525.66 332.47 525.5 332.52 525.34 332.52C525.18 332.52 525.02 332.47 524.89 332.38C524.76 332.29 524.66 332.16 524.6 332.01L523.06 327.88C523.02 327.77 522.96 327.68 522.88 327.59C522.8 327.51 522.7 327.45 522.59 327.41L518.45 325.88C518.3 325.82 518.17 325.72 518.07 325.59C517.98 325.46 517.93 325.3 517.93 325.14C517.93 324.98 517.98 324.82 518.07 324.69C518.16 324.56 518.29 324.46 518.45 324.4L522.58 322.86C522.69 322.82 522.78 322.76 522.87 322.68C522.95 322.6 523.01 322.5 523.05 322.4L524.59 318.26C524.64 318.1 524.74 317.97 524.88 317.87C525.02 317.77 525.18 317.72 525.34 317.72C525.5 317.72 525.67 317.77 525.8 317.87C525.94 317.97 526.04 318.1 526.09 318.26L527.63 322.39C527.67 322.5 527.73 322.59 527.81 322.67C527.89 322.75 527.99 322.81 528.09 322.85L532.22 324.39C532.37 324.45 532.5 324.55 532.6 324.68C532.69 324.81 532.74 324.97 532.74 325.13C532.74 325.29 532.69 325.45 532.6 325.58C532.51 325.71 532.38 325.81 532.22 325.87Z" fill="#E7B521"/>
<path d="M560.09 359.85L555.96 361.39C555.85 361.43 555.76 361.49 555.68 361.57C555.6 361.65 555.54 361.75 555.5 361.85L553.96 365.98C553.9 366.13 553.8 366.26 553.67 366.36C553.54 366.46 553.38 366.5 553.22 366.5C553.06 366.5 552.9 366.45 552.77 366.36C552.64 366.27 552.54 366.14 552.48 365.98L550.94 361.85C550.9 361.74 550.84 361.65 550.76 361.57C550.68 361.49 550.58 361.43 550.48 361.39L546.35 359.86C546.2 359.8 546.07 359.7 545.98 359.57C545.89 359.44 545.84 359.28 545.84 359.12C545.84 358.96 545.89 358.8 545.98 358.67C546.07 358.54 546.2 358.44 546.35 358.38L550.48 356.84C550.59 356.8 550.69 356.74 550.77 356.66C550.85 356.58 550.91 356.48 550.95 356.37L552.49 352.24C552.55 352.09 552.65 351.96 552.78 351.86C552.91 351.77 553.07 351.72 553.23 351.72C553.39 351.72 553.55 351.77 553.68 351.86C553.81 351.95 553.91 352.08 553.97 352.24L555.51 356.37C555.55 356.48 555.61 356.57 555.69 356.65C555.77 356.73 555.87 356.79 555.97 356.83L560.1 358.37C560.25 358.43 560.38 358.53 560.48 358.66C560.57 358.79 560.62 358.95 560.62 359.11C560.62 359.27 560.57 359.43 560.48 359.56C560.39 359.69 560.25 359.79 560.1 359.85H560.09Z" fill="#E7B521"/>
<path d="M600.2 380.3L596.97 381.51C596.89 381.54 596.81 381.59 596.75 381.65C596.69 381.71 596.64 381.79 596.61 381.87L595.41 385.1C595.37 385.22 595.29 385.32 595.18 385.39C595.07 385.46 594.95 385.5 594.82 385.5C594.69 385.5 594.57 385.46 594.47 385.39C594.37 385.32 594.29 385.21 594.24 385.1L593.04 381.87C593.01 381.79 592.96 381.71 592.9 381.65C592.84 381.59 592.76 381.54 592.68 381.51L589.44 380.31C589.32 380.27 589.22 380.19 589.15 380.08C589.08 379.98 589.04 379.85 589.04 379.73C589.04 379.61 589.08 379.48 589.15 379.38C589.22 379.28 589.32 379.2 589.44 379.15L592.67 377.94C592.75 377.91 592.83 377.86 592.89 377.8C592.95 377.74 593 377.66 593.03 377.58L594.23 374.35C594.27 374.23 594.35 374.13 594.46 374.06C594.56 373.99 594.69 373.95 594.82 373.95C594.95 373.95 595.07 373.99 595.17 374.06C595.27 374.13 595.35 374.24 595.4 374.35L596.61 377.58C596.64 377.66 596.69 377.74 596.75 377.8C596.81 377.86 596.89 377.91 596.97 377.94L600.2 379.14C600.32 379.18 600.42 379.26 600.49 379.37C600.56 379.47 600.6 379.6 600.6 379.73C600.6 379.86 600.56 379.98 600.49 380.08C600.42 380.18 600.31 380.26 600.19 380.31L600.2 380.3Z" fill="#E7B521"/>
<path d="M539.14 323.73L538.47 321.93C538.47 321.93 538.43 321.84 538.39 321.81C538.35 321.78 538.31 321.75 538.27 321.73L536.47 321.06C536.4 321.04 536.35 320.99 536.31 320.93C536.27 320.87 536.25 320.8 536.25 320.73C536.25 320.66 536.27 320.59 536.31 320.53C536.35 320.47 536.41 320.43 536.47 320.4L538.27 319.73C538.27 319.73 538.36 319.69 538.39 319.65C538.43 319.62 538.45 319.57 538.47 319.53L539.14 317.73C539.16 317.66 539.21 317.61 539.27 317.57C539.33 317.53 539.4 317.51 539.47 317.51C539.54 317.51 539.61 317.53 539.67 317.57C539.73 317.61 539.77 317.67 539.8 317.73L540.47 319.53C540.47 319.53 540.51 319.62 540.55 319.65C540.59 319.68 540.63 319.71 540.67 319.73L542.47 320.4C542.54 320.42 542.59 320.47 542.63 320.53C542.67 320.59 542.69 320.66 542.69 320.73C542.69 320.8 542.67 320.87 542.63 320.93C542.59 320.99 542.53 321.03 542.47 321.06L540.68 321.73C540.68 321.73 540.59 321.77 540.56 321.81C540.52 321.84 540.5 321.89 540.48 321.93L539.81 323.73C539.79 323.8 539.74 323.85 539.68 323.89C539.62 323.93 539.55 323.95 539.48 323.95C539.41 323.95 539.34 323.93 539.28 323.89C539.22 323.85 539.18 323.79 539.15 323.73H539.14Z" fill="#E7B521"/>
<path d="M448.1 357.65L443.97 359.19C443.86 359.23 443.76 359.29 443.69 359.37C443.61 359.45 443.55 359.55 443.51 359.66L441.97 363.79C441.91 363.94 441.81 364.07 441.68 364.16C441.55 364.25 441.39 364.3 441.23 364.3C441.07 364.3 440.91 364.25 440.78 364.16C440.65 364.07 440.55 363.94 440.49 363.79L438.95 359.66C438.91 359.55 438.85 359.46 438.77 359.37C438.69 359.29 438.59 359.23 438.48 359.19L434.34 357.66C434.19 357.6 434.06 357.5 433.96 357.37C433.86 357.24 433.82 357.08 433.82 356.92C433.82 356.76 433.87 356.6 433.96 356.47C434.05 356.34 434.18 356.24 434.34 356.18L438.48 354.63C438.59 354.59 438.68 354.53 438.76 354.45C438.84 354.37 438.9 354.27 438.94 354.17L440.47 350.04C440.53 349.89 440.63 349.76 440.76 349.66C440.89 349.57 441.05 349.52 441.21 349.52C441.37 349.52 441.53 349.57 441.66 349.66C441.79 349.75 441.9 349.88 441.95 350.04L443.49 354.17C443.53 354.28 443.59 354.37 443.67 354.46C443.75 354.54 443.85 354.6 443.96 354.64L448.09 356.18C448.24 356.24 448.38 356.34 448.47 356.47C448.56 356.6 448.62 356.76 448.62 356.93C448.62 357.1 448.57 357.25 448.47 357.39C448.38 357.52 448.24 357.62 448.09 357.68L448.1 357.65Z" fill="#FFD670"/>
<path d="M342.64 350.68L341.97 348.88C341.97 348.88 341.93 348.79 341.89 348.76C341.85 348.73 341.81 348.7 341.77 348.68L339.97 348.01C339.9 347.99 339.85 347.94 339.81 347.88C339.77 347.82 339.75 347.75 339.75 347.68C339.75 347.61 339.77 347.54 339.81 347.48C339.85 347.42 339.91 347.38 339.97 347.35L341.77 346.68C341.77 346.68 341.86 346.64 341.89 346.6C341.93 346.57 341.95 346.52 341.97 346.48L342.64 344.68C342.66 344.61 342.71 344.56 342.77 344.52C342.83 344.48 342.9 344.46 342.97 344.46C343.04 344.46 343.11 344.48 343.17 344.52C343.23 344.56 343.27 344.62 343.3 344.68L343.97 346.48C343.97 346.48 344.01 346.57 344.05 346.6C344.09 346.63 344.13 346.66 344.17 346.68L345.97 347.35C346.04 347.37 346.09 347.42 346.13 347.48C346.17 347.54 346.19 347.61 346.19 347.68C346.19 347.75 346.17 347.82 346.13 347.88C346.09 347.94 346.03 347.98 345.97 348.01L344.18 348.68C344.18 348.68 344.09 348.72 344.06 348.76C344.02 348.79 344 348.84 343.98 348.88L343.31 350.68C343.29 350.75 343.24 350.8 343.18 350.84C343.12 350.88 343.05 350.9 342.98 350.9C342.91 350.9 342.84 350.88 342.78 350.84C342.72 350.8 342.68 350.74 342.65 350.68H342.64Z" fill="#E7B521"/>
<path d="M237.89 428.22L237.22 426.42C237.22 426.42 237.18 426.33 237.14 426.3C237.11 426.26 237.06 426.24 237.02 426.22L235.22 425.55C235.15 425.53 235.1 425.48 235.06 425.42C235.02 425.36 235 425.29 235 425.22C235 425.15 235.02 425.08 235.06 425.02C235.1 424.96 235.16 424.92 235.22 424.89L237.02 424.22C237.02 424.22 237.11 424.18 237.14 424.14C237.17 424.11 237.2 424.06 237.22 424.02L237.89 422.22C237.91 422.15 237.96 422.1 238.02 422.06C238.08 422.02 238.15 422 238.22 422C238.29 422 238.36 422.02 238.42 422.06C238.48 422.1 238.52 422.16 238.55 422.22L239.22 424.02C239.22 424.02 239.26 424.11 239.3 424.14C239.33 424.17 239.38 424.2 239.42 424.22L241.22 424.89C241.29 424.91 241.34 424.96 241.38 425.02C241.42 425.08 241.44 425.15 241.44 425.22C241.44 425.29 241.42 425.36 241.38 425.42C241.34 425.48 241.28 425.52 241.22 425.55L239.43 426.22C239.43 426.22 239.34 426.26 239.31 426.3C239.27 426.33 239.25 426.38 239.23 426.42L238.56 428.22C238.54 428.29 238.49 428.34 238.43 428.38C238.37 428.42 238.3 428.44 238.23 428.44C238.16 428.44 238.09 428.42 238.03 428.38C237.97 428.34 237.93 428.28 237.9 428.22H237.89Z" fill="#E7B521"/>
<path d="M318.46 424.72L317.2 421.33C317.17 421.24 317.12 421.16 317.05 421.1C316.98 421.03 316.9 420.98 316.82 420.95L313.43 419.69C313.31 419.64 313.2 419.56 313.12 419.45C313.04 419.34 313 419.21 313 419.08C313 418.95 313.04 418.82 313.12 418.71C313.2 418.6 313.3 418.52 313.43 418.47L316.82 417.21C316.91 417.18 316.99 417.13 317.05 417.06C317.12 416.99 317.17 416.91 317.2 416.83L318.46 413.43C318.51 413.31 318.59 413.2 318.7 413.12C318.81 413.04 318.94 413 319.07 413C319.2 413 319.33 413.04 319.44 413.12C319.55 413.2 319.63 413.3 319.68 413.43L320.95 416.82C320.98 416.91 321.03 416.99 321.1 417.05C321.17 417.12 321.25 417.17 321.33 417.2L324.72 418.46C324.84 418.51 324.95 418.59 325.03 418.7C325.11 418.81 325.15 418.94 325.15 419.07C325.15 419.2 325.11 419.33 325.03 419.44C324.95 419.55 324.85 419.63 324.72 419.68L321.33 420.94C321.24 420.97 321.16 421.02 321.1 421.09C321.03 421.16 320.98 421.24 320.95 421.32L319.69 424.71C319.64 424.84 319.56 424.95 319.45 425.02C319.34 425.1 319.21 425.14 319.08 425.14C318.95 425.14 318.82 425.1 318.71 425.02C318.6 424.94 318.52 424.83 318.47 424.71L318.46 424.72Z" fill="#FFD670"/>
<path d="M306.46 367.72L305.2 364.33C305.17 364.24 305.12 364.16 305.05 364.1C304.98 364.03 304.9 363.98 304.82 363.95L301.43 362.69C301.31 362.64 301.2 362.56 301.12 362.45C301.04 362.34 301 362.21 301 362.08C301 361.95 301.04 361.82 301.12 361.71C301.2 361.6 301.3 361.52 301.43 361.47L304.82 360.21C304.91 360.18 304.99 360.13 305.05 360.06C305.12 359.99 305.17 359.91 305.2 359.83L306.46 356.43C306.51 356.31 306.59 356.2 306.7 356.12C306.81 356.04 306.94 356 307.07 356C307.2 356 307.33 356.04 307.44 356.12C307.55 356.2 307.63 356.3 307.68 356.43L308.95 359.82C308.98 359.91 309.03 359.99 309.1 360.05C309.17 360.12 309.25 360.17 309.33 360.2L312.72 361.46C312.84 361.51 312.95 361.59 313.03 361.7C313.11 361.81 313.15 361.94 313.15 362.07C313.15 362.2 313.11 362.33 313.03 362.44C312.95 362.55 312.85 362.63 312.72 362.68L309.33 363.94C309.24 363.97 309.16 364.02 309.1 364.09C309.03 364.16 308.98 364.24 308.95 364.32L307.69 367.71C307.64 367.84 307.56 367.95 307.45 368.02C307.34 368.1 307.21 368.14 307.08 368.14C306.95 368.14 306.82 368.1 306.71 368.02C306.6 367.94 306.52 367.83 306.47 367.71L306.46 367.72Z" fill="#FFD670"/>
<path d="M529.629 389.598L526.563 390.852C526.482 390.884 526.415 390.933 526.348 390.997C526.289 391.062 526.244 391.143 526.215 391.224L525.072 394.563C525.034 394.693 524.96 394.798 524.856 394.879C524.76 394.96 524.641 395 524.515 395C524.389 395 524.27 394.96 524.173 394.879C524.077 394.798 523.995 394.693 523.958 394.563L522.815 391.224C522.785 391.135 522.741 391.062 522.682 390.997C522.622 390.933 522.555 390.884 522.474 390.852L519.401 389.606C519.282 389.566 519.186 389.485 519.111 389.372C519.037 389.267 519 389.129 519 389C519 388.871 519.037 388.733 519.111 388.628C519.186 388.523 519.282 388.434 519.401 388.394L522.466 387.148C522.54 387.116 522.615 387.067 522.674 387.003C522.733 386.938 522.778 386.865 522.808 386.776L523.951 383.437C523.988 383.307 524.062 383.202 524.166 383.121C524.262 383.04 524.389 383 524.507 383C524.626 383 524.752 383.04 524.849 383.121C524.945 383.202 525.027 383.307 525.064 383.437L526.2 386.776C526.229 386.865 526.274 386.938 526.333 387.011C526.393 387.075 526.467 387.124 526.549 387.156L529.614 388.394C529.725 388.442 529.822 388.523 529.896 388.628C529.963 388.733 530 388.863 530 388.992C530 389.121 529.963 389.251 529.896 389.356C529.829 389.461 529.733 389.542 529.614 389.59L529.629 389.598Z" fill="#FFD670"/>
<mask id="mask0_336_7279" style="mask-type:luminance" maskUnits="userSpaceOnUse" x="351" y="531" width="90" height="24">
<path d="M441 531H351V555H441V531Z" fill="white"/>
</mask>
<g mask="url(#mask0_336_7279)">
</g>
<g clip-path="url(#clip1_336_7279)">
<path d="M354.33 537.48H358.04C359.07 537.48 359.94 537.66 360.63 538.02C361.33 538.38 361.84 538.86 362.18 539.47C362.52 540.08 362.69 540.77 362.69 541.55C362.69 542.33 362.49 543.07 362.09 543.76C362.67 544.86 362.95 546.24 362.95 547.9H361.47C361.47 546.69 361.34 545.68 361.08 544.87C360.45 545.33 359.74 545.56 358.93 545.56C358.25 545.56 357.7 545.38 357.28 545.02C356.86 544.66 356.65 544.18 356.65 543.6C356.65 543.02 356.85 542.54 357.26 542.19C357.67 541.84 358.22 541.66 358.93 541.66C359.74 541.66 360.47 541.94 361.11 542.49C361.18 542.17 361.21 541.87 361.21 541.58C361.21 540.78 360.94 540.11 360.41 539.57C359.87 539.04 359.08 538.77 358.02 538.77H355.81V547.89H354.33V537.48ZM358.31 544.09C358.5 544.21 358.76 544.28 359.1 544.28C359.34 544.28 359.58 544.23 359.82 544.12C360.06 544.02 360.28 543.87 360.47 543.68C360.06 543.18 359.56 542.93 358.95 542.93C358.68 542.93 358.46 542.99 358.29 543.12C358.12 543.24 358.03 543.4 358.03 543.59C358.03 543.8 358.12 543.97 358.31 544.09ZM365.58 547.62C365.02 547.3 364.59 546.84 364.29 546.25C363.99 545.66 363.84 544.97 363.84 544.19C363.84 543.41 363.99 542.72 364.29 542.13C364.59 541.54 365.03 541.08 365.59 540.76C366.16 540.44 366.82 540.28 367.59 540.28C368.36 540.28 368.95 540.44 369.48 540.76C370 541.08 370.39 541.5 370.66 542.03C370.92 542.56 371.05 543.13 371.05 543.76C371.05 544.06 371.02 544.36 370.96 544.65H365.31C365.39 545.36 365.62 545.9 366 546.3C366.38 546.69 366.89 546.89 367.53 546.89C368.01 546.89 368.42 546.78 368.76 546.55C369.1 546.33 369.34 546.02 369.48 545.63H370.99C370.77 546.41 370.36 547.01 369.75 547.46C369.14 547.9 368.4 548.12 367.53 548.12C366.78 548.12 366.13 547.96 365.58 547.64V547.62ZM369.62 543.5C369.64 542.93 369.47 542.46 369.1 542.08C368.73 541.7 368.22 541.51 367.55 541.51C366.93 541.51 366.44 541.68 366.06 542.02C365.68 542.36 365.44 542.86 365.34 543.5H369.62ZM372.44 540.46H373.83V542.04C374.06 541.47 374.39 541.04 374.84 540.73C375.28 540.42 375.82 540.27 376.44 540.27C377.17 540.27 377.7 540.46 378.06 540.85C378.41 541.24 378.63 541.68 378.71 542.16C378.79 542.65 378.83 543.2 378.83 543.83V547.91H377.44V543.87C377.44 543.4 377.42 543.01 377.37 542.7C377.32 542.39 377.19 542.11 376.98 541.88C376.77 541.65 376.44 541.53 376 541.53C375.35 541.53 374.83 541.78 374.43 542.29C374.03 542.8 373.83 543.46 373.83 544.29V547.91H372.44V540.47V540.46ZM385.47 546.75C385.14 547.21 384.75 547.55 384.29 547.77C383.83 547.99 383.26 548.11 382.58 548.11C381.81 548.11 381.2 547.91 380.72 547.5C380.25 547.09 380.01 546.56 380.01 545.89C380.01 545.15 380.3 544.57 380.89 544.15C381.48 543.72 382.23 543.51 383.16 543.51C383.96 543.51 384.66 543.68 385.23 544.03V543.88C385.23 543.14 385.08 542.57 384.78 542.14C384.48 541.72 384.02 541.51 383.4 541.51C382.93 541.51 382.54 541.64 382.21 541.9C381.89 542.16 381.73 542.54 381.74 543.04H380.32C380.3 542.48 380.42 541.99 380.69 541.57C380.95 541.15 381.33 540.82 381.81 540.6C382.29 540.38 382.83 540.26 383.41 540.26C384.47 540.26 385.28 540.6 385.82 541.27C386.36 541.95 386.63 542.81 386.63 543.86C386.63 544.36 386.56 544.84 386.42 545.31C386.78 546.01 386.96 546.87 386.96 547.9H385.57C385.57 547.44 385.54 547.06 385.47 546.74V546.75ZM381.8 546.66C382.04 546.84 382.37 546.93 382.78 546.93C383.27 546.93 383.71 546.8 384.1 546.53C384.49 546.26 384.79 545.87 384.99 545.35C384.78 545.11 384.52 544.93 384.2 544.81C383.88 544.69 383.53 544.62 383.16 544.62C382.67 544.62 382.27 544.74 381.94 544.97C381.61 545.2 381.45 545.51 381.45 545.9C381.45 546.23 381.57 546.48 381.81 546.66H381.8ZM388.25 539C388.07 538.81 387.97 538.58 387.97 538.31C387.97 538.04 388.06 537.8 388.25 537.62C388.43 537.44 388.66 537.34 388.94 537.34C389.22 537.34 389.45 537.43 389.63 537.62C389.81 537.8 389.91 538.04 389.91 538.31C389.91 538.58 389.82 538.81 389.63 539C389.45 539.19 389.21 539.28 388.94 539.28C388.66 539.28 388.43 539.19 388.25 539ZM388.25 540.46H389.64V547.91H388.25V540.47V540.46ZM392.9 546.5C393.24 546.81 393.73 546.96 394.38 546.96C394.9 546.96 395.31 546.87 395.62 546.68C395.93 546.49 396.08 546.24 396.08 545.92C396.08 545.66 395.99 545.46 395.81 545.31C395.63 545.16 395.41 545.05 395.15 544.98C394.89 544.91 394.52 544.84 394.05 544.76C393.44 544.66 392.95 544.55 392.57 544.43C392.19 544.31 391.86 544.11 391.59 543.83C391.32 543.55 391.19 543.15 391.19 542.63C391.19 541.91 391.47 541.34 392.04 540.92C392.61 540.49 393.34 540.28 394.23 540.28C394.88 540.28 395.45 540.4 395.94 540.65C396.44 540.89 396.81 541.23 397.06 541.65C397.31 542.07 397.41 542.54 397.36 543.06H396.02C396.05 542.58 395.9 542.19 395.57 541.89C395.24 541.59 394.78 541.44 394.21 541.44C393.74 541.44 393.36 541.54 393.07 541.73C392.78 541.92 392.63 542.19 392.63 542.53C392.63 542.89 392.79 543.14 393.12 543.28C393.45 543.42 393.95 543.55 394.63 543.66C395.25 543.76 395.74 543.87 396.12 543.99C396.5 544.11 396.82 544.32 397.1 544.61C397.37 544.9 397.51 545.31 397.51 545.82C397.51 546.54 397.22 547.1 396.65 547.51C396.08 547.92 395.32 548.13 394.38 548.13C393.72 548.13 393.14 548.02 392.63 547.79C392.12 547.56 391.73 547.23 391.45 546.8C391.18 546.37 391.06 545.86 391.1 545.27H392.44C392.42 545.8 392.58 546.21 392.92 546.52L392.9 546.5ZM400.34 546.5C400.68 546.81 401.17 546.96 401.82 546.96C402.34 546.96 402.75 546.87 403.06 546.68C403.37 546.49 403.52 546.24 403.52 545.92C403.52 545.66 403.43 545.46 403.25 545.31C403.07 545.16 402.85 545.05 402.59 544.98C402.33 544.91 401.96 544.84 401.49 544.76C400.88 544.66 400.39 544.55 400.01 544.43C399.63 544.31 399.3 544.11 399.03 543.83C398.76 543.55 398.63 543.15 398.63 542.63C398.63 541.91 398.91 541.34 399.48 540.92C400.05 540.49 400.78 540.28 401.67 540.28C402.32 540.28 402.89 540.4 403.38 540.65C403.88 540.89 404.25 541.23 404.5 541.65C404.75 542.07 404.85 542.54 404.8 543.06H403.46C403.49 542.58 403.34 542.19 403.01 541.89C402.68 541.59 402.22 541.44 401.65 541.44C401.18 541.44 400.8 541.54 400.51 541.73C400.22 541.92 400.07 542.19 400.07 542.53C400.07 542.89 400.23 543.14 400.56 543.28C400.89 543.42 401.39 543.55 402.07 543.66C402.69 543.76 403.18 543.87 403.56 543.99C403.94 544.11 404.26 544.32 404.54 544.61C404.81 544.9 404.95 545.31 404.95 545.82C404.95 546.54 404.66 547.1 404.09 547.51C403.52 547.92 402.76 548.13 401.82 548.13C401.16 548.13 400.58 548.02 400.07 547.79C399.56 547.56 399.17 547.23 398.89 546.8C398.62 546.37 398.5 545.86 398.54 545.27H399.88C399.86 545.8 400.02 546.21 400.36 546.52L400.34 546.5ZM411.37 546.75C411.04 547.21 410.65 547.55 410.19 547.77C409.73 547.99 409.16 548.11 408.48 548.11C407.71 548.11 407.1 547.91 406.62 547.5C406.15 547.09 405.91 546.56 405.91 545.89C405.91 545.15 406.2 544.57 406.79 544.15C407.38 543.72 408.13 543.51 409.06 543.51C409.86 543.51 410.56 543.68 411.13 544.03V543.88C411.13 543.14 410.98 542.57 410.68 542.14C410.38 541.72 409.92 541.51 409.3 541.51C408.83 541.51 408.44 541.64 408.11 541.9C407.79 542.16 407.63 542.54 407.64 543.04H406.22C406.2 542.48 406.32 541.99 406.59 541.57C406.85 541.15 407.23 540.82 407.71 540.6C408.19 540.38 408.73 540.26 409.31 540.26C410.37 540.26 411.18 540.6 411.72 541.27C412.26 541.95 412.53 542.81 412.53 543.86C412.53 544.36 412.46 544.84 412.32 545.31C412.68 546.01 412.86 546.87 412.86 547.9H411.47C411.47 547.44 411.44 547.06 411.37 546.74V546.75ZM407.7 546.66C407.94 546.84 408.27 546.93 408.68 546.93C409.17 546.93 409.61 546.8 410 546.53C410.39 546.26 410.69 545.87 410.89 545.35C410.68 545.11 410.42 544.93 410.1 544.81C409.78 544.69 409.43 544.62 409.06 544.62C408.57 544.62 408.17 544.74 407.84 544.97C407.51 545.2 407.35 545.51 407.35 545.9C407.35 546.23 407.47 546.48 407.71 546.66H407.7ZM414.07 540.46H415.46V542.04C415.69 541.47 416.02 541.04 416.47 540.73C416.91 540.42 417.45 540.27 418.07 540.27C418.8 540.27 419.33 540.46 419.69 540.85C420.04 541.24 420.26 541.68 420.34 542.16C420.42 542.65 420.46 543.2 420.46 543.83V547.91H419.07V543.87C419.07 543.4 419.05 543.01 419 542.7C418.95 542.39 418.82 542.11 418.61 541.88C418.4 541.65 418.07 541.53 417.63 541.53C416.98 541.53 416.46 541.78 416.06 542.29C415.66 542.8 415.46 543.46 415.46 544.29V547.91H414.07V540.47V540.46ZM422.16 542.13C422.47 541.53 422.91 541.07 423.47 540.75C424.04 540.43 424.7 540.27 425.45 540.27C426.27 540.27 426.95 540.43 427.48 540.75C428.01 541.07 428.39 541.49 428.63 542.02C428.86 542.55 428.96 543.13 428.92 543.76H427.46C427.46 543.7 427.48 543.61 427.48 543.48C427.48 542.85 427.3 542.37 426.94 542.03C426.58 541.69 426.07 541.52 425.43 541.52C424.74 541.52 424.19 541.77 423.78 542.26C423.37 542.75 423.16 543.4 423.16 544.21C423.16 545.02 423.37 545.66 423.78 546.16C424.19 546.65 424.73 546.9 425.4 546.9C425.91 546.9 426.34 546.76 426.7 546.47C427.06 546.18 427.31 545.78 427.46 545.28H428.97C428.8 546.08 428.41 546.76 427.79 547.31C427.17 547.86 426.37 548.14 425.39 548.14C424.66 548.14 424.02 547.98 423.47 547.65C422.91 547.32 422.48 546.86 422.17 546.27C421.86 545.68 421.71 545 421.71 544.22C421.71 543.44 421.86 542.76 422.17 542.16L422.16 542.13ZM431.61 547.62C431.05 547.3 430.62 546.84 430.32 546.25C430.02 545.66 429.87 544.97 429.87 544.19C429.87 543.41 430.02 542.72 430.32 542.13C430.62 541.54 431.06 541.08 431.62 540.76C432.19 540.44 432.85 540.28 433.62 540.28C434.39 540.28 434.98 540.44 435.51 540.76C436.03 541.08 436.42 541.5 436.69 542.03C436.95 542.56 437.08 543.13 437.08 543.76C437.08 544.06 437.05 544.36 436.99 544.65H431.34C431.42 545.36 431.65 545.9 432.03 546.3C432.41 546.69 432.92 546.89 433.56 546.89C434.04 546.89 434.45 546.78 434.79 546.55C435.13 546.33 435.37 546.02 435.51 545.63H437.02C436.8 546.41 436.39 547.01 435.78 547.46C435.17 547.9 434.43 548.12 433.56 548.12C432.81 548.12 432.16 547.96 431.61 547.64V547.62ZM435.65 543.5C435.67 542.93 435.5 542.46 435.13 542.08C434.76 541.7 434.25 541.51 433.58 541.51C432.96 541.51 432.47 541.68 432.09 542.02C431.71 542.36 431.47 542.86 431.37 543.5H435.65Z" fill="black"/>
</g>
</g>
<defs>
<clipPath id="clip0_336_7279">
<rect width="728.37" height="541.14" fill="white" transform="translate(32 36)"/>
</clipPath>
<clipPath id="clip1_336_7279">
<rect width="82.75" height="10.76" fill="white" transform="translate(354.33 537.35)"/>
</clipPath>
</defs>
</svg>
