<svg width="792" height="612" viewBox="0 0 792 612" fill="none" xmlns="http://www.w3.org/2000/svg">
<rect width="792" height="612" fill="white"/>
<g clip-path="url(#clip0_336_7279)">
<path fill-rule="evenodd" clip-rule="evenodd" d="M65.7 69.09H725.7V539.09H65.7V69.09ZM59.57 94.27C57.22 92.44 55.7 89.58 55.7 86.37V85.38C55.7 82.17 57.21 79.31 59.57 77.48C57.22 75.65 55.7 72.79 55.7 69.58V59.09H66.2C69.45 59.09 72.34 60.64 74.16 63.04C75.99 60.64 78.8699 59.09 82.1199 59.09H83.1199C86.3699 59.09 89.26 60.64 91.08 63.04C92.91 60.64 95.79 59.09 99.04 59.09H100.04C103.29 59.09 106.18 60.64 108 63.04C109.83 60.64 112.72 59.09 115.96 59.09H116.96C120.21 59.09 123.1 60.64 124.92 63.04C126.75 60.64 129.64 59.09 132.88 59.09H133.88C137.13 59.09 140.02 60.64 141.84 63.04C143.67 60.64 146.55 59.09 149.8 59.09H150.8C154.05 59.09 156.94 60.64 158.76 63.04C160.59 60.64 163.47 59.09 166.72 59.09H167.72C170.97 59.09 173.86 60.64 175.68 63.04C177.51 60.64 180.39 59.09 183.64 59.09H184.63C187.88 59.09 190.77 60.64 192.59 63.04C194.42 60.64 197.3 59.09 200.55 59.09H201.55C204.8 59.09 207.69 60.64 209.51 63.04C211.34 60.64 214.22 59.09 217.47 59.09H218.46C221.71 59.09 224.6 60.64 226.42 63.04C228.25 60.64 231.13 59.09 234.38 59.09H235.37C238.62 59.09 241.51 60.64 243.33 63.04C245.16 60.64 248.04 59.09 251.29 59.09H252.28C255.53 59.09 258.42 60.64 260.24 63.04C262.07 60.64 264.95 59.09 268.2 59.09H269.2C272.45 59.09 275.34 60.64 277.16 63.04C278.99 60.64 281.87 59.09 285.12 59.09H286.12C289.37 59.09 292.26 60.64 294.08 63.04C295.91 60.64 298.79 59.09 302.04 59.09H303.04C306.29 59.09 309.18 60.64 311 63.04C312.83 60.64 315.71 59.09 318.96 59.09H319.96C323.21 59.09 326.1 60.64 327.92 63.04C329.75 60.64 332.63 59.09 335.88 59.09H336.88C340.13 59.09 343.02 60.64 344.84 63.04C346.67 60.64 349.55 59.09 352.8 59.09H353.79C357.04 59.09 359.93 60.64 361.75 63.04C363.58 60.64 366.46 59.09 369.71 59.09H370.7C373.95 59.09 376.84 60.64 378.66 63.04C380.49 60.64 383.37 59.09 386.62 59.09H387.62C390.87 59.09 393.76 60.64 395.58 63.04C397.41 60.64 400.29 59.09 403.54 59.09H404.54C407.79 59.09 410.68 60.64 412.5 63.04C414.33 60.64 417.21 59.09 420.46 59.09H421.45C424.7 59.09 427.59 60.64 429.41 63.04C431.24 60.64 434.12 59.09 437.37 59.09H438.36C441.61 59.09 444.5 60.64 446.32 63.04C448.15 60.64 451.03 59.09 454.28 59.09H455.28C458.53 59.09 461.42 60.64 463.24 63.04C465.07 60.64 467.96 59.09 471.2 59.09H472.2C475.45 59.09 478.34 60.64 480.16 63.04C481.99 60.64 484.87 59.09 488.12 59.09H489.12C492.37 59.09 495.26 60.64 497.08 63.04C498.91 60.64 501.79 59.09 505.04 59.09H506.04C509.29 59.09 512.18 60.64 514 63.04C515.83 60.64 518.71 59.09 521.96 59.09H522.96C526.21 59.09 529.1 60.64 530.92 63.04C532.75 60.64 535.63 59.09 538.88 59.09H539.88C543.13 59.09 546.02 60.64 547.84 63.04C549.67 60.64 552.55 59.09 555.8 59.09H556.8C560.05 59.09 562.94 60.64 564.76 63.04C566.59 60.64 569.47 59.09 572.72 59.09H573.71C576.96 59.09 579.85 60.64 581.67 63.04C583.5 60.64 586.38 59.09 589.63 59.09H590.62C593.87 59.09 596.76 60.64 598.58 63.04C600.41 60.64 603.29 59.09 606.54 59.09H607.53C610.78 59.09 613.67 60.64 615.49 63.04C617.32 60.64 620.2 59.09 623.45 59.09H624.44C627.69 59.09 630.58 60.64 632.4 63.04C634.23 60.64 637.11 59.09 640.36 59.09H641.35C644.6 59.09 647.49 60.64 649.31 63.04C651.14 60.64 654.02 59.09 657.27 59.09H658.26C661.51 59.09 664.4 60.64 666.22 63.04C668.05 60.64 670.93 59.09 674.18 59.09H675.18C678.43 59.09 681.32 60.64 683.14 63.04C684.97 60.64 687.85 59.09 691.1 59.09H692.1C695.35 59.09 698.24 60.64 700.06 63.04C701.89 60.64 704.78 59.09 708.02 59.09H709.02C712.27 59.09 715.16 60.64 716.98 63.04C718.81 60.64 721.69 59.09 724.94 59.09H735.44V69.58C735.44 72.79 733.93 75.65 731.57 77.48C733.92 79.31 735.44 82.17 735.44 85.38V86.37C735.44 89.58 733.93 92.44 731.57 94.27C733.92 96.1 735.44 98.96 735.44 102.17V103.16C735.44 106.37 733.93 109.23 731.57 111.06C733.92 112.89 735.44 115.75 735.44 118.96V119.95C735.44 123.16 733.93 126.02 731.57 127.85C733.92 129.68 735.44 132.54 735.44 135.75V136.74C735.44 139.95 733.93 142.81 731.57 144.64C733.92 146.47 735.44 149.33 735.44 152.54V153.53C735.44 156.74 733.93 159.6 731.57 161.43C733.92 163.26 735.44 166.12 735.44 169.33V170.32C735.44 173.53 733.93 176.39 731.57 178.22C733.92 180.05 735.44 182.91 735.44 186.12V187.11C735.44 190.32 733.93 193.18 731.57 195.01C733.92 196.84 735.44 199.7 735.44 202.91V203.9C735.44 207.11 733.93 209.97 731.57 211.8C733.92 213.63 735.44 216.49 735.44 219.7V220.69C735.44 223.9 733.93 226.76 731.57 228.59C733.92 230.42 735.44 233.28 735.44 236.49V237.48C735.44 240.69 733.93 243.55 731.57 245.38C733.92 247.21 735.44 250.07 735.44 253.28V254.27C735.44 257.48 733.93 260.34 731.57 262.17C733.92 264 735.44 266.86 735.44 270.07V271.06C735.44 274.27 733.93 277.13 731.57 278.96C733.92 280.79 735.44 283.65 735.44 286.86V287.85C735.44 291.06 733.93 293.92 731.57 295.75C733.92 297.58 735.44 300.44 735.44 303.65V304.64C735.44 307.85 733.93 310.71 731.57 312.54C733.92 314.37 735.44 317.23 735.44 320.44V321.43C735.44 324.64 733.93 327.5 731.57 329.33C733.92 331.16 735.44 334.02 735.44 337.23V338.22C735.44 341.43 733.93 344.29 731.57 346.12C733.92 347.95 735.44 350.81 735.44 354.02V355.01C735.44 358.22 733.93 361.08 731.57 362.91C733.92 364.74 735.44 367.6 735.44 370.81V371.8C735.44 375.01 733.93 377.87 731.57 379.7C733.92 381.53 735.44 384.39 735.44 387.6V388.59C735.44 391.8 733.93 394.66 731.57 396.49C733.92 398.32 735.44 401.18 735.44 404.39V405.38C735.44 408.59 733.93 411.45 731.57 413.28C733.92 415.11 735.44 417.97 735.44 421.18V422.17C735.44 425.38 733.93 428.24 731.57 430.07C733.92 431.9 735.44 434.76 735.44 437.97V438.96C735.44 442.17 733.93 445.03 731.57 446.86C733.92 448.69 735.44 451.55 735.44 454.76V455.75C735.44 458.96 733.93 461.82 731.57 463.65C733.92 465.48 735.44 468.34 735.44 471.55V472.54C735.44 475.75 733.93 478.61 731.57 480.44C733.92 482.27 735.44 485.13 735.44 488.34V489.33C735.44 492.54 733.93 495.4 731.57 497.23C733.92 499.06 735.44 501.92 735.44 505.13V506.12C735.44 509.33 733.93 512.19 731.57 514.02C733.92 515.85 735.44 518.71 735.44 521.92V522.91C735.44 526.12 733.93 528.98 731.57 530.81C733.92 532.64 735.44 535.5 735.44 538.71V549.2H724.94C721.69 549.2 718.8 547.65 716.98 545.25C715.15 547.65 712.27 549.2 709.02 549.2H708.03C704.78 549.2 701.89 547.65 700.07 545.25C698.24 547.65 695.36 549.2 692.11 549.2H691.11C687.86 549.2 684.97 547.65 683.15 545.25C681.32 547.65 678.44 549.2 675.19 549.2H674.19C670.94 549.2 668.05 547.65 666.23 545.25C664.4 547.65 661.51 549.2 658.27 549.2H657.27C654.02 549.2 651.13 547.65 649.31 545.25C647.48 547.65 644.6 549.2 641.35 549.2H640.35C637.1 549.2 634.21 547.65 632.39 545.25C630.56 547.65 627.68 549.2 624.43 549.2H623.43C620.18 549.2 617.29 547.65 615.47 545.25C613.64 547.65 610.76 549.2 607.51 549.2H606.52C603.27 549.2 600.38 547.65 598.56 545.25C596.73 547.65 593.85 549.2 590.6 549.2H589.61C586.36 549.2 583.47 547.65 581.65 545.25C579.82 547.65 576.94 549.2 573.69 549.2H572.7C569.45 549.2 566.56 547.65 564.74 545.25C562.91 547.65 560.03 549.2 556.78 549.2H555.78C552.53 549.2 549.64 547.65 547.82 545.25C545.99 547.65 543.11 549.2 539.86 549.2H538.87C535.62 549.2 532.73 547.65 530.91 545.25C529.08 547.65 526.2 549.2 522.95 549.2H521.95C518.7 549.2 515.81 547.65 513.99 545.25C512.16 547.65 509.28 549.2 506.03 549.2H505.03C501.78 549.2 498.89 547.65 497.07 545.25C495.24 547.65 492.36 549.2 489.11 549.2H488.11C484.86 549.2 481.97 547.65 480.15 545.25C478.32 547.65 475.44 549.2 472.19 549.2H471.19C467.94 549.2 465.05 547.65 463.23 545.25C461.4 547.65 458.52 549.2 455.27 549.2H454.27C451.02 549.2 448.13 547.65 446.31 545.25C444.48 547.65 441.6 549.2 438.35 549.2H437.36C434.11 549.2 431.22 547.65 429.4 545.25C427.57 547.65 424.69 549.2 421.44 549.2H420.45C417.2 549.2 414.31 547.65 412.49 545.25C410.66 547.65 407.78 549.2 404.53 549.2H403.53C400.28 549.2 397.39 547.65 395.57 545.25C393.74 547.65 390.86 549.2 387.61 549.2H386.61C383.36 549.2 380.47 547.65 378.65 545.25C376.82 547.65 373.94 549.2 370.69 549.2H369.7C366.45 549.2 363.56 547.65 361.74 545.25C359.91 547.65 357.03 549.2 353.78 549.2H352.79C349.54 549.2 346.65 547.65 344.83 545.25C343 547.65 340.12 549.2 336.87 549.2H335.87C332.62 549.2 329.73 547.65 327.91 545.25C326.08 547.65 323.19 549.2 319.95 549.2H318.95C315.7 549.2 312.81 547.65 310.99 545.25C309.16 547.65 306.28 549.2 303.03 549.2H302.03C298.78 549.2 295.89 547.65 294.07 545.25C292.24 547.65 289.36 549.2 286.11 549.2H285.11C281.86 549.2 278.97 547.65 277.15 545.25C275.32 547.65 272.44 549.2 269.19 549.2H268.19C264.94 549.2 262.05 547.65 260.23 545.25C258.4 547.65 255.52 549.2 252.27 549.2H251.27C248.02 549.2 245.13 547.65 243.31 545.25C241.48 547.65 238.6 549.2 235.35 549.2H234.36C231.11 549.2 228.22 547.65 226.4 545.25C224.57 547.65 221.69 549.2 218.44 549.2H217.45C214.2 549.2 211.31 547.65 209.49 545.25C207.66 547.65 204.78 549.2 201.53 549.2H200.53C197.28 549.2 194.39 547.65 192.57 545.25C190.74 547.65 187.86 549.2 184.61 549.2H183.62C180.37 549.2 177.48 547.65 175.66 545.25C173.83 547.65 170.95 549.2 167.7 549.2H166.71C163.46 549.2 160.57 547.65 158.75 545.25C156.92 547.65 154.04 549.2 150.79 549.2H149.79C146.54 549.2 143.65 547.65 141.83 545.25C140 547.65 137.12 549.2 133.87 549.2H132.88C129.63 549.2 126.74 547.65 124.92 545.25C123.09 547.65 120.21 549.2 116.96 549.2H115.96C112.71 549.2 109.82 547.65 108 545.25C106.17 547.65 103.29 549.2 100.04 549.2H99.04C95.79 549.2 92.9 547.65 91.08 545.25C89.25 547.65 86.3699 549.2 83.1199 549.2H82.1199C78.8699 549.2 75.98 547.65 74.16 545.25C72.33 547.65 69.45 549.2 66.2 549.2H55.7V538.71C55.7 535.5 57.21 532.64 59.57 530.81C57.22 528.98 55.7 526.12 55.7 522.91V521.92C55.7 518.71 57.21 515.85 59.57 514.02C57.22 512.19 55.7 509.33 55.7 506.12V505.13C55.7 501.92 57.21 499.06 59.57 497.23C57.22 495.4 55.7 492.54 55.7 489.33V488.34C55.7 485.13 57.21 482.27 59.57 480.44C57.22 478.61 55.7 475.75 55.7 472.54V471.55C55.7 468.34 57.21 465.48 59.57 463.65C57.22 461.82 55.7 458.96 55.7 455.75V454.76C55.7 451.55 57.21 448.69 59.57 446.86C57.22 445.03 55.7 442.17 55.7 438.96V437.97C55.7 434.76 57.21 431.9 59.57 430.07C57.22 428.24 55.7 425.38 55.7 422.17V421.18C55.7 417.97 57.21 415.11 59.57 413.28C57.22 411.45 55.7 408.59 55.7 405.38V404.39C55.7 401.18 57.21 398.32 59.57 396.49C57.22 394.66 55.7 391.8 55.7 388.59V387.6C55.7 384.39 57.21 381.53 59.57 379.7C57.22 377.87 55.7 375.01 55.7 371.8V370.81C55.7 367.6 57.21 364.74 59.57 362.91C57.22 361.08 55.7 358.22 55.7 355.01V354.02C55.7 350.81 57.21 347.95 59.57 346.12C57.22 344.29 55.7 341.43 55.7 338.22V337.23C55.7 334.02 57.21 331.16 59.57 329.33C57.22 327.5 55.7 324.64 55.7 321.43V320.44C55.7 317.23 57.21 314.37 59.57 312.54C57.22 310.71 55.7 307.85 55.7 304.64V303.65C55.7 300.44 57.21 297.58 59.57 295.75C57.22 293.92 55.7 291.06 55.7 287.85V286.86C55.7 283.65 57.21 280.79 59.57 278.96C57.22 277.13 55.7 274.27 55.7 271.06V270.07C55.7 266.86 57.21 264 59.57 262.17C57.22 260.34 55.7 257.48 55.7 254.27V253.28C55.7 250.07 57.21 247.21 59.57 245.38C57.22 243.55 55.7 240.69 55.7 237.48V236.49C55.7 233.28 57.21 230.42 59.57 228.59C57.22 226.76 55.7 223.9 55.7 220.69V219.7C55.7 216.49 57.21 213.63 59.57 211.8C57.22 209.97 55.7 207.11 55.7 203.9V202.91C55.7 199.7 57.21 196.84 59.57 195.01C57.22 193.18 55.7 190.32 55.7 187.11V186.12C55.7 182.91 57.21 180.05 59.57 178.22C57.22 176.39 55.7 173.53 55.7 170.32V169.33C55.7 166.12 57.21 163.26 59.57 161.43C57.22 159.6 55.7 156.74 55.7 153.53V152.54C55.7 149.33 57.21 146.47 59.57 144.64C57.22 142.81 55.7 139.95 55.7 136.74V135.75C55.7 132.54 57.21 129.68 59.57 127.85C57.22 126.02 55.7 123.16 55.7 119.95V118.96C55.7 115.75 57.21 112.89 59.57 111.06C57.22 109.23 55.7 106.37 55.7 103.16V102.17C55.7 98.96 57.21 96.1 59.57 94.27Z" fill="#40BEAD"/>
<path d="M435.7 516.09H356.7C346.759 516.09 338.7 524.149 338.7 534.09V551.09C338.7 561.031 346.759 569.09 356.7 569.09H435.7C445.641 569.09 453.7 561.031 453.7 551.09V534.09C453.7 524.149 445.641 516.09 435.7 516.09Z" fill="white" stroke="#40BEAD" stroke-width="10"/>
<path d="M133.7 521.59H317.7" stroke="#C9C9C9"/>
<path d="M474.7 521.59H658.7" stroke="#C9C9C9"/>
<path fill-rule="evenodd" clip-rule="evenodd" d="M84.41 53.51C83.66 52.25 82.18 51.56 80.71 51.85L67.89 54.63L60.99 43.18C60.22 41.91 58.73 41.27 57.28 41.59C55.82 41.91 54.74 43.11 54.57 44.58L53.02 57.86L40.18 60.64C38.74 60.97 37.67 62.23 37.51 63.68C37.34 65.14 38.12 66.56 39.46 67.21L51.47 72.95L50.38 85.9C50.26 87.38 51.09 88.76 52.42 89.35C53.76 89.96 55.35 89.65 56.36 88.58L65.39 79.08L77.54 83.98C78.21 84.25 78.92 84.3 79.59 84.16C80.3 84.01 80.96 83.63 81.46 83.06C82.44 81.96 82.6 80.35 81.88 79.07L75.53 67.74L84.09 57.54C85.03 56.41 85.15 54.8 84.4 53.53L84.41 53.51Z" fill="#40BEAD" stroke="#BDE6FA" stroke-width="11"/>
<path fill-rule="evenodd" clip-rule="evenodd" d="M84.41 533.51C83.66 532.25 82.18 531.56 80.71 531.85L67.89 534.63L60.99 523.18C60.22 521.91 58.73 521.27 57.28 521.58C55.82 521.9 54.74 523.1 54.57 524.57L53.02 537.85L40.18 540.63C38.74 540.96 37.67 542.22 37.51 543.67C37.34 545.13 38.12 546.55 39.46 547.2L51.47 552.94L50.38 565.89C50.26 567.37 51.09 568.75 52.42 569.34C53.76 569.95 55.35 569.64 56.36 568.57L65.39 559.08L77.54 563.98C78.21 564.25 78.92 564.3 79.59 564.16C80.3 564.01 80.96 563.63 81.46 563.06C82.44 561.96 82.6 560.35 81.88 559.07L75.53 547.74L84.09 537.54C85.03 536.41 85.15 534.8 84.4 533.53L84.41 533.51Z" fill="#40BEAD" stroke="#BDE6FA" stroke-width="11"/>
<path fill-rule="evenodd" clip-rule="evenodd" d="M707.96 53.51C708.71 52.25 710.19 51.56 711.66 51.85L724.48 54.63L731.38 43.18C732.15 41.91 733.64 41.27 735.09 41.59C736.54 41.91 737.63 43.11 737.8 44.58L739.35 57.86L752.19 60.64C753.63 60.97 754.7 62.23 754.86 63.68C755.03 65.14 754.25 66.56 752.91 67.21L740.9 72.95L741.99 85.9C742.11 87.38 741.28 88.76 739.95 89.34C738.61 89.95 737.02 89.64 736.01 88.57L726.98 79.07L714.83 83.97C714.16 84.24 713.45 84.29 712.79 84.15C712.08 84 711.42 83.62 710.92 83.05C709.94 81.95 709.78 80.34 710.5 79.06L716.85 67.73L708.28 57.53C707.34 56.4 707.21 54.79 707.97 53.52L707.96 53.51Z" fill="#40BEAD" stroke="#BDE6FA" stroke-width="11"/>
<path fill-rule="evenodd" clip-rule="evenodd" d="M707.96 535.51C708.71 534.25 710.19 533.56 711.66 533.85L724.48 536.63L731.38 525.18C732.15 523.91 733.64 523.27 735.09 523.58C736.54 523.9 737.63 525.1 737.8 526.57L739.35 539.85L752.19 542.63C753.63 542.96 754.7 544.22 754.86 545.67C755.03 547.13 754.25 548.55 752.91 549.2L740.9 554.94L741.99 567.89C742.11 569.37 741.28 570.75 739.95 571.34C738.61 571.95 737.02 571.64 736.01 570.57L726.98 561.08L714.83 565.98C714.16 566.25 713.45 566.3 712.78 566.16C712.07 566.01 711.41 565.63 710.91 565.06C709.93 563.96 709.77 562.35 710.49 561.07L716.84 549.74L708.27 539.54C707.33 538.41 707.2 536.8 707.96 535.53V535.51Z" fill="#40BEAD" stroke="#BDE6FA" stroke-width="11"/>
<path d="M133.63 155.46C136.93 155.46 139.61 158.14 139.61 161.44C139.61 164.74 136.93 167.42 133.63 167.42C130.33 167.42 127.65 164.74 127.65 161.44C127.65 158.14 130.33 155.46 133.63 155.46ZM164.39 155.46C167.69 155.46 170.37 158.14 170.37 161.44C170.37 164.74 167.69 167.42 164.39 167.42C161.09 167.42 158.41 164.74 158.41 161.44C158.41 158.14 161.09 155.46 164.39 155.46ZM195.15 155.46C198.45 155.46 201.13 158.14 201.13 161.44C201.13 164.74 198.45 167.42 195.15 167.42C191.85 167.42 189.17 164.74 189.17 161.44C189.17 158.14 191.85 155.46 195.15 155.46ZM225.91 155.46C229.21 155.46 231.89 158.14 231.89 161.44C231.89 164.74 229.21 167.42 225.91 167.42C222.61 167.42 219.93 164.74 219.93 161.44C219.93 158.14 222.61 155.46 225.91 155.46ZM256.67 155.46C259.97 155.46 262.65 158.14 262.65 161.44C262.65 164.74 259.97 167.42 256.67 167.42C253.37 167.42 250.69 164.74 250.69 161.44C250.69 158.14 253.37 155.46 256.67 155.46ZM287.43 155.46C290.73 155.46 293.41 158.14 293.41 161.44C293.41 164.74 290.73 167.42 287.43 167.42C284.13 167.42 281.45 164.74 281.45 161.44C281.45 158.14 284.13 155.46 287.43 155.46ZM318.19 155.46C321.49 155.46 324.17 158.14 324.17 161.44C324.17 164.74 321.49 167.42 318.19 167.42C314.89 167.42 312.21 164.74 312.21 161.44C312.21 158.14 314.89 155.46 318.19 155.46ZM348.95 155.46C352.25 155.46 354.93 158.14 354.93 161.44C354.93 164.74 352.25 167.42 348.95 167.42C345.65 167.42 342.97 164.74 342.97 161.44C342.97 158.14 345.65 155.46 348.95 155.46ZM379.71 155.46C383.01 155.46 385.69 158.14 385.69 161.44C385.69 164.74 383.01 167.42 379.71 167.42C376.41 167.42 373.73 164.74 373.73 161.44C373.73 158.14 376.41 155.46 379.71 155.46ZM410.47 155.46C413.77 155.46 416.45 158.14 416.45 161.44C416.45 164.74 413.77 167.42 410.47 167.42C407.17 167.42 404.49 164.74 404.49 161.44C404.49 158.14 407.17 155.46 410.47 155.46ZM441.23 155.46C444.53 155.46 447.21 158.14 447.21 161.44C447.21 164.74 444.53 167.42 441.23 167.42C437.93 167.42 435.25 164.74 435.25 161.44C435.25 158.14 437.93 155.46 441.23 155.46ZM471.99 155.46C475.29 155.46 477.97 158.14 477.97 161.44C477.97 164.74 475.29 167.42 471.99 167.42C468.69 167.42 466.01 164.74 466.01 161.44C466.01 158.14 468.69 155.46 471.99 155.46ZM502.75 155.46C506.05 155.46 508.73 158.14 508.73 161.44C508.73 164.74 506.05 167.42 502.75 167.42C499.45 167.42 496.77 164.74 496.77 161.44C496.77 158.14 499.45 155.46 502.75 155.46ZM533.51 155.46C536.81 155.46 539.49 158.14 539.49 161.44C539.49 164.74 536.81 167.42 533.51 167.42C530.21 167.42 527.53 164.74 527.53 161.44C527.53 158.14 530.21 155.46 533.51 155.46ZM564.27 155.46C567.57 155.46 570.25 158.14 570.25 161.44C570.25 164.74 567.57 167.42 564.27 167.42C560.97 167.42 558.29 164.74 558.29 161.44C558.29 158.14 560.97 155.46 564.27 155.46ZM595.03 155.46C598.33 155.46 601.01 158.14 601.01 161.44C601.01 164.74 598.33 167.42 595.03 167.42C591.73 167.42 589.05 164.74 589.05 161.44C589.05 158.14 591.73 155.46 595.03 155.46ZM625.79 155.46C629.09 155.46 631.77 158.14 631.77 161.44C631.77 164.74 629.09 167.42 625.79 167.42C622.49 167.42 619.81 164.74 619.81 161.44C619.81 158.14 622.49 155.46 625.79 155.46ZM656.55 155.46C659.85 155.46 662.53 158.14 662.53 161.44C662.53 164.74 659.85 167.42 656.55 167.42C653.25 167.42 650.57 164.74 650.57 161.44C650.57 158.14 653.25 155.46 656.55 155.46ZM133.63 256.46C136.93 256.46 139.61 259.14 139.61 262.44C139.61 265.74 136.93 268.42 133.63 268.42C130.33 268.42 127.65 265.74 127.65 262.44C127.65 259.14 130.33 256.46 133.63 256.46ZM164.39 256.46C167.69 256.46 170.37 259.14 170.37 262.44C170.37 265.74 167.69 268.42 164.39 268.42C161.09 268.42 158.41 265.74 158.41 262.44C158.41 259.14 161.09 256.46 164.39 256.46ZM195.15 256.46C198.45 256.46 201.13 259.14 201.13 262.44C201.13 265.74 198.45 268.42 195.15 268.42C191.85 268.42 189.17 265.74 189.17 262.44C189.17 259.14 191.85 256.46 195.15 256.46ZM225.91 256.46C229.21 256.46 231.89 259.14 231.89 262.44C231.89 265.74 229.21 268.42 225.91 268.42C222.61 268.42 219.93 265.74 219.93 262.44C219.93 259.14 222.61 256.46 225.91 256.46ZM256.67 256.46C259.97 256.46 262.65 259.14 262.65 262.44C262.65 265.74 259.97 268.42 256.67 268.42C253.37 268.42 250.69 265.74 250.69 262.44C250.69 259.14 253.37 256.46 256.67 256.46ZM287.43 256.46C290.73 256.46 293.41 259.14 293.41 262.44C293.41 265.74 290.73 268.42 287.43 268.42C284.13 268.42 281.45 265.74 281.45 262.44C281.45 259.14 284.13 256.46 287.43 256.46ZM318.19 256.46C321.49 256.46 324.17 259.14 324.17 262.44C324.17 265.74 321.49 268.42 318.19 268.42C314.89 268.42 312.21 265.74 312.21 262.44C312.21 259.14 314.89 256.46 318.19 256.46ZM471.98 256.46C475.28 256.46 477.96 259.14 477.96 262.44C477.96 265.74 475.28 268.42 471.98 268.42C468.68 268.42 466 265.74 466 262.44C466 259.14 468.68 256.46 471.98 256.46ZM502.74 256.46C506.04 256.46 508.72 259.14 508.72 262.44C508.72 265.74 506.04 268.42 502.74 268.42C499.44 268.42 496.76 265.74 496.76 262.44C496.76 259.14 499.44 256.46 502.74 256.46ZM533.5 256.46C536.8 256.46 539.48 259.14 539.48 262.44C539.48 265.74 536.8 268.42 533.5 268.42C530.2 268.42 527.52 265.74 527.52 262.44C527.52 259.14 530.2 256.46 533.5 256.46ZM564.26 256.46C567.56 256.46 570.24 259.14 570.24 262.44C570.24 265.74 567.56 268.42 564.26 268.42C560.96 268.42 558.28 265.74 558.28 262.44C558.28 259.14 560.96 256.46 564.26 256.46ZM595.02 256.46C598.32 256.46 601 259.14 601 262.44C601 265.74 598.32 268.42 595.02 268.42C591.72 268.42 589.04 265.74 589.04 262.44C589.04 259.14 591.72 256.46 595.02 256.46ZM625.78 256.46C629.08 256.46 631.76 259.14 631.76 262.44C631.76 265.74 629.08 268.42 625.78 268.42C622.48 268.42 619.8 265.74 619.8 262.44C619.8 259.14 622.48 256.46 625.78 256.46ZM656.54 256.46C659.84 256.46 662.52 259.14 662.52 262.44C662.52 265.74 659.84 268.42 656.54 268.42C653.24 268.42 650.56 265.74 650.56 262.44C650.56 259.14 653.24 256.46 656.54 256.46Z" fill="#BDE6FA"/>
<path d="M336 305C336 269.1 365.1 240 401 240C436.9 240 466 269.1 466 305C466 340.9 436.9 370 401 370C365.1 370 336 340.9 336 305Z" fill="#40BEAD"/>
<path d="M331.35 286.01C344.367 286.01 354.92 275.457 354.92 262.44C354.92 249.423 344.367 238.87 331.35 238.87C318.333 238.87 307.78 249.423 307.78 262.44C307.78 275.457 318.333 286.01 331.35 286.01Z" fill="#F15C5C" stroke="white" stroke-width="3"/>
<path d="M481.92 402.13C479.41 402.13 475.69 401.88 473.47 401.34C472.37 401.07 471.9 400.45 471.69 399.97C471.24 398.92 471.77 397.98 471.98 397.62C472.43 396.84 473.51 395.84 475.24 394.29C476.15 393.48 477.51 392.25 477.77 391.85C477.83 391.72 477.89 391.28 477.88 390.74C477.57 390.42 477.25 390.11 476.94 389.79C475.92 388.76 474.87 387.7 473.86 386.62C469.97 382.42 467.24 377.21 466.18 371.95C462.9 355.7 471.56 342.82 472.85 341.68C475.21 339.57 479.76 339.13 483.15 339.13C488.24 339.13 493.73 340.1 496.2 341.43L496.18 341.47C498.14 342.51 501.48 346.55 503.39 349.46C506.45 354.13 510.2 361.91 510.72 372.47C510.99 377.93 508.3 382.84 505.37 387.33C504.76 388.27 504.06 389.11 503.38 389.92C503.28 390.04 503.17 390.17 503.07 390.3C503.11 390.4 503.15 390.5 503.2 390.61C503.4 390.99 504.59 392.43 505.46 393.47C508.85 397.54 509.8 398.78 509.04 400.21C508.63 400.99 508.16 401.88 499.41 401.88C495.08 401.88 494.58 401.55 494.19 401.28C492.65 400.25 493.42 398.51 494.39 396.31C494.99 394.96 495.73 393.28 496.05 391.81C496.12 391.51 496.13 391.3 496.13 391.17C495.01 390.18 494.2 389.04 493.42 387.93C493.25 387.68 493.08 387.44 492.9 387.2C491.87 385.78 490.68 384.96 489.63 384.96C488.46 384.96 487.66 385.99 487.19 386.85L485.1 390.73C485.09 391.13 485.11 391.51 485.3 391.86C485.45 392.14 488.96 398.86 487.27 400.97C486.78 401.58 486 402.13 481.92 402.13Z" fill="#373636"/>
<path d="M483.16 340.87C488.03 340.87 493.25 341.81 495.37 342.96C495.68 342.96 508.01 352.97 508.97 372.55C509.21 377.47 506.72 382.05 503.9 386.37C503.08 387.62 502.07 388.72 501.14 389.89C501.22 390.36 501.38 390.84 501.6 391.31C502.18 392.61 507.91 398.61 507.5 399.38C507.25 399.86 502.89 400.12 499.42 400.12C497.28 400.12 495.48 400.02 495.17 399.82C494.55 399.4 497.03 395.53 497.76 392.18C497.92 391.46 498 390.51 497.53 390.04C497.53 390.04 497.5 390.04 497.49 390.04C496.17 388.95 495.3 387.53 494.32 386.19C492.89 384.22 491.21 383.23 489.64 383.23C488.07 383.23 486.68 384.16 485.66 386.03C484.92 387.4 484.18 388.77 483.44 390.15C483.42 390.15 483.4 390.15 483.39 390.15C483.35 390.83 483.26 391.75 483.76 392.7C485.32 395.66 486.38 399.31 485.91 399.89C485.63 400.24 483.98 400.4 481.93 400.4C479.22 400.4 475.8 400.12 473.9 399.66C473.05 399.45 473.23 399 473.51 398.5C474.16 397.36 478.63 393.9 479.29 392.76C479.65 392.13 479.7 390.88 479.6 389.98C479.6 389.98 479.59 389.98 479.58 389.98C478.1 388.47 476.59 387 475.15 385.45C471.43 381.44 468.9 376.56 467.9 371.62C464.83 356.41 472.85 344.04 474.02 343C475.73 341.47 479.33 340.89 483.16 340.89M483.16 337.39C477.78 337.39 473.92 338.4 471.69 340.39C470.25 341.68 460.98 355.02 464.47 372.32C465.6 377.9 468.48 383.41 472.58 387.84C473.61 388.95 474.67 390.02 475.7 391.05C475.78 391.13 475.86 391.21 475.94 391.29C475.43 391.79 474.61 392.53 474.07 393.02C472.15 394.74 471.04 395.77 470.46 396.79C469.68 398.15 469.56 399.47 470.09 400.7C470.39 401.39 471.17 402.62 473.06 403.08C475.43 403.66 479.22 403.92 481.92 403.92C485.84 403.92 487.54 403.46 488.63 402.11C490.73 399.5 488.45 394.16 486.88 391.16L487.09 390.77C487.64 389.76 488.18 388.74 488.73 387.73C489.11 387.02 489.49 386.76 489.63 386.76C489.84 386.76 490.58 387.03 491.48 388.28C491.65 388.52 491.82 388.75 491.99 388.99C492.63 389.9 493.34 390.9 494.25 391.84C493.93 393.06 493.3 394.49 492.79 395.65C491.81 397.88 490.46 400.94 493.22 402.78C494.03 403.32 494.89 403.67 499.41 403.67C501.33 403.67 503.35 403.6 504.94 403.47C507.19 403.29 509.51 403.11 510.59 401.07C511.93 398.54 510.32 396.61 506.8 392.39C506.32 391.81 505.68 391.05 505.23 390.47C505.77 389.81 506.32 389.11 506.83 388.33C509.93 383.59 512.76 378.38 512.47 372.42C511.93 361.47 508.03 353.38 504.86 348.53C503 345.69 501.19 343.64 500 342.42C498.39 340.77 497.43 340.05 496.68 339.73C493.4 338.13 487.45 337.4 483.16 337.4V337.39Z" fill="#010101"/>
<path d="M484.68 390.47C483.4 390.41 482.12 390.36 480.84 390.3Z" fill="#373636"/>
<path d="M502.41 390.24C501.2 390.46 499.98 390.67 498.75 390.36Z" fill="#373636"/>
<path d="M508.88 353.6C508.98 353.74 509.08 353.88 509.18 354.02Z" fill="#373636"/>
<path d="M509.17 354.03C509.12 353.85 509.07 353.68 509.03 353.5L508.88 353.61" fill="#373636"/>
<path d="M502.3 343.3C502.56 343.26 502.85 343.28 503.08 343.17Z" fill="#373636"/>
<path d="M504.61 371.6C506.06 367.72 506.38 363.7 505.86 359.63Z" fill="#373636"/>
<path d="M491.76 380.58C497.67 380.55 502.51 377.19 504.6 371.6Z" fill="#373636"/>
<path d="M478.71 371.62C480.88 377.29 485.7 380.61 491.76 380.58Z" fill="#373636"/>
<path d="M478.23 354.74C477.02 360.39 476.58 366.05 478.71 371.62Z" fill="#373636"/>
<path d="M480.95 343.32C480.04 347.13 479.05 350.92 478.24 354.74Z" fill="#373636"/>
<path d="M468.32 349.43C467.89 349.42 457.76 349.12 451.36 347.51C445.14 345.94 440.6 342.23 436.98 338.8C436.38 338.23 435.48 337.38 435.81 336.12C436.15 334.83 437.52 334.49 438.03 334.37C438.89 334.16 439.75 333.9 440.65 333.62C442.78 332.97 444.98 332.3 447.36 332.3C448.39 332.3 449.36 332.42 450.32 332.68C457.52 334.56 463.84 338.54 469.11 344.5C469.92 345.41 470.24 346.52 470.09 347.88L469.92 349.49L468.3 349.45L468.32 349.43Z" fill="#373636"/>
<path d="M447.37 334.05C448.2 334.05 449.03 334.14 449.89 334.37C457.05 336.24 462.94 340.15 467.81 345.66C468.33 346.25 468.45 346.9 468.36 347.69C468.36 347.69 458.06 347.4 451.78 345.82C446.35 344.45 442.12 341.27 438.18 337.53C437.41 336.8 437.03 336.41 438.44 336.07C441.41 335.35 444.29 334.05 447.36 334.05M447.36 330.55C444.71 330.55 442.28 331.29 440.13 331.95C439.25 332.22 438.42 332.47 437.61 332.67C435.7 333.14 434.52 334.15 434.11 335.67C433.51 337.93 435.09 339.43 435.76 340.07C439.32 343.45 444.26 347.54 450.91 349.21C457.49 350.86 467.81 351.17 468.24 351.18L471.47 351.27L471.82 348.06C472.02 346.21 471.54 344.62 470.41 343.34C464.91 337.11 458.29 332.96 450.75 330.98C449.65 330.69 448.51 330.55 447.34 330.55H447.36Z" fill="#010101"/>
<path d="M530.55 360.56C524.11 360.56 514.8 359.12 508 355.11C505.22 353.47 501.96 348.18 501.6 347.58L500.98 346.56L501.49 345.89C501.49 345.8 501.47 345.7 501.46 345.62C501.38 345.01 501.27 344.08 501.89 343.31C502.24 342.87 502.76 342.6 503.34 342.55C504.62 342.44 505.91 342.38 507.15 342.38C513.6 342.38 519.64 343.91 525.1 346.92C528.31 348.69 529.91 351.53 531.46 354.27C531.92 355.09 532.36 355.87 532.84 356.62C533.13 357.06 533.88 358.24 533.24 359.42C532.62 360.56 531.36 360.56 530.6 360.56H530.55Z" fill="#373636"/>
<path d="M507.14 344.14C513.13 344.14 518.86 345.49 524.25 348.46C527.91 350.48 529.27 354.31 531.37 357.57C532.14 358.77 531.63 358.81 530.6 358.81C530.58 358.81 530.57 358.81 530.55 358.81C525.12 358.81 515.84 357.7 508.88 353.6C506.4 352.14 503.09 346.67 503.09 346.67C503.57 346.04 502.7 344.36 503.48 344.29C504.71 344.18 505.93 344.13 507.14 344.13M507.14 340.63C505.84 340.63 504.51 340.69 503.17 340.81C502.11 340.9 501.17 341.4 500.52 342.21C499.62 343.32 499.6 344.57 499.67 345.39L498.86 346.45L500.1 348.49C500.99 349.95 504.11 354.85 507.11 356.62C516.06 361.89 527.31 362.31 530.55 362.31H530.6C531.44 362.31 533.66 362.31 534.78 360.26C535.54 358.88 535.38 357.33 534.31 355.68C533.86 354.98 533.43 354.22 532.98 353.42C531.39 350.6 529.58 347.4 525.94 345.39C520.22 342.24 513.89 340.64 507.14 340.64V340.63Z" fill="#010101"/>
<path d="M495.42 343.3C497.63 348.66 499.57 354.08 500.94 359.62C501.95 363.69 502.12 367.72 501.13 371.59C499.71 377.18 495.28 380.54 489.37 380.57C483.31 380.6 478.09 377.28 475.24 371.61C472.44 366.04 472.2 360.38 472.73 354.73C473.09 350.9 473.62 347.11 474.07 343.31C481.39 344.96 488.51 345.03 495.42 343.29V343.3Z" fill="#FDFEFF"/>
<path d="M479.27 389.5C480.53 390.24 482.4 390.07 483.67 389.69C483.17 390.7 483.41 391.59 483.89 392.68C485.23 395.71 486.78 399.23 486.1 399.81C485.15 400.63 476.82 400.48 473.78 399.66C473.01 399.45 472.86 398.73 473.32 398.24C474.39 397.09 477.98 393.84 479.05 392.7C479.75 391.95 479.78 390.38 479.26 389.49L479.27 389.5Z" fill="#F47621"/>
<path d="M497.21 389.79C498.44 390.1 500.57 390.01 501.58 389.37C501.53 390.01 501.39 390.67 501.6 391.32C502.03 392.62 508 398.62 507.5 399.39C507 400.16 495.14 400.36 494.41 399.82C493.84 399.4 496.63 395.53 497.76 392.18C498.08 391.24 497.95 390.57 497.21 389.79Z" fill="#F47621"/>
<path d="M509.87 344.23C502.3 343.29 496.89 344.23 496.89 344.23C496.89 344.23 499.67 350.1 500.57 351.47C503.11 352.34 516.29 356.23 518.71 356.9C519.73 352.96 517.44 345.16 509.87 344.23Z" fill="#373636"/>
<path d="M455.28 346.52C455.28 346.52 470.69 349.14 472.03 349.03C473.92 346.93 471.85 342 471.85 342C471.85 342 453.56 335.22 450.91 334.65C446.73 337.99 455.28 346.52 455.28 346.52Z" fill="#373636"/>
<path d="M471.86 342C480.94 344.46 489.66 343.49 498.04 339.28C499.53 339.83 500.79 339 501.81 338.25C507.07 334.4 510.74 329.33 512.38 322.99C514.71 313.97 513.57 305.22 509.79 296.79C505.51 287.24 498.01 282.14 487.68 281.27C482.43 280.83 477.21 281.35 472.09 282.61C463.3 284.77 456.36 289.25 453.02 298.1C449.48 307.5 449.6 316.97 453.11 326.3C455.86 333.59 460.98 338.84 468.21 341.87C469.32 342.34 470.61 343.03 471.85 342H471.86Z" fill="#070606"/>
<path d="M481.39 345.98C473.86 345.98 466.54 343.8 461.29 340C454.64 335.18 450.72 327.55 449.62 317.3C448.74 309.07 448.57 299.64 453.93 292.11C458.79 285.28 468.72 279.82 478.09 278.82C479.25 278.7 480.45 278.63 481.65 278.63C490.72 278.63 499.91 282.14 505.63 287.8C510.62 292.74 513.47 299.91 514.58 310.36C515.58 319.72 513.7 328.04 509.3 333.8C504.33 340.3 495.55 344.66 485.23 345.76C483.97 345.89 482.68 345.96 481.38 345.96L481.39 345.98Z" fill="#373737"/>
<path d="M481.66 280.4C489.91 280.4 498.74 283.46 504.41 289.06C509.97 294.56 512.02 302.7 512.85 310.56C513.7 318.55 512.41 326.88 507.92 332.75C502.87 339.36 494.05 343.08 485.06 344.04C483.85 344.17 482.63 344.23 481.39 344.23C474.46 344.23 467.35 342.23 462.32 338.59C455.66 333.77 452.33 326.11 451.37 317.13C450.46 308.64 450.53 299.93 455.36 293.15C460.19 286.37 469.79 281.49 478.28 280.58C479.39 280.46 480.52 280.4 481.66 280.4ZM481.66 276.9C480.39 276.9 479.13 276.97 477.91 277.1C467.93 278.17 457.72 283.8 452.51 291.12C446.81 299.13 446.98 308.95 447.89 317.51C449.04 328.27 453.2 336.32 460.27 341.44C465.81 345.45 473.51 347.75 481.39 347.75C482.75 347.75 484.11 347.68 485.43 347.54C496.23 346.39 505.44 341.78 510.7 334.9C515.38 328.78 517.38 320.01 516.33 310.21C515.17 299.34 512.16 291.83 506.87 286.59C500.84 280.62 491.18 276.91 481.66 276.91V276.9Z" fill="#010101"/>
<path d="M488.42 342.83C469.48 346.12 456.52 330.06 455.03 323.18C453.47 315.98 455.39 308.11 461.21 301.76C463 299.81 465.09 298.87 467.77 299.17C470.66 299.49 473.33 300.38 475.87 301.77C480.21 304.16 483.84 303.77 487.6 300.5C489.53 298.82 491.67 297.53 494.02 296.56C497.06 295.31 499.79 295.76 502.44 297.72C508.28 302.05 511.62 308.02 512.37 314.27C513.27 321.7 507.36 339.54 488.42 342.83Z" fill="#FDFEFF"/>
<path d="M484.14 319.4C484.53 319.36 484.91 319.31 485.3 319.27C489.52 318.803 493.42 320.287 497 323.72C497.75 324.43 497.78 324.79 497.36 325.46C494.81 329.54 492.25 333.72 489.67 337.99C489.21 338.75 488.81 338.78 488.01 338.16C483.48 334.65 479.01 331.25 474.63 327.94C473.9 327.39 473.7 326.98 474.13 326.2C475.09 324.48 475.97 322.71 476.81 320.94C477.13 320.26 477.65 320.09 478.33 320.02C480.27 319.83 482.2 319.6 484.13 319.38L484.14 319.4Z" fill="#151211"/>
<path d="M495.1 324.49C494.97 324.35 494.82 324.18 494.66 324.03C492.52 321.95 490.46 320.05 487.52 320.98C485.85 321.51 483.95 321.66 482.11 321.59C479.14 321.47 477.59 322.97 476.62 325.62C476.25 326.63 476.42 327.05 477.28 327.68C480.56 330.11 483.86 332.61 487.19 335.19C488.04 335.85 488.49 335.88 489 335.03C490.92 331.82 492.88 328.72 494.78 325.62C494.97 325.31 495.32 325.05 495.1 324.49Z" fill="#F47621"/>
<path d="M503.31 313.08C503.5 314.99 504.75 316.49 506.11 316.42C507.52 316.35 508.62 314.48 508.39 312.54C508.16 310.64 506.84 309.19 505.47 309.34C504.08 309.49 503.13 311.13 503.32 313.08H503.31Z" fill="#010101"/>
<path d="M465.92 318.44C465.72 316.48 464.51 315.06 463.12 315.16C461.66 315.26 460.68 316.98 460.92 319.02C461.15 320.93 462.47 322.38 463.82 322.22C465.17 322.06 466.11 320.35 465.91 318.44H465.92Z" fill="#010101"/>
<path d="M354.43 451.99L353.75 450.19C353.75 450.19 353.71 450.1 353.67 450.07C353.63 450.04 353.59 450.01 353.55 449.99L351.75 449.32C351.68 449.3 351.63 449.25 351.59 449.19C351.55 449.13 351.53 449.06 351.53 448.99C351.53 448.92 351.55 448.85 351.59 448.79C351.63 448.73 351.69 448.69 351.75 448.66L353.54 447.99C353.54 447.99 353.63 447.95 353.66 447.91C353.7 447.87 353.72 447.83 353.74 447.79L354.41 445.99C354.43 445.92 354.48 445.87 354.54 445.83C354.6 445.79 354.67 445.77 354.74 445.77C354.81 445.77 354.88 445.79 354.94 445.83C355 445.87 355.04 445.93 355.07 445.99L355.74 447.79C355.74 447.79 355.78 447.88 355.82 447.91C355.86 447.94 355.9 447.97 355.94 447.99L357.74 448.66C357.81 448.68 357.86 448.73 357.9 448.79C357.94 448.85 357.96 448.92 357.96 448.99C357.96 449.06 357.94 449.13 357.9 449.19C357.86 449.25 357.8 449.29 357.74 449.32L355.94 449.99C355.94 449.99 355.85 450.04 355.82 450.07C355.78 450.11 355.76 450.15 355.74 450.19L355.07 451.99C355.05 452.05 355 452.11 354.94 452.15C354.88 452.19 354.82 452.21 354.74 452.21C354.66 452.21 354.6 452.19 354.55 452.15C354.49 452.11 354.45 452.05 354.42 451.99H354.43Z" fill="#FFD670"/>
<path d="M396.97 446.47L396.3 444.67C396.3 444.67 396.26 444.58 396.22 444.55C396.19 444.51 396.14 444.49 396.1 444.47L394.3 443.8C394.23 443.78 394.18 443.73 394.14 443.67C394.1 443.61 394.08 443.54 394.08 443.47C394.08 443.4 394.1 443.33 394.14 443.27C394.18 443.21 394.24 443.17 394.3 443.14L396.1 442.47C396.1 442.47 396.19 442.43 396.22 442.39C396.25 442.35 396.28 442.31 396.3 442.27L396.97 440.47C397 440.4 397.04 440.35 397.1 440.31C397.16 440.27 397.23 440.25 397.3 440.25C397.37 440.25 397.44 440.27 397.5 440.31C397.56 440.35 397.6 440.41 397.63 440.47L398.3 442.27C398.3 442.27 398.34 442.36 398.38 442.39C398.42 442.42 398.46 442.45 398.5 442.47L400.3 443.14C400.37 443.16 400.42 443.21 400.46 443.27C400.5 443.33 400.52 443.4 400.52 443.47C400.52 443.54 400.5 443.61 400.46 443.67C400.42 443.73 400.36 443.77 400.3 443.8L398.5 444.47C398.5 444.47 398.41 444.51 398.38 444.55C398.34 444.59 398.32 444.63 398.3 444.67L397.63 446.47C397.61 446.54 397.56 446.59 397.5 446.63C397.44 446.67 397.37 446.69 397.3 446.69C397.23 446.69 397.16 446.67 397.1 446.63C397.04 446.59 397 446.53 396.97 446.47Z" fill="#E7B521"/>
<path d="M339.15 454.26L337.61 450.13C337.57 450.02 337.51 449.93 337.43 449.84C337.35 449.76 337.25 449.7 337.14 449.66L333.01 448.12C332.86 448.06 332.73 447.96 332.63 447.83C332.54 447.7 332.49 447.54 332.49 447.38C332.49 447.22 332.54 447.06 332.63 446.93C332.72 446.8 332.86 446.7 333.01 446.64L337.14 445.11C337.25 445.07 337.34 445.01 337.42 444.93C337.5 444.85 337.56 444.75 337.6 444.65L339.14 440.51C339.2 440.36 339.3 440.23 339.43 440.14C339.56 440.05 339.72 440 339.88 440C340.04 440 340.2 440.05 340.33 440.14C340.46 440.23 340.57 440.36 340.62 440.51L342.16 444.64C342.2 444.75 342.26 444.84 342.34 444.93C342.42 445.01 342.52 445.07 342.63 445.11L346.76 446.65C346.91 446.71 347.04 446.81 347.14 446.94C347.23 447.07 347.28 447.23 347.28 447.39C347.28 447.55 347.23 447.71 347.14 447.84C347.05 447.97 346.91 448.07 346.76 448.13L342.63 449.67C342.52 449.71 342.43 449.77 342.34 449.85C342.26 449.93 342.2 450.03 342.16 450.14L340.62 454.27C340.56 454.42 340.46 454.55 340.33 454.65C340.2 454.74 340.04 454.79 339.88 454.79C339.72 454.79 339.56 454.74 339.43 454.64C339.3 454.55 339.2 454.42 339.14 454.26H339.15Z" fill="#E7B521"/>
<path d="M448.03 454.14L446.49 450.01C446.45 449.9 446.39 449.81 446.31 449.72C446.23 449.64 446.13 449.58 446.02 449.54L441.89 448C441.74 447.94 441.61 447.84 441.52 447.71C441.43 447.58 441.38 447.42 441.38 447.26C441.38 447.1 441.43 446.94 441.52 446.81C441.61 446.68 441.74 446.58 441.89 446.52L446.02 444.98C446.13 444.94 446.23 444.88 446.31 444.8C446.39 444.72 446.45 444.62 446.49 444.51L448.03 440.37C448.09 440.22 448.19 440.09 448.32 439.99C448.45 439.9 448.61 439.85 448.77 439.85C448.93 439.85 449.09 439.9 449.22 439.99C449.35 440.08 449.45 440.21 449.51 440.37L451.06 444.51C451.1 444.62 451.16 444.71 451.24 444.8C451.32 444.88 451.42 444.94 451.52 444.98L455.65 446.52C455.8 446.58 455.93 446.68 456.03 446.81C456.12 446.94 456.17 447.1 456.17 447.26C456.17 447.42 456.12 447.58 456.03 447.71C455.94 447.84 455.81 447.94 455.65 448L451.52 449.54C451.41 449.58 451.32 449.64 451.23 449.72C451.15 449.8 451.09 449.9 451.05 450.01L449.51 454.14C449.45 454.29 449.35 454.43 449.22 454.52C449.09 454.62 448.93 454.66 448.76 454.66C448.59 454.66 448.44 454.61 448.3 454.52C448.17 454.43 448.06 454.29 448.01 454.14H448.03Z" fill="#FFD670"/>
<path d="M673.59 422.38L671.79 423.05C671.79 423.05 671.7 423.09 671.67 423.13C671.64 423.17 671.61 423.21 671.59 423.25L670.92 425.05C670.9 425.12 670.85 425.17 670.79 425.21C670.73 425.25 670.66 425.27 670.59 425.27C670.52 425.27 670.45 425.25 670.39 425.21C670.33 425.17 670.29 425.11 670.26 425.05L669.59 423.25C669.59 423.25 669.55 423.16 669.51 423.13C669.48 423.1 669.43 423.07 669.39 423.05L667.59 422.38C667.52 422.36 667.47 422.31 667.43 422.25C667.39 422.19 667.37 422.12 667.37 422.05C667.37 421.98 667.39 421.91 667.43 421.85C667.47 421.79 667.53 421.75 667.59 421.72L669.39 421.05C669.39 421.05 669.48 421.01 669.51 420.97C669.55 420.93 669.57 420.89 669.59 420.85L670.26 419.05C670.28 418.98 670.33 418.93 670.39 418.89C670.45 418.85 670.52 418.83 670.59 418.83C670.66 418.83 670.73 418.85 670.79 418.89C670.85 418.93 670.89 418.99 670.92 419.05L671.59 420.85C671.59 420.85 671.63 420.94 671.67 420.97C671.71 421.01 671.75 421.03 671.79 421.05L673.59 421.72C673.66 421.75 673.71 421.79 673.75 421.85C673.79 421.91 673.81 421.97 673.81 422.05C673.81 422.13 673.79 422.19 673.75 422.24C673.71 422.29 673.66 422.34 673.59 422.37V422.38Z" fill="#FFD670"/>
<path d="M559.08 444.78L554.95 446.33C554.84 446.37 554.75 446.43 554.66 446.51C554.58 446.59 554.52 446.69 554.48 446.79L552.94 450.92C552.89 451.08 552.79 451.21 552.65 451.31C552.52 451.41 552.35 451.46 552.19 451.46C552.03 451.46 551.86 451.41 551.73 451.31C551.6 451.21 551.5 451.08 551.44 450.92L549.9 446.79C549.86 446.68 549.8 446.59 549.72 446.51C549.64 446.43 549.55 446.37 549.44 446.33L545.31 444.79C545.15 444.74 545.02 444.64 544.92 444.5C544.82 444.37 544.77 444.2 544.77 444.04C544.77 443.88 544.82 443.71 544.92 443.58C545.02 443.45 545.15 443.35 545.31 443.29L549.44 441.75C549.54 441.71 549.64 441.65 549.72 441.57C549.8 441.49 549.86 441.4 549.9 441.29L551.44 437.16C551.49 437 551.6 436.87 551.73 436.77C551.87 436.67 552.03 436.62 552.19 436.62C552.35 436.62 552.52 436.67 552.65 436.77C552.78 436.87 552.89 437 552.94 437.16L554.47 441.29C554.51 441.4 554.57 441.5 554.65 441.58C554.73 441.66 554.83 441.72 554.93 441.76L559.06 443.3C559.21 443.36 559.34 443.46 559.44 443.59C559.53 443.72 559.58 443.88 559.58 444.04C559.58 444.2 559.53 444.36 559.44 444.49C559.35 444.62 559.22 444.72 559.06 444.78H559.08Z" fill="#FFD670"/>
<path d="M661.78 374.01L657.65 375.55C657.54 375.59 657.45 375.65 657.36 375.73C657.28 375.81 657.22 375.91 657.18 376.01L655.64 380.14C655.58 380.29 655.48 380.42 655.35 380.51C655.22 380.6 655.06 380.65 654.9 380.65C654.74 380.65 654.58 380.6 654.45 380.51C654.32 380.42 654.22 380.29 654.16 380.14L652.62 376.01C652.58 375.9 652.52 375.8 652.44 375.72C652.36 375.64 652.26 375.58 652.15 375.54L648.01 374C647.86 373.94 647.73 373.84 647.63 373.71C647.54 373.58 647.49 373.42 647.49 373.26C647.49 373.1 647.54 372.94 647.63 372.81C647.72 372.68 647.86 372.58 648.01 372.52L652.14 370.98C652.25 370.94 652.34 370.88 652.43 370.8C652.51 370.72 652.57 370.62 652.61 370.52L654.15 366.39C654.2 366.23 654.3 366.1 654.44 366C654.58 365.9 654.74 365.85 654.9 365.85C655.06 365.85 655.23 365.9 655.36 366C655.5 366.1 655.6 366.23 655.65 366.39L657.19 370.52C657.23 370.63 657.29 370.72 657.37 370.8C657.45 370.88 657.55 370.94 657.65 370.98L661.78 372.52C661.93 372.58 662.06 372.68 662.16 372.81C662.25 372.94 662.3 373.1 662.3 373.26C662.3 373.42 662.25 373.58 662.16 373.71C662.07 373.84 661.94 373.94 661.78 374V374.01Z" fill="#FFCB0D"/>
<path d="M669.65 407.99L665.52 409.53C665.41 409.57 665.32 409.63 665.24 409.71C665.16 409.79 665.1 409.89 665.06 409.99L663.52 414.12C663.46 414.27 663.36 414.4 663.23 414.5C663.1 414.59 662.94 414.64 662.78 414.64C662.62 414.64 662.46 414.59 662.33 414.5C662.2 414.41 662.09 414.28 662.04 414.12L660.51 409.99C660.47 409.88 660.41 409.79 660.33 409.71C660.25 409.63 660.15 409.57 660.05 409.53L655.91 407.99C655.76 407.93 655.63 407.83 655.54 407.7C655.45 407.57 655.4 407.41 655.4 407.25C655.4 407.09 655.45 406.93 655.54 406.8C655.63 406.67 655.76 406.56 655.91 406.51L660.04 404.97C660.15 404.93 660.25 404.87 660.33 404.79C660.41 404.71 660.47 404.61 660.51 404.5L662.05 400.37C662.11 400.22 662.21 400.09 662.34 399.99C662.47 399.9 662.63 399.85 662.79 399.85C662.95 399.85 663.11 399.9 663.24 399.99C663.37 400.08 663.47 400.21 663.53 400.37L665.07 404.5C665.11 404.61 665.17 404.7 665.25 404.79C665.33 404.87 665.43 404.93 665.53 404.97L669.66 406.51C669.81 406.57 669.94 406.67 670.04 406.8C670.13 406.93 670.18 407.09 670.18 407.25C670.18 407.41 670.13 407.57 670.04 407.7C669.95 407.83 669.81 407.93 669.66 407.99H669.65Z" fill="#E7B521"/>
<path d="M202.3 403.83L201.62 402.03C201.62 402.03 201.58 401.94 201.54 401.91C201.51 401.88 201.46 401.85 201.42 401.83L199.62 401.16C199.55 401.14 199.5 401.09 199.46 401.03C199.42 400.97 199.4 400.9 199.4 400.83C199.4 400.76 199.42 400.69 199.46 400.63C199.5 400.57 199.56 400.53 199.62 400.5L201.42 399.83C201.42 399.83 201.51 399.79 201.54 399.75C201.58 399.72 201.6 399.67 201.62 399.63L202.29 397.83C202.31 397.76 202.36 397.71 202.42 397.67C202.48 397.63 202.55 397.61 202.62 397.61C202.69 397.61 202.76 397.63 202.82 397.67C202.88 397.71 202.92 397.77 202.95 397.83L203.62 399.63C203.62 399.63 203.66 399.72 203.7 399.75C203.73 399.78 203.78 399.81 203.82 399.83L205.62 400.5C205.69 400.52 205.74 400.57 205.78 400.63C205.82 400.69 205.84 400.76 205.84 400.83C205.84 400.9 205.82 400.97 205.78 401.03C205.74 401.09 205.68 401.13 205.62 401.16L203.82 401.83C203.82 401.83 203.73 401.87 203.7 401.91C203.67 401.94 203.64 401.99 203.62 402.03L202.95 403.83C202.92 403.89 202.88 403.95 202.82 403.99C202.76 404.03 202.69 404.05 202.63 404.05C202.57 404.05 202.49 404.03 202.44 403.99C202.38 403.95 202.34 403.9 202.31 403.83H202.3Z" fill="#FFD670"/>
<path d="M255.49 339.01L253.94 334.88C253.9 334.77 253.84 334.68 253.76 334.6C253.68 334.52 253.58 334.46 253.48 334.42L249.35 332.89C249.19 332.84 249.06 332.74 248.96 332.6C248.86 332.47 248.81 332.3 248.81 332.14C248.81 331.98 248.86 331.81 248.96 331.68C249.06 331.55 249.19 331.44 249.35 331.39L253.48 329.85C253.59 329.81 253.68 329.75 253.76 329.67C253.84 329.59 253.9 329.5 253.94 329.39L255.48 325.26C255.53 325.1 255.63 324.97 255.77 324.87C255.91 324.77 256.07 324.72 256.23 324.72C256.39 324.72 256.56 324.77 256.69 324.87C256.82 324.97 256.93 325.1 256.98 325.26L258.52 329.39C258.56 329.49 258.62 329.59 258.7 329.67C258.78 329.75 258.87 329.81 258.98 329.85L263.11 331.39C263.27 331.44 263.4 331.54 263.5 331.68C263.6 331.81 263.65 331.98 263.65 332.14C263.65 332.3 263.6 332.47 263.5 332.6C263.4 332.73 263.27 332.84 263.11 332.89L258.98 334.42C258.87 334.46 258.78 334.52 258.69 334.6C258.61 334.68 258.55 334.78 258.51 334.89L256.98 339.02C256.92 339.17 256.82 339.3 256.69 339.4C256.56 339.49 256.4 339.54 256.24 339.54C256.08 339.54 255.92 339.49 255.79 339.4C255.66 339.31 255.56 339.18 255.5 339.02L255.49 339.01Z" fill="#FFD670"/>
<path d="M298.53 324L296.99 319.87C296.95 319.76 296.89 319.67 296.81 319.58C296.73 319.5 296.63 319.44 296.52 319.4L292.39 317.86C292.24 317.8 292.11 317.7 292.02 317.57C291.93 317.44 291.88 317.28 291.88 317.12C291.88 316.96 291.93 316.8 292.02 316.67C292.11 316.54 292.24 316.44 292.39 316.38L296.52 314.84C296.63 314.8 296.72 314.74 296.81 314.66C296.89 314.58 296.95 314.48 296.99 314.37L298.53 310.23C298.59 310.08 298.69 309.95 298.82 309.85C298.95 309.76 299.11 309.71 299.27 309.71C299.43 309.71 299.59 309.76 299.72 309.85C299.85 309.94 299.95 310.07 300.01 310.23L301.55 314.36C301.59 314.47 301.65 314.56 301.73 314.64C301.81 314.72 301.91 314.78 302.01 314.82L306.15 316.35C306.31 316.4 306.44 316.5 306.54 316.64C306.64 316.77 306.69 316.94 306.69 317.1C306.69 317.26 306.64 317.43 306.54 317.56C306.44 317.69 306.31 317.8 306.15 317.85L302.02 319.39C301.91 319.43 301.82 319.49 301.74 319.57C301.66 319.65 301.6 319.75 301.56 319.85L300.02 323.98C299.96 324.13 299.86 324.26 299.73 324.36C299.6 324.45 299.44 324.5 299.28 324.5C299.12 324.5 298.96 324.45 298.83 324.36C298.7 324.27 298.6 324.14 298.54 323.98L298.53 324Z" fill="#E7B521"/>
<path d="M187.01 400.1L185.47 395.97C185.43 395.86 185.37 395.77 185.29 395.69C185.21 395.61 185.11 395.55 185.01 395.51L180.88 393.98C180.73 393.92 180.6 393.82 180.5 393.69C180.41 393.56 180.36 393.4 180.36 393.24C180.36 393.08 180.41 392.92 180.5 392.79C180.59 392.66 180.72 392.56 180.88 392.5L185.01 390.96C185.12 390.92 185.21 390.86 185.29 390.78C185.37 390.7 185.43 390.6 185.47 390.5L187 386.37C187.06 386.22 187.16 386.09 187.29 386C187.42 385.91 187.58 385.86 187.74 385.86C187.9 385.86 188.06 385.91 188.19 386C188.32 386.09 188.42 386.22 188.48 386.37L190.02 390.5C190.06 390.61 190.12 390.71 190.2 390.79C190.28 390.87 190.38 390.93 190.49 390.97L194.62 392.51C194.77 392.57 194.9 392.67 195 392.8C195.09 392.93 195.14 393.09 195.14 393.25C195.14 393.41 195.09 393.57 195 393.7C194.91 393.83 194.78 393.93 194.62 393.99L190.49 395.53C190.38 395.57 190.29 395.63 190.21 395.71C190.13 395.79 190.07 395.89 190.03 395.99L188.49 400.12C188.43 400.27 188.33 400.4 188.2 400.49C188.07 400.58 187.91 400.63 187.75 400.63C187.59 400.63 187.43 400.58 187.3 400.49C187.17 400.4 187.07 400.26 187.01 400.11V400.1Z" fill="#E7B521"/>
<path d="M318.87 304.41L317.07 305.08C317.07 305.08 316.98 305.12 316.95 305.16C316.91 305.19 316.89 305.24 316.87 305.28L316.2 307.08C316.17 307.15 316.13 307.2 316.07 307.24C316.01 307.28 315.94 307.3 315.87 307.3C315.8 307.3 315.73 307.28 315.67 307.24C315.61 307.2 315.57 307.14 315.54 307.08L314.87 305.28C314.87 305.28 314.83 305.19 314.79 305.16C314.75 305.13 314.71 305.1 314.67 305.08L312.87 304.41C312.8 304.39 312.75 304.34 312.71 304.28C312.67 304.22 312.65 304.15 312.65 304.08C312.65 304.01 312.67 303.94 312.71 303.88C312.75 303.82 312.81 303.78 312.87 303.75L314.67 303.08C314.67 303.08 314.76 303.04 314.79 303C314.82 302.97 314.85 302.92 314.87 302.88L315.54 301.08C315.56 301.01 315.61 300.96 315.67 300.92C315.73 300.88 315.8 300.86 315.87 300.86C315.94 300.86 316.01 300.88 316.07 300.92C316.13 300.96 316.17 301.02 316.2 301.08L316.87 302.87C316.87 302.87 316.91 302.96 316.95 302.99C316.99 303.03 317.03 303.05 317.07 303.07L318.87 303.74C318.94 303.76 318.99 303.81 319.03 303.87C319.07 303.93 319.09 304 319.09 304.07C319.09 304.14 319.07 304.21 319.03 304.27C318.99 304.33 318.93 304.37 318.87 304.4V304.41Z" fill="#E7B521"/>
<path d="M225.69 319.15L223.89 319.83C223.89 319.83 223.8 319.87 223.77 319.91C223.73 319.94 223.71 319.99 223.69 320.03L223.02 321.83C223 321.9 222.95 321.95 222.89 321.99C222.83 322.03 222.76 322.05 222.69 322.05C222.62 322.05 222.55 322.03 222.49 321.99C222.43 321.95 222.39 321.89 222.36 321.83L221.69 320.04C221.69 320.04 221.65 319.95 221.61 319.92C221.58 319.88 221.53 319.86 221.49 319.84L219.69 319.17C219.62 319.15 219.57 319.1 219.53 319.04C219.49 318.98 219.47 318.91 219.47 318.84C219.47 318.77 219.49 318.7 219.53 318.64C219.57 318.58 219.63 318.54 219.69 318.51L221.49 317.84C221.49 317.84 221.58 317.8 221.61 317.76C221.64 317.72 221.67 317.68 221.69 317.64L222.36 315.84C222.38 315.77 222.43 315.72 222.49 315.68C222.55 315.64 222.62 315.62 222.69 315.62C222.76 315.62 222.83 315.64 222.89 315.68C222.95 315.72 222.99 315.78 223.02 315.84L223.69 317.64C223.69 317.64 223.74 317.73 223.77 317.76C223.81 317.79 223.85 317.82 223.89 317.84L225.69 318.51C225.75 318.54 225.81 318.58 225.85 318.64C225.89 318.7 225.91 318.77 225.91 318.83C225.91 318.89 225.89 318.97 225.85 319.02C225.81 319.08 225.76 319.12 225.69 319.15Z" fill="#FFD670"/>
<path d="M221.75 304.75L217.62 306.29C217.51 306.33 217.42 306.39 217.34 306.47C217.26 306.55 217.2 306.65 217.16 306.75L215.62 310.88C215.56 311.03 215.46 311.16 215.33 311.26C215.2 311.36 215.04 311.4 214.88 311.4C214.72 311.4 214.56 311.35 214.43 311.26C214.3 311.17 214.2 311.04 214.14 310.88L212.6 306.75C212.56 306.64 212.5 306.55 212.42 306.47C212.34 306.39 212.24 306.33 212.14 306.29L208.01 304.76C207.86 304.7 207.73 304.6 207.64 304.47C207.55 304.34 207.5 304.18 207.5 304.02C207.5 303.86 207.55 303.7 207.64 303.57C207.73 303.44 207.86 303.34 208.01 303.28L212.14 301.74C212.25 301.7 212.35 301.64 212.43 301.56C212.51 301.48 212.57 301.38 212.61 301.27L214.15 297.14C214.21 296.99 214.31 296.86 214.44 296.76C214.57 296.67 214.73 296.62 214.89 296.62C215.05 296.62 215.21 296.67 215.34 296.76C215.47 296.85 215.57 296.98 215.63 297.14L217.17 301.27C217.21 301.38 217.27 301.47 217.35 301.55C217.43 301.63 217.53 301.69 217.63 301.73L221.76 303.27C221.91 303.33 222.04 303.43 222.14 303.56C222.23 303.69 222.28 303.85 222.28 304.01C222.28 304.17 222.23 304.33 222.14 304.46C222.05 304.59 221.91 304.69 221.76 304.75H221.75Z" fill="#E7B521"/>
<path d="M192.69 354.53L189.53 355.71C189.45 355.74 189.37 355.79 189.31 355.85C189.25 355.91 189.2 355.99 189.17 356.07L187.99 359.23C187.95 359.35 187.87 359.45 187.77 359.52C187.67 359.59 187.55 359.63 187.43 359.63C187.31 359.63 187.19 359.59 187.08 359.52C186.98 359.45 186.9 359.35 186.86 359.23L185.68 356.07C185.65 355.99 185.6 355.91 185.54 355.85C185.48 355.79 185.4 355.74 185.32 355.71L182.15 354.54C182.03 354.5 181.93 354.42 181.86 354.32C181.79 354.22 181.75 354.1 181.75 353.97C181.75 353.84 181.79 353.72 181.86 353.62C181.93 353.52 182.03 353.44 182.15 353.4L185.32 352.22C185.4 352.19 185.48 352.14 185.54 352.08C185.6 352.02 185.65 351.94 185.68 351.86L186.85 348.7C186.89 348.58 186.97 348.48 187.07 348.41C187.17 348.34 187.29 348.3 187.42 348.3C187.55 348.3 187.66 348.34 187.77 348.41C187.87 348.48 187.95 348.58 187.99 348.7L189.17 351.86C189.2 351.94 189.25 352.02 189.31 352.08C189.37 352.14 189.45 352.19 189.53 352.22L192.69 353.4C192.81 353.44 192.91 353.52 192.98 353.62C193.05 353.72 193.09 353.84 193.09 353.97C193.09 354.1 193.05 354.22 192.98 354.32C192.91 354.42 192.81 354.5 192.69 354.54V354.53Z" fill="#FFD670"/>
<path d="M587.64 324.45L586.25 320.72C586.21 320.62 586.16 320.53 586.09 320.46C586.02 320.39 585.93 320.33 585.83 320.3L582.09 318.91C581.95 318.86 581.84 318.77 581.75 318.65C581.66 318.53 581.62 318.39 581.62 318.24C581.62 318.09 581.66 317.95 581.75 317.83C581.84 317.71 581.95 317.62 582.09 317.57L585.82 316.18C585.92 316.14 586.01 316.09 586.08 316.02C586.15 315.95 586.21 315.86 586.24 315.76L587.63 312.02C587.68 311.88 587.77 311.76 587.89 311.68C588.01 311.6 588.15 311.55 588.3 311.55C588.45 311.55 588.59 311.6 588.71 311.68C588.83 311.76 588.92 311.88 588.97 312.02L590.37 315.76C590.41 315.86 590.46 315.94 590.53 316.02C590.6 316.09 590.69 316.15 590.79 316.19L594.53 317.58C594.67 317.63 594.79 317.72 594.87 317.84C594.95 317.96 595 318.1 595 318.25C595 318.4 594.96 318.54 594.87 318.66C594.79 318.78 594.67 318.87 594.53 318.92L590.8 320.31C590.7 320.35 590.61 320.4 590.54 320.47C590.47 320.54 590.41 320.63 590.38 320.73L588.99 324.46C588.94 324.6 588.85 324.72 588.73 324.8C588.61 324.89 588.47 324.93 588.32 324.93C588.17 324.93 588.03 324.88 587.91 324.8C587.79 324.72 587.7 324.59 587.65 324.46L587.64 324.45Z" fill="#FFD670"/>
<path d="M564.03 374.24L562.23 374.92C562.23 374.92 562.14 374.96 562.11 375C562.07 375.03 562.05 375.08 562.03 375.12L561.36 376.92C561.34 376.99 561.29 377.04 561.23 377.08C561.17 377.12 561.1 377.14 561.03 377.14C560.96 377.14 560.89 377.12 560.83 377.08C560.77 377.04 560.73 376.98 560.7 376.92L560.03 375.13C560.03 375.13 559.99 375.04 559.95 375.01C559.92 374.97 559.87 374.95 559.83 374.93L558.03 374.26C557.96 374.24 557.91 374.19 557.87 374.13C557.83 374.07 557.81 374 557.81 373.93C557.81 373.86 557.83 373.79 557.87 373.73C557.91 373.67 557.97 373.63 558.03 373.6L559.83 372.93C559.83 372.93 559.92 372.89 559.95 372.85C559.98 372.81 560.01 372.77 560.03 372.73L560.7 370.93C560.72 370.86 560.77 370.81 560.83 370.77C560.89 370.73 560.96 370.71 561.03 370.71C561.1 370.71 561.17 370.73 561.23 370.77C561.29 370.81 561.33 370.87 561.36 370.93L562.03 372.73C562.03 372.73 562.08 372.82 562.11 372.85C562.15 372.88 562.19 372.91 562.23 372.93L564.03 373.6C564.09 373.63 564.15 373.67 564.19 373.73C564.23 373.79 564.25 373.86 564.25 373.92C564.25 373.98 564.23 374.06 564.19 374.11C564.15 374.17 564.1 374.21 564.03 374.24Z" fill="#FFD670"/>
<path d="M532.22 325.87L528.09 327.41C527.98 327.45 527.89 327.51 527.8 327.59C527.72 327.67 527.66 327.77 527.62 327.88L526.08 332.01C526.02 332.16 525.92 332.29 525.79 332.38C525.66 332.47 525.5 332.52 525.34 332.52C525.18 332.52 525.02 332.47 524.89 332.38C524.76 332.29 524.66 332.16 524.6 332.01L523.06 327.88C523.02 327.77 522.96 327.68 522.88 327.59C522.8 327.51 522.7 327.45 522.59 327.41L518.45 325.88C518.3 325.82 518.17 325.72 518.07 325.59C517.98 325.46 517.93 325.3 517.93 325.14C517.93 324.98 517.98 324.82 518.07 324.69C518.16 324.56 518.29 324.46 518.45 324.4L522.58 322.86C522.69 322.82 522.78 322.76 522.87 322.68C522.95 322.6 523.01 322.5 523.05 322.4L524.59 318.26C524.64 318.1 524.74 317.97 524.88 317.87C525.02 317.77 525.18 317.72 525.34 317.72C525.5 317.72 525.67 317.77 525.8 317.87C525.94 317.97 526.04 318.1 526.09 318.26L527.63 322.39C527.67 322.5 527.73 322.59 527.81 322.67C527.89 322.75 527.99 322.81 528.09 322.85L532.22 324.39C532.37 324.45 532.5 324.55 532.6 324.68C532.69 324.81 532.74 324.97 532.74 325.13C532.74 325.29 532.69 325.45 532.6 325.58C532.51 325.71 532.38 325.81 532.22 325.87Z" fill="#E7B521"/>
<path d="M560.09 359.85L555.96 361.39C555.85 361.43 555.76 361.49 555.68 361.57C555.6 361.65 555.54 361.75 555.5 361.85L553.96 365.98C553.9 366.13 553.8 366.26 553.67 366.36C553.54 366.46 553.38 366.5 553.22 366.5C553.06 366.5 552.9 366.45 552.77 366.36C552.64 366.27 552.54 366.14 552.48 365.98L550.94 361.85C550.9 361.74 550.84 361.65 550.76 361.57C550.68 361.49 550.58 361.43 550.48 361.39L546.35 359.86C546.2 359.8 546.07 359.7 545.98 359.57C545.89 359.44 545.84 359.28 545.84 359.12C545.84 358.96 545.89 358.8 545.98 358.67C546.07 358.54 546.2 358.44 546.35 358.38L550.48 356.84C550.59 356.8 550.69 356.74 550.77 356.66C550.85 356.58 550.91 356.48 550.95 356.37L552.49 352.24C552.55 352.09 552.65 351.96 552.78 351.86C552.91 351.77 553.07 351.72 553.23 351.72C553.39 351.72 553.55 351.77 553.68 351.86C553.81 351.95 553.91 352.08 553.97 352.24L555.51 356.37C555.55 356.48 555.61 356.57 555.69 356.65C555.77 356.73 555.87 356.79 555.97 356.83L560.1 358.37C560.25 358.43 560.38 358.53 560.48 358.66C560.57 358.79 560.62 358.95 560.62 359.11C560.62 359.27 560.57 359.43 560.48 359.56C560.39 359.69 560.25 359.79 560.1 359.85H560.09Z" fill="#E7B521"/>
<path d="M600.2 380.3L596.97 381.51C596.89 381.54 596.81 381.59 596.75 381.65C596.69 381.71 596.64 381.79 596.61 381.87L595.41 385.1C595.37 385.22 595.29 385.32 595.18 385.39C595.07 385.46 594.95 385.5 594.82 385.5C594.69 385.5 594.57 385.46 594.47 385.39C594.37 385.32 594.29 385.21 594.24 385.1L593.04 381.87C593.01 381.79 592.96 381.71 592.9 381.65C592.84 381.59 592.76 381.54 592.68 381.51L589.44 380.31C589.32 380.27 589.22 380.19 589.15 380.08C589.08 379.98 589.04 379.85 589.04 379.73C589.04 379.61 589.08 379.48 589.15 379.38C589.22 379.28 589.32 379.2 589.44 379.15L592.67 377.94C592.75 377.91 592.83 377.86 592.89 377.8C592.95 377.74 593 377.66 593.03 377.58L594.23 374.35C594.27 374.23 594.35 374.13 594.46 374.06C594.56 373.99 594.69 373.95 594.82 373.95C594.95 373.95 595.07 373.99 595.17 374.06C595.27 374.13 595.35 374.24 595.4 374.35L596.61 377.58C596.64 377.66 596.69 377.74 596.75 377.8C596.81 377.86 596.89 377.91 596.97 377.94L600.2 379.14C600.32 379.18 600.42 379.26 600.49 379.37C600.56 379.47 600.6 379.6 600.6 379.73C600.6 379.86 600.56 379.98 600.49 380.08C600.42 380.18 600.31 380.26 600.19 380.31L600.2 380.3Z" fill="#E7B521"/>
<path d="M539.14 323.73L538.47 321.93C538.47 321.93 538.43 321.84 538.39 321.81C538.35 321.78 538.31 321.75 538.27 321.73L536.47 321.06C536.4 321.04 536.35 320.99 536.31 320.93C536.27 320.87 536.25 320.8 536.25 320.73C536.25 320.66 536.27 320.59 536.31 320.53C536.35 320.47 536.41 320.43 536.47 320.4L538.27 319.73C538.27 319.73 538.36 319.69 538.39 319.65C538.43 319.62 538.45 319.57 538.47 319.53L539.14 317.73C539.16 317.66 539.21 317.61 539.27 317.57C539.33 317.53 539.4 317.51 539.47 317.51C539.54 317.51 539.61 317.53 539.67 317.57C539.73 317.61 539.77 317.67 539.8 317.73L540.47 319.53C540.47 319.53 540.51 319.62 540.55 319.65C540.59 319.68 540.63 319.71 540.67 319.73L542.47 320.4C542.54 320.42 542.59 320.47 542.63 320.53C542.67 320.59 542.69 320.66 542.69 320.73C542.69 320.8 542.67 320.87 542.63 320.93C542.59 320.99 542.53 321.03 542.47 321.06L540.68 321.73C540.68 321.73 540.59 321.77 540.56 321.81C540.52 321.84 540.5 321.89 540.48 321.93L539.81 323.73C539.79 323.8 539.74 323.85 539.68 323.89C539.62 323.93 539.55 323.95 539.48 323.95C539.41 323.95 539.34 323.93 539.28 323.89C539.22 323.85 539.18 323.79 539.15 323.73H539.14Z" fill="#E7B521"/>
<path d="M448.1 357.65L443.97 359.19C443.86 359.23 443.76 359.29 443.69 359.37C443.61 359.45 443.55 359.55 443.51 359.66L441.97 363.79C441.91 363.94 441.81 364.07 441.68 364.16C441.55 364.25 441.39 364.3 441.23 364.3C441.07 364.3 440.91 364.25 440.78 364.16C440.65 364.07 440.55 363.94 440.49 363.79L438.95 359.66C438.91 359.55 438.85 359.46 438.77 359.37C438.69 359.29 438.59 359.23 438.48 359.19L434.34 357.66C434.19 357.6 434.06 357.5 433.96 357.37C433.86 357.24 433.82 357.08 433.82 356.92C433.82 356.76 433.87 356.6 433.96 356.47C434.05 356.34 434.18 356.24 434.34 356.18L438.48 354.63C438.59 354.59 438.68 354.53 438.76 354.45C438.84 354.37 438.9 354.27 438.94 354.17L440.47 350.04C440.53 349.89 440.63 349.76 440.76 349.66C440.89 349.57 441.05 349.52 441.21 349.52C441.37 349.52 441.53 349.57 441.66 349.66C441.79 349.75 441.9 349.88 441.95 350.04L443.49 354.17C443.53 354.28 443.59 354.37 443.67 354.46C443.75 354.54 443.85 354.6 443.96 354.64L448.09 356.18C448.24 356.24 448.38 356.34 448.47 356.47C448.56 356.6 448.62 356.76 448.62 356.93C448.62 357.1 448.57 357.25 448.47 357.39C448.38 357.52 448.24 357.62 448.09 357.68L448.1 357.65Z" fill="#FFD670"/>
<path d="M342.64 350.68L341.97 348.88C341.97 348.88 341.93 348.79 341.89 348.76C341.85 348.73 341.81 348.7 341.77 348.68L339.97 348.01C339.9 347.99 339.85 347.94 339.81 347.88C339.77 347.82 339.75 347.75 339.75 347.68C339.75 347.61 339.77 347.54 339.81 347.48C339.85 347.42 339.91 347.38 339.97 347.35L341.77 346.68C341.77 346.68 341.86 346.64 341.89 346.6C341.93 346.57 341.95 346.52 341.97 346.48L342.64 344.68C342.66 344.61 342.71 344.56 342.77 344.52C342.83 344.48 342.9 344.46 342.97 344.46C343.04 344.46 343.11 344.48 343.17 344.52C343.23 344.56 343.27 344.62 343.3 344.68L343.97 346.48C343.97 346.48 344.01 346.57 344.05 346.6C344.09 346.63 344.13 346.66 344.17 346.68L345.97 347.35C346.04 347.37 346.09 347.42 346.13 347.48C346.17 347.54 346.19 347.61 346.19 347.68C346.19 347.75 346.17 347.82 346.13 347.88C346.09 347.94 346.03 347.98 345.97 348.01L344.18 348.68C344.18 348.68 344.09 348.72 344.06 348.76C344.02 348.79 344 348.84 343.98 348.88L343.31 350.68C343.29 350.75 343.24 350.8 343.18 350.84C343.12 350.88 343.05 350.9 342.98 350.9C342.91 350.9 342.84 350.88 342.78 350.84C342.72 350.8 342.68 350.74 342.65 350.68H342.64Z" fill="#E7B521"/>
<path d="M237.89 428.22L237.22 426.42C237.22 426.42 237.18 426.33 237.14 426.3C237.11 426.26 237.06 426.24 237.02 426.22L235.22 425.55C235.15 425.53 235.1 425.48 235.06 425.42C235.02 425.36 235 425.29 235 425.22C235 425.15 235.02 425.08 235.06 425.02C235.1 424.96 235.16 424.92 235.22 424.89L237.02 424.22C237.02 424.22 237.11 424.18 237.14 424.14C237.17 424.11 237.2 424.06 237.22 424.02L237.89 422.22C237.91 422.15 237.96 422.1 238.02 422.06C238.08 422.02 238.15 422 238.22 422C238.29 422 238.36 422.02 238.42 422.06C238.48 422.1 238.52 422.16 238.55 422.22L239.22 424.02C239.22 424.02 239.26 424.11 239.3 424.14C239.33 424.17 239.38 424.2 239.42 424.22L241.22 424.89C241.29 424.91 241.34 424.96 241.38 425.02C241.42 425.08 241.44 425.15 241.44 425.22C241.44 425.29 241.42 425.36 241.38 425.42C241.34 425.48 241.28 425.52 241.22 425.55L239.43 426.22C239.43 426.22 239.34 426.26 239.31 426.3C239.27 426.33 239.25 426.38 239.23 426.42L238.56 428.22C238.54 428.29 238.49 428.34 238.43 428.38C238.37 428.42 238.3 428.44 238.23 428.44C238.16 428.44 238.09 428.42 238.03 428.38C237.97 428.34 237.93 428.28 237.9 428.22H237.89Z" fill="#E7B521"/>
<path d="M318.46 424.72L317.2 421.33C317.17 421.24 317.12 421.16 317.05 421.1C316.98 421.03 316.9 420.98 316.82 420.95L313.43 419.69C313.31 419.64 313.2 419.56 313.12 419.45C313.04 419.34 313 419.21 313 419.08C313 418.95 313.04 418.82 313.12 418.71C313.2 418.6 313.3 418.52 313.43 418.47L316.82 417.21C316.91 417.18 316.99 417.13 317.05 417.06C317.12 416.99 317.17 416.91 317.2 416.83L318.46 413.43C318.51 413.31 318.59 413.2 318.7 413.12C318.81 413.04 318.94 413 319.07 413C319.2 413 319.33 413.04 319.44 413.12C319.55 413.2 319.63 413.3 319.68 413.43L320.95 416.82C320.98 416.91 321.03 416.99 321.1 417.05C321.17 417.12 321.25 417.17 321.33 417.2L324.72 418.46C324.84 418.51 324.95 418.59 325.03 418.7C325.11 418.81 325.15 418.94 325.15 419.07C325.15 419.2 325.11 419.33 325.03 419.44C324.95 419.55 324.85 419.63 324.72 419.68L321.33 420.94C321.24 420.97 321.16 421.02 321.1 421.09C321.03 421.16 320.98 421.24 320.95 421.32L319.69 424.71C319.64 424.84 319.56 424.95 319.45 425.02C319.34 425.1 319.21 425.14 319.08 425.14C318.95 425.14 318.82 425.1 318.71 425.02C318.6 424.94 318.52 424.83 318.47 424.71L318.46 424.72Z" fill="#FFD670"/>
<path d="M306.46 367.72L305.2 364.33C305.17 364.24 305.12 364.16 305.05 364.1C304.98 364.03 304.9 363.98 304.82 363.95L301.43 362.69C301.31 362.64 301.2 362.56 301.12 362.45C301.04 362.34 301 362.21 301 362.08C301 361.95 301.04 361.82 301.12 361.71C301.2 361.6 301.3 361.52 301.43 361.47L304.82 360.21C304.91 360.18 304.99 360.13 305.05 360.06C305.12 359.99 305.17 359.91 305.2 359.83L306.46 356.43C306.51 356.31 306.59 356.2 306.7 356.12C306.81 356.04 306.94 356 307.07 356C307.2 356 307.33 356.04 307.44 356.12C307.55 356.2 307.63 356.3 307.68 356.43L308.95 359.82C308.98 359.91 309.03 359.99 309.1 360.05C309.17 360.12 309.25 360.17 309.33 360.2L312.72 361.46C312.84 361.51 312.95 361.59 313.03 361.7C313.11 361.81 313.15 361.94 313.15 362.07C313.15 362.2 313.11 362.33 313.03 362.44C312.95 362.55 312.85 362.63 312.72 362.68L309.33 363.94C309.24 363.97 309.16 364.02 309.1 364.09C309.03 364.16 308.98 364.24 308.95 364.32L307.69 367.71C307.64 367.84 307.56 367.95 307.45 368.02C307.34 368.1 307.21 368.14 307.08 368.14C306.95 368.14 306.82 368.1 306.71 368.02C306.6 367.94 306.52 367.83 306.47 367.71L306.46 367.72Z" fill="#FFD670"/>
<path d="M529.629 389.598L526.563 390.852C526.482 390.884 526.415 390.933 526.348 390.997C526.289 391.062 526.244 391.143 526.215 391.224L525.072 394.563C525.034 394.693 524.96 394.798 524.856 394.879C524.76 394.96 524.641 395 524.515 395C524.389 395 524.27 394.96 524.173 394.879C524.077 394.798 523.995 394.693 523.958 394.563L522.815 391.224C522.785 391.135 522.741 391.062 522.682 390.997C522.622 390.933 522.555 390.884 522.474 390.852L519.401 389.606C519.282 389.566 519.186 389.485 519.111 389.372C519.037 389.267 519 389.129 519 389C519 388.871 519.037 388.733 519.111 388.628C519.186 388.523 519.282 388.434 519.401 388.394L522.466 387.148C522.54 387.116 522.615 387.067 522.674 387.003C522.733 386.938 522.778 386.865 522.808 386.776L523.951 383.437C523.988 383.307 524.062 383.202 524.166 383.121C524.262 383.04 524.389 383 524.507 383C524.626 383 524.752 383.04 524.849 383.121C524.945 383.202 525.027 383.307 525.064 383.437L526.2 386.776C526.229 386.865 526.274 386.938 526.333 387.011C526.393 387.075 526.467 387.124 526.549 387.156L529.614 388.394C529.725 388.442 529.822 388.523 529.896 388.628C529.963 388.733 530 388.863 530 388.992C530 389.121 529.963 389.251 529.896 389.356C529.829 389.461 529.733 389.542 529.614 389.59L529.629 389.598Z" fill="#FFD670"/>
<mask id="mask0_336_7279" style="mask-type:luminance" maskUnits="userSpaceOnUse" x="351" y="531" width="90" height="24">
<path d="M441 531H351V555H441V531Z" fill="white"/>
</mask>
<g mask="url(#mask0_336_7279)">
<path d="M384.56 533.9H391.9C392.09 533.9 392.24 534.05 392.24 534.24V535.96C392.24 536.15 392.09 536.3 391.9 536.3H387.27C387.08 536.3 386.93 536.45 386.93 536.64V538.69C386.93 538.88 387.08 539.03 387.27 539.03H390.64C390.83 539.03 390.98 539.18 390.98 539.37V541.02C390.98 541.21 390.83 541.36 390.64 541.36H387.27C387.08 541.36 386.93 541.51 386.93 541.7V545.62C386.93 545.81 386.78 545.96 386.59 545.96H384.57C384.38 545.96 384.23 545.81 384.23 545.62V534.23C384.23 534.04 384.38 533.89 384.57 533.89L384.56 533.9Z" fill="#211E1F"/>
<path d="M393.18 537.48H395C395.18 537.48 395.32 537.62 395.34 537.79C395.36 538.06 395.69 538.21 395.89 538.03C396.01 537.92 396.14 537.82 396.29 537.72C396.67 537.45 397.15 537.32 397.75 537.32C397.98 537.32 398.17 537.33 398.33 537.36C398.38 537.36 398.44 537.38 398.49 537.39C398.67 537.43 398.79 537.61 398.75 537.79L398.46 539.44C398.43 539.62 398.25 539.74 398.07 539.71C397.89 539.68 397.68 539.66 397.47 539.66C396.86 539.66 396.37 539.84 395.99 540.21C395.61 540.58 395.43 541.1 395.43 541.78V545.64C395.43 545.83 395.28 545.98 395.09 545.98H393.19C393 545.98 392.85 545.83 392.85 545.64V537.83C392.85 537.64 393 537.49 393.19 537.49L393.18 537.48Z" fill="#211E1F"/>
<path d="M407.65 544.78C407.75 544.94 407.71 545.14 407.56 545.24C407.51 545.27 407.46 545.31 407.4 545.35C407.21 545.49 406.96 545.63 406.66 545.76C406.36 545.89 406 546.01 405.58 546.11C405.16 546.21 404.69 546.26 404.15 546.26C403.44 546.26 402.79 546.15 402.22 545.92C401.65 545.7 401.16 545.39 400.76 544.99C400.36 544.59 400.06 544.11 399.85 543.55C399.64 542.99 399.54 542.37 399.54 541.69C399.54 541.1 399.64 540.53 399.84 539.98C400.04 539.43 400.32 538.95 400.69 538.54C401.06 538.13 401.51 537.8 402.05 537.55C402.59 537.3 403.19 537.18 403.87 537.18C404.55 537.18 405.15 537.3 405.66 537.54C406.17 537.78 406.61 538.12 406.96 538.55C407.31 538.98 407.58 539.49 407.76 540.09C407.94 540.69 408.03 541.34 408.03 542.06V542.49H402.46C402.23 542.49 402.06 542.72 402.14 542.95C402.23 543.22 402.41 543.47 402.66 543.7C403.05 544.04 403.58 544.22 404.26 544.22C404.94 544.22 405.47 544.12 405.89 543.92C406.15 543.8 406.36 543.68 406.53 543.58C406.69 543.49 406.88 543.54 406.98 543.69L407.67 544.77L407.65 544.78ZM405.58 540.85C405.58 540.67 405.54 540.48 405.47 540.3C405.4 540.11 405.29 539.94 405.15 539.78C405.01 539.62 404.83 539.49 404.61 539.39C404.4 539.29 404.14 539.24 403.84 539.24C403.54 539.24 403.28 539.29 403.05 539.39C402.82 539.49 402.64 539.62 402.49 539.78C402.34 539.94 402.23 540.11 402.15 540.3C402.07 540.49 402.03 540.67 402.03 540.85H405.57H405.58Z" fill="#211E1F"/>
<path d="M416.97 544.61C417.09 544.75 417.08 544.97 416.94 545.09C416.63 545.37 416.26 545.63 415.81 545.84C415.24 546.12 414.57 546.26 413.8 546.26C413.12 546.26 412.5 546.15 411.95 545.92C411.4 545.7 410.92 545.38 410.53 544.98C410.14 544.58 409.83 544.09 409.61 543.54C409.39 542.98 409.28 542.37 409.28 541.71C409.28 541.08 409.39 540.49 409.62 539.94C409.85 539.39 410.16 538.91 410.56 538.5C410.96 538.09 411.44 537.77 411.99 537.53C412.54 537.3 413.15 537.18 413.81 537.18C414.57 537.18 415.23 537.31 415.8 537.56C416.25 537.76 416.63 538.02 416.97 538.33C417.11 538.46 417.12 538.68 416.99 538.82L415.89 540.02C415.77 540.16 415.56 540.17 415.42 540.04C415.28 539.92 415.13 539.8 414.96 539.7C414.69 539.53 414.32 539.45 413.87 539.45C413.56 539.45 413.28 539.51 413.04 539.64C412.8 539.77 412.59 539.93 412.42 540.14C412.25 540.35 412.12 540.58 412.03 540.86C411.94 541.14 411.89 541.42 411.89 541.72C411.89 542 411.94 542.27 412.03 542.55C412.12 542.82 412.25 543.06 412.42 543.27C412.59 543.48 412.8 543.65 413.04 543.79C413.29 543.92 413.56 543.99 413.87 543.99C414.31 543.99 414.68 543.9 414.98 543.73C415.16 543.62 415.32 543.51 415.46 543.39C415.6 543.27 415.81 543.28 415.93 543.42L416.99 544.62L416.97 544.61Z" fill="#211E1F"/>
<path d="M418.88 533.9H420.78C420.97 533.9 421.12 534.05 421.12 534.24V539.32C421.12 539.63 421.49 539.78 421.7 539.56L423.58 537.59C423.64 537.52 423.73 537.49 423.82 537.49H425.79C426.09 537.49 426.24 537.85 426.03 538.07L423.77 540.43C423.66 540.54 423.64 540.72 423.73 540.85L426.66 545.46C426.8 545.69 426.64 545.99 426.38 545.99H424.2C424.08 545.99 423.97 545.93 423.91 545.83L422.09 542.79C421.98 542.6 421.71 542.57 421.56 542.73L421.21 543.09C421.15 543.15 421.11 543.24 421.11 543.33V545.66C421.11 545.85 420.96 546 420.77 546H418.87C418.68 546 418.53 545.85 418.53 545.66V534.27C418.53 534.08 418.68 533.93 418.87 533.93L418.88 533.9Z" fill="#211E1F"/>
<path d="M428.59 533.9H430.49C430.68 533.9 430.83 534.05 430.83 534.24V545.64C430.83 545.83 430.68 545.98 430.49 545.98H428.59C428.4 545.98 428.25 545.83 428.25 545.64V534.24C428.25 534.05 428.4 533.9 428.59 533.9Z" fill="#211E1F"/>
<path d="M440.64 544.78C440.74 544.94 440.7 545.14 440.55 545.24C440.5 545.27 440.45 545.31 440.39 545.35C440.2 545.49 439.95 545.63 439.65 545.76C439.35 545.89 438.98 546.01 438.57 546.11C438.15 546.21 437.68 546.26 437.14 546.26C436.43 546.26 435.78 546.15 435.21 545.92C434.64 545.7 434.15 545.39 433.75 544.99C433.35 544.59 433.05 544.11 432.84 543.55C432.63 542.99 432.53 542.37 432.53 541.69C432.53 541.1 432.63 540.53 432.83 539.98C433.03 539.43 433.31 538.95 433.68 538.54C434.05 538.13 434.5 537.8 435.04 537.55C435.58 537.3 436.18 537.18 436.86 537.18C437.54 537.18 438.14 537.3 438.65 537.54C439.16 537.78 439.6 538.12 439.95 538.55C440.3 538.98 440.57 539.49 440.75 540.09C440.93 540.69 441.02 541.34 441.02 542.06V542.49H435.45C435.22 542.49 435.05 542.72 435.13 542.95C435.22 543.22 435.4 543.47 435.65 543.7C436.04 544.04 436.57 544.22 437.25 544.22C437.93 544.22 438.46 544.12 438.88 543.92C439.14 543.8 439.35 543.68 439.53 543.58C439.68 543.49 439.88 543.54 439.98 543.69L440.67 544.77L440.64 544.78ZM438.57 540.85C438.57 540.67 438.53 540.48 438.46 540.3C438.39 540.11 438.28 539.94 438.14 539.78C438 539.62 437.82 539.49 437.6 539.39C437.39 539.29 437.13 539.24 436.83 539.24C436.53 539.24 436.27 539.29 436.04 539.39C435.81 539.49 435.63 539.62 435.48 539.78C435.33 539.94 435.22 540.11 435.14 540.3C435.06 540.49 435.02 540.67 435.02 540.85H438.56H438.57Z" fill="#211E1F"/>
<path d="M386.88 553.09C386.63 553.42 386.28 553.58 385.83 553.58C385.59 553.58 385.38 553.53 385.2 553.44C385.02 553.34 384.87 553.2 384.76 553.02L384.68 553.51H384.13V548.17H384.8V550.24C384.91 550.08 385.06 549.95 385.23 549.86C385.4 549.77 385.6 549.73 385.83 549.73C386.28 549.73 386.63 549.91 386.88 550.28C387.13 550.65 387.26 551.12 387.26 551.72V551.79C387.26 552.32 387.13 552.75 386.88 553.08V553.09ZM386.36 550.69C386.21 550.42 385.97 550.29 385.66 550.29C385.46 550.29 385.28 550.34 385.14 550.44C385 550.54 384.89 550.68 384.8 550.85V552.45C384.89 552.63 385 552.77 385.14 552.88C385.28 552.98 385.46 553.03 385.67 553.03C385.98 553.03 386.22 552.92 386.37 552.69C386.52 552.46 386.6 552.16 386.6 551.79V551.72C386.6 551.3 386.52 550.95 386.37 550.68L386.36 550.69Z" fill="#211E1F"/>
<path d="M389.27 552.6H389.29L390.19 549.8H390.93L389.39 554.07C389.3 554.32 389.17 554.54 388.99 554.72C388.82 554.9 388.59 555 388.29 555C388.24 555 388.17 555 388.08 554.98C388 554.97 387.93 554.95 387.89 554.94L387.96 554.41C387.96 554.41 387.99 554.41 388.08 554.41C388.17 554.41 388.23 554.41 388.26 554.41C388.4 554.41 388.52 554.35 388.61 554.22C388.7 554.09 388.77 553.95 388.84 553.8L389 553.41L387.64 549.78H388.38L389.15 552.11L389.27 552.57V552.6Z" fill="#211E1F"/>
<path d="M394.03 553.5H393.36V548.52H395.14C395.68 548.52 396.09 548.64 396.37 548.88C396.65 549.12 396.79 549.47 396.79 549.93C396.79 550.19 396.72 550.41 396.59 550.6C396.46 550.79 396.27 550.94 396.01 551.05C396.28 551.14 396.47 551.28 396.59 551.48C396.71 551.68 396.77 551.93 396.77 552.22V552.69C396.77 552.84 396.79 552.98 396.82 553.11C396.85 553.23 396.91 553.33 397 553.41V553.49H396.32C396.23 553.41 396.18 553.3 396.15 553.15C396.13 553 396.11 552.85 396.11 552.69V552.23C396.11 551.96 396.03 551.75 395.88 551.58C395.73 551.42 395.52 551.33 395.26 551.33H394.02V553.49L394.03 553.5ZM395.08 550.81C395.46 550.81 395.73 550.74 395.89 550.59C396.05 550.45 396.14 550.22 396.14 549.93C396.14 549.64 396.06 549.43 395.9 549.28C395.74 549.13 395.49 549.05 395.15 549.05H394.03V550.81H395.08Z" fill="#211E1F"/>
<path d="M398.12 553.06C397.82 552.72 397.67 552.27 397.67 551.72V551.57C397.67 551.04 397.83 550.6 398.13 550.25C398.44 549.9 398.8 549.73 399.23 549.73C399.72 549.73 400.1 549.88 400.35 550.18C400.6 550.48 400.73 550.88 400.73 551.38V551.8H398.36V551.82C398.36 552.18 398.45 552.47 398.62 552.7C398.79 552.93 399.03 553.04 399.34 553.04C399.56 553.04 399.76 553.01 399.93 552.94C400.1 552.87 400.25 552.78 400.37 552.67L400.63 553.11C400.5 553.24 400.33 553.35 400.11 553.43C399.9 553.52 399.64 553.56 399.33 553.56C398.82 553.56 398.42 553.39 398.12 553.05V553.06ZM398.66 550.55C398.5 550.74 398.41 550.98 398.37 551.27V551.29H400.06V551.2C400.06 550.93 399.99 550.71 399.85 550.54C399.71 550.36 399.5 550.27 399.23 550.27C399.01 550.27 398.82 550.36 398.66 550.56V550.55Z" fill="#211E1F"/>
<path d="M402.12 550.35C402.24 550.15 402.39 550 402.58 549.89C402.76 549.78 402.97 549.73 403.21 549.73C403.61 549.73 403.91 549.85 404.13 550.08C404.35 550.31 404.45 550.67 404.45 551.16V553.5H403.78V551.18C403.78 550.85 403.72 550.62 403.59 550.49C403.46 550.35 403.27 550.29 403.01 550.29C402.82 550.29 402.65 550.34 402.5 550.43C402.35 550.52 402.24 550.65 402.15 550.81V553.51H401.48V549.81H402.08L402.13 550.36L402.12 550.35Z" fill="#211E1F"/>
<path d="M407.6 553.21C407.59 553.12 407.58 553.04 407.58 552.95C407.46 553.13 407.29 553.28 407.1 553.4C406.9 553.52 406.69 553.58 406.46 553.58C406.08 553.58 405.79 553.48 405.59 553.29C405.39 553.09 405.29 552.82 405.29 552.47C405.29 552.12 405.43 551.84 405.71 551.64C405.99 551.44 406.38 551.34 406.86 551.34H407.58V550.97C407.58 550.75 407.52 550.58 407.38 550.45C407.24 550.32 407.06 550.26 406.83 550.26C406.62 550.26 406.44 550.31 406.31 550.43C406.17 550.54 406.11 550.67 406.11 550.83H405.48V550.81C405.46 550.54 405.59 550.29 405.85 550.07C406.11 549.85 406.46 549.74 406.87 549.74C407.28 549.74 407.62 549.85 407.87 550.06C408.12 550.27 408.25 550.58 408.25 550.98V552.76C408.25 552.89 408.25 553.02 408.27 553.14C408.28 553.26 408.31 553.38 408.34 553.5H407.66C407.64 553.39 407.62 553.29 407.61 553.2L407.6 553.21ZM407.2 552.82C407.39 552.7 407.52 552.55 407.58 552.39V551.79H406.83C406.56 551.79 406.35 551.86 406.19 551.99C406.03 552.13 405.95 552.29 405.95 552.47C405.95 552.64 406 552.76 406.1 552.86C406.2 552.96 406.35 553.01 406.55 553.01C406.79 553.01 407.01 552.95 407.2 552.82Z" fill="#211E1F"/>
<path d="M409.27 548.85V548.16H409.94V548.85H409.27ZM409.27 553.5V549.8H409.94V553.5H409.27Z" fill="#211E1F"/>
<path d="M412.91 552.16C412.8 552.06 412.59 551.98 412.28 551.91C411.84 551.81 411.5 551.68 411.28 551.51C411.06 551.34 410.94 551.11 410.94 550.82C410.94 550.53 411.07 550.26 411.32 550.05C411.57 549.84 411.9 549.73 412.31 549.73C412.72 549.73 413.07 549.84 413.32 550.06C413.57 550.28 413.69 550.55 413.68 550.87V550.89H413.04C413.04 550.73 412.97 550.58 412.84 550.45C412.71 550.32 412.53 550.26 412.31 550.26C412.07 550.26 411.9 550.31 411.78 550.42C411.66 550.52 411.61 550.65 411.61 550.8C411.61 550.95 411.66 551.06 411.76 551.14C411.86 551.22 412.07 551.3 412.38 551.37C412.84 551.47 413.18 551.61 413.41 551.78C413.64 551.95 413.75 552.18 413.75 552.47C413.75 552.8 413.62 553.06 413.36 553.27C413.1 553.48 412.76 553.57 412.33 553.57C411.86 553.57 411.5 553.45 411.23 553.21C410.96 552.97 410.84 552.69 410.85 552.37V552.35H411.49C411.5 552.59 411.59 552.77 411.75 552.88C411.92 552.99 412.11 553.05 412.33 553.05C412.57 553.05 412.75 553 412.89 552.9C413.02 552.8 413.09 552.68 413.09 552.52C413.09 552.37 413.03 552.25 412.92 552.16H412.91Z" fill="#211E1F"/>
<path d="M416.53 552.16C416.42 552.06 416.21 551.98 415.9 551.91C415.46 551.81 415.12 551.68 414.9 551.51C414.68 551.34 414.56 551.11 414.56 550.82C414.56 550.53 414.68 550.26 414.94 550.05C415.19 549.84 415.52 549.73 415.93 549.73C416.34 549.73 416.69 549.84 416.94 550.06C417.19 550.28 417.31 550.55 417.3 550.87V550.89H416.66C416.66 550.73 416.59 550.58 416.46 550.45C416.33 550.32 416.15 550.26 415.93 550.26C415.69 550.26 415.52 550.31 415.4 550.42C415.28 550.53 415.23 550.65 415.23 550.8C415.23 550.95 415.28 551.06 415.38 551.14C415.48 551.22 415.69 551.3 416 551.37C416.46 551.47 416.8 551.61 417.03 551.78C417.26 551.95 417.37 552.18 417.37 552.47C417.37 552.8 417.24 553.06 416.98 553.27C416.72 553.47 416.37 553.57 415.95 553.57C415.48 553.57 415.12 553.45 414.85 553.21C414.58 552.97 414.46 552.69 414.47 552.37V552.35H415.11C415.12 552.59 415.21 552.77 415.37 552.88C415.54 552.99 415.73 553.05 415.95 553.05C416.19 553.05 416.37 553 416.51 552.9C416.65 552.8 416.71 552.68 416.71 552.52C416.71 552.37 416.65 552.25 416.54 552.16H416.53Z" fill="#211E1F"/>
<path d="M420.38 553.21C420.37 553.12 420.36 553.04 420.36 552.95C420.24 553.13 420.07 553.28 419.88 553.4C419.68 553.52 419.47 553.58 419.24 553.58C418.86 553.58 418.57 553.48 418.37 553.29C418.17 553.09 418.07 552.82 418.07 552.47C418.07 552.12 418.21 551.84 418.49 551.64C418.77 551.44 419.16 551.34 419.64 551.34H420.36V550.97C420.36 550.75 420.29 550.58 420.16 550.45C420.03 550.32 419.85 550.26 419.61 550.26C419.4 550.26 419.22 550.31 419.09 550.43C418.95 550.54 418.89 550.67 418.89 550.83H418.25V550.81C418.23 550.54 418.36 550.29 418.62 550.07C418.88 549.85 419.23 549.74 419.65 549.74C420.07 549.74 420.4 549.85 420.65 550.06C420.9 550.27 421.03 550.58 421.03 550.98V552.76C421.03 552.89 421.03 553.02 421.05 553.14C421.06 553.26 421.09 553.38 421.13 553.5H420.45C420.43 553.39 420.41 553.29 420.4 553.2L420.38 553.21ZM419.98 552.82C420.17 552.7 420.3 552.55 420.36 552.39V551.79H419.61C419.34 551.79 419.13 551.86 418.97 551.99C418.81 552.13 418.73 552.29 418.73 552.47C418.73 552.64 418.78 552.76 418.88 552.86C418.98 552.96 419.13 553.01 419.33 553.01C419.57 553.01 419.79 552.95 419.98 552.82Z" fill="#211E1F"/>
<path d="M422.63 550.35C422.75 550.15 422.9 550 423.09 549.89C423.28 549.78 423.48 549.73 423.72 549.73C424.11 549.73 424.42 549.85 424.64 550.08C424.86 550.31 424.96 550.67 424.96 551.16V553.5H424.29V551.18C424.29 550.85 424.23 550.62 424.1 550.49C423.97 550.35 423.78 550.29 423.52 550.29C423.33 550.29 423.16 550.34 423.01 550.43C422.86 550.52 422.74 550.65 422.66 550.81V553.51H421.99V549.81H422.59L422.64 550.36L422.63 550.35Z" fill="#211E1F"/>
<path d="M427.99 552.84C428.16 552.7 428.24 552.53 428.24 552.33H428.84V552.35C428.86 552.67 428.72 552.95 428.43 553.2C428.14 553.45 427.8 553.57 427.41 553.57C426.88 553.57 426.47 553.39 426.19 553.04C425.91 552.69 425.77 552.25 425.77 551.72V551.58C425.77 551.05 425.91 550.61 426.19 550.26C426.47 549.91 426.88 549.73 427.41 549.73C427.84 549.73 428.19 549.86 428.46 550.11C428.73 550.37 428.86 550.68 428.85 551.05V551.07H428.24C428.24 550.84 428.16 550.65 428 550.49C427.84 550.33 427.64 550.25 427.4 550.25C427.05 550.25 426.8 550.38 426.65 550.63C426.5 550.88 426.43 551.2 426.43 551.57V551.71C426.43 552.09 426.5 552.4 426.65 552.66C426.8 552.92 427.05 553.04 427.4 553.04C427.62 553.04 427.81 552.97 427.98 552.83L427.99 552.84Z" fill="#211E1F"/>
<path d="M429.9 553.06C429.6 552.72 429.45 552.27 429.45 551.72V551.57C429.45 551.04 429.6 550.6 429.91 550.25C430.22 549.9 430.59 549.73 431.01 549.73C431.5 549.73 431.88 549.88 432.13 550.18C432.38 550.48 432.51 550.88 432.51 551.38V551.8H430.14V551.82C430.14 552.18 430.23 552.47 430.4 552.7C430.57 552.93 430.81 553.04 431.12 553.04C431.34 553.04 431.54 553.01 431.71 552.94C431.88 552.87 432.03 552.78 432.15 552.67L432.41 553.11C432.28 553.24 432.11 553.35 431.89 553.43C431.68 553.52 431.42 553.56 431.11 553.56C430.6 553.56 430.2 553.39 429.9 553.05V553.06ZM430.44 550.55C430.28 550.74 430.18 550.98 430.15 551.27V551.29H431.84V551.2C431.84 550.93 431.77 550.71 431.63 550.54C431.49 550.36 431.28 550.27 431.01 550.27C430.79 550.27 430.6 550.36 430.44 550.56V550.55Z" fill="#211E1F"/>
<path d="M374.22 545.66C374 547.14 373.55 548.58 372.9 549.93C372.62 550.55 372.22 551.1 371.71 551.55C371.25 551.93 370.73 552.25 370.19 552.49C369.25 552.91 368.26 553.2 367.24 553.36C366.66 553.45 366.07 553.52 365.49 553.57C365.04 553.61 364.59 553.63 364.14 553.61C362.44 553.55 360.77 553.2 359.18 552.58C358.39 552.28 357.67 551.81 357.06 551.21C356.71 550.83 356.42 550.39 356.21 549.91C355.64 548.76 355.24 547.53 355.01 546.27C354.9 545.68 354.82 545.08 354.76 544.49C354.72 544.11 354.71 543.72 354.71 543.33C354.71 542.92 354.7 542.5 354.71 542.09C354.75 541.11 354.9 540.13 355.15 539.18C355.17 539.09 355.2 539.07 355.3 539.09C355.8 539.21 356.31 539.28 356.82 539.3C357.02 539.32 357.23 539.31 357.43 539.3C357.74 539.25 357.95 538.94 357.9 538.62C357.86 538.33 357.84 538.05 357.83 537.76C357.83 537.02 358 536.3 358.29 535.62C358.38 535.41 358.48 535.21 358.57 535.01C358.61 534.92 358.69 534.85 358.78 534.81C359.79 534.38 360.85 534.08 361.93 533.89C363.05 533.68 364.18 533.6 365.31 533.65C366.52 533.69 367.72 533.9 368.88 534.27C369.38 534.43 369.87 534.64 370.36 534.83C370.45 534.87 370.52 534.94 370.57 535.03C370.89 535.62 371.11 536.25 371.24 536.91C371.33 537.4 371.34 537.89 371.28 538.39C371.27 538.5 371.26 538.61 371.25 538.73C371.23 539.06 371.48 539.35 371.81 539.37H371.88C372.54 539.37 373.2 539.29 373.84 539.15C373.94 539.13 373.97 539.15 373.99 539.24C374.09 539.78 374.22 540.31 374.29 540.85C374.36 541.36 374.38 541.88 374.41 542.38C374.42 542.58 374.43 542.78 374.43 542.9C374.43 543.83 374.35 544.75 374.21 545.67L374.22 545.66Z" fill="#F37D92"/>
<path d="M377.85 534.13C377.51 533.43 377 532.83 376.37 532.39C375.21 531.52 373.81 531.05 372.37 531.06C372.07 531.06 371.77 531.1 371.47 531.16C370.39 531.4 369.5 531.84 369.33 532.94C368.95 532.88 368.57 532.81 368.2 532.77C367.64 532.7 367.08 532.63 366.52 532.59C365.96 532.55 365.39 532.51 364.82 532.5C363.99 532.48 363.15 532.51 362.32 532.6C361.91 532.65 361.5 532.7 361.09 532.76C360.68 532.83 360.29 532.92 359.89 533.01C359.87 532.97 359.85 532.92 359.84 532.88C359.74 532.24 359.31 531.7 358.72 531.46C357.7 531 356.57 530.89 355.48 531.12C355.06 531.2 354.64 531.33 354.24 531.5C353.22 531.89 352.33 532.57 351.67 533.45C350.98 534.33 350.8 535.51 351.19 536.57C351.51 537.43 352.09 538.16 352.85 538.64C353.18 538.87 353.54 539.05 353.9 539.26H353.91C353.74 540.02 353.64 540.79 353.58 541.57C353.55 542.03 353.54 542.78 353.55 543.25C353.55 543.7 353.56 544.15 353.61 544.59C353.68 545.26 353.77 545.92 353.89 546.58C354.14 547.99 354.59 549.36 355.23 550.65C355.47 551.18 355.79 551.67 356.18 552.1C356.86 552.77 357.66 553.29 358.55 553.63C360.34 554.33 362.24 554.72 364.15 554.78C364.47 554.8 364.78 554.79 365.1 554.78C365.91 554.72 366.73 554.63 367.53 554.5C368.66 554.33 369.77 554 370.82 553.54C371.43 553.27 372 552.92 372.52 552.49C373.08 551.99 373.54 551.37 373.85 550.68C374.58 549.18 375.08 547.58 375.33 545.92C375.48 544.9 375.56 543.87 375.58 542.83C375.58 542.7 375.58 542.47 375.56 542.25C375.52 541.68 375.5 541.1 375.42 540.54C375.37 540.16 375.29 539.79 375.22 539.41C375.22 539.33 375.26 539.29 375.36 539.26C375.39 539.25 375.42 539.23 375.45 539.22C376.32 538.84 377.07 538.21 377.6 537.41C378.27 536.46 378.37 535.2 377.86 534.15L377.85 534.13ZM353.18 537.37C352.8 537.06 352.5 536.64 352.32 536.18C352.06 535.49 352.18 534.7 352.65 534.14C353.19 533.45 353.9 532.92 354.71 532.62C355.26 532.39 355.85 532.26 356.45 532.23C357.04 532.19 357.63 532.3 358.18 532.53C358.26 532.57 358.33 532.61 358.41 532.66C358.64 532.81 358.74 533.09 358.66 533.35C358.55 533.73 358.39 534.1 358.18 534.44C357.81 535.1 357.53 535.81 357.35 536.55C357.23 537.08 357.19 537.63 357.24 538.18C357.26 538.35 357.27 538.52 357.28 538.71C356.93 538.68 356.6 538.67 356.26 538.63C355.14 538.53 354.06 538.1 353.18 537.38V537.37ZM374.21 545.66C373.99 547.14 373.54 548.58 372.89 549.93C372.61 550.55 372.21 551.1 371.7 551.55C371.24 551.93 370.72 552.25 370.18 552.49C369.24 552.91 368.25 553.2 367.23 553.35C366.65 553.44 366.06 553.51 365.48 553.56C365.03 553.61 364.58 553.62 364.13 553.6C362.43 553.54 360.76 553.19 359.17 552.57C358.38 552.27 357.66 551.8 357.05 551.2C356.7 550.82 356.41 550.38 356.2 549.9C355.63 548.75 355.23 547.52 355 546.26C354.89 545.67 354.81 545.07 354.75 544.48C354.71 544.1 354.7 543.71 354.7 543.32C354.7 542.91 354.69 542.49 354.71 542.08C354.75 541.1 354.9 540.12 355.15 539.17C355.18 539.08 355.21 539.06 355.3 539.08C355.8 539.2 356.31 539.27 356.82 539.29C357.02 539.31 357.23 539.31 357.43 539.29C357.74 539.24 357.95 538.93 357.9 538.61C357.86 538.32 357.84 538.04 357.83 537.75C357.83 537.01 358 536.29 358.29 535.61C358.38 535.4 358.48 535.2 358.57 535C358.61 534.91 358.69 534.84 358.78 534.8C359.79 534.37 360.85 534.07 361.93 533.88C363.05 533.67 364.18 533.59 365.31 533.64C366.52 533.68 367.72 533.89 368.88 534.26C369.38 534.42 369.87 534.63 370.36 534.82C370.45 534.86 370.52 534.93 370.57 535.02C370.89 535.61 371.11 536.24 371.24 536.9C371.33 537.39 371.34 537.88 371.28 538.38C371.27 538.49 371.26 538.6 371.25 538.72C371.23 539.05 371.48 539.34 371.81 539.36H371.88C372.54 539.36 373.2 539.28 373.84 539.14C373.94 539.12 373.97 539.14 373.99 539.23C374.09 539.76 374.22 540.3 374.29 540.84C374.36 541.35 374.38 541.87 374.41 542.38C374.42 542.58 374.43 542.78 374.43 542.9C374.43 543.83 374.35 544.75 374.21 545.67V545.66ZM373.04 538.64C372.65 538.69 372.27 538.71 371.88 538.74C371.9 538.41 371.92 538.12 371.93 537.81C371.95 536.97 371.77 536.14 371.43 535.38C371.2 534.86 370.94 534.36 370.7 533.85C370.63 533.69 370.57 533.52 370.53 533.35C370.45 533.08 370.57 532.78 370.82 532.65C371.12 532.47 371.45 532.36 371.78 532.31C372.04 532.26 372.3 532.24 372.55 532.24C373.99 532.26 375.36 532.88 376.34 533.96C376.64 534.27 376.84 534.66 376.94 535.08C377.4 537.23 374.67 538.42 373.04 538.62V538.64Z" fill="#211E1F"/>
<path d="M364.56 544.91C365.17 544.91 365.78 544.97 366.38 545.11C366.76 545.19 367.11 545.38 367.39 545.65C367.64 545.9 367.8 546.23 367.83 546.59C367.86 546.99 367.86 547.4 367.83 547.8C367.77 548.37 367.48 548.88 367.04 549.24C366.49 549.71 365.81 550.01 365.09 550.08C364.27 550.2 363.43 550.05 362.69 549.67C362.11 549.4 361.65 548.91 361.4 548.3C361.31 548.09 361.27 547.86 361.25 547.64C361.23 547.25 361.25 546.86 361.3 546.47C361.38 545.94 361.73 545.49 362.22 545.28C362.59 545.11 362.98 545.01 363.38 544.98C363.77 544.94 364.17 544.93 364.56 544.91ZM364.46 545.52C364.21 545.53 363.86 545.54 363.51 545.58C363.14 545.6 362.78 545.69 362.44 545.85C362.17 545.97 361.97 546.21 361.9 546.5C361.82 546.91 361.8 547.33 361.86 547.75C361.93 548.23 362.2 548.65 362.6 548.91C363.08 549.27 363.65 549.47 364.25 549.5C364.99 549.58 365.73 549.4 366.37 549C366.82 548.75 367.14 548.31 367.23 547.79C367.27 547.41 367.27 547.03 367.23 546.66C367.2 546.28 366.95 545.95 366.6 545.82C366.51 545.78 366.42 545.74 366.32 545.72C365.71 545.57 365.08 545.5 364.45 545.51L364.46 545.52Z" fill="#211E1F"/>
<path d="M372.22 544.93C372.23 545.25 372.14 545.57 371.95 545.82C371.75 546.13 371.35 546.21 371.05 546.01C370.98 545.96 370.93 545.91 370.88 545.84C370.47 545.28 370.5 544.51 370.95 543.99C371.19 543.73 371.59 543.72 371.85 543.97C371.87 543.99 371.89 544.02 371.91 544.04C372.12 544.29 372.23 544.61 372.22 544.93Z" fill="#211E1F"/>
<path d="M359.11 544.91C359.12 545.26 359 545.6 358.77 545.86C358.54 546.13 358.15 546.15 357.88 545.92C357.85 545.89 357.82 545.87 357.8 545.83C357.42 545.34 357.38 544.66 357.69 544.13C357.84 543.82 358.2 543.67 358.52 543.79C358.7 543.87 358.84 544.01 358.93 544.19C359.05 544.41 359.11 544.66 359.1 544.91H359.11Z" fill="#211E1F"/>
<path d="M361.99 551.68C361.26 551.66 360.61 551.22 360.31 550.55C360.21 550.37 360.26 550.14 360.41 550.01C360.52 549.89 360.71 549.89 360.83 550.01C360.87 550.05 360.9 550.09 360.91 550.15C361.12 550.64 361.59 550.95 362.11 550.95C362.19 550.95 362.26 550.93 362.34 550.93C362.49 550.91 362.63 551.02 362.65 551.18C362.65 551.2 362.65 551.23 362.65 551.25C362.65 551.44 362.52 551.61 362.33 551.65C362.21 551.68 362.1 551.69 361.98 551.69L361.99 551.68Z" fill="#211E1F"/>
<path d="M363.38 547.23C363.38 547.38 363.31 547.52 363.21 547.62C363.1 547.73 362.93 547.73 362.82 547.62C362.59 547.36 362.59 546.97 362.82 546.71C362.92 546.59 363.1 546.59 363.22 546.69C363.22 546.69 363.23 546.7 363.24 546.71C363.36 546.85 363.42 547.04 363.4 547.22L363.38 547.23Z" fill="#211E1F"/>
<path d="M366.48 547.2C366.45 547.32 366.4 547.45 366.34 547.56C366.27 547.71 366.09 547.77 365.94 547.69C365.89 547.66 365.84 547.62 365.81 547.56C365.66 547.31 365.67 547 365.83 546.77C365.92 546.63 366.1 546.6 366.23 546.69C366.26 546.71 366.28 546.73 366.3 546.76C366.4 546.89 366.45 547.04 366.46 547.21L366.48 547.2Z" fill="#211E1F"/>
<path d="M353.18 537.37C352.8 537.06 352.5 536.64 352.32 536.18C352.06 535.49 352.18 534.7 352.65 534.14C353.19 533.45 353.9 532.92 354.71 532.62C355.26 532.39 355.85 532.26 356.45 532.23C357.04 532.19 357.63 532.3 358.18 532.53C358.26 532.57 358.33 532.61 358.41 532.66C358.64 532.81 358.74 533.09 358.66 533.35C358.55 533.73 358.39 534.1 358.18 534.44C357.81 535.1 357.53 535.81 357.35 536.55C357.23 537.08 357.19 537.63 357.24 538.18C357.26 538.35 357.27 538.52 357.28 538.71C356.93 538.68 356.6 538.67 356.26 538.63C355.14 538.53 354.06 538.1 353.18 537.38V537.37Z" fill="#F37D92"/>
<path d="M373.04 538.65C372.65 538.7 372.27 538.72 371.88 538.75C371.9 538.42 371.92 538.13 371.93 537.82C371.94 536.98 371.77 536.15 371.43 535.39C371.2 534.87 370.94 534.37 370.7 533.86C370.63 533.7 370.57 533.53 370.53 533.36C370.45 533.09 370.57 532.79 370.82 532.66C371.12 532.48 371.44 532.37 371.78 532.32C372.04 532.27 372.29 532.25 372.55 532.25C373.99 532.27 375.36 532.89 376.34 533.97C376.64 534.28 376.84 534.67 376.94 535.09C377.4 537.24 374.68 538.43 373.04 538.63V538.65Z" fill="#F37D92"/>
</g>
</g>
<defs>
<clipPath id="clip0_336_7279">
<rect width="728.37" height="541.14" fill="white" transform="translate(32 36)"/>
</clipPath>
</defs>
</svg>
