<svg width="792" height="612" viewBox="0 0 792 612" fill="none" xmlns="http://www.w3.org/2000/svg">
<rect width="792" height="612" fill="white"/>
<g clip-path="url(#clip0_336_7278)">
<path fill-rule="evenodd" clip-rule="evenodd" d="M67 68.6H727V538.6H67V68.6ZM60.87 93.78C58.52 91.95 57 89.09 57 85.88V84.89C57 81.68 58.51 78.82 60.87 76.99C58.52 75.16 57 72.3 57 69.09V58.6H67.5C70.75 58.6 73.64 60.15 75.46 62.55C77.29 60.15 80.17 58.6 83.42 58.6H84.42C87.67 58.6 90.56 60.15 92.38 62.55C94.21 60.15 97.09 58.6 100.34 58.6H101.34C104.59 58.6 107.48 60.15 109.3 62.55C111.13 60.15 114.02 58.6 117.26 58.6H118.26C121.51 58.6 124.4 60.15 126.22 62.55C128.05 60.15 130.94 58.6 134.18 58.6H135.18C138.43 58.6 141.32 60.15 143.14 62.55C144.97 60.15 147.85 58.6 151.1 58.6H152.1C155.35 58.6 158.24 60.15 160.06 62.55C161.89 60.15 164.77 58.6 168.02 58.6H169.02C172.27 58.6 175.16 60.15 176.98 62.55C178.81 60.15 181.69 58.6 184.94 58.6H185.93C189.18 58.6 192.07 60.15 193.89 62.55C195.72 60.15 198.6 58.6 201.85 58.6H202.85C206.1 58.6 208.99 60.15 210.81 62.55C212.64 60.15 215.52 58.6 218.77 58.6H219.76C223.01 58.6 225.9 60.15 227.72 62.55C229.55 60.15 232.43 58.6 235.68 58.6H236.67C239.92 58.6 242.81 60.15 244.63 62.55C246.46 60.15 249.34 58.6 252.59 58.6H253.58C256.83 58.6 259.72 60.15 261.54 62.55C263.37 60.15 266.25 58.6 269.5 58.6H270.5C273.75 58.6 276.64 60.15 278.46 62.55C280.29 60.15 283.17 58.6 286.42 58.6H287.42C290.67 58.6 293.56 60.15 295.38 62.55C297.21 60.15 300.09 58.6 303.34 58.6H304.34C307.59 58.6 310.48 60.15 312.3 62.55C314.13 60.15 317.01 58.6 320.26 58.6H321.26C324.51 58.6 327.4 60.15 329.22 62.55C331.05 60.15 333.93 58.6 337.18 58.6H338.18C341.43 58.6 344.32 60.15 346.14 62.55C347.97 60.15 350.85 58.6 354.1 58.6H355.09C358.34 58.6 361.23 60.15 363.05 62.55C364.88 60.15 367.76 58.6 371.01 58.6H372C375.25 58.6 378.14 60.15 379.96 62.55C381.79 60.15 384.67 58.6 387.92 58.6H388.92C392.17 58.6 395.06 60.15 396.88 62.55C398.71 60.15 401.59 58.6 404.84 58.6H405.84C409.09 58.6 411.98 60.15 413.8 62.55C415.63 60.15 418.51 58.6 421.76 58.6H422.75C426 58.6 428.89 60.15 430.71 62.55C432.54 60.15 435.42 58.6 438.67 58.6H439.66C442.91 58.6 445.8 60.15 447.62 62.55C449.45 60.15 452.33 58.6 455.58 58.6H456.58C459.83 58.6 462.72 60.15 464.54 62.55C466.37 60.15 469.26 58.6 472.5 58.6H473.5C476.75 58.6 479.64 60.15 481.46 62.55C483.29 60.15 486.17 58.6 489.42 58.6H490.42C493.67 58.6 496.56 60.15 498.38 62.55C500.21 60.15 503.09 58.6 506.34 58.6H507.34C510.59 58.6 513.48 60.15 515.3 62.55C517.13 60.15 520.01 58.6 523.26 58.6H524.26C527.51 58.6 530.4 60.15 532.22 62.55C534.05 60.15 536.93 58.6 540.18 58.6H541.18C544.43 58.6 547.32 60.15 549.14 62.55C550.97 60.15 553.85 58.6 557.1 58.6H558.1C561.35 58.6 564.24 60.15 566.06 62.55C567.89 60.15 570.77 58.6 574.02 58.6H575.01C578.26 58.6 581.15 60.15 582.97 62.55C584.8 60.15 587.68 58.6 590.93 58.6H591.92C595.17 58.6 598.06 60.15 599.88 62.55C601.71 60.15 604.59 58.6 607.84 58.6H608.83C612.08 58.6 614.97 60.15 616.79 62.55C618.62 60.15 621.5 58.6 624.75 58.6H625.74C628.99 58.6 631.88 60.15 633.7 62.55C635.53 60.15 638.41 58.6 641.66 58.6H642.65C645.9 58.6 648.79 60.15 650.61 62.55C652.44 60.15 655.32 58.6 658.57 58.6H659.56C662.81 58.6 665.7 60.15 667.52 62.55C669.35 60.15 672.23 58.6 675.48 58.6H676.48C679.73 58.6 682.62 60.15 684.44 62.55C686.27 60.15 689.15 58.6 692.4 58.6H693.4C696.65 58.6 699.54 60.15 701.36 62.55C703.19 60.15 706.08 58.6 709.32 58.6H710.32C713.57 58.6 716.46 60.15 718.28 62.55C720.11 60.15 722.99 58.6 726.24 58.6H736.74V69.09C736.74 72.3 735.23 75.16 732.87 76.99C735.22 78.82 736.74 81.68 736.74 84.89V85.88C736.74 89.09 735.23 91.95 732.87 93.78C735.22 95.61 736.74 98.47 736.74 101.68V102.67C736.74 105.88 735.23 108.74 732.87 110.57C735.22 112.4 736.74 115.26 736.74 118.47V119.46C736.74 122.67 735.23 125.53 732.87 127.36C735.22 129.19 736.74 132.05 736.74 135.26V136.25C736.74 139.46 735.23 142.32 732.87 144.15C735.22 145.98 736.74 148.84 736.74 152.05V153.04C736.74 156.25 735.23 159.11 732.87 160.94C735.22 162.77 736.74 165.63 736.74 168.84V169.83C736.74 173.04 735.23 175.9 732.87 177.73C735.22 179.56 736.74 182.42 736.74 185.63V186.62C736.74 189.83 735.23 192.69 732.87 194.52C735.22 196.35 736.74 199.21 736.74 202.42V203.41C736.74 206.62 735.23 209.48 732.87 211.31C735.22 213.14 736.74 216 736.74 219.21V220.2C736.74 223.41 735.23 226.27 732.87 228.1C735.22 229.93 736.74 232.79 736.74 236V236.99C736.74 240.2 735.23 243.06 732.87 244.89C735.22 246.72 736.74 249.58 736.74 252.79V253.78C736.74 256.99 735.23 259.85 732.87 261.68C735.22 263.51 736.74 266.37 736.74 269.58V270.57C736.74 273.78 735.23 276.64 732.87 278.47C735.22 280.3 736.74 283.16 736.74 286.37V287.36C736.74 290.57 735.23 293.43 732.87 295.26C735.22 297.09 736.74 299.95 736.74 303.16V304.15C736.74 307.36 735.23 310.22 732.87 312.05C735.22 313.88 736.74 316.74 736.74 319.95V320.94C736.74 324.15 735.23 327.01 732.87 328.84C735.22 330.67 736.74 333.53 736.74 336.74V337.73C736.74 340.94 735.23 343.8 732.87 345.63C735.22 347.46 736.74 350.32 736.74 353.53V354.52C736.74 357.73 735.23 360.59 732.87 362.42C735.22 364.25 736.74 367.11 736.74 370.32V371.31C736.74 374.52 735.23 377.38 732.87 379.21C735.22 381.04 736.74 383.9 736.74 387.11V388.1C736.74 391.31 735.23 394.17 732.87 396C735.22 397.83 736.74 400.69 736.74 403.9V404.89C736.74 408.1 735.23 410.96 732.87 412.79C735.22 414.62 736.74 417.48 736.74 420.69V421.68C736.74 424.89 735.23 427.75 732.87 429.58C735.22 431.41 736.74 434.27 736.74 437.48V438.47C736.74 441.68 735.23 444.54 732.87 446.37C735.22 448.2 736.74 451.06 736.74 454.27V455.26C736.74 458.47 735.23 461.33 732.87 463.16C735.22 464.99 736.74 467.85 736.74 471.06V472.05C736.74 475.26 735.23 478.12 732.87 479.95C735.22 481.78 736.74 484.64 736.74 487.85V488.84C736.74 492.05 735.23 494.91 732.87 496.74C735.22 498.57 736.74 501.43 736.74 504.64V505.63C736.74 508.84 735.23 511.7 732.87 513.53C735.22 515.36 736.74 518.22 736.74 521.43V522.42C736.74 525.63 735.23 528.49 732.87 530.32C735.22 532.15 736.74 535.01 736.74 538.22V548.71H726.24C722.99 548.71 720.1 547.16 718.28 544.76C716.45 547.16 713.57 548.71 710.32 548.71H709.33C706.08 548.71 703.19 547.16 701.37 544.76C699.54 547.16 696.66 548.71 693.41 548.71H692.41C689.16 548.71 686.27 547.16 684.45 544.76C682.62 547.16 679.74 548.71 676.49 548.71H675.49C672.24 548.71 669.35 547.16 667.53 544.76C665.7 547.16 662.81 548.71 659.57 548.71H658.57C655.32 548.71 652.43 547.16 650.61 544.76C648.78 547.16 645.9 548.71 642.65 548.71H641.65C638.4 548.71 635.51 547.16 633.69 544.76C631.86 547.16 628.98 548.71 625.73 548.71H624.73C621.48 548.71 618.59 547.16 616.77 544.76C614.94 547.16 612.06 548.71 608.81 548.71H607.82C604.57 548.71 601.68 547.16 599.86 544.76C598.03 547.16 595.15 548.71 591.9 548.71H590.91C587.66 548.71 584.77 547.16 582.95 544.76C581.12 547.16 578.24 548.71 574.99 548.71H574C570.75 548.71 567.86 547.16 566.04 544.76C564.21 547.16 561.33 548.71 558.08 548.71H557.08C553.83 548.71 550.94 547.16 549.12 544.76C547.29 547.16 544.41 548.71 541.16 548.71H540.17C536.92 548.71 534.03 547.16 532.21 544.76C530.38 547.16 527.5 548.71 524.25 548.71H523.25C520 548.71 517.11 547.16 515.29 544.76C513.46 547.16 510.58 548.71 507.33 548.71H506.33C503.08 548.71 500.19 547.16 498.37 544.76C496.54 547.16 493.66 548.71 490.41 548.71H489.41C486.16 548.71 483.27 547.16 481.45 544.76C479.62 547.16 476.74 548.71 473.49 548.71H472.49C469.24 548.71 466.35 547.16 464.53 544.76C462.7 547.16 459.82 548.71 456.57 548.71H455.57C452.32 548.71 449.43 547.16 447.61 544.76C445.78 547.16 442.9 548.71 439.65 548.71H438.66C435.41 548.71 432.52 547.16 430.7 544.76C428.87 547.16 425.99 548.71 422.74 548.71H421.75C418.5 548.71 415.61 547.16 413.79 544.76C411.96 547.16 409.08 548.71 405.83 548.71H404.83C401.58 548.71 398.69 547.16 396.87 544.76C395.04 547.16 392.16 548.71 388.91 548.71H387.91C384.66 548.71 381.77 547.16 379.95 544.76C378.12 547.16 375.24 548.71 371.99 548.71H371C367.75 548.71 364.86 547.16 363.04 544.76C361.21 547.16 358.33 548.71 355.08 548.71H354.09C350.84 548.71 347.95 547.16 346.13 544.76C344.3 547.16 341.42 548.71 338.17 548.71H337.17C333.92 548.71 331.03 547.16 329.21 544.76C327.38 547.16 324.49 548.71 321.25 548.71H320.25C317 548.71 314.11 547.16 312.29 544.76C310.46 547.16 307.58 548.71 304.33 548.71H303.33C300.08 548.71 297.19 547.16 295.37 544.76C293.54 547.16 290.66 548.71 287.41 548.71H286.41C283.16 548.71 280.27 547.16 278.45 544.76C276.62 547.16 273.74 548.71 270.49 548.71H269.49C266.24 548.71 263.35 547.16 261.53 544.76C259.7 547.16 256.82 548.71 253.57 548.71H252.57C249.32 548.71 246.43 547.16 244.61 544.76C242.78 547.16 239.9 548.71 236.65 548.71H235.66C232.41 548.71 229.52 547.16 227.7 544.76C225.87 547.16 222.99 548.71 219.74 548.71H218.75C215.5 548.71 212.61 547.16 210.79 544.76C208.96 547.16 206.08 548.71 202.83 548.71H201.83C198.58 548.71 195.69 547.16 193.87 544.76C192.04 547.16 189.16 548.71 185.91 548.71H184.92C181.67 548.71 178.78 547.16 176.96 544.76C175.13 547.16 172.25 548.71 169 548.71H168.01C164.76 548.71 161.87 547.16 160.05 544.76C158.22 547.16 155.34 548.71 152.09 548.71H151.09C147.84 548.71 144.95 547.16 143.13 544.76C141.3 547.16 138.42 548.71 135.17 548.71H134.18C130.93 548.71 128.04 547.16 126.22 544.76C124.39 547.16 121.51 548.71 118.26 548.71H117.26C114.01 548.71 111.12 547.16 109.3 544.76C107.47 547.16 104.59 548.71 101.34 548.71H100.34C97.09 548.71 94.2 547.16 92.38 544.76C90.55 547.16 87.67 548.71 84.42 548.71H83.42C80.17 548.71 77.28 547.16 75.46 544.76C73.63 547.16 70.75 548.71 67.5 548.71H57V538.22C57 535.01 58.51 532.15 60.87 530.32C58.52 528.49 57 525.63 57 522.42V521.43C57 518.22 58.51 515.36 60.87 513.53C58.52 511.7 57 508.84 57 505.63V504.64C57 501.43 58.51 498.57 60.87 496.74C58.52 494.91 57 492.05 57 488.84V487.85C57 484.64 58.51 481.78 60.87 479.95C58.52 478.12 57 475.26 57 472.05V471.06C57 467.85 58.51 464.99 60.87 463.16C58.52 461.33 57 458.47 57 455.26V454.27C57 451.06 58.51 448.2 60.87 446.37C58.52 444.54 57 441.68 57 438.47V437.48C57 434.27 58.51 431.41 60.87 429.58C58.52 427.75 57 424.89 57 421.68V420.69C57 417.48 58.51 414.62 60.87 412.79C58.52 410.96 57 408.1 57 404.89V403.9C57 400.69 58.51 397.83 60.87 396C58.52 394.17 57 391.31 57 388.1V387.11C57 383.9 58.51 381.04 60.87 379.21C58.52 377.38 57 374.52 57 371.31V370.32C57 367.11 58.51 364.25 60.87 362.42C58.52 360.59 57 357.73 57 354.52V353.53C57 350.32 58.51 347.46 60.87 345.63C58.52 343.8 57 340.94 57 337.73V336.74C57 333.53 58.51 330.67 60.87 328.84C58.52 327.01 57 324.15 57 320.94V319.95C57 316.74 58.51 313.88 60.87 312.05C58.52 310.22 57 307.36 57 304.15V303.16C57 299.95 58.51 297.09 60.87 295.26C58.52 293.43 57 290.57 57 287.36V286.37C57 283.16 58.51 280.3 60.87 278.47C58.52 276.64 57 273.78 57 270.57V269.58C57 266.37 58.51 263.51 60.87 261.68C58.52 259.85 57 256.99 57 253.78V252.79C57 249.58 58.51 246.72 60.87 244.89C58.52 243.06 57 240.2 57 236.99V236C57 232.79 58.51 229.93 60.87 228.1C58.52 226.27 57 223.41 57 220.2V219.21C57 216 58.51 213.14 60.87 211.31C58.52 209.48 57 206.62 57 203.41V202.42C57 199.21 58.51 196.35 60.87 194.52C58.52 192.69 57 189.83 57 186.62V185.63C57 182.42 58.51 179.56 60.87 177.73C58.52 175.9 57 173.04 57 169.83V168.84C57 165.63 58.51 162.77 60.87 160.94C58.52 159.11 57 156.25 57 153.04V152.05C57 148.84 58.51 145.98 60.87 144.15C58.52 142.32 57 139.46 57 136.25V135.26C57 132.05 58.51 129.19 60.87 127.36C58.52 125.53 57 122.67 57 119.46V118.47C57 115.26 58.51 112.4 60.87 110.57C58.52 108.74 57 105.88 57 102.67V101.68C57 98.47 58.51 95.61 60.87 93.78Z" fill="#F37778"/>
<path d="M79 110.6C97.7777 110.6 113 95.3777 113 76.6C113 57.8223 97.7777 42.6 79 42.6C60.2223 42.6 45 57.8223 45 76.6C45 95.3777 60.2223 110.6 79 110.6Z" fill="#F37778"/>
<path d="M714 110.6C732.778 110.6 748 95.3777 748 76.6C748 57.8223 732.778 42.6 714 42.6C695.222 42.6 680 57.8223 680 76.6C680 95.3777 695.222 110.6 714 110.6Z" fill="#F37778"/>
<path d="M714 557.6C732.778 557.6 748 542.378 748 523.6C748 504.822 732.778 489.6 714 489.6C695.222 489.6 680 504.822 680 523.6C680 542.378 695.222 557.6 714 557.6Z" fill="#F37778"/>
<path d="M79 557.6C97.7777 557.6 113 542.378 113 523.6C113 504.822 97.7777 489.6 79 489.6C60.2223 489.6 45 504.822 45 523.6C45 542.378 60.2223 557.6 79 557.6Z" fill="#F37778"/>
<path d="M437 515.6H358C348.059 515.6 340 523.659 340 533.6V550.6C340 560.541 348.059 568.6 358 568.6H437C446.941 568.6 455 560.541 455 550.6V533.6C455 523.659 446.941 515.6 437 515.6Z" fill="white" stroke="#F37778" stroke-width="10"/>
<path d="M135 521.1H319" stroke="#C9C9C9"/>
<path d="M476 521.1H660" stroke="#C9C9C9"/>
<path opacity="0.49" d="M400.4 57.02C402 56.47 403.72 57.31 404.35 58.91L404.42 59.11L406.93 67.29C407.49 69.02 406.58 70.89 404.92 71.47C403.32 72.02 401.6 71.18 400.97 69.58L400.9 69.38L398.39 61.2C397.83 59.47 398.74 57.6 400.4 57.02Z" fill="white"/>
<path d="M363.46 53.32L370.46 60.32" stroke="white" stroke-width="6" stroke-linecap="round" stroke-linejoin="round"/>
<path d="M431.46 53.32L424.46 60.32" stroke="white" stroke-width="6" stroke-linecap="round" stroke-linejoin="round"/>
<mask id="mask0_336_7278" style="mask-type:luminance" maskUnits="userSpaceOnUse" x="211" y="18" width="370" height="159">
<path d="M580.77 18H211.96V176.81H580.77V18Z" fill="white"/>
</mask>
<g mask="url(#mask0_336_7278)">
<path d="M347.05 149.65C347.05 149.65 295.73 151.51 243.41 159.23C247.41 133.23 258.43 123.16 258.43 123.16C258.43 123.16 238.39 115.97 228.39 109.31C251 87 296.7 77.65 343.7 78.84C348.37 108.84 347.03 149.65 347.03 149.65H347.05Z" fill="#41BEAC" stroke="#F37778" stroke-width="15" stroke-miterlimit="10"/>
<path d="M446.68 149.65C446.68 149.65 498 151.51 550.32 159.23C546.32 133.23 535.3 123.16 535.3 123.16C535.3 123.16 555.34 115.97 565.34 109.31C537.25 86.5 497.03 77.65 450.03 78.84C445.36 108.84 446.7 149.65 446.7 149.65H446.68Z" fill="#41BEAC" stroke="#F37778" stroke-width="15" stroke-miterlimit="10"/>
<path d="M395.95 166.82C434.28 166.82 465.36 135.74 465.36 97.41C465.36 59.08 434.28 28 395.95 28C357.62 28 326.54 59.08 326.54 97.41C326.54 135.74 357.62 166.82 395.95 166.82Z" fill="white" stroke="#F37778" stroke-width="20" stroke-miterlimit="10"/>
<path d="M347.05 149.65C347.05 149.65 295.73 151.51 243.41 159.23C247.41 133.23 258.43 123.16 258.43 123.16C258.43 123.16 238.39 115.97 228.39 109.31C254 86.5 296.7 77.65 343.7 78.84C348.37 108.84 347.03 149.65 347.03 149.65H347.05Z" fill="#41BEAC" stroke="white" stroke-width="5" stroke-miterlimit="10"/>
<path d="M446.68 149.65C446.68 149.65 498 151.51 550.32 159.23C546.32 133.23 535.3 123.16 535.3 123.16C535.3 123.16 555.34 115.97 565.34 109.31C537.25 87.5 497.03 77.65 450.03 78.84C445.36 108.84 446.7 149.65 446.7 149.65H446.68Z" fill="#41BEAC" stroke="white" stroke-width="5" stroke-miterlimit="10"/>
<path d="M395.95 169.32C435.66 169.32 467.86 137.12 467.86 97.41C467.86 57.7 435.66 25.5 395.95 25.5C356.24 25.5 324.04 57.7 324.04 97.41C324.04 137.12 356.24 169.32 395.95 169.32Z" fill="#41BEAC"/>
<path d="M395.95 28C434.28 28 465.36 59.07 465.36 97.41C465.36 135.75 434.29 166.82 395.95 166.82C357.61 166.82 326.54 135.75 326.54 97.41C326.54 59.07 357.62 28 395.95 28ZM395.95 23C354.92 23 321.54 56.38 321.54 97.41C321.54 138.44 354.92 171.82 395.95 171.82C436.98 171.82 470.36 138.44 470.36 97.41C470.36 56.38 436.97 23 395.95 23Z" fill="white"/>
<path fill-rule="evenodd" clip-rule="evenodd" d="M429.43 147.98C428.46 147.98 427.53 147.69 426.73 147.14L395.9 126.15L365.05 147.15C364.26 147.69 363.33 147.98 362.38 147.98C361.34 147.98 360.34 147.64 359.49 147C357.89 145.85 357.19 143.75 357.78 141.8L368.65 106.32L338.71 83.09C337.09 81.81 336.45 79.67 337.11 77.74C337.76 75.78 339.61 74.38 341.6 74.36H379.05L391.39 38.23C392.04 36.3 393.85 35.01 395.9 35.01C397.95 35.01 399.76 36.31 400.42 38.24L412.74 74.36H450.12C452.21 74.41 454.02 75.77 454.68 77.75C455.33 79.68 454.69 81.82 453.1 83.07L423.14 106.32L434 141.8C434.6 143.73 433.89 145.84 432.25 147.05C431.45 147.65 430.47 147.98 429.43 147.98Z" fill="#F0C86A"/>
<path d="M395.89 37.51C396.86 37.51 397.73 38.14 398.05 39.06L410.94 76.86H450.11C451.13 76.88 451.99 77.62 452.3 78.54C452.61 79.48 452.31 80.51 451.55 81.11L420.24 105.4L431.61 142.53C431.89 143.45 431.57 144.45 430.77 145.03C430.38 145.33 429.91 145.48 429.43 145.48C428.98 145.48 428.53 145.35 428.14 145.08L395.9 123.13L363.65 145.08C363.27 145.34 362.83 145.48 362.39 145.48C361.91 145.48 361.42 145.32 360.99 145C360.22 144.45 359.9 143.45 360.18 142.53L371.55 105.41L340.25 81.13C339.47 80.52 339.16 79.49 339.48 78.56C339.78 77.65 340.67 76.89 341.63 76.88H380.85L393.77 39.06C394.08 38.14 394.94 37.53 395.91 37.53M395.91 32.53C392.79 32.53 390.02 34.51 389.03 37.47L377.28 71.88H341.64C338.55 71.91 335.74 74.01 334.75 76.98C333.76 79.88 334.73 83.14 337.17 85.06L365.77 107.25L355.41 141.07C354.51 144.05 355.57 147.24 358.05 149.04C359.34 149.99 360.84 150.49 362.41 150.49C363.87 150.49 365.28 150.05 366.5 149.22L395.93 129.19L425.36 149.23C426.57 150.06 427.99 150.5 429.47 150.5C430.95 150.5 432.55 149.99 433.79 149.07C436.28 147.23 437.34 144.02 436.43 141.08L426.08 107.27L454.67 85.09C457.11 83.17 458.08 79.92 457.1 76.98C456.11 74 453.37 71.96 450.29 71.89H414.58L402.84 37.48C401.82 34.52 399.05 32.55 395.95 32.55L395.91 32.53Z" fill="white"/>
<path d="M410.95 76.86L398.06 39.06C397.74 38.14 396.87 37.51 395.9 37.51C394.93 37.51 394.07 38.12 393.76 39.04L380.84 76.86H346.22C348.73 78.5 361.38 87.35 372.93 94.05C373.61 94.45 375.98 95.7 376.45 97.26C376.96 98.92 367.35 121.47 366.2 124.88C364.4 130.21 367.2 131.38 374.02 127.16C379.26 123.92 396.5 111.42 396.5 111.42C396.5 111.42 426.73 134.45 429.64 136.07L420.25 105.4L420.65 105.09L417.79 95.47L443.54 76.86H410.95Z" fill="#FFD570"/>
<path opacity="0.49" d="M399.76 60.42C401.36 59.87 403.08 60.71 403.71 62.31L403.78 62.51L406.29 70.69C406.85 72.42 405.94 74.29 404.28 74.87C402.68 75.42 400.96 74.58 400.33 72.98L400.26 72.78L397.75 64.6C397.19 62.87 398.1 61 399.76 60.42Z" fill="white"/>
<path d="M362.82 55.84L369.82 62.84" stroke="white" stroke-width="6" stroke-linecap="round" stroke-linejoin="round"/>
<path d="M430.82 55.84L423.82 62.84" stroke="white" stroke-width="6" stroke-linecap="round" stroke-linejoin="round"/>
<path d="M437.82 110.49L446.95 114.31" stroke="white" stroke-width="6" stroke-linecap="round" stroke-linejoin="round"/>
<path d="M353.95 109.49L344.82 113.31" stroke="white" stroke-width="6" stroke-linecap="round" stroke-linejoin="round"/>
<path d="M396.77 138.84V148.74" stroke="white" stroke-width="6" stroke-linecap="round" stroke-linejoin="round"/>
<path d="M278.5 119.5C285.5 116.75 297 114.75 306.96 114" stroke="white" stroke-width="5" stroke-linecap="round" stroke-linejoin="round"/>
<path d="M516.47 118.25C506.954 115.479 495.707 113.896 484.46 113.5" stroke="white" stroke-width="5" stroke-linecap="round" stroke-linejoin="round"/>
</g>
<path d="M217.6 168.47L216.72 166.12C216.7 166.06 216.66 166.01 216.62 165.96C216.58 165.91 216.52 165.88 216.46 165.86L214.11 164.99C214.02 164.96 213.95 164.9 213.9 164.83C213.85 164.75 213.82 164.66 213.82 164.57C213.82 164.48 213.85 164.39 213.9 164.31C213.95 164.24 214.03 164.18 214.11 164.15L216.45 163.28C216.51 163.26 216.57 163.22 216.61 163.18C216.66 163.13 216.69 163.08 216.71 163.02L217.58 160.67C217.61 160.58 217.67 160.51 217.74 160.46C217.81 160.41 217.91 160.38 218 160.38C218.09 160.38 218.18 160.41 218.26 160.46C218.34 160.51 218.39 160.59 218.43 160.67L219.3 163.02C219.32 163.08 219.36 163.14 219.4 163.18C219.45 163.23 219.5 163.26 219.56 163.28L221.91 164.15C222 164.18 222.07 164.24 222.12 164.32C222.17 164.39 222.2 164.48 222.2 164.58C222.2 164.68 222.17 164.76 222.12 164.84C222.07 164.92 221.99 164.97 221.91 165L219.56 165.88C219.5 165.9 219.45 165.94 219.4 165.98C219.35 166.02 219.32 166.08 219.3 166.14L218.43 168.49C218.4 168.57 218.34 168.65 218.27 168.7C218.2 168.75 218.11 168.78 218.02 168.78C217.93 168.78 217.84 168.75 217.77 168.7C217.69 168.65 217.64 168.58 217.6 168.49V168.47Z" fill="#FFD670"/>
<path d="M183.12 91.67L182.24 89.32C182.22 89.26 182.18 89.2 182.14 89.16C182.09 89.11 182.04 89.08 181.98 89.06L179.63 88.19C179.54 88.16 179.47 88.1 179.42 88.03C179.37 87.95 179.34 87.86 179.34 87.77C179.34 87.68 179.37 87.59 179.42 87.51C179.47 87.43 179.55 87.38 179.63 87.34L181.98 86.47C182.04 86.45 182.09 86.41 182.14 86.37C182.19 86.32 182.22 86.27 182.25 86.21L183.12 83.86C183.15 83.77 183.21 83.7 183.28 83.65C183.35 83.6 183.44 83.57 183.54 83.57C183.64 83.57 183.72 83.6 183.8 83.65C183.87 83.7 183.93 83.78 183.97 83.86L184.84 86.21C184.86 86.27 184.9 86.33 184.94 86.37C184.98 86.42 185.04 86.45 185.1 86.47L187.45 87.34C187.54 87.37 187.61 87.43 187.66 87.51C187.71 87.59 187.74 87.68 187.74 87.77C187.74 87.86 187.71 87.95 187.66 88.03C187.61 88.11 187.53 88.16 187.45 88.2L185.11 89.07C185.05 89.09 184.99 89.13 184.95 89.17C184.9 89.22 184.87 89.27 184.85 89.33L183.98 91.68C183.95 91.77 183.89 91.84 183.82 91.89C183.75 91.94 183.66 91.97 183.56 91.97C183.46 91.97 183.38 91.94 183.31 91.89C183.23 91.84 183.18 91.76 183.14 91.68L183.12 91.67Z" fill="#E7B521"/>
<path d="M281.85 178.93L280.97 176.58C280.95 176.52 280.91 176.46 280.87 176.42C280.83 176.38 280.77 176.34 280.71 176.32L278.36 175.45C278.27 175.42 278.2 175.36 278.15 175.28C278.1 175.2 278.07 175.12 278.07 175.02C278.07 174.92 278.1 174.84 278.15 174.76C278.2 174.68 278.28 174.63 278.36 174.6L280.71 173.72C280.77 173.7 280.83 173.66 280.87 173.62C280.91 173.58 280.95 173.52 280.97 173.46L281.84 171.11C281.87 171.02 281.93 170.95 282 170.9C282.08 170.85 282.17 170.82 282.26 170.82C282.35 170.82 282.44 170.85 282.52 170.9C282.6 170.95 282.65 171.03 282.69 171.11L283.57 173.46C283.59 173.52 283.63 173.57 283.67 173.62C283.72 173.66 283.77 173.7 283.83 173.72L286.18 174.59C286.27 174.62 286.34 174.68 286.39 174.75C286.44 174.83 286.47 174.92 286.47 175.01C286.47 175.1 286.44 175.19 286.39 175.27C286.34 175.35 286.26 175.4 286.18 175.44L283.84 176.32C283.78 176.34 283.72 176.38 283.68 176.42C283.64 176.46 283.6 176.52 283.58 176.58L282.71 178.93C282.68 179.02 282.62 179.09 282.55 179.14C282.48 179.19 282.39 179.22 282.29 179.22C282.19 179.22 282.11 179.19 282.03 179.14C281.96 179.09 281.9 179.02 281.87 178.93H281.85Z" fill="#E7B521"/>
<path d="M511.85 173.93L510.97 171.58C510.95 171.52 510.91 171.46 510.87 171.42C510.82 171.37 510.77 171.34 510.71 171.32L508.36 170.45C508.27 170.42 508.2 170.36 508.15 170.28C508.1 170.2 508.07 170.12 508.07 170.02C508.07 169.92 508.1 169.84 508.15 169.76C508.2 169.68 508.28 169.63 508.36 169.6L510.71 168.72C510.77 168.7 510.82 168.66 510.87 168.62C510.91 168.58 510.95 168.52 510.97 168.46L511.84 166.11C511.87 166.02 511.93 165.95 512.01 165.9C512.09 165.85 512.18 165.82 512.27 165.82C512.36 165.82 512.45 165.85 512.53 165.9C512.61 165.95 512.66 166.03 512.69 166.11L513.57 168.46C513.59 168.52 513.63 168.57 513.67 168.62C513.72 168.66 513.77 168.7 513.83 168.72L516.18 169.59C516.27 169.62 516.34 169.68 516.39 169.75C516.44 169.83 516.47 169.92 516.47 170.01C516.47 170.1 516.44 170.19 516.39 170.27C516.34 170.35 516.26 170.4 516.18 170.44L513.84 171.32C513.78 171.34 513.72 171.38 513.68 171.42C513.64 171.46 513.6 171.52 513.57 171.58L512.7 173.93C512.67 174.02 512.61 174.09 512.53 174.14C512.45 174.19 512.37 174.22 512.27 174.22C512.17 174.22 512.09 174.19 512.02 174.14C511.94 174.09 511.89 174.02 511.85 173.93Z" fill="#E7B521"/>
<path d="M221.47 144.24L219.45 138.85C219.4 138.71 219.32 138.58 219.21 138.48C219.11 138.38 218.98 138.29 218.84 138.24L213.45 136.24C213.25 136.17 213.07 136.04 212.94 135.86C212.81 135.68 212.75 135.47 212.75 135.26C212.75 135.05 212.82 134.83 212.94 134.66C213.07 134.49 213.24 134.35 213.45 134.28L218.84 132.27C218.98 132.22 219.1 132.14 219.21 132.04C219.31 131.94 219.4 131.81 219.45 131.68L221.46 126.28C221.53 126.08 221.66 125.9 221.84 125.77C222.02 125.65 222.23 125.58 222.44 125.58C222.65 125.58 222.87 125.65 223.04 125.77C223.22 125.9 223.35 126.07 223.42 126.28L225.43 131.67C225.48 131.81 225.56 131.93 225.66 132.04C225.76 132.14 225.89 132.22 226.02 132.28L231.41 134.29C231.61 134.36 231.79 134.49 231.92 134.67C232.05 134.85 232.11 135.06 232.11 135.27C232.11 135.48 232.04 135.7 231.92 135.87C231.8 136.05 231.62 136.18 231.41 136.25L226.02 138.25C225.88 138.3 225.75 138.38 225.65 138.49C225.55 138.6 225.46 138.72 225.41 138.86L223.41 144.25C223.34 144.45 223.2 144.62 223.03 144.74C222.86 144.86 222.65 144.93 222.44 144.93C222.23 144.93 222.02 144.86 221.85 144.74C221.68 144.62 221.55 144.45 221.47 144.25V144.24Z" fill="#FFD670"/>
<path d="M157.64 104.65L155.63 99.26C155.58 99.12 155.5 98.99 155.39 98.89C155.28 98.78 155.16 98.7 155.02 98.65L149.63 96.64C149.43 96.57 149.26 96.43 149.14 96.26C149.02 96.09 148.96 95.88 148.96 95.67C148.96 95.46 149.02 95.25 149.14 95.08C149.26 94.91 149.43 94.77 149.63 94.7L155.02 92.69C155.16 92.64 155.29 92.56 155.39 92.45C155.49 92.34 155.58 92.22 155.63 92.08L157.63 86.67C157.7 86.47 157.84 86.3 158.01 86.18C158.18 86.06 158.39 85.99 158.6 85.99C158.81 85.99 159.02 86.05 159.19 86.18C159.36 86.3 159.5 86.47 159.57 86.67L161.58 92.06C161.63 92.2 161.71 92.33 161.82 92.43C161.92 92.54 162.05 92.62 162.19 92.67L167.59 94.67C167.79 94.74 167.97 94.87 168.1 95.05C168.22 95.23 168.29 95.44 168.29 95.65C168.29 95.86 168.22 96.08 168.1 96.25C167.97 96.43 167.8 96.56 167.59 96.63L162.2 98.64C162.06 98.69 161.93 98.77 161.83 98.88C161.73 98.99 161.65 99.11 161.59 99.25L159.58 104.64C159.51 104.84 159.37 105.01 159.2 105.13C159.03 105.25 158.82 105.32 158.61 105.31C158.4 105.31 158.19 105.24 158.02 105.12C157.85 105 157.71 104.83 157.64 104.63V104.65Z" fill="#E7B521"/>
<path d="M197.65 170.44L195.64 165.05C195.59 164.91 195.51 164.78 195.4 164.68C195.29 164.57 195.17 164.49 195.03 164.44L189.64 162.44C189.44 162.37 189.27 162.23 189.15 162.06C189.03 161.89 188.96 161.68 188.96 161.47C188.96 161.26 189.03 161.05 189.15 160.88C189.27 160.71 189.44 160.57 189.64 160.5L195.03 158.5C195.17 158.45 195.3 158.37 195.4 158.26C195.51 158.16 195.59 158.03 195.64 157.89L197.64 152.49C197.71 152.29 197.85 152.12 198.02 152C198.19 151.88 198.4 151.82 198.61 151.82C198.82 151.82 199.03 151.88 199.2 152C199.37 152.12 199.51 152.29 199.58 152.49L201.59 157.88C201.64 158.02 201.72 158.15 201.83 158.25C201.94 158.36 202.06 158.44 202.2 158.49L207.59 160.5C207.79 160.57 207.96 160.71 208.08 160.88C208.2 161.05 208.27 161.26 208.27 161.47C208.27 161.68 208.2 161.89 208.08 162.06C207.96 162.23 207.79 162.36 207.59 162.44L202.2 164.45C202.06 164.5 201.93 164.58 201.83 164.69C201.72 164.79 201.64 164.92 201.59 165.06L199.58 170.45C199.51 170.65 199.37 170.82 199.2 170.94C199.03 171.06 198.82 171.12 198.61 171.12C198.4 171.12 198.19 171.05 198.02 170.93C197.85 170.81 197.72 170.64 197.64 170.44H197.65Z" fill="#E7B521"/>
<path d="M332.77 180.68L330.76 175.29C330.71 175.15 330.63 175.02 330.52 174.92C330.41 174.81 330.29 174.73 330.15 174.68L324.76 172.67C324.56 172.6 324.39 172.46 324.27 172.29C324.15 172.12 324.09 171.91 324.09 171.7C324.09 171.49 324.15 171.28 324.27 171.11C324.39 170.94 324.56 170.81 324.76 170.73L330.15 168.72C330.29 168.67 330.42 168.59 330.52 168.48C330.62 168.37 330.71 168.25 330.76 168.11L332.76 162.7C332.83 162.5 332.96 162.33 333.14 162.21C333.31 162.09 333.52 162.02 333.73 162.02C333.94 162.02 334.15 162.09 334.32 162.21C334.49 162.33 334.63 162.5 334.7 162.7L336.72 168.1C336.77 168.24 336.85 168.37 336.96 168.47C337.06 168.58 337.19 168.66 337.33 168.71L342.73 170.71C342.93 170.78 343.1 170.92 343.22 171.09C343.34 171.26 343.41 171.47 343.41 171.68C343.41 171.89 343.34 172.1 343.22 172.27C343.1 172.44 342.93 172.58 342.73 172.65L337.34 174.66C337.2 174.71 337.07 174.79 336.97 174.9C336.86 175.01 336.78 175.13 336.73 175.27L334.72 180.66C334.65 180.86 334.52 181.03 334.34 181.16C334.17 181.28 333.96 181.35 333.74 181.35C333.52 181.35 333.32 181.28 333.14 181.16C332.97 181.04 332.83 180.86 332.76 180.66L332.77 180.68Z" fill="#FFD670"/>
<path d="M648.67 144.13L646.32 145.01C646.26 145.03 646.21 145.07 646.16 145.11C646.11 145.16 646.08 145.21 646.06 145.27L645.19 147.62C645.16 147.71 645.1 147.78 645.03 147.83C644.95 147.88 644.86 147.91 644.77 147.91C644.68 147.91 644.59 147.88 644.51 147.83C644.43 147.78 644.38 147.7 644.35 147.62L643.48 145.28C643.46 145.22 643.42 145.16 643.38 145.12C643.33 145.07 643.28 145.04 643.22 145.02L640.87 144.15C640.78 144.12 640.71 144.06 640.66 143.98C640.61 143.9 640.58 143.81 640.58 143.72C640.58 143.63 640.61 143.54 640.66 143.46C640.71 143.39 640.79 143.33 640.87 143.29L643.22 142.42C643.28 142.4 643.34 142.36 643.38 142.32C643.43 142.28 643.46 142.22 643.48 142.16L644.35 139.81C644.38 139.72 644.44 139.65 644.52 139.6C644.59 139.55 644.68 139.52 644.78 139.52C644.88 139.52 644.96 139.55 645.04 139.6C645.12 139.65 645.17 139.73 645.21 139.81L646.08 142.16C646.1 142.22 646.14 142.27 646.18 142.32C646.23 142.36 646.28 142.4 646.34 142.42L648.69 143.29C648.77 143.32 648.85 143.38 648.9 143.46C648.95 143.53 648.98 143.62 648.98 143.71C648.98 143.8 648.95 143.89 648.9 143.96C648.85 144.04 648.78 144.09 648.69 144.13H648.67Z" fill="#FFD670"/>
<path d="M560.32 81.92L557.97 82.8C557.91 82.82 557.85 82.86 557.81 82.9C557.77 82.95 557.73 83 557.71 83.06L556.84 85.41C556.81 85.5 556.75 85.57 556.68 85.62C556.6 85.67 556.51 85.7 556.42 85.7C556.33 85.7 556.24 85.67 556.16 85.62C556.08 85.57 556.03 85.49 555.99 85.41L555.12 83.06C555.1 83 555.06 82.95 555.02 82.9C554.97 82.85 554.92 82.82 554.86 82.8L552.51 81.93C552.42 81.9 552.35 81.84 552.3 81.76C552.25 81.68 552.22 81.59 552.22 81.5C552.22 81.41 552.25 81.32 552.3 81.24C552.35 81.16 552.43 81.11 552.51 81.07L554.86 80.2C554.92 80.18 554.98 80.14 555.02 80.1C555.07 80.05 555.1 80 555.12 79.94L555.99 77.59C556.02 77.5 556.08 77.43 556.15 77.38C556.23 77.33 556.32 77.3 556.41 77.3C556.5 77.3 556.59 77.33 556.67 77.38C556.75 77.43 556.8 77.51 556.83 77.59L557.7 79.93C557.72 79.99 557.76 80.05 557.8 80.09C557.84 80.14 557.9 80.17 557.96 80.2L560.31 81.07C560.4 81.1 560.47 81.16 560.52 81.24C560.57 81.32 560.6 81.4 560.6 81.5C560.6 81.6 560.57 81.68 560.52 81.76C560.47 81.84 560.4 81.89 560.31 81.93L560.32 81.92Z" fill="#E7B521"/>
<path d="M477.05 173.59L471.66 175.61C471.52 175.66 471.39 175.74 471.29 175.85C471.18 175.95 471.1 176.08 471.05 176.22L469.05 181.61C468.98 181.82 468.85 181.99 468.67 182.12C468.49 182.24 468.28 182.31 468.07 182.31C467.86 182.31 467.64 182.24 467.47 182.12C467.29 181.99 467.16 181.82 467.09 181.61L465.08 176.22C465.03 176.08 464.95 175.96 464.85 175.85C464.75 175.75 464.62 175.66 464.49 175.61L459.09 173.6C458.89 173.53 458.71 173.4 458.58 173.22C458.46 173.04 458.39 172.83 458.39 172.62C458.39 172.41 458.46 172.19 458.58 172.02C458.71 171.84 458.88 171.71 459.09 171.64L464.48 169.63C464.62 169.58 464.74 169.5 464.85 169.4C464.95 169.3 465.03 169.17 465.09 169.04L467.1 163.65C467.17 163.45 467.3 163.27 467.48 163.14C467.65 163.02 467.87 162.95 468.08 162.95C468.29 162.95 468.51 163.02 468.68 163.14C468.86 163.27 468.99 163.44 469.06 163.65L471.06 169.04C471.11 169.18 471.19 169.31 471.3 169.41C471.41 169.51 471.53 169.6 471.67 169.65L477.06 171.65C477.26 171.72 477.43 171.86 477.55 172.03C477.67 172.2 477.74 172.41 477.74 172.62C477.74 172.83 477.67 173.04 477.55 173.21C477.43 173.38 477.26 173.52 477.06 173.59H477.05Z" fill="#FFD670"/>
<path d="M606.55 135.36L601.16 137.37C601.02 137.42 600.89 137.5 600.79 137.61C600.69 137.72 600.6 137.84 600.55 137.98L598.54 143.37C598.47 143.57 598.33 143.74 598.16 143.86C597.99 143.98 597.78 144.05 597.57 144.05C597.36 144.05 597.15 143.98 596.98 143.86C596.81 143.74 596.67 143.57 596.6 143.37L594.59 137.98C594.54 137.84 594.46 137.71 594.35 137.61C594.24 137.5 594.12 137.42 593.98 137.37L588.57 135.37C588.37 135.3 588.2 135.16 588.08 134.99C587.96 134.82 587.89 134.61 587.89 134.4C587.89 134.19 587.96 133.98 588.08 133.81C588.2 133.64 588.37 133.5 588.57 133.43L593.96 131.42C594.1 131.37 594.23 131.29 594.33 131.18C594.44 131.08 594.52 130.95 594.57 130.81L596.57 125.41C596.64 125.21 596.77 125.03 596.95 124.9C597.13 124.77 597.34 124.71 597.55 124.71C597.76 124.71 597.98 124.78 598.15 124.9C598.33 125.02 598.46 125.2 598.53 125.41L600.54 130.8C600.59 130.94 600.67 131.06 600.78 131.17C600.88 131.27 601.01 131.36 601.15 131.41L606.54 133.42C606.74 133.49 606.91 133.63 607.03 133.8C607.15 133.97 607.21 134.18 607.21 134.39C607.21 134.6 607.14 134.81 607.02 134.98C606.9 135.15 606.73 135.29 606.53 135.36H606.55Z" fill="#E7B521"/>
<path d="M643.53 125.34L638.14 127.35C638 127.4 637.87 127.48 637.77 127.59C637.67 127.7 637.58 127.82 637.53 127.96L635.53 133.35C635.46 133.55 635.32 133.72 635.15 133.84C634.98 133.96 634.77 134.03 634.56 134.03C634.35 134.03 634.14 133.97 633.97 133.84C633.8 133.72 633.67 133.55 633.59 133.35L631.59 127.96C631.54 127.82 631.46 127.7 631.35 127.59C631.25 127.48 631.12 127.4 630.98 127.35L625.58 125.35C625.38 125.28 625.21 125.14 625.09 124.97C624.97 124.8 624.91 124.59 624.91 124.38C624.91 124.17 624.97 123.96 625.09 123.79C625.21 123.62 625.38 123.48 625.58 123.41L630.97 121.4C631.11 121.35 631.24 121.27 631.34 121.16C631.45 121.06 631.53 120.93 631.58 120.79L633.59 115.4C633.66 115.2 633.79 115.03 633.97 114.91C634.14 114.79 634.35 114.72 634.56 114.72C634.77 114.72 634.98 114.78 635.15 114.91C635.32 115.03 635.46 115.2 635.53 115.4L637.54 120.79C637.59 120.93 637.67 121.06 637.78 121.16C637.88 121.27 638.01 121.35 638.15 121.4L643.54 123.41C643.74 123.48 643.91 123.62 644.03 123.79C644.15 123.96 644.21 124.17 644.21 124.38C644.21 124.59 644.14 124.8 644.02 124.97C643.9 125.14 643.73 125.28 643.53 125.35V125.34Z" fill="#FFD570"/>
<path d="M590.4 169.71L585.01 171.72C584.87 171.77 584.74 171.85 584.64 171.96C584.54 172.07 584.45 172.19 584.4 172.33L582.39 177.72C582.32 177.92 582.18 178.09 582.01 178.21C581.84 178.33 581.63 178.39 581.42 178.39C581.21 178.39 581 178.33 580.83 178.21C580.66 178.09 580.52 177.92 580.45 177.72L578.44 172.33C578.39 172.19 578.31 172.06 578.2 171.96C578.1 171.85 577.97 171.77 577.83 171.72L572.42 169.72C572.22 169.65 572.05 169.51 571.93 169.34C571.81 169.17 571.74 168.96 571.74 168.75C571.74 168.54 571.81 168.33 571.93 168.16C572.05 167.99 572.22 167.85 572.42 167.78L577.82 165.76C577.96 165.71 578.09 165.63 578.19 165.52C578.3 165.42 578.38 165.29 578.43 165.15L580.43 159.75C580.5 159.55 580.64 159.38 580.81 159.26C580.98 159.14 581.19 159.07 581.4 159.07C581.61 159.07 581.82 159.13 581.99 159.26C582.16 159.38 582.3 159.55 582.37 159.75L584.38 165.14C584.43 165.28 584.51 165.41 584.62 165.51C584.72 165.62 584.85 165.7 584.99 165.75L590.38 167.76C590.58 167.83 590.76 167.96 590.88 168.14C591 168.31 591.07 168.52 591.07 168.74C591.07 168.96 591 169.16 590.88 169.34C590.76 169.52 590.58 169.65 590.38 169.72L590.4 169.71Z" fill="#FFD670"/>
<path d="M135.56 423.01C138.86 423.01 141.54 425.69 141.54 428.99C141.54 432.29 138.86 434.97 135.56 434.97C132.26 434.97 129.58 432.29 129.58 428.99C129.58 425.69 132.26 423.01 135.56 423.01ZM166.32 423.01C169.62 423.01 172.3 425.69 172.3 428.99C172.3 432.29 169.62 434.97 166.32 434.97C163.02 434.97 160.34 432.29 160.34 428.99C160.34 425.69 163.02 423.01 166.32 423.01ZM197.08 423.01C200.38 423.01 203.06 425.69 203.06 428.99C203.06 432.29 200.38 434.97 197.08 434.97C193.78 434.97 191.1 432.29 191.1 428.99C191.1 425.69 193.78 423.01 197.08 423.01ZM227.84 423.01C231.14 423.01 233.82 425.69 233.82 428.99C233.82 432.29 231.14 434.97 227.84 434.97C224.54 434.97 221.86 432.29 221.86 428.99C221.86 425.69 224.54 423.01 227.84 423.01ZM258.6 423.01C261.9 423.01 264.58 425.69 264.58 428.99C264.58 432.29 261.9 434.97 258.6 434.97C255.3 434.97 252.62 432.29 252.62 428.99C252.62 425.69 255.3 423.01 258.6 423.01ZM289.36 423.01C292.66 423.01 295.34 425.69 295.34 428.99C295.34 432.29 292.66 434.97 289.36 434.97C286.06 434.97 283.38 432.29 283.38 428.99C283.38 425.69 286.06 423.01 289.36 423.01ZM320.12 423.01C323.42 423.01 326.1 425.69 326.1 428.99C326.1 432.29 323.42 434.97 320.12 434.97C316.82 434.97 314.14 432.29 314.14 428.99C314.14 425.69 316.82 423.01 320.12 423.01ZM350.88 423.01C354.18 423.01 356.86 425.69 356.86 428.99C356.86 432.29 354.18 434.97 350.88 434.97C347.58 434.97 344.9 432.29 344.9 428.99C344.9 425.69 347.58 423.01 350.88 423.01ZM381.64 423.01C384.94 423.01 387.62 425.69 387.62 428.99C387.62 432.29 384.94 434.97 381.64 434.97C378.34 434.97 375.66 432.29 375.66 428.99C375.66 425.69 378.34 423.01 381.64 423.01ZM412.4 423.01C415.7 423.01 418.38 425.69 418.38 428.99C418.38 432.29 415.7 434.97 412.4 434.97C409.1 434.97 406.42 432.29 406.42 428.99C406.42 425.69 409.1 423.01 412.4 423.01ZM443.16 423.01C446.46 423.01 449.14 425.69 449.14 428.99C449.14 432.29 446.46 434.97 443.16 434.97C439.86 434.97 437.18 432.29 437.18 428.99C437.18 425.69 439.86 423.01 443.16 423.01ZM473.92 423.01C477.22 423.01 479.9 425.69 479.9 428.99C479.9 432.29 477.22 434.97 473.92 434.97C470.62 434.97 467.94 432.29 467.94 428.99C467.94 425.69 470.62 423.01 473.92 423.01ZM504.68 423.01C507.98 423.01 510.66 425.69 510.66 428.99C510.66 432.29 507.98 434.97 504.68 434.97C501.38 434.97 498.7 432.29 498.7 428.99C498.7 425.69 501.38 423.01 504.68 423.01ZM535.44 423.01C538.74 423.01 541.42 425.69 541.42 428.99C541.42 432.29 538.74 434.97 535.44 434.97C532.14 434.97 529.46 432.29 529.46 428.99C529.46 425.69 532.14 423.01 535.44 423.01ZM566.2 423.01C569.5 423.01 572.18 425.69 572.18 428.99C572.18 432.29 569.5 434.97 566.2 434.97C562.9 434.97 560.22 432.29 560.22 428.99C560.22 425.69 562.9 423.01 566.2 423.01ZM596.96 423.01C600.26 423.01 602.94 425.69 602.94 428.99C602.94 432.29 600.26 434.97 596.96 434.97C593.66 434.97 590.98 432.29 590.98 428.99C590.98 425.69 593.66 423.01 596.96 423.01ZM627.72 423.01C631.02 423.01 633.7 425.69 633.7 428.99C633.7 432.29 631.02 434.97 627.72 434.97C624.42 434.97 621.74 432.29 621.74 428.99C621.74 425.69 624.42 423.01 627.72 423.01ZM658.48 423.01C661.78 423.01 664.46 425.69 664.46 428.99C664.46 432.29 661.78 434.97 658.48 434.97C655.18 434.97 652.5 432.29 652.5 428.99C652.5 425.69 655.18 423.01 658.48 423.01Z" fill="#A2D9D3"/>
<path d="M95.81 86.59C96 87.07 96.1 87.53 96.1 87.98C96.1 89.07 95.65 90 94.76 90.76C93.86 91.5 92.86 91.86 91.74 91.86C91 91.86 90.33 91.67 89.72 91.28C89.11 90.86 88.66 90.26 88.38 89.46L86.65 84.56H71.63L69.18 89.41C68.76 90.21 68.22 90.8 67.55 91.19C66.91 91.57 66.22 91.77 65.49 91.77C64.43 91.77 63.49 91.43 62.66 90.76C61.86 90.09 61.46 89.24 61.46 88.22C61.46 87.58 61.65 86.91 62.04 86.2L76.3 60.14C76.78 59.24 77.45 58.57 78.32 58.12C79.18 57.64 80.11 57.4 81.1 57.4C82.09 57.4 82.99 57.64 83.79 58.12C84.59 58.57 85.15 59.22 85.47 60.09L95.84 86.59H95.81ZM84.34 77.95L80.5 67.05L74.98 77.95H84.34Z" fill="white"/>
<path d="M725.48 75.11C727.21 75.62 728.54 76.6 729.46 78.04C730.42 79.48 730.9 81.13 730.9 82.98C730.9 86.05 729.75 88.42 727.44 90.08C725.17 91.74 722.1 92.58 718.22 92.58H705.31C704 92.58 703.02 92.24 702.38 91.57C701.74 90.87 701.47 89.86 701.56 88.55L703.62 62.82C703.75 61.51 704.18 60.5 704.92 59.8C705.69 59.1 706.73 58.74 708.04 58.74H719.8C723.51 58.74 726.34 59.54 728.3 61.14C730.28 62.71 731.28 64.76 731.28 67.28C731.28 70.96 729.34 73.57 725.47 75.1L725.48 75.11ZM717.66 72.04C719.52 72.04 720.83 71.8 721.6 71.32C722.4 70.81 722.8 69.93 722.8 68.68C722.8 67.59 722.43 66.78 721.7 66.23C721 65.69 719.84 65.41 718.24 65.41H712.05L711.52 72.03H717.66V72.04ZM717.47 85.91C719.29 85.91 720.62 85.64 721.45 85.09C722.31 84.55 722.75 83.6 722.75 82.26C722.75 81.08 722.37 80.2 721.6 79.62C720.86 79.01 719.68 78.71 718.05 78.71H710.99L710.41 85.91H717.47Z" fill="white"/>
<path d="M715.15 542.01C711.76 542.01 708.81 541.35 706.32 540.04C703.86 538.7 701.95 536.81 700.61 534.38C699.3 531.92 698.64 529.02 698.64 525.69C698.64 522.01 699.39 518.78 700.9 515.99C702.4 513.21 704.52 511.06 707.24 509.56C709.99 508.06 713.18 507.3 716.79 507.3C718.81 507.3 720.66 507.54 722.36 508.02C724.09 508.47 725.53 508.98 726.68 509.56C728.15 510.46 728.89 511.66 728.89 513.16C728.89 514.09 728.57 514.9 727.93 515.61C727.32 516.28 726.55 516.62 725.63 516.62C724.96 516.62 724.27 516.41 723.57 516C721.27 514.88 719.15 514.32 717.23 514.32C714.16 514.32 711.79 515.33 710.13 517.34C708.47 519.36 707.63 522.14 707.63 525.69C707.63 528.73 708.29 531.05 709.6 532.65C710.91 534.22 712.85 535 715.41 535C716.56 535 717.6 534.86 718.53 534.57C719.46 534.25 720.69 533.79 722.23 533.18C722.93 532.83 723.57 532.65 724.15 532.65C725.01 532.65 725.72 532.97 726.26 533.61C726.8 534.22 727.08 534.95 727.08 535.82C727.08 536.46 726.92 537.08 726.6 537.69C726.31 538.3 725.85 538.84 725.21 539.32C724.25 540.02 722.84 540.65 720.99 541.19C719.17 541.73 717.23 542.01 715.18 542.01H715.15Z" fill="white"/>
<g clip-path="url(#clip1_336_7278)">
<path fill-rule="evenodd" clip-rule="evenodd" d="M672.46 290.47C677.85 290.72 682.49 286.64 682.9 281.23C682.93 280.82 682.95 280.41 682.95 280C682.95 279.59 682.93 279.17 682.9 278.76C682.49 273.35 677.85 269.26 672.46 269.52C672.85 265.62 670.91 261.68 667.24 259.71C666.9 259.53 666.55 259.34 666.2 259.16C663.05 257.54 659.45 257.76 656.6 259.41C655.71 256.34 653.36 253.74 650.08 252.68C649.74 252.57 649.4 252.46 649.05 252.35C645.88 251.34 642.57 252 640.08 253.83C638.89 251 636.42 248.75 633.21 247.97C632.88 247.89 632.56 247.81 632.23 247.73C629.03 246.97 625.83 247.83 623.49 249.79C622.17 247.05 619.61 244.95 616.4 244.33C616.07 244.27 615.74 244.2 615.41 244.14C612.21 243.52 609.07 244.51 606.82 246.54C605.4 243.87 602.8 241.87 599.58 241.35C599.25 241.3 598.92 241.24 598.6 241.19C595.38 240.68 592.28 241.76 590.1 243.85C588.62 241.22 585.96 239.29 582.74 238.85C582.41 238.81 582.09 238.76 581.76 238.72C578.55 238.29 575.49 239.42 573.36 241.54C571.82 238.96 569.14 237.1 565.93 236.73C565.6 236.69 565.26 236.65 564.93 236.61C561.72 236.24 558.69 237.43 556.6 239.58C555.02 237.04 552.31 235.23 549.1 234.91C548.77 234.88 548.44 234.84 548.12 234.81C544.9 234.49 541.89 235.74 539.84 237.92C538.22 235.39 535.49 233.62 532.27 233.35C531.94 233.32 531.6 233.29 531.27 233.26C528.05 232.99 525.06 234.27 523.04 236.48C521.39 233.98 518.63 232.25 515.42 232.02C515.09 232 514.77 231.97 514.44 231.95C511.23 231.72 508.26 233.04 506.27 235.27C504.59 232.8 501.82 231.11 498.6 230.92L497.61 230.86C494.39 230.67 491.43 232.03 489.47 234.29C487.76 231.83 484.97 230.16 481.74 230.01C481.41 229.99 481.07 229.98 480.74 229.96C477.52 229.81 474.58 231.19 472.64 233.47C470.9 231.04 468.1 229.4 464.88 229.28L463.9 229.24C460.68 229.12 457.76 230.53 455.85 232.82C454.09 230.41 451.27 228.81 448.05 228.72L447.06 228.69C443.84 228.6 440.93 230.04 439.04 232.36C437.26 229.96 434.42 228.39 431.2 228.32L430.21 228.3C426.99 228.24 424.1 229.71 422.22 232.05C420.41 229.67 417.56 228.12 414.34 228.08H413.35C410.13 228.04 407.25 229.54 405.4 231.89C403.57 229.52 400.71 228 397.48 228H396.48C393.26 228 390.39 229.53 388.56 231.89C386.71 229.54 383.83 228.04 380.61 228.07H379.62C376.4 228.11 373.55 229.66 371.74 232.04C369.87 229.71 366.98 228.23 363.75 228.29L362.76 228.31C359.54 228.37 356.7 229.95 354.92 232.35C353.03 230.04 350.12 228.59 346.9 228.68L345.91 228.71C342.69 228.8 339.87 230.4 338.11 232.81C336.19 230.52 333.27 229.11 330.06 229.23L329.08 229.27C325.86 229.39 323.05 231.03 321.32 233.46C319.38 231.18 316.44 229.8 313.22 229.95C312.89 229.97 312.55 229.98 312.22 230C309 230.16 306.2 231.82 304.49 234.28C302.52 232.02 299.57 230.66 296.35 230.85C296.02 230.87 295.69 230.89 295.36 230.91C292.14 231.1 289.37 232.79 287.69 235.26C285.7 233.03 282.73 231.71 279.52 231.94C279.19 231.96 278.86 231.99 278.54 232.01C275.32 232.24 272.57 233.97 270.92 236.47C268.9 234.26 265.91 232.98 262.69 233.25C262.36 233.28 262.02 233.31 261.69 233.34C258.47 233.61 255.74 235.38 254.12 237.91C252.07 235.72 249.06 234.48 245.84 234.8C245.51 234.83 245.18 234.87 244.86 234.9C241.65 235.22 238.94 237.03 237.36 239.57C235.27 237.42 232.24 236.23 229.03 236.6C228.7 236.64 228.36 236.68 228.03 236.72C224.82 237.1 222.14 238.96 220.6 241.53C218.47 239.41 215.41 238.27 212.2 238.71C211.87 238.75 211.55 238.8 211.22 238.84C208 239.28 205.34 241.21 203.86 243.84C201.68 241.75 198.57 240.67 195.36 241.18C195.03 241.23 194.7 241.29 194.37 241.34C191.16 241.86 188.55 243.86 187.13 246.53C184.88 244.5 181.74 243.52 178.54 244.13C178.21 244.19 177.88 244.26 177.55 244.32C174.33 244.95 171.78 247.05 170.46 249.78C168.12 247.82 164.91 246.96 161.72 247.72C161.39 247.8 161.06 247.88 160.74 247.96C157.53 248.74 155.06 250.99 153.87 253.82C151.38 251.99 148.08 251.33 144.9 252.34C144.55 252.45 144.21 252.56 143.87 252.67C140.6 253.73 138.25 256.32 137.35 259.4C134.5 257.75 130.9 257.53 127.75 259.15C127.4 259.33 127.05 259.51 126.71 259.7C123.04 261.67 121.1 265.61 121.49 269.51C116.1 269.26 111.46 273.34 111.05 278.75C111.02 279.16 111 279.57 111 279.98C111 280.39 111.02 280.81 111.05 281.22C111.46 286.63 116.1 290.72 121.49 290.46C121.1 294.36 123.04 298.3 126.71 300.27C127.05 300.46 127.4 300.64 127.75 300.82C130.9 302.44 134.5 302.22 137.35 300.57C138.24 303.64 140.59 306.24 143.87 307.3C144.21 307.41 144.55 307.52 144.9 307.63C148.07 308.64 151.38 307.98 153.87 306.15C155.06 308.98 157.53 311.23 160.74 312.01C161.07 312.09 161.39 312.17 161.72 312.25C164.91 313.01 168.12 312.15 170.46 310.19C171.79 312.93 174.34 315.03 177.55 315.65C177.88 315.71 178.21 315.78 178.54 315.84C181.74 316.46 184.88 315.47 187.13 313.44C188.55 316.11 191.16 318.11 194.37 318.63C194.7 318.68 195.03 318.74 195.36 318.79C198.58 319.3 201.68 318.22 203.86 316.13C205.34 318.76 208 320.69 211.22 321.13C211.54 321.17 211.87 321.22 212.2 321.26C215.41 321.69 218.47 320.56 220.6 318.44C222.14 321.02 224.82 322.88 228.03 323.25C228.36 323.29 228.7 323.33 229.03 323.37C232.24 323.74 235.27 322.55 237.36 320.4C238.94 322.94 241.65 324.75 244.86 325.07C245.19 325.1 245.52 325.14 245.84 325.17C249.06 325.49 252.07 324.24 254.12 322.06C255.74 324.58 258.47 326.35 261.69 326.63C262.02 326.66 262.36 326.69 262.69 326.71C265.91 326.98 268.89 325.7 270.92 323.49C272.57 325.99 275.33 327.72 278.54 327.95C278.87 327.97 279.19 328 279.52 328.02C282.73 328.25 285.7 326.93 287.69 324.7C289.37 327.17 292.14 328.86 295.36 329.06L295.78 329.08C295.97 329.09 296.16 329.1 296.36 329.11C299.58 329.3 302.54 327.94 304.5 325.68C306.21 328.14 309 329.81 312.23 329.96C312.56 329.98 312.9 329.99 313.23 330.01C316.45 330.16 319.39 328.78 321.33 326.5C323.07 328.93 325.87 330.57 329.09 330.69L330.07 330.73C333.29 330.85 336.21 329.44 338.12 327.15C339.88 329.56 342.7 331.16 345.92 331.26L346.91 331.29C350.13 331.38 353.04 329.94 354.93 327.62C356.71 330.02 359.55 331.6 362.77 331.66L363.76 331.68C366.98 331.74 369.87 330.27 371.75 327.93C373.56 330.31 376.41 331.86 379.63 331.89H380.62C383.84 331.93 386.72 330.43 388.57 328.08C390.4 330.45 393.26 331.97 396.49 331.97H397.49C400.71 331.97 403.58 330.44 405.41 328.08C407.26 330.43 410.14 331.93 413.36 331.9H414.35C417.57 331.86 420.42 330.31 422.23 327.93C424.1 330.26 426.99 331.73 430.22 331.68L431.21 331.66C434.43 331.6 437.27 330.02 439.05 327.62C440.94 329.93 443.85 331.38 447.07 331.29L448.06 331.26C451.28 331.17 454.1 329.57 455.86 327.15C457.78 329.44 460.7 330.85 463.91 330.73L464.89 330.69C468.11 330.57 470.92 328.93 472.65 326.5C474.59 328.78 477.53 330.16 480.75 330.01C481.08 329.99 481.42 329.98 481.75 329.96C484.97 329.8 487.77 328.14 489.48 325.68C491.45 327.94 494.4 329.3 497.62 329.11C497.95 329.09 498.28 329.07 498.61 329.05C501.83 328.86 504.6 327.17 506.28 324.69C508.27 326.92 511.24 328.24 514.45 328.01L515.43 327.94C518.65 327.71 521.4 325.98 523.05 323.48C525.07 325.69 528.06 326.97 531.28 326.7C531.61 326.67 531.95 326.64 532.28 326.62C535.5 326.35 538.23 324.57 539.85 322.05C541.9 324.24 544.91 325.48 548.13 325.16C548.46 325.13 548.79 325.09 549.11 325.06C552.32 324.74 555.03 322.93 556.61 320.39C558.7 322.54 561.73 323.73 564.94 323.36C565.27 323.32 565.61 323.28 565.94 323.24C569.15 322.86 571.83 321.01 573.37 318.43C575.5 320.55 578.56 321.69 581.77 321.25C582.1 321.21 582.42 321.16 582.75 321.12C585.97 320.68 588.63 318.75 590.11 316.12C592.29 318.21 595.4 319.29 598.61 318.78C598.8 318.75 598.98 318.72 599.17 318.69L599.6 318.62C602.82 318.1 605.42 316.1 606.84 313.43C609.09 315.46 612.23 316.45 615.43 315.83C615.76 315.77 616.09 315.7 616.42 315.64C619.64 315.01 622.19 312.91 623.51 310.18C625.85 312.14 629.06 313 632.25 312.24C632.58 312.16 632.91 312.08 633.23 312C636.44 311.22 638.91 308.97 640.1 306.14C642.59 307.97 645.89 308.63 649.07 307.62C649.42 307.51 649.76 307.4 650.1 307.29C653.37 306.23 655.72 303.64 656.62 300.56C659.47 302.21 663.08 302.43 666.22 300.81C666.57 300.63 666.92 300.45 667.26 300.26C670.93 298.29 672.87 294.35 672.48 290.45L672.46 290.47Z" fill="#F37778"/>
<path d="M396.97 322.71C549.031 322.71 672.3 303.584 672.3 279.99C672.3 256.396 549.031 237.27 396.97 237.27C244.909 237.27 121.64 256.396 121.64 279.99C121.64 303.584 244.909 322.71 396.97 322.71Z" fill="white"/>
</g>
<path d="M67.44 541.58C66.13 541.58 65.15 541.24 64.51 540.57C63.87 539.87 63.6 538.86 63.69 537.55L65.75 511.82C65.88 510.51 66.31 509.5 67.05 508.8C67.82 508.1 68.86 507.74 70.17 507.74H79.82C83.21 507.74 86.16 508.4 88.65 509.71C91.18 510.99 93.13 512.83 94.51 515.23C95.89 517.6 96.57 520.4 96.57 523.63C96.57 527.41 95.82 530.64 94.31 533.33C92.81 536.02 90.63 538.07 87.78 539.47C84.96 540.88 81.57 541.58 77.6 541.58H67.42H67.44ZM76.8 534.48C80.54 534.48 83.31 533.62 85.1 531.89C86.89 530.13 87.79 527.36 87.79 523.59C87.79 520.74 87.01 518.58 85.44 517.11C83.87 515.61 81.6 514.85 78.62 514.85H74.3L72.76 534.48H76.79H76.8Z" fill="white"/>
<path d="M523.42 188.55C522.95 187.31 522.26 186.16 521.34 185.15C519.96 183.64 517.45 181.78 513.32 181.45C510.23 181.21 507.53 181.88 505.3 183.45C504.88 183.16 504.45 182.87 503.99 182.61C501.35 181.06 498.37 180.14 495.14 179.89C490.99 179.57 487.13 180.3 483.67 182.06C480.19 183.83 475.22 190.06 475.21 190.07C475.2 190.04 475.18 190.01 475.17 189.98C473.14 186.15 405.09 177.24 403.07 178.57C402.22 173.78 400.09 169.82 396.66 166.78C392.37 162.98 386.53 161.12 379.36 161.23L359.91 161.55C355.62 161.62 353.04 163.37 351.64 164.82C350.23 166.27 348.57 168.91 348.64 173.2C348.64 173.2 475.88 218.66 477.01 219.95C476.22 220.38 475.49 220.95 474.84 221.64C473.24 223.34 472.32 225.53 472.12 228.16C471.97 230.15 472.37 232.03 473.31 233.74C474.17 235.3 475.39 236.61 476.93 237.63C478.99 239 481.52 240.12 484.44 240.96C487.19 241.75 490.15 242.27 493.25 242.51C494.52 242.61 495.75 242.66 496.94 242.66C503.61 242.66 509.1 241.12 513.29 238.06C516.88 235.44 519.35 231.83 520.75 227.32C521.04 227.71 524.33 187.09 523.42 188.53V188.55Z" fill="white"/>
<path d="M180.15 210.09C181.34 210.76 182.12 211.86 182.49 213.38L185.67 226.21C186.28 228.67 186.56 230.6 186.52 231.99C186.48 233.38 186.06 234.57 185.29 235.55C184.51 236.53 183.24 237.52 181.45 238.54C179.65 239.51 177.62 240.42 175.35 241.27C173.08 242.12 170.94 242.79 168.92 243.3C163.26 244.7 158.09 244.85 153.41 243.74C148.72 242.63 144.78 240.35 141.57 236.89C138.36 233.43 136.08 228.95 134.71 223.44C133.37 218.03 133.31 213.05 134.52 208.49C135.74 203.93 138.12 200.07 141.67 196.89C145.21 193.71 149.72 191.45 155.17 190.09C158.61 189.24 161.8 188.88 164.73 189.01C167.66 189.14 170.51 189.76 173.29 190.84C174.27 191.22 175.03 191.71 175.57 192.31C176.11 192.91 176.51 193.75 176.78 194.83C177.16 196.35 177.06 197.75 176.49 199.01C175.92 200.28 175.04 201.05 173.86 201.35C173.07 201.55 172.37 201.6 171.75 201.52C171.13 201.44 170.31 201.24 169.29 200.92C167.23 200.39 165.34 200.1 163.63 200.05C161.92 200 160.13 200.21 158.26 200.68C153.59 201.84 150.43 204.01 148.79 207.18C147.15 210.35 147 214.65 148.34 220.05C149.72 225.61 151.93 229.43 154.98 231.52C158.03 233.61 162.01 234.04 166.93 232.82C169.29 232.23 171.56 231.41 173.75 230.34L171.35 220.68L166.04 222C164.42 222.4 163.06 222.31 161.98 221.72C160.9 221.13 160.17 220.1 159.8 218.62C159.43 217.14 159.59 215.89 160.28 214.86C160.96 213.83 162.12 213.11 163.74 212.71L175.91 209.69C177.53 209.29 178.94 209.42 180.12 210.09H180.15ZM215.87 195.63C217.03 196.38 217.77 197.65 218.09 199.44C218.44 201.44 218.24 202.96 217.47 204.03C216.71 205.09 215.15 205.96 212.8 206.63L210.59 207.25C208.15 207.99 206.5 209.09 205.66 210.55C204.81 212.01 204.58 213.84 204.97 216.04L207.23 228.84C207.59 230.89 207.23 232.53 206.14 233.78C205.05 235.03 203.56 235.82 201.66 236.15C199.76 236.49 198.09 236.25 196.64 235.46C195.19 234.66 194.28 233.24 193.92 231.19L189.34 205.3C189.01 203.4 189.38 201.82 190.47 200.55C191.56 199.28 193 198.48 194.79 198.16C196.64 197.83 198.21 198.07 199.51 198.87C200.81 199.67 201.62 200.97 201.93 202.76L202.18 204.18C202.59 201.84 203.6 199.92 205.21 198.4C206.82 196.88 208.61 195.9 210.59 195.44L211.62 195.18C213.29 194.73 214.7 194.88 215.87 195.63ZM255.64 216.78C256.49 217.59 257.01 218.72 257.21 220.17C257.48 222.18 256.71 223.84 254.89 225.16C253.3 226.24 251.37 227.23 249.12 228.12C246.87 229.01 244.76 229.59 242.8 229.85C238.68 230.41 234.99 230.11 231.72 228.97C228.45 227.83 225.79 225.91 223.74 223.22C221.69 220.53 220.4 217.23 219.87 213.31C219.37 209.6 219.71 206.16 220.9 203.01C222.09 199.86 223.99 197.28 226.6 195.26C229.22 193.25 232.31 192 235.87 191.52C239.33 191.05 242.47 191.4 245.29 192.55C248.1 193.7 250.41 195.57 252.22 198.13C254.02 200.7 255.18 203.84 255.68 207.56C255.84 208.72 255.69 209.64 255.25 210.34C254.81 211.04 254.08 211.46 253.08 211.59L233.2 214.27C233.88 216.63 234.89 218.26 236.24 219.15C237.59 220.04 239.44 220.33 241.8 220.01C243.05 219.84 244.19 219.55 245.21 219.13C246.23 218.71 247.35 218.16 248.59 217.49C249.3 217.09 250.01 216.72 250.71 216.4C251.41 216.08 252.06 215.87 252.66 215.79C253.81 215.63 254.82 215.96 255.67 216.77L255.64 216.78ZM233.47 202.78C232.57 204.05 232.16 205.78 232.25 207.97L244.08 206.37C243.18 201.99 240.98 200.04 237.46 200.51C235.7 200.75 234.37 201.5 233.47 202.77V202.78ZM289.89 189.8C292.9 192.29 294.67 196.33 295.2 201.93L296.7 217.74C296.88 219.66 296.46 221.21 295.42 222.4C294.39 223.59 292.86 224.28 290.84 224.48C289.07 224.65 287.58 224.28 286.35 223.38C285.12 222.48 284.37 221.18 284.11 219.47C283.58 221.35 282.52 222.88 280.96 224.04C279.39 225.21 277.45 225.9 275.13 226.12C272.56 226.36 270.19 226.07 268.02 225.23C265.85 224.39 264.09 223.11 262.73 221.38C261.37 219.65 260.58 217.63 260.36 215.31C260.11 212.64 260.6 210.44 261.84 208.72C263.08 207 265.17 205.64 268.13 204.65C271.09 203.66 275.14 202.92 280.29 202.43L282.33 202.24L282.24 201.33C282.07 199.56 281.55 198.33 280.67 197.62C279.79 196.91 278.39 196.65 276.47 196.83C274.4 197.03 271.44 198.02 267.59 199.81C266.47 200.32 265.5 200.62 264.7 200.69C263.44 200.81 262.39 200.45 261.54 199.61C260.7 198.77 260.21 197.62 260.07 196.16C259.96 195.05 260.11 194.12 260.49 193.37C260.88 192.62 261.55 191.92 262.5 191.27C264.18 190.2 266.33 189.25 268.95 188.45C271.57 187.64 274.17 187.12 276.74 186.87C282.49 186.33 286.87 187.3 289.88 189.79L289.89 189.8ZM281.73 214.47C282.77 213.07 283.19 211.37 283 209.35L282.91 208.44L281.7 208.55C278.47 208.86 276.2 209.36 274.9 210.07C273.59 210.78 273 211.82 273.13 213.18C273.24 214.34 273.7 215.26 274.5 215.95C275.3 216.64 276.28 216.93 277.44 216.82C279.26 216.65 280.68 215.86 281.72 214.47H281.73ZM330.37 216.66C330.48 218.43 329.88 219.79 328.58 220.74C327.27 221.69 325.35 222.17 322.81 222.18L320.68 222.16C316.11 222.1 312.57 220.94 310.06 218.69C307.56 216.44 306.17 213.16 305.89 208.87L305.03 195.45L302.83 195.59C298.78 195.85 296.66 194.31 296.44 190.97C296.23 187.68 298.15 185.91 302.19 185.65L304.39 185.51L304.07 180.58C303.95 178.66 304.46 177.09 305.6 175.87C306.74 174.65 308.35 173.98 310.42 173.85C312.49 173.72 314.17 174.18 315.46 175.24C316.75 176.3 317.45 177.79 317.57 179.71L317.89 184.64L322.06 184.37C326.1 184.11 328.23 185.63 328.44 188.91C328.65 192.25 326.74 194.05 322.69 194.3L318.52 194.57L319.45 209.13C319.51 210.09 319.85 210.88 320.48 211.5C321.1 212.12 321.87 212.43 322.78 212.42H324.99C328.39 212.42 330.18 213.83 330.36 216.66H330.37ZM356.27 218.8C355.01 217.58 354.36 215.91 354.32 213.78L353.64 173.13C353.61 171.05 354.14 169.45 355.23 168.32C356.32 167.19 357.91 166.6 359.99 166.57L379.44 166.25C385.37 166.15 390 167.58 393.35 170.54C396.69 173.5 398.41 177.66 398.5 183.03C398.59 188.35 397 192.56 393.73 195.65C390.46 198.74 385.89 200.34 380.01 200.44L368.08 200.64L368.29 213.56C368.33 215.69 367.72 217.38 366.47 218.64C365.22 219.9 363.51 220.55 361.33 220.59C359.2 220.63 357.51 220.03 356.25 218.81L356.27 218.8ZM377.95 189.97C380.53 189.93 382.44 189.36 383.66 188.28C384.88 187.2 385.48 185.54 385.44 183.31C385.37 178.9 382.8 176.74 377.73 176.83L367.7 177L367.92 190.15L377.95 189.98V189.97ZM431.18 183.04C432.18 183.99 432.67 185.38 432.65 187.2C432.62 189.23 432.14 190.69 431.19 191.59C430.24 192.49 428.55 193.05 426.11 193.27L423.83 193.47C421.29 193.74 419.47 194.52 418.37 195.8C417.26 197.08 416.7 198.83 416.67 201.06L416.51 214.05C416.48 216.13 415.82 217.68 414.51 218.7C413.21 219.72 411.59 220.22 409.66 220.2C407.73 220.18 406.13 219.64 404.85 218.58C403.57 217.53 402.95 215.96 402.97 213.88L403.3 187.59C403.32 185.67 403.99 184.18 405.29 183.13C406.59 182.08 408.16 181.57 409.98 181.59C411.86 181.61 413.36 182.14 414.48 183.17C415.61 184.2 416.16 185.62 416.13 187.45L416.11 188.89C416.95 186.67 418.3 184.97 420.16 183.77C422.02 182.57 423.97 181.94 426 181.87L427.06 181.81C428.78 181.68 430.15 182.09 431.15 183.04H431.18ZM440.8 218.56C437.75 216.84 435.44 214.48 433.86 211.47C432.28 208.47 431.57 204.99 431.74 201.04C431.91 197.09 432.89 193.7 434.7 190.85C436.51 188.01 439 185.87 442.15 184.42C445.3 182.98 448.95 182.34 453.11 182.51C457.26 182.68 460.85 183.61 463.87 185.3C466.89 187 469.19 189.33 470.77 192.31C472.35 195.29 473.06 198.75 472.9 202.7C472.74 206.65 471.75 210.06 469.94 212.92C468.12 215.79 465.64 217.96 462.49 219.42C459.34 220.89 455.68 221.54 451.53 221.37C447.43 221.2 443.85 220.26 440.81 218.54L440.8 218.56ZM459.53 202.17C459.78 195.89 457.51 192.66 452.7 192.46C447.89 192.26 445.36 195.31 445.1 201.58C444.85 207.86 447.12 211.09 451.93 211.29C456.74 211.49 459.27 208.44 459.53 202.17ZM517.66 188.52C518.78 189.75 519.27 191.3 519.13 193.17L517.01 220.45C516.53 226.61 514.31 231.14 510.35 234.03C506.39 236.92 500.82 238.09 493.65 237.53C490.87 237.31 488.26 236.86 485.83 236.16C483.39 235.46 481.35 234.57 479.71 233.47C478.84 232.89 478.17 232.18 477.7 231.33C477.23 230.48 477.04 229.55 477.12 228.54C477.23 227.07 477.69 225.92 478.5 225.06C479.3 224.21 480.29 223.83 481.45 223.92C482.36 223.99 483.97 224.5 486.29 225.44C487.82 226.07 489.18 226.57 490.37 226.94C491.56 227.31 492.79 227.55 494.05 227.65C497.13 227.89 499.44 227.42 500.98 226.25C502.52 225.07 503.4 223.1 503.61 220.32L503.83 217.44C502.59 219.02 500.89 220.22 498.75 221.05C496.6 221.87 494.32 222.19 491.89 222C488.66 221.75 485.84 220.77 483.43 219.05C481.02 217.34 479.22 215.03 478.02 212.11C476.82 209.2 476.37 205.9 476.66 202.21C476.95 198.52 477.91 195.32 479.54 192.6C481.17 189.88 483.31 187.85 485.96 186.51C488.61 185.17 491.54 184.62 494.78 184.87C497.25 185.06 499.49 185.74 501.48 186.92C503.47 188.09 504.96 189.6 505.93 191.46C506.16 189.75 506.91 188.45 508.18 187.56C509.44 186.67 511.03 186.3 512.95 186.45C514.97 186.61 516.54 187.3 517.67 188.53L517.66 188.52ZM502.46 210.47C503.89 209.11 504.71 207.09 504.91 204.41C505.12 201.73 504.62 199.59 503.43 197.97C502.24 196.35 500.45 195.45 498.08 195.27C495.76 195.09 493.88 195.69 492.45 197.08C491.02 198.47 490.2 200.53 489.99 203.25C489.78 205.88 490.29 207.99 491.52 209.58C492.74 211.17 494.49 212.06 496.76 212.24C499.13 212.42 501.03 211.84 502.46 210.47ZM554.96 192.14C555.86 193.19 556.21 194.62 556 196.43C555.77 198.44 555.14 199.85 554.11 200.65C553.07 201.45 551.34 201.84 548.89 201.82L546.6 201.79C544.05 201.81 542.16 202.39 540.93 203.56C539.7 204.72 538.96 206.41 538.71 208.62L537.24 221.53C537.01 223.59 536.19 225.07 534.79 225.95C533.39 226.84 531.73 227.17 529.82 226.95C527.91 226.73 526.37 226.03 525.2 224.86C524.03 223.68 523.57 222.06 523.8 220L526.77 193.87C526.99 191.96 527.8 190.54 529.2 189.63C530.6 188.72 532.21 188.37 534.02 188.57C535.88 188.78 537.32 189.46 538.34 190.59C539.36 191.73 539.76 193.2 539.56 195.01L539.4 196.44C540.46 194.32 541.97 192.75 543.95 191.76C545.92 190.76 547.92 190.33 549.95 190.45L551.02 190.49C552.75 190.53 554.06 191.08 554.96 192.12V192.14ZM587.13 223.54C587.72 224.55 587.91 225.78 587.69 227.24C587.39 229.24 586.18 230.62 584.07 231.38C582.24 231.98 580.11 232.38 577.7 232.61C575.28 232.83 573.1 232.8 571.14 232.5C567.03 231.88 563.57 230.56 560.75 228.55C557.93 226.54 555.91 223.95 554.7 220.8C553.49 217.65 553.17 214.11 553.76 210.21C554.32 206.5 555.61 203.3 557.63 200.61C559.65 197.92 562.2 195.97 565.28 194.77C568.36 193.57 571.67 193.24 575.23 193.77C578.69 194.29 581.61 195.5 583.98 197.4C586.36 199.3 588.05 201.73 589.07 204.7C590.08 207.67 590.31 211.01 589.75 214.72C589.58 215.87 589.18 216.72 588.56 217.27C587.94 217.82 587.13 218.01 586.13 217.86L566.29 214.87C566.28 217.33 566.79 219.17 567.84 220.41C568.88 221.64 570.58 222.44 572.94 222.79C574.19 222.98 575.37 223.02 576.46 222.9C577.55 222.78 578.79 222.57 580.17 222.27C580.97 222.08 581.75 221.93 582.51 221.82C583.27 221.7 583.95 221.69 584.55 221.78C585.7 221.95 586.57 222.55 587.16 223.56L587.13 223.54ZM569.76 203.89C568.54 204.86 567.66 206.41 567.14 208.53L578.94 210.31C579.31 205.86 577.73 203.36 574.23 202.84C572.48 202.58 570.99 202.93 569.77 203.9L569.76 203.89ZM597.35 236.16C595.17 235.2 593.31 234 591.8 232.56C591.17 232.07 590.75 231.37 590.52 230.44C590.29 229.52 590.29 228.53 590.5 227.49C590.77 226.15 591.35 225.12 592.25 224.39C593.14 223.67 594.14 223.42 595.23 223.64C595.98 223.79 596.65 224.02 597.26 224.32C597.87 224.62 598.61 225.07 599.47 225.66C600.95 226.53 602.26 227.23 603.42 227.78C604.58 228.32 606.1 228.79 607.99 229.17C609.33 229.44 610.42 229.47 611.27 229.25C612.11 229.03 612.61 228.58 612.75 227.88C612.86 227.33 612.75 226.87 612.45 226.5C612.14 226.13 611.49 225.7 610.5 225.21C609.51 224.73 607.83 223.98 605.44 222.98C601.19 221.24 598.26 219.32 596.64 217.21C595.02 215.1 594.53 212.48 595.17 209.35C595.63 207.07 596.76 205.15 598.54 203.6C600.33 202.05 602.57 201 605.26 200.46C607.95 199.92 610.84 199.96 613.92 200.58C616.15 201.03 618.27 201.75 620.27 202.72C622.27 203.69 623.99 204.84 625.43 206.17C626.79 207.38 627.27 208.97 626.86 210.96C626.58 212.35 625.97 213.44 625.03 214.24C624.09 215.03 623.08 215.32 621.99 215.1C620.7 214.84 619.24 214.11 617.63 212.9C616.55 212.11 615.58 211.49 614.71 211.03C613.85 210.57 612.79 210.22 611.55 209.96C610.31 209.71 609.3 209.7 608.53 209.93C607.76 210.16 607.3 210.63 607.16 211.32C607 212.11 607.36 212.83 608.24 213.48C609.12 214.12 610.94 215.01 613.71 216.14C618.36 217.96 621.5 219.93 623.14 222.04C624.78 224.16 625.27 226.83 624.62 230.05C623.89 233.68 621.8 236.26 618.36 237.82C614.92 239.37 610.66 239.64 605.6 238.61C602.27 237.94 599.52 237.12 597.33 236.16H597.35ZM632.04 243.72C629.92 242.62 628.15 241.3 626.73 239.76C626.14 239.23 625.76 238.5 625.59 237.56C625.42 236.62 625.48 235.64 625.76 234.61C626.12 233.29 626.77 232.3 627.71 231.63C628.65 230.97 629.66 230.78 630.74 231.07C631.47 231.27 632.13 231.54 632.72 231.88C633.31 232.22 634.01 232.72 634.84 233.36C636.26 234.32 637.53 235.11 638.65 235.73C639.77 236.35 641.26 236.91 643.11 237.41C644.43 237.77 645.52 237.87 646.38 237.7C647.24 237.54 647.76 237.12 647.94 236.43C648.09 235.89 648.02 235.43 647.73 235.03C647.44 234.64 646.82 234.17 645.87 233.62C644.92 233.07 643.28 232.22 640.97 231.07C636.84 229.06 634.04 226.95 632.57 224.74C631.1 222.53 630.78 219.88 631.61 216.8C632.22 214.55 633.47 212.71 635.35 211.28C637.23 209.85 639.54 208.95 642.26 208.59C644.98 208.23 647.86 208.46 650.89 209.28C653.09 209.88 655.16 210.73 657.09 211.83C659.02 212.93 660.66 214.19 662.01 215.61C663.29 216.9 663.66 218.53 663.13 220.48C662.76 221.85 662.08 222.9 661.09 223.63C660.1 224.36 659.07 224.58 658 224.29C656.73 223.95 655.33 223.12 653.79 221.81C652.76 220.95 651.83 220.27 651 219.75C650.17 219.24 649.14 218.81 647.92 218.48C646.7 218.15 645.69 218.07 644.91 218.25C644.12 218.43 643.64 218.86 643.46 219.55C643.25 220.33 643.56 221.07 644.39 221.77C645.22 222.47 646.99 223.47 649.68 224.78C654.2 226.9 657.21 229.07 658.71 231.28C660.21 233.5 660.53 236.2 659.67 239.37C658.7 242.94 656.45 245.39 652.92 246.71C649.38 248.04 645.12 248.02 640.14 246.67C636.86 245.78 634.17 244.79 632.05 243.69L632.04 243.72Z" fill="#F15C5C"/>
<mask id="mask1_336_7278" style="mask-type:luminance" maskUnits="userSpaceOnUse" x="353" y="530" width="90" height="24">
<path d="M443 530H353V554H443V530Z" fill="white"/>
</mask>
<g mask="url(#mask1_336_7278)">
</g>
<g clip-path="url(#clip2_336_7278)">
<path d="M356.33 536.48H360.04C361.07 536.48 361.94 536.66 362.63 537.02C363.33 537.38 363.84 537.86 364.18 538.47C364.52 539.08 364.69 539.77 364.69 540.55C364.69 541.33 364.49 542.07 364.09 542.76C364.67 543.86 364.95 545.24 364.95 546.9H363.47C363.47 545.69 363.34 544.68 363.08 543.87C362.45 544.33 361.74 544.56 360.93 544.56C360.25 544.56 359.7 544.38 359.28 544.02C358.86 543.66 358.65 543.18 358.65 542.6C358.65 542.02 358.85 541.54 359.26 541.19C359.67 540.84 360.22 540.66 360.93 540.66C361.74 540.66 362.47 540.94 363.11 541.49C363.18 541.17 363.21 540.87 363.21 540.58C363.21 539.78 362.94 539.11 362.41 538.57C361.87 538.04 361.08 537.77 360.02 537.77H357.81V546.89H356.33V536.48ZM360.31 543.09C360.5 543.21 360.76 543.28 361.1 543.28C361.34 543.28 361.58 543.23 361.82 543.12C362.06 543.02 362.28 542.87 362.47 542.68C362.06 542.18 361.56 541.93 360.95 541.93C360.68 541.93 360.46 541.99 360.29 542.12C360.12 542.24 360.03 542.4 360.03 542.59C360.03 542.8 360.12 542.97 360.31 543.09ZM367.58 546.62C367.02 546.3 366.59 545.84 366.29 545.25C365.99 544.66 365.84 543.97 365.84 543.19C365.84 542.41 365.99 541.72 366.29 541.13C366.59 540.54 367.03 540.08 367.59 539.76C368.16 539.44 368.82 539.28 369.59 539.28C370.36 539.28 370.95 539.44 371.48 539.76C372 540.08 372.39 540.5 372.66 541.03C372.92 541.56 373.05 542.13 373.05 542.76C373.05 543.06 373.02 543.36 372.96 543.65H367.31C367.39 544.36 367.62 544.9 368 545.3C368.38 545.69 368.89 545.89 369.53 545.89C370.01 545.89 370.42 545.78 370.76 545.55C371.1 545.33 371.34 545.02 371.48 544.63H372.99C372.77 545.41 372.36 546.01 371.75 546.46C371.14 546.9 370.4 547.12 369.53 547.12C368.78 547.12 368.13 546.96 367.58 546.64V546.62ZM371.62 542.5C371.64 541.93 371.47 541.46 371.1 541.08C370.73 540.7 370.22 540.51 369.55 540.51C368.93 540.51 368.44 540.68 368.06 541.02C367.68 541.36 367.44 541.86 367.34 542.5H371.62ZM374.44 539.46H375.83V541.04C376.06 540.47 376.39 540.04 376.84 539.73C377.28 539.42 377.82 539.27 378.44 539.27C379.17 539.27 379.7 539.46 380.06 539.85C380.41 540.24 380.63 540.68 380.71 541.16C380.79 541.65 380.83 542.2 380.83 542.83V546.91H379.44V542.87C379.44 542.4 379.42 542.01 379.37 541.7C379.32 541.39 379.19 541.11 378.98 540.88C378.77 540.65 378.44 540.53 378 540.53C377.35 540.53 376.83 540.78 376.43 541.29C376.03 541.8 375.83 542.46 375.83 543.29V546.91H374.44V539.47V539.46ZM387.47 545.75C387.14 546.21 386.75 546.55 386.29 546.77C385.83 546.99 385.26 547.11 384.58 547.11C383.81 547.11 383.2 546.91 382.72 546.5C382.25 546.09 382.01 545.56 382.01 544.89C382.01 544.15 382.3 543.57 382.89 543.15C383.48 542.72 384.23 542.51 385.16 542.51C385.96 542.51 386.66 542.68 387.23 543.03V542.88C387.23 542.14 387.08 541.57 386.78 541.14C386.48 540.72 386.02 540.51 385.4 540.51C384.93 540.51 384.54 540.64 384.21 540.9C383.89 541.16 383.73 541.54 383.74 542.04H382.32C382.3 541.48 382.42 540.99 382.69 540.57C382.95 540.15 383.33 539.82 383.81 539.6C384.29 539.38 384.83 539.26 385.41 539.26C386.47 539.26 387.28 539.6 387.82 540.27C388.36 540.95 388.63 541.81 388.63 542.86C388.63 543.36 388.56 543.84 388.42 544.31C388.78 545.01 388.96 545.87 388.96 546.9H387.57C387.57 546.44 387.54 546.06 387.47 545.74V545.75ZM383.8 545.66C384.04 545.84 384.37 545.93 384.78 545.93C385.27 545.93 385.71 545.8 386.1 545.53C386.49 545.26 386.79 544.87 386.99 544.35C386.78 544.11 386.52 543.93 386.2 543.81C385.88 543.69 385.53 543.62 385.16 543.62C384.67 543.62 384.27 543.74 383.94 543.97C383.61 544.2 383.45 544.51 383.45 544.9C383.45 545.23 383.57 545.48 383.81 545.66H383.8ZM390.25 538C390.07 537.81 389.97 537.58 389.97 537.31C389.97 537.04 390.06 536.8 390.25 536.62C390.43 536.44 390.66 536.34 390.94 536.34C391.22 536.34 391.45 536.43 391.63 536.62C391.81 536.8 391.91 537.04 391.91 537.31C391.91 537.58 391.82 537.81 391.63 538C391.45 538.19 391.21 538.28 390.94 538.28C390.66 538.28 390.43 538.19 390.25 538ZM390.25 539.46H391.64V546.91H390.25V539.47V539.46ZM394.9 545.5C395.24 545.81 395.73 545.96 396.38 545.96C396.9 545.96 397.31 545.87 397.62 545.68C397.93 545.49 398.08 545.24 398.08 544.92C398.08 544.66 397.99 544.46 397.81 544.31C397.63 544.16 397.41 544.05 397.15 543.98C396.89 543.91 396.52 543.84 396.05 543.76C395.44 543.66 394.95 543.55 394.57 543.43C394.19 543.31 393.86 543.11 393.59 542.83C393.32 542.55 393.19 542.15 393.19 541.63C393.19 540.91 393.47 540.34 394.04 539.92C394.61 539.49 395.34 539.28 396.23 539.28C396.88 539.28 397.45 539.4 397.94 539.65C398.44 539.89 398.81 540.23 399.06 540.65C399.31 541.07 399.41 541.54 399.36 542.06H398.02C398.05 541.58 397.9 541.19 397.57 540.89C397.24 540.59 396.78 540.44 396.21 540.44C395.74 540.44 395.36 540.54 395.07 540.73C394.78 540.92 394.63 541.19 394.63 541.53C394.63 541.89 394.79 542.14 395.12 542.28C395.45 542.42 395.95 542.55 396.63 542.66C397.25 542.76 397.74 542.87 398.12 542.99C398.5 543.11 398.82 543.32 399.1 543.61C399.37 543.9 399.51 544.31 399.51 544.82C399.51 545.54 399.22 546.1 398.65 546.51C398.08 546.92 397.32 547.13 396.38 547.13C395.72 547.13 395.14 547.02 394.63 546.79C394.12 546.56 393.73 546.23 393.45 545.8C393.18 545.37 393.06 544.86 393.1 544.27H394.44C394.42 544.8 394.58 545.21 394.92 545.52L394.9 545.5ZM402.34 545.5C402.68 545.81 403.17 545.96 403.82 545.96C404.34 545.96 404.75 545.87 405.06 545.68C405.37 545.49 405.52 545.24 405.52 544.92C405.52 544.66 405.43 544.46 405.25 544.31C405.07 544.16 404.85 544.05 404.59 543.98C404.33 543.91 403.96 543.84 403.49 543.76C402.88 543.66 402.39 543.55 402.01 543.43C401.63 543.31 401.3 543.11 401.03 542.83C400.76 542.55 400.63 542.15 400.63 541.63C400.63 540.91 400.91 540.34 401.48 539.92C402.05 539.49 402.78 539.28 403.67 539.28C404.32 539.28 404.89 539.4 405.38 539.65C405.88 539.89 406.25 540.23 406.5 540.65C406.75 541.07 406.85 541.54 406.8 542.06H405.46C405.49 541.58 405.34 541.19 405.01 540.89C404.68 540.59 404.22 540.44 403.65 540.44C403.18 540.44 402.8 540.54 402.51 540.73C402.22 540.92 402.07 541.19 402.07 541.53C402.07 541.89 402.23 542.14 402.56 542.28C402.89 542.42 403.39 542.55 404.07 542.66C404.69 542.76 405.18 542.87 405.56 542.99C405.94 543.11 406.26 543.32 406.54 543.61C406.81 543.9 406.95 544.31 406.95 544.82C406.95 545.54 406.66 546.1 406.09 546.51C405.52 546.92 404.76 547.13 403.82 547.13C403.16 547.13 402.58 547.02 402.07 546.79C401.56 546.56 401.17 546.23 400.89 545.8C400.62 545.37 400.5 544.86 400.54 544.27H401.88C401.86 544.8 402.02 545.21 402.36 545.52L402.34 545.5ZM413.37 545.75C413.04 546.21 412.65 546.55 412.19 546.77C411.73 546.99 411.16 547.11 410.48 547.11C409.71 547.11 409.1 546.91 408.62 546.5C408.15 546.09 407.91 545.56 407.91 544.89C407.91 544.15 408.2 543.57 408.79 543.15C409.38 542.72 410.13 542.51 411.06 542.51C411.86 542.51 412.56 542.68 413.13 543.03V542.88C413.13 542.14 412.98 541.57 412.68 541.14C412.38 540.72 411.92 540.51 411.3 540.51C410.83 540.51 410.44 540.64 410.11 540.9C409.79 541.16 409.63 541.54 409.64 542.04H408.22C408.2 541.48 408.32 540.99 408.59 540.57C408.85 540.15 409.23 539.82 409.71 539.6C410.19 539.38 410.73 539.26 411.31 539.26C412.37 539.26 413.18 539.6 413.72 540.27C414.26 540.95 414.53 541.81 414.53 542.86C414.53 543.36 414.46 543.84 414.32 544.31C414.68 545.01 414.86 545.87 414.86 546.9H413.47C413.47 546.44 413.44 546.06 413.37 545.74V545.75ZM409.7 545.66C409.94 545.84 410.27 545.93 410.68 545.93C411.17 545.93 411.61 545.8 412 545.53C412.39 545.26 412.69 544.87 412.89 544.35C412.68 544.11 412.42 543.93 412.1 543.81C411.78 543.69 411.43 543.62 411.06 543.62C410.57 543.62 410.17 543.74 409.84 543.97C409.51 544.2 409.35 544.51 409.35 544.9C409.35 545.23 409.47 545.48 409.71 545.66H409.7ZM416.07 539.46H417.46V541.04C417.69 540.47 418.02 540.04 418.47 539.73C418.91 539.42 419.45 539.27 420.07 539.27C420.8 539.27 421.33 539.46 421.69 539.85C422.04 540.24 422.26 540.68 422.34 541.16C422.42 541.65 422.46 542.2 422.46 542.83V546.91H421.07V542.87C421.07 542.4 421.05 542.01 421 541.7C420.95 541.39 420.82 541.11 420.61 540.88C420.4 540.65 420.07 540.53 419.63 540.53C418.98 540.53 418.46 540.78 418.06 541.29C417.66 541.8 417.46 542.46 417.46 543.29V546.91H416.07V539.47V539.46ZM424.16 541.13C424.47 540.53 424.91 540.07 425.47 539.75C426.04 539.43 426.7 539.27 427.45 539.27C428.27 539.27 428.95 539.43 429.48 539.75C430.01 540.07 430.39 540.49 430.63 541.02C430.86 541.55 430.96 542.13 430.92 542.76H429.46C429.46 542.7 429.48 542.61 429.48 542.48C429.48 541.85 429.3 541.37 428.94 541.03C428.58 540.69 428.07 540.52 427.43 540.52C426.74 540.52 426.19 540.77 425.78 541.26C425.37 541.75 425.16 542.4 425.16 543.21C425.16 544.02 425.37 544.66 425.78 545.16C426.19 545.65 426.73 545.9 427.4 545.9C427.91 545.9 428.34 545.76 428.7 545.47C429.06 545.18 429.31 544.78 429.46 544.28H430.97C430.8 545.08 430.41 545.76 429.79 546.31C429.17 546.86 428.37 547.14 427.39 547.14C426.66 547.14 426.02 546.98 425.47 546.65C424.91 546.32 424.48 545.86 424.17 545.27C423.86 544.68 423.71 544 423.71 543.22C423.71 542.44 423.86 541.76 424.17 541.16L424.16 541.13ZM433.61 546.62C433.05 546.3 432.62 545.84 432.32 545.25C432.02 544.66 431.87 543.97 431.87 543.19C431.87 542.41 432.02 541.72 432.32 541.13C432.62 540.54 433.06 540.08 433.62 539.76C434.19 539.44 434.85 539.28 435.62 539.28C436.39 539.28 436.98 539.44 437.51 539.76C438.03 540.08 438.42 540.5 438.69 541.03C438.95 541.56 439.08 542.13 439.08 542.76C439.08 543.06 439.05 543.36 438.99 543.65H433.34C433.42 544.36 433.65 544.9 434.03 545.3C434.41 545.69 434.92 545.89 435.56 545.89C436.04 545.89 436.45 545.78 436.79 545.55C437.13 545.33 437.37 545.02 437.51 544.63H439.02C438.8 545.41 438.39 546.01 437.78 546.46C437.17 546.9 436.43 547.12 435.56 547.12C434.81 547.12 434.16 546.96 433.61 546.64V546.62ZM437.65 542.5C437.67 541.93 437.5 541.46 437.13 541.08C436.76 540.7 436.25 540.51 435.58 540.51C434.96 540.51 434.47 540.68 434.09 541.02C433.71 541.36 433.47 541.86 433.37 542.5H437.65Z" fill="black"/>
</g>
</g>
<defs>
<clipPath id="clip0_336_7278">
<rect width="703" height="555.6" fill="white" transform="translate(45 18)"/>
</clipPath>
<clipPath id="clip1_336_7278">
<rect width="571.95" height="103.97" fill="white" transform="translate(111 228)"/>
</clipPath>
<clipPath id="clip2_336_7278">
<rect width="82.75" height="10.76" fill="white" transform="translate(356.33 536.35)"/>
</clipPath>
</defs>
</svg>
