<svg width="792" height="612" viewBox="0 0 792 612" fill="none" xmlns="http://www.w3.org/2000/svg">
<rect width="792" height="612" fill="white"/>
<g clip-path="url(#clip0_336_7280)">
<path fill-rule="evenodd" clip-rule="evenodd" d="M65.7 69.09H725.7V539.09H65.7V69.09ZM59.57 94.27C57.22 92.44 55.7 89.58 55.7 86.37V85.38C55.7 82.17 57.21 79.31 59.57 77.48C57.22 75.65 55.7 72.79 55.7 69.58V59.09H66.2C69.45 59.09 72.34 60.64 74.16 63.04C75.99 60.64 78.8699 59.09 82.1199 59.09H83.1199C86.3699 59.09 89.26 60.64 91.08 63.04C92.91 60.64 95.79 59.09 99.04 59.09H100.04C103.29 59.09 106.18 60.64 108 63.04C109.83 60.64 112.72 59.09 115.96 59.09H116.96C120.21 59.09 123.1 60.64 124.92 63.04C126.75 60.64 129.64 59.09 132.88 59.09H133.88C137.13 59.09 140.02 60.64 141.84 63.04C143.67 60.64 146.55 59.09 149.8 59.09H150.8C154.05 59.09 156.94 60.64 158.76 63.04C160.59 60.64 163.47 59.09 166.72 59.09H167.72C170.97 59.09 173.86 60.64 175.68 63.04C177.51 60.64 180.39 59.09 183.64 59.09H184.63C187.88 59.09 190.77 60.64 192.59 63.04C194.42 60.64 197.3 59.09 200.55 59.09H201.55C204.8 59.09 207.69 60.64 209.51 63.04C211.34 60.64 214.22 59.09 217.47 59.09H218.46C221.71 59.09 224.6 60.64 226.42 63.04C228.25 60.64 231.13 59.09 234.38 59.09H235.37C238.62 59.09 241.51 60.64 243.33 63.04C245.16 60.64 248.04 59.09 251.29 59.09H252.28C255.53 59.09 258.42 60.64 260.24 63.04C262.07 60.64 264.95 59.09 268.2 59.09H269.2C272.45 59.09 275.34 60.64 277.16 63.04C278.99 60.64 281.87 59.09 285.12 59.09H286.12C289.37 59.09 292.26 60.64 294.08 63.04C295.91 60.64 298.79 59.09 302.04 59.09H303.04C306.29 59.09 309.18 60.64 311 63.04C312.83 60.64 315.71 59.09 318.96 59.09H319.96C323.21 59.09 326.1 60.64 327.92 63.04C329.75 60.64 332.63 59.09 335.88 59.09H336.88C340.13 59.09 343.02 60.64 344.84 63.04C346.67 60.64 349.55 59.09 352.8 59.09H353.79C357.04 59.09 359.93 60.64 361.75 63.04C363.58 60.64 366.46 59.09 369.71 59.09H370.7C373.95 59.09 376.84 60.64 378.66 63.04C380.49 60.64 383.37 59.09 386.62 59.09H387.62C390.87 59.09 393.76 60.64 395.58 63.04C397.41 60.64 400.29 59.09 403.54 59.09H404.54C407.79 59.09 410.68 60.64 412.5 63.04C414.33 60.64 417.21 59.09 420.46 59.09H421.45C424.7 59.09 427.59 60.64 429.41 63.04C431.24 60.64 434.12 59.09 437.37 59.09H438.36C441.61 59.09 444.5 60.64 446.32 63.04C448.15 60.64 451.03 59.09 454.28 59.09H455.28C458.53 59.09 461.42 60.64 463.24 63.04C465.07 60.64 467.96 59.09 471.2 59.09H472.2C475.45 59.09 478.34 60.64 480.16 63.04C481.99 60.64 484.87 59.09 488.12 59.09H489.12C492.37 59.09 495.26 60.64 497.08 63.04C498.91 60.64 501.79 59.09 505.04 59.09H506.04C509.29 59.09 512.18 60.64 514 63.04C515.83 60.64 518.71 59.09 521.96 59.09H522.96C526.21 59.09 529.1 60.64 530.92 63.04C532.75 60.64 535.63 59.09 538.88 59.09H539.88C543.13 59.09 546.02 60.64 547.84 63.04C549.67 60.64 552.55 59.09 555.8 59.09H556.8C560.05 59.09 562.94 60.64 564.76 63.04C566.59 60.64 569.47 59.09 572.72 59.09H573.71C576.96 59.09 579.85 60.64 581.67 63.04C583.5 60.64 586.38 59.09 589.63 59.09H590.62C593.87 59.09 596.76 60.64 598.58 63.04C600.41 60.64 603.29 59.09 606.54 59.09H607.53C610.78 59.09 613.67 60.64 615.49 63.04C617.32 60.64 620.2 59.09 623.45 59.09H624.44C627.69 59.09 630.58 60.64 632.4 63.04C634.23 60.64 637.11 59.09 640.36 59.09H641.35C644.6 59.09 647.49 60.64 649.31 63.04C651.14 60.64 654.02 59.09 657.27 59.09H658.26C661.51 59.09 664.4 60.64 666.22 63.04C668.05 60.64 670.93 59.09 674.18 59.09H675.18C678.43 59.09 681.32 60.64 683.14 63.04C684.97 60.64 687.85 59.09 691.1 59.09H692.1C695.35 59.09 698.24 60.64 700.06 63.04C701.89 60.64 704.78 59.09 708.02 59.09H709.02C712.27 59.09 715.16 60.64 716.98 63.04C718.81 60.64 721.69 59.09 724.94 59.09H735.44V69.58C735.44 72.79 733.93 75.65 731.57 77.48C733.92 79.31 735.44 82.17 735.44 85.38V86.37C735.44 89.58 733.93 92.44 731.57 94.27C733.92 96.1 735.44 98.96 735.44 102.17V103.16C735.44 106.37 733.93 109.23 731.57 111.06C733.92 112.89 735.44 115.75 735.44 118.96V119.95C735.44 123.16 733.93 126.02 731.57 127.85C733.92 129.68 735.44 132.54 735.44 135.75V136.74C735.44 139.95 733.93 142.81 731.57 144.64C733.92 146.47 735.44 149.33 735.44 152.54V153.53C735.44 156.74 733.93 159.6 731.57 161.43C733.92 163.26 735.44 166.12 735.44 169.33V170.32C735.44 173.53 733.93 176.39 731.57 178.22C733.92 180.05 735.44 182.91 735.44 186.12V187.11C735.44 190.32 733.93 193.18 731.57 195.01C733.92 196.84 735.44 199.7 735.44 202.91V203.9C735.44 207.11 733.93 209.97 731.57 211.8C733.92 213.63 735.44 216.49 735.44 219.7V220.69C735.44 223.9 733.93 226.76 731.57 228.59C733.92 230.42 735.44 233.28 735.44 236.49V237.48C735.44 240.69 733.93 243.55 731.57 245.38C733.92 247.21 735.44 250.07 735.44 253.28V254.27C735.44 257.48 733.93 260.34 731.57 262.17C733.92 264 735.44 266.86 735.44 270.07V271.06C735.44 274.27 733.93 277.13 731.57 278.96C733.92 280.79 735.44 283.65 735.44 286.86V287.85C735.44 291.06 733.93 293.92 731.57 295.75C733.92 297.58 735.44 300.44 735.44 303.65V304.64C735.44 307.85 733.93 310.71 731.57 312.54C733.92 314.37 735.44 317.23 735.44 320.44V321.43C735.44 324.64 733.93 327.5 731.57 329.33C733.92 331.16 735.44 334.02 735.44 337.23V338.22C735.44 341.43 733.93 344.29 731.57 346.12C733.92 347.95 735.44 350.81 735.44 354.02V355.01C735.44 358.22 733.93 361.08 731.57 362.91C733.92 364.74 735.44 367.6 735.44 370.81V371.8C735.44 375.01 733.93 377.87 731.57 379.7C733.92 381.53 735.44 384.39 735.44 387.6V388.59C735.44 391.8 733.93 394.66 731.57 396.49C733.92 398.32 735.44 401.18 735.44 404.39V405.38C735.44 408.59 733.93 411.45 731.57 413.28C733.92 415.11 735.44 417.97 735.44 421.18V422.17C735.44 425.38 733.93 428.24 731.57 430.07C733.92 431.9 735.44 434.76 735.44 437.97V438.96C735.44 442.17 733.93 445.03 731.57 446.86C733.92 448.69 735.44 451.55 735.44 454.76V455.75C735.44 458.96 733.93 461.82 731.57 463.65C733.92 465.48 735.44 468.34 735.44 471.55V472.54C735.44 475.75 733.93 478.61 731.57 480.44C733.92 482.27 735.44 485.13 735.44 488.34V489.33C735.44 492.54 733.93 495.4 731.57 497.23C733.92 499.06 735.44 501.92 735.44 505.13V506.12C735.44 509.33 733.93 512.19 731.57 514.02C733.92 515.85 735.44 518.71 735.44 521.92V522.91C735.44 526.12 733.93 528.98 731.57 530.81C733.92 532.64 735.44 535.5 735.44 538.71V549.2H724.94C721.69 549.2 718.8 547.65 716.98 545.25C715.15 547.65 712.27 549.2 709.02 549.2H708.03C704.78 549.2 701.89 547.65 700.07 545.25C698.24 547.65 695.36 549.2 692.11 549.2H691.11C687.86 549.2 684.97 547.65 683.15 545.25C681.32 547.65 678.44 549.2 675.19 549.2H674.19C670.94 549.2 668.05 547.65 666.23 545.25C664.4 547.65 661.51 549.2 658.27 549.2H657.27C654.02 549.2 651.13 547.65 649.31 545.25C647.48 547.65 644.6 549.2 641.35 549.2H640.35C637.1 549.2 634.21 547.65 632.39 545.25C630.56 547.65 627.68 549.2 624.43 549.2H623.43C620.18 549.2 617.29 547.65 615.47 545.25C613.64 547.65 610.76 549.2 607.51 549.2H606.52C603.27 549.2 600.38 547.65 598.56 545.25C596.73 547.65 593.85 549.2 590.6 549.2H589.61C586.36 549.2 583.47 547.65 581.65 545.25C579.82 547.65 576.94 549.2 573.69 549.2H572.7C569.45 549.2 566.56 547.65 564.74 545.25C562.91 547.65 560.03 549.2 556.78 549.2H555.78C552.53 549.2 549.64 547.65 547.82 545.25C545.99 547.65 543.11 549.2 539.86 549.2H538.87C535.62 549.2 532.73 547.65 530.91 545.25C529.08 547.65 526.2 549.2 522.95 549.2H521.95C518.7 549.2 515.81 547.65 513.99 545.25C512.16 547.65 509.28 549.2 506.03 549.2H505.03C501.78 549.2 498.89 547.65 497.07 545.25C495.24 547.65 492.36 549.2 489.11 549.2H488.11C484.86 549.2 481.97 547.65 480.15 545.25C478.32 547.65 475.44 549.2 472.19 549.2H471.19C467.94 549.2 465.05 547.65 463.23 545.25C461.4 547.65 458.52 549.2 455.27 549.2H454.27C451.02 549.2 448.13 547.65 446.31 545.25C444.48 547.65 441.6 549.2 438.35 549.2H437.36C434.11 549.2 431.22 547.65 429.4 545.25C427.57 547.65 424.69 549.2 421.44 549.2H420.45C417.2 549.2 414.31 547.65 412.49 545.25C410.66 547.65 407.78 549.2 404.53 549.2H403.53C400.28 549.2 397.39 547.65 395.57 545.25C393.74 547.65 390.86 549.2 387.61 549.2H386.61C383.36 549.2 380.47 547.65 378.65 545.25C376.82 547.65 373.94 549.2 370.69 549.2H369.7C366.45 549.2 363.56 547.65 361.74 545.25C359.91 547.65 357.03 549.2 353.78 549.2H352.79C349.54 549.2 346.65 547.65 344.83 545.25C343 547.65 340.12 549.2 336.87 549.2H335.87C332.62 549.2 329.73 547.65 327.91 545.25C326.08 547.65 323.19 549.2 319.95 549.2H318.95C315.7 549.2 312.81 547.65 310.99 545.25C309.16 547.65 306.28 549.2 303.03 549.2H302.03C298.78 549.2 295.89 547.65 294.07 545.25C292.24 547.65 289.36 549.2 286.11 549.2H285.11C281.86 549.2 278.97 547.65 277.15 545.25C275.32 547.65 272.44 549.2 269.19 549.2H268.19C264.94 549.2 262.05 547.65 260.23 545.25C258.4 547.65 255.52 549.2 252.27 549.2H251.27C248.02 549.2 245.13 547.65 243.31 545.25C241.48 547.65 238.6 549.2 235.35 549.2H234.36C231.11 549.2 228.22 547.65 226.4 545.25C224.57 547.65 221.69 549.2 218.44 549.2H217.45C214.2 549.2 211.31 547.65 209.49 545.25C207.66 547.65 204.78 549.2 201.53 549.2H200.53C197.28 549.2 194.39 547.65 192.57 545.25C190.74 547.65 187.86 549.2 184.61 549.2H183.62C180.37 549.2 177.48 547.65 175.66 545.25C173.83 547.65 170.95 549.2 167.7 549.2H166.71C163.46 549.2 160.57 547.65 158.75 545.25C156.92 547.65 154.04 549.2 150.79 549.2H149.79C146.54 549.2 143.65 547.65 141.83 545.25C140 547.65 137.12 549.2 133.87 549.2H132.88C129.63 549.2 126.74 547.65 124.92 545.25C123.09 547.65 120.21 549.2 116.96 549.2H115.96C112.71 549.2 109.82 547.65 108 545.25C106.17 547.65 103.29 549.2 100.04 549.2H99.04C95.79 549.2 92.9 547.65 91.08 545.25C89.25 547.65 86.3699 549.2 83.1199 549.2H82.1199C78.8699 549.2 75.98 547.65 74.16 545.25C72.33 547.65 69.45 549.2 66.2 549.2H55.7V538.71C55.7 535.5 57.21 532.64 59.57 530.81C57.22 528.98 55.7 526.12 55.7 522.91V521.92C55.7 518.71 57.21 515.85 59.57 514.02C57.22 512.19 55.7 509.33 55.7 506.12V505.13C55.7 501.92 57.21 499.06 59.57 497.23C57.22 495.4 55.7 492.54 55.7 489.33V488.34C55.7 485.13 57.21 482.27 59.57 480.44C57.22 478.61 55.7 475.75 55.7 472.54V471.55C55.7 468.34 57.21 465.48 59.57 463.65C57.22 461.82 55.7 458.96 55.7 455.75V454.76C55.7 451.55 57.21 448.69 59.57 446.86C57.22 445.03 55.7 442.17 55.7 438.96V437.97C55.7 434.76 57.21 431.9 59.57 430.07C57.22 428.24 55.7 425.38 55.7 422.17V421.18C55.7 417.97 57.21 415.11 59.57 413.28C57.22 411.45 55.7 408.59 55.7 405.38V404.39C55.7 401.18 57.21 398.32 59.57 396.49C57.22 394.66 55.7 391.8 55.7 388.59V387.6C55.7 384.39 57.21 381.53 59.57 379.7C57.22 377.87 55.7 375.01 55.7 371.8V370.81C55.7 367.6 57.21 364.74 59.57 362.91C57.22 361.08 55.7 358.22 55.7 355.01V354.02C55.7 350.81 57.21 347.95 59.57 346.12C57.22 344.29 55.7 341.43 55.7 338.22V337.23C55.7 334.02 57.21 331.16 59.57 329.33C57.22 327.5 55.7 324.64 55.7 321.43V320.44C55.7 317.23 57.21 314.37 59.57 312.54C57.22 310.71 55.7 307.85 55.7 304.64V303.65C55.7 300.44 57.21 297.58 59.57 295.75C57.22 293.92 55.7 291.06 55.7 287.85V286.86C55.7 283.65 57.21 280.79 59.57 278.96C57.22 277.13 55.7 274.27 55.7 271.06V270.07C55.7 266.86 57.21 264 59.57 262.17C57.22 260.34 55.7 257.48 55.7 254.27V253.28C55.7 250.07 57.21 247.21 59.57 245.38C57.22 243.55 55.7 240.69 55.7 237.48V236.49C55.7 233.28 57.21 230.42 59.57 228.59C57.22 226.76 55.7 223.9 55.7 220.69V219.7C55.7 216.49 57.21 213.63 59.57 211.8C57.22 209.97 55.7 207.11 55.7 203.9V202.91C55.7 199.7 57.21 196.84 59.57 195.01C57.22 193.18 55.7 190.32 55.7 187.11V186.12C55.7 182.91 57.21 180.05 59.57 178.22C57.22 176.39 55.7 173.53 55.7 170.32V169.33C55.7 166.12 57.21 163.26 59.57 161.43C57.22 159.6 55.7 156.74 55.7 153.53V152.54C55.7 149.33 57.21 146.47 59.57 144.64C57.22 142.81 55.7 139.95 55.7 136.74V135.75C55.7 132.54 57.21 129.68 59.57 127.85C57.22 126.02 55.7 123.16 55.7 119.95V118.96C55.7 115.75 57.21 112.89 59.57 111.06C57.22 109.23 55.7 106.37 55.7 103.16V102.17C55.7 98.96 57.21 96.1 59.57 94.27Z" fill="#F69FA1"/>
<path d="M435.7 516.09H356.7C346.759 516.09 338.7 524.149 338.7 534.09V551.09C338.7 561.031 346.759 569.09 356.7 569.09H435.7C445.641 569.09 453.7 561.031 453.7 551.09V534.09C453.7 524.149 445.641 516.09 435.7 516.09Z" fill="white" stroke="#F69FA1" stroke-width="10"/>
<path d="M133.7 521.59H317.7" stroke="#C9C9C9"/>
<path d="M474.7 521.59H658.7" stroke="#C9C9C9"/>
<path fill-rule="evenodd" clip-rule="evenodd" d="M84.4099 53.51C83.6599 52.25 82.1799 51.56 80.7099 51.85L67.8899 54.63L60.9899 43.18C60.2199 41.91 58.7299 41.27 57.2799 41.59C55.8199 41.91 54.7399 43.11 54.5699 44.58L53.0199 57.86L40.1799 60.64C38.7399 60.97 37.6699 62.23 37.5099 63.68C37.3399 65.14 38.1199 66.56 39.4599 67.21L51.4699 72.95L50.3799 85.9C50.2599 87.38 51.0899 88.76 52.4199 89.35C53.7599 89.96 55.3499 89.65 56.3599 88.58L65.3899 79.08L77.5399 83.98C78.2099 84.25 78.9199 84.3 79.5899 84.16C80.2999 84.01 80.9599 83.63 81.4599 83.06C82.4399 81.96 82.5999 80.35 81.8799 79.07L75.5299 67.74L84.0899 57.54C85.0299 56.41 85.1499 54.8 84.3999 53.53L84.4099 53.51Z" fill="#F15C5C" stroke="#BDE6FA" stroke-width="11"/>
<path fill-rule="evenodd" clip-rule="evenodd" d="M84.4099 533.51C83.6599 532.25 82.1799 531.56 80.7099 531.85L67.8899 534.63L60.9899 523.18C60.2199 521.91 58.7299 521.27 57.2799 521.58C55.8199 521.9 54.7399 523.1 54.5699 524.57L53.0199 537.85L40.1799 540.63C38.7399 540.96 37.6699 542.22 37.5099 543.67C37.3399 545.13 38.1199 546.55 39.4599 547.2L51.4699 552.94L50.3799 565.89C50.2599 567.37 51.0899 568.75 52.4199 569.34C53.7599 569.95 55.3499 569.64 56.3599 568.57L65.3899 559.08L77.5399 563.98C78.2099 564.25 78.9199 564.3 79.5899 564.16C80.2999 564.01 80.9599 563.63 81.4599 563.06C82.4399 561.96 82.5999 560.35 81.8799 559.07L75.5299 547.74L84.0899 537.54C85.0299 536.41 85.1499 534.8 84.3999 533.53L84.4099 533.51Z" fill="#F15C5C" stroke="#BDE6FA" stroke-width="11"/>
<path fill-rule="evenodd" clip-rule="evenodd" d="M707.96 53.51C708.71 52.25 710.19 51.56 711.66 51.85L724.48 54.63L731.38 43.18C732.15 41.91 733.64 41.27 735.09 41.59C736.54 41.91 737.63 43.11 737.8 44.58L739.35 57.86L752.19 60.64C753.63 60.97 754.7 62.23 754.86 63.68C755.03 65.14 754.25 66.56 752.91 67.21L740.9 72.95L741.99 85.9C742.11 87.38 741.28 88.76 739.95 89.34C738.61 89.95 737.02 89.64 736.01 88.57L726.98 79.07L714.83 83.97C714.16 84.24 713.45 84.29 712.79 84.15C712.08 84 711.42 83.62 710.92 83.05C709.94 81.95 709.78 80.34 710.5 79.06L716.85 67.73L708.28 57.53C707.34 56.4 707.21 54.79 707.97 53.52L707.96 53.51Z" fill="#F15C5C" stroke="#BDE6FA" stroke-width="11"/>
<path fill-rule="evenodd" clip-rule="evenodd" d="M707.96 535.51C708.71 534.25 710.19 533.56 711.66 533.85L724.48 536.63L731.38 525.18C732.15 523.91 733.64 523.27 735.09 523.58C736.54 523.9 737.63 525.1 737.8 526.57L739.35 539.85L752.19 542.63C753.63 542.96 754.7 544.22 754.86 545.67C755.03 547.13 754.25 548.55 752.91 549.2L740.9 554.94L741.99 567.89C742.11 569.37 741.28 570.75 739.95 571.34C738.61 571.95 737.02 571.64 736.01 570.57L726.98 561.08L714.83 565.98C714.16 566.25 713.45 566.3 712.78 566.16C712.07 566.01 711.41 565.63 710.91 565.06C709.93 563.96 709.77 562.35 710.49 561.07L716.84 549.74L708.27 539.54C707.33 538.41 707.2 536.8 707.96 535.53V535.51Z" fill="#F15C5C" stroke="#BDE6FA" stroke-width="11"/>
<path d="M133.63 155.46C136.93 155.46 139.61 158.14 139.61 161.44C139.61 164.74 136.93 167.42 133.63 167.42C130.33 167.42 127.65 164.74 127.65 161.44C127.65 158.14 130.33 155.46 133.63 155.46ZM164.39 155.46C167.69 155.46 170.37 158.14 170.37 161.44C170.37 164.74 167.69 167.42 164.39 167.42C161.09 167.42 158.41 164.74 158.41 161.44C158.41 158.14 161.09 155.46 164.39 155.46ZM195.15 155.46C198.45 155.46 201.13 158.14 201.13 161.44C201.13 164.74 198.45 167.42 195.15 167.42C191.85 167.42 189.17 164.74 189.17 161.44C189.17 158.14 191.85 155.46 195.15 155.46ZM225.91 155.46C229.21 155.46 231.89 158.14 231.89 161.44C231.89 164.74 229.21 167.42 225.91 167.42C222.61 167.42 219.93 164.74 219.93 161.44C219.93 158.14 222.61 155.46 225.91 155.46ZM256.67 155.46C259.97 155.46 262.65 158.14 262.65 161.44C262.65 164.74 259.97 167.42 256.67 167.42C253.37 167.42 250.69 164.74 250.69 161.44C250.69 158.14 253.37 155.46 256.67 155.46ZM287.43 155.46C290.73 155.46 293.41 158.14 293.41 161.44C293.41 164.74 290.73 167.42 287.43 167.42C284.13 167.42 281.45 164.74 281.45 161.44C281.45 158.14 284.13 155.46 287.43 155.46ZM318.19 155.46C321.49 155.46 324.17 158.14 324.17 161.44C324.17 164.74 321.49 167.42 318.19 167.42C314.89 167.42 312.21 164.74 312.21 161.44C312.21 158.14 314.89 155.46 318.19 155.46ZM348.95 155.46C352.25 155.46 354.93 158.14 354.93 161.44C354.93 164.74 352.25 167.42 348.95 167.42C345.65 167.42 342.97 164.74 342.97 161.44C342.97 158.14 345.65 155.46 348.95 155.46ZM379.71 155.46C383.01 155.46 385.69 158.14 385.69 161.44C385.69 164.74 383.01 167.42 379.71 167.42C376.41 167.42 373.73 164.74 373.73 161.44C373.73 158.14 376.41 155.46 379.71 155.46ZM410.47 155.46C413.77 155.46 416.45 158.14 416.45 161.44C416.45 164.74 413.77 167.42 410.47 167.42C407.17 167.42 404.49 164.74 404.49 161.44C404.49 158.14 407.17 155.46 410.47 155.46ZM441.23 155.46C444.53 155.46 447.21 158.14 447.21 161.44C447.21 164.74 444.53 167.42 441.23 167.42C437.93 167.42 435.25 164.74 435.25 161.44C435.25 158.14 437.93 155.46 441.23 155.46ZM471.99 155.46C475.29 155.46 477.97 158.14 477.97 161.44C477.97 164.74 475.29 167.42 471.99 167.42C468.69 167.42 466.01 164.74 466.01 161.44C466.01 158.14 468.69 155.46 471.99 155.46ZM502.75 155.46C506.05 155.46 508.73 158.14 508.73 161.44C508.73 164.74 506.05 167.42 502.75 167.42C499.45 167.42 496.77 164.74 496.77 161.44C496.77 158.14 499.45 155.46 502.75 155.46ZM533.51 155.46C536.81 155.46 539.49 158.14 539.49 161.44C539.49 164.74 536.81 167.42 533.51 167.42C530.21 167.42 527.53 164.74 527.53 161.44C527.53 158.14 530.21 155.46 533.51 155.46ZM564.27 155.46C567.57 155.46 570.25 158.14 570.25 161.44C570.25 164.74 567.57 167.42 564.27 167.42C560.97 167.42 558.29 164.74 558.29 161.44C558.29 158.14 560.97 155.46 564.27 155.46ZM595.03 155.46C598.33 155.46 601.01 158.14 601.01 161.44C601.01 164.74 598.33 167.42 595.03 167.42C591.73 167.42 589.05 164.74 589.05 161.44C589.05 158.14 591.73 155.46 595.03 155.46ZM625.79 155.46C629.09 155.46 631.77 158.14 631.77 161.44C631.77 164.74 629.09 167.42 625.79 167.42C622.49 167.42 619.81 164.74 619.81 161.44C619.81 158.14 622.49 155.46 625.79 155.46ZM656.55 155.46C659.85 155.46 662.53 158.14 662.53 161.44C662.53 164.74 659.85 167.42 656.55 167.42C653.25 167.42 650.57 164.74 650.57 161.44C650.57 158.14 653.25 155.46 656.55 155.46ZM133.63 256.46C136.93 256.46 139.61 259.14 139.61 262.44C139.61 265.74 136.93 268.42 133.63 268.42C130.33 268.42 127.65 265.74 127.65 262.44C127.65 259.14 130.33 256.46 133.63 256.46ZM164.39 256.46C167.69 256.46 170.37 259.14 170.37 262.44C170.37 265.74 167.69 268.42 164.39 268.42C161.09 268.42 158.41 265.74 158.41 262.44C158.41 259.14 161.09 256.46 164.39 256.46ZM195.15 256.46C198.45 256.46 201.13 259.14 201.13 262.44C201.13 265.74 198.45 268.42 195.15 268.42C191.85 268.42 189.17 265.74 189.17 262.44C189.17 259.14 191.85 256.46 195.15 256.46ZM225.91 256.46C229.21 256.46 231.89 259.14 231.89 262.44C231.89 265.74 229.21 268.42 225.91 268.42C222.61 268.42 219.93 265.74 219.93 262.44C219.93 259.14 222.61 256.46 225.91 256.46ZM256.67 256.46C259.97 256.46 262.65 259.14 262.65 262.44C262.65 265.74 259.97 268.42 256.67 268.42C253.37 268.42 250.69 265.74 250.69 262.44C250.69 259.14 253.37 256.46 256.67 256.46ZM287.43 256.46C290.73 256.46 293.41 259.14 293.41 262.44C293.41 265.74 290.73 268.42 287.43 268.42C284.13 268.42 281.45 265.74 281.45 262.44C281.45 259.14 284.13 256.46 287.43 256.46ZM318.19 256.46C321.49 256.46 324.17 259.14 324.17 262.44C324.17 265.74 321.49 268.42 318.19 268.42C314.89 268.42 312.21 265.74 312.21 262.44C312.21 259.14 314.89 256.46 318.19 256.46ZM471.98 256.46C475.28 256.46 477.96 259.14 477.96 262.44C477.96 265.74 475.28 268.42 471.98 268.42C468.68 268.42 466 265.74 466 262.44C466 259.14 468.68 256.46 471.98 256.46ZM502.74 256.46C506.04 256.46 508.72 259.14 508.72 262.44C508.72 265.74 506.04 268.42 502.74 268.42C499.44 268.42 496.76 265.74 496.76 262.44C496.76 259.14 499.44 256.46 502.74 256.46ZM533.5 256.46C536.8 256.46 539.48 259.14 539.48 262.44C539.48 265.74 536.8 268.42 533.5 268.42C530.2 268.42 527.52 265.74 527.52 262.44C527.52 259.14 530.2 256.46 533.5 256.46ZM564.26 256.46C567.56 256.46 570.24 259.14 570.24 262.44C570.24 265.74 567.56 268.42 564.26 268.42C560.96 268.42 558.28 265.74 558.28 262.44C558.28 259.14 560.96 256.46 564.26 256.46ZM595.02 256.46C598.32 256.46 601 259.14 601 262.44C601 265.74 598.32 268.42 595.02 268.42C591.72 268.42 589.04 265.74 589.04 262.44C589.04 259.14 591.72 256.46 595.02 256.46ZM625.78 256.46C629.08 256.46 631.76 259.14 631.76 262.44C631.76 265.74 629.08 268.42 625.78 268.42C622.48 268.42 619.8 265.74 619.8 262.44C619.8 259.14 622.48 256.46 625.78 256.46ZM656.54 256.46C659.84 256.46 662.52 259.14 662.52 262.44C662.52 265.74 659.84 268.42 656.54 268.42C653.24 268.42 650.56 265.74 650.56 262.44C650.56 259.14 653.24 256.46 656.54 256.46Z" fill="#BDE6FA"/>
<path d="M336 305C336 269.1 365.1 240 401 240C436.9 240 466 269.1 466 305C466 340.9 436.9 370 401 370C365.1 370 336 340.9 336 305Z" fill="#F69FA0"/>
<path d="M331.35 286.01C344.367 286.01 354.92 275.457 354.92 262.44C354.92 249.423 344.367 238.87 331.35 238.87C318.332 238.87 307.78 249.423 307.78 262.44C307.78 275.457 318.332 286.01 331.35 286.01Z" fill="#2E95D2" stroke="white" stroke-width="3"/>
<path d="M514.73 370.82C513.95 370.82 513.15 370.67 512.37 370.36C508.82 368.98 506.08 365.33 504.26 362.92C503.87 362.41 503.54 361.96 503.27 361.64C502.96 361.3 500.75 359.48 498.89 358.33C497.29 357.34 494.76 354.92 494.38 352.3C494.19 351.02 494.53 349.86 495.36 348.93C496.66 347.47 498.22 346.74 500.01 346.74C501.25 346.74 502.59 347.1 504.09 347.84C510.49 350.99 515.25 354.87 518.65 359.7C520.01 361.63 520.57 363.52 520.35 365.48C520.01 368.63 517.69 370.83 514.73 370.83V370.82Z" fill="#F26622"/>
<path d="M500.01 348.49C501.05 348.49 502.16 348.84 503.31 349.41C508.83 352.13 513.64 355.64 517.21 360.71C518.18 362.08 518.79 363.57 518.61 365.29C518.36 367.61 516.75 369.08 514.73 369.08C514.18 369.08 513.6 368.97 513.01 368.74C509.16 367.24 506.08 362.24 504.62 360.52C504.2 360.02 501.74 358.04 499.82 356.85C497.9 355.66 494.79 352.22 496.67 350.1C497.68 348.96 498.8 348.49 500.01 348.49ZM500.01 344.99C497.73 344.99 495.67 345.95 494.05 347.77C492.89 349.08 492.39 350.78 492.65 352.56C493.16 356.02 496.36 358.83 497.98 359.83C499.55 360.8 501.53 362.39 501.99 362.84C502.21 363.11 502.53 363.53 502.87 363.98C504.8 366.55 507.73 370.44 511.74 372C512.73 372.38 513.73 372.58 514.73 372.58C518.62 372.58 521.64 369.74 522.09 365.67C522.35 363.27 521.69 360.99 520.08 358.69C516.51 353.62 511.53 349.56 504.86 346.27C503.11 345.41 501.53 344.99 500.01 344.99Z" fill="#010101"/>
<path d="M481.68 399.72C478.81 399.72 475.98 398.19 474.32 395.74C471.72 391.92 469.81 387.54 468.31 381.97C466.55 375.44 466.04 368.76 466.8 362.13L466.83 361.86C467.4 355.84 467.99 352.75 468.39 351.21C469.1 348.48 470.76 348.07 471.69 348.07C471.98 348.07 472.29 348.11 472.6 348.19C476.38 349.17 480.18 349.67 483.89 349.67C487.86 349.67 491.49 349.1 494.69 347.98C495.16 347.82 495.6 347.74 496.03 347.74C498.24 347.74 499.49 349.75 500.42 351.71C501.24 353.45 502.94 358.87 503.13 359.48C504.09 362.34 505.1 365.43 505.71 368.64C507.52 378.03 507.07 386.37 504.31 394.12C503.2 397.24 501.25 399.02 498.34 399.56C497.79 399.66 497.25 399.71 496.72 399.71C493.4 399.71 490.74 397.67 489.61 394.25C489.37 393.52 489.19 392.79 489.01 392.09C488.89 391.61 488.77 391.13 488.63 390.65C488.52 390.27 488.41 390.09 488.34 390C488.32 390.1 488.29 390.24 488.27 390.43C488.22 390.92 488.21 391.44 488.2 392C488.2 392.25 488.2 392.5 488.18 392.74C488.09 395.27 487.48 398.72 483.22 399.57C482.72 399.67 482.2 399.72 481.68 399.72Z" fill="#F26622"/>
<path d="M496.03 349.48C496.99 349.48 497.81 350.27 498.84 352.45C499.63 354.13 501.46 359.99 501.46 359.99C502.5 363.08 503.43 365.99 504 368.96C505.65 377.49 505.45 385.71 502.67 393.52C501.87 395.77 500.53 397.36 498.02 397.83C497.57 397.91 497.14 397.95 496.72 397.95C494.18 397.95 492.18 396.45 491.27 393.69C490.88 392.52 490.65 391.32 490.3 390.15C489.99 389.09 489.4 388.18 488.22 388.18C488.2 388.18 488.18 388.18 488.17 388.18C486.95 388.21 486.64 389.21 486.53 390.24C486.45 391.04 486.46 391.86 486.43 392.67C486.32 395.87 485.29 397.36 482.87 397.85C482.48 397.93 482.08 397.97 481.68 397.97C479.44 397.97 477.15 396.79 475.76 394.75C472.97 390.64 471.24 386.15 469.99 381.51C468.26 375.07 467.8 368.68 468.53 362.32C468.57 361.96 469.13 355.25 470.07 351.64C470.44 350.21 471.05 349.81 471.68 349.81C471.84 349.81 472 349.84 472.15 349.88C476.07 350.89 480.05 351.41 483.88 351.41C487.95 351.41 491.83 350.82 495.26 349.62C495.53 349.53 495.78 349.47 496.03 349.47M496.03 345.97C495.4 345.97 494.76 346.09 494.11 346.31C491.1 347.36 487.66 347.9 483.89 347.9C480.33 347.9 476.68 347.42 473.04 346.48C472.58 346.36 472.13 346.3 471.69 346.3C470.79 346.3 467.77 346.62 466.7 350.75C466.1 353.08 465.55 356.76 465.09 361.69L465.07 361.93C464.29 368.77 464.81 375.67 466.63 382.41C468.18 388.18 470.17 392.72 472.88 396.71C474.87 399.64 478.25 401.46 481.69 401.46C482.32 401.46 482.96 401.4 483.57 401.28C486.21 400.75 488.04 399.37 489.04 397.13C490.72 399.87 493.46 401.44 496.73 401.44C497.37 401.44 498.02 401.38 498.67 401.26C502.2 400.6 504.66 398.39 505.97 394.68C508.83 386.63 509.31 377.99 507.44 368.28C506.86 365.29 506 362.47 504.79 358.9C504.45 357.8 502.85 352.73 502 350.94C501.3 349.45 499.65 345.97 496.03 345.97Z" fill="#010101"/>
<path d="M464.74 356.22C464.41 356.22 464.07 356.2 463.75 356.16C458.93 355.61 455.06 354.64 451.57 353.11C449.28 352.1 446.65 350.85 444.5 348.7C442.23 346.43 441.59 343.25 442.92 340.79C443.96 338.88 446.24 337.69 448.89 337.69C449.58 337.69 450.28 337.77 450.97 337.93C452.45 338.27 453.97 339.33 455.74 340.56C457.34 341.68 459.16 342.94 460.94 343.6C462.32 344.11 463.49 344.42 464.52 344.68C466.34 345.15 467.91 345.56 469.34 346.82C471.61 348.8 471.84 350.21 471.48 352.27C471.05 354.73 467.72 356.21 464.74 356.21V356.22Z" fill="#F26622"/>
<path d="M448.89 339.44C449.44 339.44 450.01 339.5 450.58 339.63C452.96 340.18 456.47 343.81 460.33 345.24C464.19 346.67 466.37 346.55 468.18 348.14C469.99 349.73 470 350.51 469.74 351.97C469.51 353.28 467.14 354.46 464.73 354.46C464.46 354.46 464.2 354.45 463.93 354.42C459.89 353.96 455.98 353.14 452.26 351.5C449.9 350.46 447.58 349.31 445.72 347.46C443.99 345.73 443.5 343.38 444.45 341.62C445.2 340.24 446.92 339.44 448.88 339.44M448.88 335.94C445.59 335.94 442.71 337.48 441.37 339.96C439.66 343.11 440.42 347.12 443.25 349.94C445.61 352.3 448.41 353.64 450.85 354.71C454.51 356.32 458.54 357.33 463.53 357.9C463.92 357.94 464.32 357.97 464.72 357.97C468.36 357.97 472.57 356.08 473.18 352.59C473.62 350.08 473.32 348.02 470.47 345.53C468.72 344 466.88 343.52 464.94 343.01C463.95 342.75 462.83 342.46 461.53 341.98C459.96 341.4 458.32 340.25 456.73 339.14C454.82 337.81 453.16 336.65 451.35 336.24C450.53 336.05 449.7 335.96 448.88 335.96V335.94Z" fill="#010101"/>
<path d="M464.68 346.64C464.68 346.64 472.19 347.08 474.46 348.86C476.73 350.64 477.24 353.86 475.6 355.31C473.96 356.76 462.57 354.61 458.81 353.59C455.04 352.57 464.69 346.63 464.69 346.63L464.68 346.64Z" fill="#F26622"/>
<path d="M491.69 346.96C491.69 346.96 499.11 346.77 505.45 350.53C511.78 354.28 505.05 361.06 505.05 361.06C505.05 361.06 501.01 356.54 497.45 354.83C493.9 353.12 491.69 346.96 491.69 346.96Z" fill="#F26622"/>
<path d="M484.27 350.61C480.43 350.61 476.54 349.75 472.69 348.05C468.13 346.04 463.91 343.49 460.74 341.49C460.69 341.46 456.61 338.78 455.35 337.64C451.96 334.85 450.64 331.68 451.19 327.69C451.73 323.73 452.67 319.84 453.58 316.07C454 314.32 454.42 312.56 454.81 310.8C454.87 310.53 454.86 310.42 454.86 310.39C454.86 310.39 454.81 310.34 454.7 310.25C447.41 304.31 445.17 296.43 447.67 285.43C448.44 282.06 450.16 279.3 451.82 276.63C452.15 276.09 452.49 275.56 452.81 275.02C453.37 274.09 454.09 273.62 454.95 273.62C455.67 273.62 456.33 273.97 456.91 274.65C459.17 277.3 461.89 279.65 464.51 281.92C466.98 284.06 469.53 286.26 471.78 288.76C473.34 290.5 474.31 290.84 475.45 290.84C475.93 290.84 476.48 290.77 477.13 290.63C479.46 290.13 481.91 289.87 484.4 289.87C487.66 289.87 491.15 290.31 494.76 291.18C496.8 288.18 499.53 285.95 502.17 283.8L503.18 282.97C506.25 280.44 508.99 277.57 511.54 274.85C511.86 274.51 512.6 273.72 513.69 273.72C514.92 273.72 515.65 274.69 516 275.16C520.65 281.41 522.54 288.62 521.78 297.2C521.41 301.37 519.42 305 515.49 308.64C514.03 310 513.76 310.95 514.3 312.91C515.68 317.92 516.69 322.49 517.38 326.9C518.03 331.07 517.06 334.29 514.41 336.73L514.29 336.85C514.11 337.03 513.88 337.26 513.56 337.46C512.02 338.68 509.18 340.62 508.41 341.11L507.09 341.94C501.08 345.71 494.86 349.61 487.18 350.45C486.21 350.56 485.22 350.61 484.26 350.61H484.27Z" fill="#F26622"/>
<path d="M454.96 275.38C455.15 275.38 455.35 275.51 455.59 275.79C460.07 281.03 465.92 284.86 470.49 289.94C472.14 291.78 473.54 292.6 475.46 292.6C476.08 292.6 476.75 292.51 477.51 292.35C479.8 291.85 482.11 291.63 484.41 291.63C487.74 291.63 491.07 292.1 494.36 292.89C494.64 292.96 494.9 293.03 495.14 293.03C495.46 293.03 495.74 292.91 496 292.51C498.16 289.17 501.31 286.81 504.31 284.34C507.39 281.81 510.13 278.96 512.84 276.06C513.2 275.67 513.47 275.48 513.71 275.48C513.99 275.48 514.25 275.73 514.61 276.22C519.24 282.45 520.73 289.45 520.06 297.06C519.68 301.37 517.28 304.63 514.33 307.37C512.34 309.22 511.95 310.88 512.64 313.39C513.89 317.92 514.95 322.51 515.68 327.18C516.18 330.38 515.73 333.18 513.26 335.45C513.05 335.65 512.84 335.89 512.6 336.02C511.14 337.19 508.24 339.17 507.52 339.62C501.14 343.6 494.84 347.84 487.03 348.71C486.11 348.81 485.2 348.86 484.3 348.86C480.53 348.86 476.92 347.99 473.43 346.45C469.34 344.65 465.48 342.39 461.7 340.01C461.28 339.74 456.77 336.69 456.49 336.3C453.64 333.94 452.48 331.36 452.95 327.94C453.73 322.26 455.33 316.77 456.54 311.19C456.76 310.19 456.61 309.54 455.83 308.91C448.24 302.73 447.38 294.7 449.4 285.84C450.25 282.12 452.43 279.11 454.34 275.95C454.56 275.59 454.76 275.4 454.98 275.4M454.98 271.9C454.13 271.9 452.52 272.19 451.34 274.14C451.02 274.67 450.69 275.2 450.36 275.73C448.62 278.53 446.81 281.42 445.98 285.07C443.43 296.3 445.71 304.82 452.97 311.1C452.63 312.64 452.25 314.19 451.89 315.7C450.97 319.5 450.03 323.44 449.47 327.48C448.84 332.07 450.4 335.84 454.25 339.02C455.91 340.5 459.77 342.98 459.82 343C463.04 345.03 467.33 347.62 472 349.68C476.07 351.47 480.2 352.39 484.28 352.39C485.31 352.39 486.36 352.33 487.4 352.22C495.47 351.33 501.86 347.32 508.04 343.45L509.36 342.62C510.17 342.12 512.98 340.2 514.6 338.91C515.04 338.62 515.34 338.32 515.55 338.11L515.63 338.03C518.74 335.17 519.89 331.44 519.14 326.65C518.44 322.18 517.42 317.54 516.02 312.47C515.65 311.14 515.73 310.86 516.71 309.95C520.91 306.05 523.15 301.94 523.55 297.38C524.34 288.36 522.34 280.76 517.43 274.15C516.99 273.56 515.83 272 513.72 272C511.87 272 510.68 273.27 510.29 273.69C507.78 276.37 505.08 279.2 502.1 281.66C501.77 281.93 501.43 282.21 501.1 282.48C498.64 284.48 496.12 286.54 494.05 289.25C490.71 288.52 487.48 288.16 484.42 288.16C481.8 288.16 479.23 288.43 476.78 288.96C476.26 289.07 475.82 289.13 475.47 289.13C474.97 289.13 474.45 289.13 473.1 287.63C470.78 285.05 468.18 282.8 465.68 280.63C462.98 278.3 460.44 276.09 458.26 273.55C457.1 272.19 455.83 271.91 454.97 271.91L454.98 271.9Z" fill="#010101"/>
<path d="M497.08 309.75C499.17 309.7 500.99 312.09 500.97 314.89C500.96 317.67 499.31 319.87 497.2 319.92C495.01 319.97 493.33 317.75 493.34 314.83C493.35 312.05 495 309.81 497.07 309.75H497.08Z" fill="#010101"/>
<path d="M471.53 309.75C473.59 309.79 475.28 312.07 475.3 315.05C475.28 315.25 475.28 315.69 475.2 316.12C474.79 318.36 473.21 319.94 471.43 319.92C469.66 319.89 468.11 318.26 467.74 316.03C467.68 315.66 467.67 315.28 467.67 314.91C467.65 312.06 469.42 309.71 471.53 309.75Z" fill="#010101"/>
<path d="M483.85 349.06C480.04 349.06 476.46 348.35 473.21 346.95C469.36 345.3 465.5 343.18 461.39 340.46C458.66 338.66 457.38 336.27 458.03 334.23C458.73 332.04 460.98 331.9 462.62 331.79L463.04 331.76C468.23 331.38 473.21 330.06 478.25 327.71C479.86 326.96 481.77 326.57 483.91 326.55C486.74 326.56 488.94 327 491.02 327.96C495.45 330 502.89 331.35 505.38 331.69C505.73 331.74 506.08 331.77 506.42 331.81C508.24 331.99 510.11 332.18 510.64 334.33C511.22 336.72 509.65 338.93 507.83 340.07C507.14 340.5 506.45 340.94 505.76 341.38C503.41 342.88 500.98 344.43 498.41 345.64C493.59 347.9 488.69 349.05 483.86 349.05L483.85 349.06Z" fill="#FAFBFC"/>
<path d="M483.92 327.13C486.61 327.15 488.74 327.54 490.79 328.49C495.4 330.61 503.17 331.97 505.31 332.27C507.45 332.57 509.58 332.37 510.1 334.48C510.61 336.57 509.19 338.57 507.54 339.6C504.46 341.52 501.45 343.6 498.18 345.14C493.18 347.48 488.32 348.49 483.87 348.49C480.02 348.49 476.49 347.73 473.45 346.43C469.34 344.67 465.45 342.46 461.72 339.99C459.29 338.38 458 336.23 458.59 334.41C459.23 332.43 461.41 332.46 463.1 332.34C468.51 331.94 473.61 330.52 478.5 328.24C480.36 327.37 482.36 327.15 483.93 327.14M483.93 326C481.7 326.02 479.72 326.43 478.03 327.21C473.05 329.52 468.14 330.83 463.02 331.21L462.6 331.24C460.9 331.35 458.33 331.51 457.51 334.07C456.77 336.36 458.15 339 461.1 340.95C465.23 343.68 469.12 345.82 473.01 347.49C476.34 348.92 479.99 349.64 483.88 349.64C488.8 349.64 493.78 348.48 498.67 346.18C501.27 344.96 503.72 343.4 506.09 341.89C506.78 341.45 507.46 341.01 508.15 340.58C510.15 339.34 511.87 336.89 511.22 334.22C510.6 331.68 508.33 331.45 506.51 331.27C506.17 331.24 505.83 331.2 505.49 331.15C503.19 330.83 495.64 329.47 491.29 327.46C489.13 326.47 486.87 326.01 483.95 326H483.93Z" fill="#010101"/>
<path d="M484.26 346.64C488.43 346.7 493.14 343.26 494.44 339.2C494.62 338.65 494.84 338.04 494.16 337.72C493.32 337.33 493.09 338.05 492.82 338.61C492.57 339.12 492.37 339.64 492.09 340.13C489.47 344.74 484.39 346.13 479.79 343.5C477.84 342.38 476.71 340.61 475.87 338.6C475.63 338.02 475.36 337.32 474.53 337.73C473.86 338.06 474.09 338.66 474.27 339.21C475.57 343.21 480.09 346.57 484.27 346.64H484.26Z" fill="#010101"/>
<path d="M484.36 331.14C484.36 331.14 484.36 331.12 484.36 331.11C483.8 331.11 483.23 331.12 482.67 331.11C481.39 331.08 480.06 331.01 479.57 332.55C479.07 334.12 480.38 334.77 481.33 335.51C482.01 336.05 482.82 336.43 483.56 336.88C484 337.15 484.41 337.29 484.95 336.99C486.26 336.26 487.59 335.55 488.63 334.44C489.17 333.86 489.47 333.22 489.08 332.4C488.73 331.67 488.22 331.16 487.37 331.14C486.37 331.11 485.37 331.14 484.37 331.14H484.36Z" fill="#010101"/>
<path d="M244.87 401.11L244.19 399.31C244.19 399.31 244.15 399.22 244.11 399.19C244.08 399.16 244.03 399.13 243.99 399.11L242.19 398.44C242.12 398.42 242.07 398.37 242.03 398.31C241.99 398.25 241.97 398.18 241.97 398.11C241.97 398.04 241.99 397.97 242.03 397.91C242.07 397.85 242.13 397.81 242.19 397.78L243.99 397.11C243.99 397.11 244.08 397.07 244.11 397.03C244.15 397 244.17 396.95 244.19 396.91L244.86 395.11C244.88 395.04 244.93 394.99 244.99 394.95C245.05 394.91 245.12 394.89 245.19 394.89C245.26 394.89 245.33 394.91 245.39 394.95C245.45 394.99 245.49 395.05 245.52 395.11L246.19 396.91C246.19 396.91 246.23 397 246.27 397.03C246.3 397.06 246.35 397.09 246.39 397.11L248.19 397.78C248.26 397.8 248.31 397.85 248.35 397.91C248.39 397.97 248.41 398.04 248.41 398.11C248.41 398.18 248.39 398.25 248.35 398.31C248.31 398.37 248.25 398.41 248.19 398.44L246.39 399.11C246.39 399.11 246.3 399.15 246.27 399.19C246.24 399.22 246.21 399.27 246.19 399.31L245.52 401.11C245.49 401.17 245.45 401.23 245.39 401.27C245.33 401.31 245.26 401.33 245.2 401.33C245.14 401.33 245.06 401.31 245.01 401.27C244.95 401.23 244.91 401.18 244.88 401.11H244.87Z" fill="#FFD670"/>
<path d="M295.89 357.22L295.22 355.42C295.22 355.42 295.18 355.33 295.14 355.3C295.11 355.26 295.06 355.24 295.02 355.22L293.22 354.55C293.15 354.53 293.1 354.48 293.06 354.42C293.02 354.36 293 354.29 293 354.22C293 354.15 293.02 354.08 293.06 354.02C293.1 353.96 293.16 353.92 293.22 353.89L295.02 353.22C295.02 353.22 295.11 353.18 295.14 353.14C295.17 353.11 295.2 353.06 295.22 353.02L295.89 351.22C295.91 351.15 295.96 351.1 296.02 351.06C296.08 351.02 296.15 351 296.22 351C296.29 351 296.36 351.02 296.42 351.06C296.48 351.1 296.52 351.16 296.55 351.22L297.22 353.02C297.22 353.02 297.26 353.11 297.3 353.14C297.33 353.17 297.38 353.2 297.42 353.22L299.22 353.89C299.29 353.91 299.34 353.96 299.38 354.02C299.42 354.08 299.44 354.15 299.44 354.22C299.44 354.29 299.42 354.36 299.38 354.42C299.34 354.48 299.28 354.52 299.22 354.55L297.43 355.22C297.43 355.22 297.34 355.26 297.31 355.3C297.27 355.33 297.25 355.38 297.23 355.42L296.56 357.22C296.54 357.29 296.49 357.34 296.43 357.38C296.37 357.42 296.3 357.44 296.23 357.44C296.16 357.44 296.09 357.42 296.03 357.38C295.97 357.34 295.93 357.28 295.9 357.22H295.89Z" fill="#E7B521"/>
<path d="M255.49 339.01L253.94 334.88C253.9 334.77 253.84 334.68 253.76 334.6C253.68 334.52 253.58 334.46 253.48 334.42L249.35 332.89C249.19 332.84 249.06 332.74 248.96 332.6C248.86 332.47 248.81 332.3 248.81 332.14C248.81 331.98 248.86 331.81 248.96 331.68C249.06 331.55 249.19 331.44 249.35 331.39L253.48 329.85C253.59 329.81 253.68 329.75 253.76 329.67C253.84 329.59 253.9 329.5 253.94 329.39L255.48 325.26C255.53 325.1 255.63 324.97 255.77 324.87C255.91 324.77 256.07 324.72 256.23 324.72C256.39 324.72 256.56 324.77 256.69 324.87C256.82 324.97 256.93 325.1 256.98 325.26L258.52 329.39C258.56 329.49 258.62 329.59 258.7 329.67C258.78 329.75 258.87 329.81 258.98 329.85L263.11 331.39C263.27 331.44 263.4 331.54 263.5 331.68C263.6 331.81 263.65 331.98 263.65 332.14C263.65 332.3 263.6 332.47 263.5 332.6C263.4 332.73 263.27 332.84 263.11 332.89L258.98 334.42C258.87 334.46 258.78 334.52 258.69 334.6C258.61 334.68 258.55 334.78 258.51 334.89L256.98 339.02C256.92 339.17 256.82 339.3 256.69 339.4C256.56 339.49 256.4 339.54 256.24 339.54C256.08 339.54 255.92 339.49 255.79 339.4C255.66 339.31 255.56 339.18 255.5 339.02L255.49 339.01Z" fill="#FFD670"/>
<path d="M298.53 324L296.99 319.87C296.95 319.76 296.89 319.67 296.81 319.58C296.73 319.5 296.63 319.44 296.52 319.4L292.39 317.86C292.24 317.8 292.11 317.7 292.02 317.57C291.93 317.44 291.88 317.28 291.88 317.12C291.88 316.96 291.93 316.8 292.02 316.67C292.11 316.54 292.24 316.44 292.39 316.38L296.52 314.84C296.63 314.8 296.72 314.74 296.81 314.66C296.89 314.58 296.95 314.48 296.99 314.37L298.53 310.23C298.59 310.08 298.69 309.95 298.82 309.85C298.95 309.76 299.11 309.71 299.27 309.71C299.43 309.71 299.59 309.76 299.72 309.85C299.85 309.94 299.95 310.07 300.01 310.23L301.55 314.36C301.59 314.47 301.65 314.56 301.73 314.64C301.81 314.72 301.91 314.78 302.01 314.82L306.15 316.35C306.31 316.4 306.44 316.5 306.54 316.64C306.64 316.77 306.69 316.94 306.69 317.1C306.69 317.26 306.64 317.43 306.54 317.56C306.44 317.69 306.31 317.8 306.15 317.85L302.02 319.39C301.91 319.43 301.82 319.49 301.74 319.57C301.66 319.65 301.6 319.75 301.56 319.85L300.02 323.98C299.96 324.13 299.86 324.26 299.73 324.36C299.6 324.45 299.44 324.5 299.28 324.5C299.12 324.5 298.96 324.45 298.83 324.36C298.7 324.27 298.6 324.14 298.54 323.98L298.53 324Z" fill="#E7B521"/>
<path d="M229.59 397.38L228.05 393.25C228.01 393.14 227.95 393.05 227.87 392.97C227.79 392.89 227.69 392.83 227.59 392.79L223.46 391.26C223.31 391.2 223.18 391.1 223.08 390.97C222.99 390.84 222.94 390.68 222.94 390.52C222.94 390.36 222.99 390.2 223.08 390.07C223.17 389.94 223.3 389.84 223.46 389.78L227.59 388.24C227.7 388.2 227.79 388.14 227.87 388.06C227.95 387.98 228.01 387.88 228.05 387.78L229.58 383.65C229.64 383.5 229.74 383.37 229.87 383.28C230 383.19 230.16 383.14 230.32 383.14C230.48 383.14 230.64 383.19 230.77 383.28C230.9 383.37 231 383.5 231.06 383.65L232.6 387.78C232.64 387.89 232.7 387.99 232.78 388.07C232.86 388.15 232.96 388.21 233.07 388.25L237.2 389.79C237.35 389.85 237.48 389.95 237.58 390.08C237.67 390.21 237.72 390.37 237.72 390.53C237.72 390.69 237.67 390.85 237.58 390.98C237.49 391.11 237.36 391.21 237.2 391.27L233.07 392.81C232.96 392.85 232.87 392.91 232.79 392.99C232.71 393.07 232.65 393.17 232.61 393.27L231.07 397.4C231.01 397.55 230.91 397.68 230.78 397.77C230.65 397.86 230.49 397.91 230.33 397.91C230.17 397.91 230.01 397.86 229.88 397.77C229.75 397.68 229.65 397.54 229.59 397.39V397.38Z" fill="#E7B521"/>
<path d="M387.21 411.2L386 407.96C385.97 407.88 385.92 407.8 385.86 407.74C385.8 407.68 385.72 407.63 385.64 407.6L382.4 406.39C382.28 406.35 382.18 406.27 382.11 406.16C382.04 406.05 382 405.93 382 405.81C382 405.69 382.04 405.56 382.11 405.46C382.18 405.36 382.29 405.28 382.4 405.23L385.64 404.02C385.72 403.99 385.8 403.94 385.86 403.88C385.92 403.82 385.97 403.74 386 403.66L387.2 400.41C387.24 400.29 387.32 400.19 387.43 400.11C387.53 400.04 387.66 400 387.79 400C387.92 400 388.04 400.04 388.15 400.11C388.25 400.18 388.33 400.29 388.38 400.41L389.6 403.66C389.63 403.74 389.68 403.82 389.74 403.88C389.8 403.94 389.88 403.99 389.96 404.02L393.21 405.22C393.33 405.26 393.43 405.34 393.51 405.45C393.58 405.55 393.62 405.68 393.62 405.81C393.62 405.94 393.58 406.06 393.51 406.17C393.44 406.27 393.33 406.35 393.21 406.4L389.97 407.61C389.89 407.64 389.81 407.69 389.75 407.75C389.69 407.81 389.64 407.89 389.61 407.97L388.4 411.21C388.36 411.33 388.28 411.44 388.17 411.51C388.06 411.58 387.94 411.62 387.81 411.62C387.68 411.62 387.56 411.58 387.45 411.51C387.34 411.44 387.27 411.33 387.22 411.21L387.21 411.2Z" fill="#FFD670"/>
<path d="M318.87 304.41L317.07 305.08C317.07 305.08 316.98 305.12 316.95 305.16C316.91 305.19 316.89 305.24 316.87 305.28L316.2 307.08C316.17 307.15 316.13 307.2 316.07 307.24C316.01 307.28 315.94 307.3 315.87 307.3C315.8 307.3 315.73 307.28 315.67 307.24C315.61 307.2 315.57 307.14 315.54 307.08L314.87 305.28C314.87 305.28 314.83 305.19 314.79 305.16C314.75 305.13 314.71 305.1 314.67 305.08L312.87 304.41C312.8 304.39 312.75 304.34 312.71 304.28C312.67 304.22 312.65 304.15 312.65 304.08C312.65 304.01 312.67 303.94 312.71 303.88C312.75 303.82 312.81 303.78 312.87 303.75L314.67 303.08C314.67 303.08 314.76 303.04 314.79 303C314.82 302.97 314.85 302.92 314.87 302.88L315.54 301.08C315.56 301.01 315.61 300.96 315.67 300.92C315.73 300.88 315.8 300.86 315.87 300.86C315.94 300.86 316.01 300.88 316.07 300.92C316.13 300.96 316.17 301.02 316.2 301.08L316.87 302.87C316.87 302.87 316.91 302.96 316.95 302.99C316.99 303.03 317.03 303.05 317.07 303.07L318.87 303.74C318.94 303.76 318.99 303.81 319.03 303.87C319.07 303.93 319.09 304 319.09 304.07C319.09 304.14 319.07 304.21 319.03 304.27C318.99 304.33 318.93 304.37 318.87 304.4V304.41Z" fill="#E7B521"/>
<path d="M445.63 396.16L442.36 397.39C442.28 397.42 442.2 397.47 442.13 397.53C442.07 397.59 442.02 397.67 441.99 397.75L440.77 401.02C440.73 401.14 440.65 401.25 440.54 401.33C440.43 401.41 440.31 401.45 440.18 401.45C440.05 401.45 439.92 401.41 439.82 401.33C439.71 401.25 439.63 401.15 439.59 401.02L438.37 397.75C438.34 397.67 438.29 397.59 438.23 397.53C438.17 397.47 438.09 397.42 438.01 397.38L434.74 396.16C434.62 396.12 434.51 396.04 434.43 395.93C434.35 395.82 434.31 395.7 434.31 395.57C434.31 395.44 434.35 395.31 434.43 395.2C434.51 395.09 434.61 395.01 434.74 394.97L438.01 393.75C438.09 393.72 438.17 393.67 438.23 393.61C438.29 393.55 438.34 393.47 438.37 393.39L439.59 390.12C439.63 390 439.71 389.89 439.82 389.81C439.93 389.73 440.05 389.69 440.18 389.69C440.31 389.69 440.44 389.73 440.54 389.81C440.65 389.89 440.73 389.99 440.77 390.12L441.98 393.39C442.01 393.47 442.06 393.55 442.12 393.62C442.18 393.68 442.26 393.73 442.35 393.76L445.62 394.98C445.74 395.02 445.84 395.1 445.92 395.21C445.99 395.32 446.03 395.44 446.03 395.57C446.03 395.7 445.99 395.82 445.92 395.93C445.85 396.04 445.74 396.12 445.62 396.16H445.63Z" fill="#FFD670"/>
<path d="M225.69 319.15L223.89 319.83C223.89 319.83 223.8 319.87 223.77 319.91C223.73 319.94 223.71 319.99 223.69 320.03L223.02 321.83C223 321.9 222.95 321.95 222.89 321.99C222.83 322.03 222.76 322.05 222.69 322.05C222.62 322.05 222.55 322.03 222.49 321.99C222.43 321.95 222.39 321.89 222.36 321.83L221.69 320.04C221.69 320.04 221.65 319.95 221.61 319.92C221.58 319.88 221.53 319.86 221.49 319.84L219.69 319.17C219.62 319.15 219.57 319.1 219.53 319.04C219.49 318.98 219.47 318.91 219.47 318.84C219.47 318.77 219.49 318.7 219.53 318.64C219.57 318.58 219.63 318.54 219.69 318.51L221.49 317.84C221.49 317.84 221.58 317.8 221.61 317.76C221.64 317.72 221.67 317.68 221.69 317.64L222.36 315.84C222.38 315.77 222.43 315.72 222.49 315.68C222.55 315.64 222.62 315.62 222.69 315.62C222.76 315.62 222.83 315.64 222.89 315.68C222.95 315.72 222.99 315.78 223.02 315.84L223.69 317.64C223.69 317.64 223.74 317.73 223.77 317.76C223.81 317.79 223.85 317.82 223.89 317.84L225.69 318.51C225.75 318.54 225.81 318.58 225.85 318.64C225.89 318.7 225.91 318.77 225.91 318.83C225.91 318.89 225.89 318.97 225.85 319.02C225.81 319.08 225.76 319.12 225.69 319.15Z" fill="#FFD670"/>
<path d="M221.75 304.75L217.62 306.29C217.51 306.33 217.42 306.39 217.34 306.47C217.26 306.55 217.2 306.65 217.16 306.75L215.62 310.88C215.56 311.03 215.46 311.16 215.33 311.26C215.2 311.36 215.04 311.4 214.88 311.4C214.72 311.4 214.56 311.35 214.43 311.26C214.3 311.17 214.2 311.04 214.14 310.88L212.6 306.75C212.56 306.64 212.5 306.55 212.42 306.47C212.34 306.39 212.24 306.33 212.14 306.29L208.01 304.76C207.86 304.7 207.73 304.6 207.64 304.47C207.55 304.34 207.5 304.18 207.5 304.02C207.5 303.86 207.55 303.7 207.64 303.57C207.73 303.44 207.86 303.34 208.01 303.28L212.14 301.74C212.25 301.7 212.35 301.64 212.43 301.56C212.51 301.48 212.57 301.38 212.61 301.27L214.15 297.14C214.21 296.99 214.31 296.86 214.44 296.76C214.57 296.67 214.73 296.62 214.89 296.62C215.05 296.62 215.21 296.67 215.34 296.76C215.47 296.85 215.57 296.98 215.63 297.14L217.17 301.27C217.21 301.38 217.27 301.47 217.35 301.55C217.43 301.63 217.53 301.69 217.63 301.73L221.76 303.27C221.91 303.33 222.04 303.43 222.14 303.56C222.23 303.69 222.28 303.85 222.28 304.01C222.28 304.17 222.23 304.33 222.14 304.46C222.05 304.59 221.91 304.69 221.76 304.75H221.75Z" fill="#E7B521"/>
<path d="M443.28 361.13L439.15 362.67C439.04 362.71 438.94 362.77 438.87 362.85C438.79 362.93 438.73 363.03 438.69 363.14L437.15 367.27C437.09 367.42 436.99 367.55 436.86 367.64C436.73 367.73 436.57 367.78 436.41 367.78C436.25 367.78 436.09 367.73 435.96 367.64C435.83 367.55 435.73 367.42 435.67 367.27L434.13 363.14C434.09 363.03 434.03 362.94 433.95 362.85C433.87 362.77 433.77 362.71 433.66 362.67L429.52 361.14C429.37 361.08 429.24 360.98 429.14 360.85C429.04 360.72 429 360.56 429 360.4C429 360.24 429.05 360.08 429.14 359.95C429.23 359.82 429.36 359.72 429.52 359.66L433.66 358.11C433.77 358.07 433.86 358.01 433.94 357.93C434.02 357.85 434.08 357.75 434.12 357.65L435.65 353.52C435.71 353.37 435.81 353.24 435.94 353.14C436.07 353.05 436.23 353 436.39 353C436.55 353 436.71 353.05 436.84 353.14C436.97 353.23 437.08 353.36 437.13 353.52L438.67 357.65C438.71 357.76 438.77 357.85 438.85 357.94C438.93 358.02 439.03 358.08 439.14 358.12L443.27 359.66C443.42 359.72 443.56 359.82 443.65 359.95C443.74 360.08 443.8 360.24 443.8 360.41C443.8 360.58 443.75 360.73 443.65 360.87C443.56 361 443.42 361.1 443.27 361.16L443.28 361.13Z" fill="#FFD670"/>
<path d="M192.69 354.53L189.53 355.71C189.45 355.74 189.37 355.79 189.31 355.85C189.25 355.91 189.2 355.99 189.17 356.07L187.99 359.23C187.95 359.35 187.87 359.45 187.77 359.52C187.67 359.59 187.55 359.63 187.43 359.63C187.31 359.63 187.19 359.59 187.08 359.52C186.98 359.45 186.9 359.35 186.86 359.23L185.68 356.07C185.65 355.99 185.6 355.91 185.54 355.85C185.48 355.79 185.4 355.74 185.32 355.71L182.15 354.54C182.03 354.5 181.93 354.42 181.86 354.32C181.79 354.22 181.75 354.1 181.75 353.97C181.75 353.84 181.79 353.72 181.86 353.62C181.93 353.52 182.03 353.44 182.15 353.4L185.32 352.22C185.4 352.19 185.48 352.14 185.54 352.08C185.6 352.02 185.65 351.94 185.68 351.86L186.85 348.7C186.89 348.58 186.97 348.48 187.07 348.41C187.17 348.34 187.29 348.3 187.42 348.3C187.55 348.3 187.66 348.34 187.77 348.41C187.87 348.48 187.95 348.58 187.99 348.7L189.17 351.86C189.2 351.94 189.25 352.02 189.31 352.08C189.37 352.14 189.45 352.19 189.53 352.22L192.69 353.4C192.81 353.44 192.91 353.52 192.98 353.62C193.05 353.72 193.09 353.84 193.09 353.97C193.09 354.1 193.05 354.22 192.98 354.32C192.91 354.42 192.81 354.5 192.69 354.54V354.53Z" fill="#FFD670"/>
<path d="M346.97 352.48L346.3 350.68C346.3 350.68 346.26 350.59 346.22 350.56C346.18 350.53 346.14 350.5 346.1 350.48L344.3 349.81C344.23 349.79 344.18 349.74 344.14 349.68C344.1 349.62 344.08 349.55 344.08 349.48C344.08 349.41 344.1 349.34 344.14 349.28C344.18 349.22 344.24 349.18 344.3 349.15L346.1 348.48C346.1 348.48 346.19 348.44 346.22 348.4C346.26 348.37 346.28 348.32 346.3 348.28L346.97 346.48C346.99 346.41 347.04 346.36 347.1 346.32C347.16 346.28 347.23 346.26 347.3 346.26C347.37 346.26 347.44 346.28 347.5 346.32C347.56 346.36 347.6 346.42 347.63 346.48L348.3 348.28C348.3 348.28 348.34 348.37 348.38 348.4C348.42 348.43 348.46 348.46 348.5 348.48L350.3 349.15C350.37 349.17 350.42 349.22 350.46 349.28C350.5 349.34 350.52 349.41 350.52 349.48C350.52 349.55 350.5 349.62 350.46 349.68C350.42 349.74 350.36 349.78 350.3 349.81L348.51 350.48C348.51 350.48 348.42 350.52 348.39 350.56C348.35 350.59 348.33 350.64 348.31 350.68L347.64 352.48C347.62 352.55 347.57 352.6 347.51 352.64C347.45 352.68 347.38 352.7 347.31 352.7C347.24 352.7 347.17 352.68 347.11 352.64C347.05 352.6 347.01 352.54 346.98 352.48H346.97Z" fill="#E7B521"/>
<path d="M351.9 450.22L351.22 448.42C351.22 448.42 351.18 448.33 351.14 448.3C351.1 448.27 351.06 448.24 351.02 448.22L349.22 447.55C349.15 447.53 349.1 447.48 349.06 447.42C349.02 447.36 349 447.29 349 447.22C349 447.15 349.02 447.08 349.06 447.02C349.1 446.96 349.16 446.92 349.22 446.89L351.01 446.22C351.01 446.22 351.1 446.18 351.13 446.14C351.17 446.1 351.19 446.06 351.21 446.02L351.88 444.22C351.9 444.15 351.95 444.1 352.01 444.06C352.07 444.02 352.14 444 352.21 444C352.28 444 352.35 444.02 352.41 444.06C352.47 444.1 352.51 444.16 352.54 444.22L353.21 446.02C353.21 446.02 353.25 446.11 353.29 446.14C353.33 446.17 353.37 446.2 353.41 446.22L355.21 446.89C355.28 446.91 355.33 446.96 355.37 447.02C355.41 447.08 355.43 447.15 355.43 447.22C355.43 447.29 355.41 447.36 355.37 447.42C355.33 447.48 355.27 447.52 355.21 447.55L353.41 448.22C353.41 448.22 353.32 448.27 353.29 448.3C353.25 448.34 353.23 448.38 353.21 448.42L352.54 450.22C352.52 450.28 352.47 450.34 352.41 450.38C352.35 450.42 352.29 450.44 352.21 450.44C352.13 450.44 352.07 450.42 352.02 450.38C351.96 450.34 351.92 450.28 351.89 450.22H351.9Z" fill="#FFD670"/>
<path d="M396.97 446.47L396.3 444.67C396.3 444.67 396.26 444.58 396.22 444.55C396.19 444.51 396.14 444.49 396.1 444.47L394.3 443.8C394.23 443.78 394.18 443.73 394.14 443.67C394.1 443.61 394.08 443.54 394.08 443.47C394.08 443.4 394.1 443.33 394.14 443.27C394.18 443.21 394.24 443.17 394.3 443.14L396.1 442.47C396.1 442.47 396.19 442.43 396.22 442.39C396.25 442.35 396.28 442.31 396.3 442.27L396.97 440.47C397 440.4 397.04 440.35 397.1 440.31C397.16 440.27 397.23 440.25 397.3 440.25C397.37 440.25 397.44 440.27 397.5 440.31C397.56 440.35 397.6 440.41 397.63 440.47L398.3 442.27C398.3 442.27 398.34 442.36 398.38 442.39C398.42 442.42 398.46 442.45 398.5 442.47L400.3 443.14C400.37 443.16 400.42 443.21 400.46 443.27C400.5 443.33 400.52 443.4 400.52 443.47C400.52 443.54 400.5 443.61 400.46 443.67C400.42 443.73 400.36 443.77 400.3 443.8L398.5 444.47C398.5 444.47 398.41 444.51 398.38 444.55C398.34 444.59 398.32 444.63 398.3 444.67L397.63 446.47C397.61 446.54 397.56 446.59 397.5 446.63C397.44 446.67 397.37 446.69 397.3 446.69C397.23 446.69 397.16 446.67 397.1 446.63C397.04 446.59 397 446.53 396.97 446.47Z" fill="#E7B521"/>
<path d="M315.66 454.26L314.12 450.13C314.08 450.02 314.02 449.93 313.94 449.84C313.86 449.76 313.76 449.7 313.65 449.66L309.52 448.12C309.37 448.06 309.24 447.96 309.14 447.83C309.05 447.7 309 447.54 309 447.38C309 447.22 309.05 447.06 309.14 446.93C309.23 446.8 309.37 446.7 309.52 446.64L313.65 445.11C313.76 445.07 313.85 445.01 313.93 444.93C314.01 444.85 314.07 444.75 314.11 444.65L315.65 440.51C315.71 440.36 315.81 440.23 315.94 440.14C316.07 440.05 316.23 440 316.39 440C316.55 440 316.71 440.05 316.84 440.14C316.97 440.23 317.08 440.36 317.13 440.51L318.67 444.64C318.71 444.75 318.77 444.84 318.85 444.93C318.93 445.01 319.03 445.07 319.14 445.11L323.27 446.65C323.42 446.71 323.55 446.81 323.65 446.94C323.74 447.07 323.79 447.23 323.79 447.39C323.79 447.55 323.74 447.71 323.65 447.84C323.56 447.97 323.42 448.07 323.27 448.13L319.14 449.67C319.03 449.71 318.94 449.77 318.85 449.85C318.77 449.93 318.71 450.03 318.67 450.14L317.13 454.27C317.07 454.42 316.97 454.55 316.84 454.65C316.71 454.74 316.55 454.79 316.39 454.79C316.23 454.79 316.07 454.74 315.94 454.64C315.81 454.55 315.71 454.42 315.65 454.26H315.66Z" fill="#E7B521"/>
<path d="M448.03 454.14L446.49 450.01C446.45 449.9 446.39 449.81 446.31 449.72C446.23 449.64 446.13 449.58 446.02 449.54L441.89 448C441.74 447.94 441.61 447.84 441.52 447.71C441.43 447.58 441.38 447.42 441.38 447.26C441.38 447.1 441.43 446.94 441.52 446.81C441.61 446.68 441.74 446.58 441.89 446.52L446.02 444.98C446.13 444.94 446.23 444.88 446.31 444.8C446.39 444.72 446.45 444.62 446.49 444.51L448.03 440.37C448.09 440.22 448.19 440.09 448.32 439.99C448.45 439.9 448.61 439.85 448.77 439.85C448.93 439.85 449.09 439.9 449.22 439.99C449.35 440.08 449.45 440.21 449.51 440.37L451.06 444.51C451.1 444.62 451.16 444.71 451.24 444.8C451.32 444.88 451.42 444.94 451.52 444.98L455.65 446.52C455.8 446.58 455.93 446.68 456.03 446.81C456.12 446.94 456.17 447.1 456.17 447.26C456.17 447.42 456.12 447.58 456.03 447.71C455.94 447.84 455.81 447.94 455.65 448L451.52 449.54C451.41 449.58 451.32 449.64 451.23 449.72C451.15 449.8 451.09 449.9 451.05 450.01L449.51 454.14C449.45 454.29 449.35 454.43 449.22 454.52C449.09 454.62 448.93 454.66 448.76 454.66C448.59 454.66 448.44 454.61 448.3 454.52C448.17 454.43 448.06 454.29 448.01 454.14H448.03Z" fill="#FFD670"/>
<path d="M587.64 324.45L586.25 320.72C586.21 320.62 586.16 320.53 586.09 320.46C586.02 320.39 585.93 320.33 585.83 320.3L582.09 318.91C581.95 318.86 581.84 318.77 581.75 318.65C581.66 318.53 581.62 318.39 581.62 318.24C581.62 318.09 581.66 317.95 581.75 317.83C581.84 317.71 581.95 317.62 582.09 317.57L585.82 316.18C585.92 316.14 586.01 316.09 586.08 316.02C586.15 315.95 586.21 315.86 586.24 315.76L587.63 312.02C587.68 311.88 587.77 311.76 587.89 311.68C588.01 311.6 588.15 311.55 588.3 311.55C588.45 311.55 588.59 311.6 588.71 311.68C588.83 311.76 588.92 311.88 588.97 312.02L590.37 315.76C590.41 315.86 590.46 315.94 590.53 316.02C590.6 316.09 590.69 316.15 590.79 316.19L594.53 317.58C594.67 317.63 594.79 317.72 594.87 317.84C594.95 317.96 595 318.1 595 318.25C595 318.4 594.96 318.54 594.87 318.66C594.79 318.78 594.67 318.87 594.53 318.92L590.8 320.31C590.7 320.35 590.61 320.4 590.54 320.47C590.47 320.54 590.41 320.63 590.38 320.73L588.99 324.46C588.94 324.6 588.85 324.72 588.73 324.8C588.61 324.89 588.47 324.93 588.32 324.93C588.17 324.93 588.03 324.88 587.91 324.8C587.79 324.72 587.7 324.59 587.65 324.46L587.64 324.45Z" fill="#FFD670"/>
<path d="M564.03 374.24L562.23 374.92C562.23 374.92 562.14 374.96 562.11 375C562.07 375.03 562.05 375.08 562.03 375.12L561.36 376.92C561.34 376.99 561.29 377.04 561.23 377.08C561.17 377.12 561.1 377.14 561.03 377.14C560.96 377.14 560.89 377.12 560.83 377.08C560.77 377.04 560.73 376.98 560.7 376.92L560.03 375.13C560.03 375.13 559.99 375.04 559.95 375.01C559.92 374.97 559.87 374.95 559.83 374.93L558.03 374.26C557.96 374.24 557.91 374.19 557.87 374.13C557.83 374.07 557.81 374 557.81 373.93C557.81 373.86 557.83 373.79 557.87 373.73C557.91 373.67 557.97 373.63 558.03 373.6L559.83 372.93C559.83 372.93 559.92 372.89 559.95 372.85C559.98 372.81 560.01 372.77 560.03 372.73L560.7 370.93C560.72 370.86 560.77 370.81 560.83 370.77C560.89 370.73 560.96 370.71 561.03 370.71C561.1 370.71 561.17 370.73 561.23 370.77C561.29 370.81 561.33 370.87 561.36 370.93L562.03 372.73C562.03 372.73 562.08 372.82 562.11 372.85C562.15 372.88 562.19 372.91 562.23 372.93L564.03 373.6C564.09 373.63 564.15 373.67 564.19 373.73C564.23 373.79 564.25 373.86 564.25 373.92C564.25 373.98 564.23 374.06 564.19 374.11C564.15 374.17 564.1 374.21 564.03 374.24Z" fill="#FFD670"/>
<path d="M542.22 325.87L538.09 327.41C537.98 327.45 537.89 327.51 537.8 327.59C537.72 327.67 537.66 327.77 537.62 327.88L536.08 332.01C536.02 332.16 535.92 332.29 535.79 332.38C535.66 332.47 535.5 332.52 535.34 332.52C535.18 332.52 535.02 332.47 534.89 332.38C534.76 332.29 534.66 332.16 534.6 332.01L533.06 327.88C533.02 327.77 532.96 327.68 532.88 327.59C532.8 327.51 532.7 327.45 532.59 327.41L528.45 325.88C528.3 325.82 528.17 325.72 528.07 325.59C527.98 325.46 527.93 325.3 527.93 325.14C527.93 324.98 527.98 324.82 528.07 324.69C528.16 324.56 528.29 324.46 528.45 324.4L532.58 322.86C532.69 322.82 532.78 322.76 532.87 322.68C532.95 322.6 533.01 322.5 533.05 322.4L534.59 318.26C534.64 318.1 534.74 317.97 534.88 317.87C535.02 317.77 535.18 317.72 535.34 317.72C535.5 317.72 535.67 317.77 535.8 317.87C535.94 317.97 536.04 318.1 536.09 318.26L537.63 322.39C537.67 322.5 537.73 322.59 537.81 322.67C537.89 322.75 537.99 322.81 538.09 322.85L542.22 324.39C542.37 324.45 542.5 324.55 542.6 324.68C542.69 324.81 542.74 324.97 542.74 325.13C542.74 325.29 542.69 325.45 542.6 325.58C542.51 325.71 542.38 325.81 542.22 325.87Z" fill="#E7B521"/>
<path d="M560.09 359.85L555.96 361.39C555.85 361.43 555.76 361.49 555.68 361.57C555.6 361.65 555.54 361.75 555.5 361.85L553.96 365.98C553.9 366.13 553.8 366.26 553.67 366.36C553.54 366.46 553.38 366.5 553.22 366.5C553.06 366.5 552.9 366.45 552.77 366.36C552.64 366.27 552.54 366.14 552.48 365.98L550.94 361.85C550.9 361.74 550.84 361.65 550.76 361.57C550.68 361.49 550.58 361.43 550.48 361.39L546.35 359.86C546.2 359.8 546.07 359.7 545.98 359.57C545.89 359.44 545.84 359.28 545.84 359.12C545.84 358.96 545.89 358.8 545.98 358.67C546.07 358.54 546.2 358.44 546.35 358.38L550.48 356.84C550.59 356.8 550.69 356.74 550.77 356.66C550.85 356.58 550.91 356.48 550.95 356.37L552.49 352.24C552.55 352.09 552.65 351.96 552.78 351.86C552.91 351.77 553.07 351.72 553.23 351.72C553.39 351.72 553.55 351.77 553.68 351.86C553.81 351.95 553.91 352.08 553.97 352.24L555.51 356.37C555.55 356.48 555.61 356.57 555.69 356.65C555.77 356.73 555.87 356.79 555.97 356.83L560.1 358.37C560.25 358.43 560.38 358.53 560.48 358.66C560.57 358.79 560.62 358.95 560.62 359.11C560.62 359.27 560.57 359.43 560.48 359.56C560.39 359.69 560.25 359.79 560.1 359.85H560.09Z" fill="#E7B521"/>
<path d="M600.2 380.3L596.97 381.51C596.89 381.54 596.81 381.59 596.75 381.65C596.69 381.71 596.64 381.79 596.61 381.87L595.41 385.1C595.37 385.22 595.29 385.32 595.18 385.39C595.07 385.46 594.95 385.5 594.82 385.5C594.69 385.5 594.57 385.46 594.47 385.39C594.37 385.32 594.29 385.21 594.24 385.1L593.04 381.87C593.01 381.79 592.96 381.71 592.9 381.65C592.84 381.59 592.76 381.54 592.68 381.51L589.44 380.31C589.32 380.27 589.22 380.19 589.15 380.08C589.08 379.98 589.04 379.85 589.04 379.73C589.04 379.61 589.08 379.48 589.15 379.38C589.22 379.28 589.32 379.2 589.44 379.15L592.67 377.94C592.75 377.91 592.83 377.86 592.89 377.8C592.95 377.74 593 377.66 593.03 377.58L594.23 374.35C594.27 374.23 594.35 374.13 594.46 374.06C594.56 373.99 594.69 373.95 594.82 373.95C594.95 373.95 595.07 373.99 595.17 374.06C595.27 374.13 595.35 374.24 595.4 374.35L596.61 377.58C596.64 377.66 596.69 377.74 596.75 377.8C596.81 377.86 596.89 377.91 596.97 377.94L600.2 379.14C600.32 379.18 600.42 379.26 600.49 379.37C600.56 379.47 600.6 379.6 600.6 379.73C600.6 379.86 600.56 379.98 600.49 380.08C600.42 380.18 600.31 380.26 600.19 380.31L600.2 380.3Z" fill="#E7B521"/>
<path d="M549.14 323.73L548.47 321.93C548.47 321.93 548.43 321.84 548.39 321.81C548.35 321.78 548.31 321.75 548.27 321.73L546.47 321.06C546.4 321.04 546.35 320.99 546.31 320.93C546.27 320.87 546.25 320.8 546.25 320.73C546.25 320.66 546.27 320.59 546.31 320.53C546.35 320.47 546.41 320.43 546.47 320.4L548.27 319.73C548.27 319.73 548.36 319.69 548.39 319.65C548.43 319.62 548.45 319.57 548.47 319.53L549.14 317.73C549.16 317.66 549.21 317.61 549.27 317.57C549.33 317.53 549.4 317.51 549.47 317.51C549.54 317.51 549.61 317.53 549.67 317.57C549.73 317.61 549.77 317.67 549.8 317.73L550.47 319.53C550.47 319.53 550.51 319.62 550.55 319.65C550.59 319.68 550.63 319.71 550.67 319.73L552.47 320.4C552.54 320.42 552.59 320.47 552.63 320.53C552.67 320.59 552.69 320.66 552.69 320.73C552.69 320.8 552.67 320.87 552.63 320.93C552.59 320.99 552.53 321.03 552.47 321.06L550.68 321.73C550.68 321.73 550.59 321.77 550.56 321.81C550.52 321.84 550.5 321.89 550.48 321.93L549.81 323.73C549.79 323.8 549.74 323.85 549.68 323.89C549.62 323.93 549.55 323.95 549.48 323.95C549.41 323.95 549.34 323.93 549.28 323.89C549.22 323.85 549.18 323.79 549.15 323.73H549.14Z" fill="#E7B521"/>
<path d="M516.89 398.22L516.22 396.42C516.22 396.42 516.18 396.33 516.14 396.3C516.1 396.27 516.06 396.24 516.02 396.22L514.22 395.55C514.15 395.53 514.1 395.48 514.06 395.42C514.02 395.36 514 395.29 514 395.22C514 395.15 514.02 395.08 514.06 395.02C514.1 394.96 514.16 394.92 514.22 394.89L516.02 394.22C516.02 394.22 516.11 394.18 516.14 394.14C516.18 394.11 516.2 394.06 516.22 394.02L516.89 392.22C516.91 392.15 516.96 392.1 517.02 392.06C517.08 392.02 517.15 392 517.22 392C517.29 392 517.36 392.02 517.42 392.06C517.48 392.1 517.52 392.16 517.55 392.22L518.22 394.02C518.22 394.02 518.27 394.11 518.3 394.14C518.34 394.17 518.38 394.2 518.42 394.22L520.22 394.89C520.29 394.91 520.34 394.96 520.38 395.02C520.42 395.08 520.44 395.15 520.44 395.22C520.44 395.29 520.42 395.36 520.38 395.42C520.34 395.48 520.28 395.52 520.22 395.55L518.43 396.22C518.43 396.22 518.34 396.26 518.31 396.3C518.28 396.34 518.25 396.38 518.23 396.42L517.56 398.22C517.54 398.29 517.49 398.34 517.43 398.38C517.37 398.42 517.3 398.44 517.23 398.44C517.16 398.44 517.09 398.42 517.03 398.38C516.97 398.34 516.93 398.28 516.9 398.22H516.89Z" fill="#E7B521"/>
<path d="M673.59 422.38L671.79 423.05C671.79 423.05 671.7 423.09 671.67 423.13C671.64 423.17 671.61 423.21 671.59 423.25L670.92 425.05C670.9 425.12 670.85 425.17 670.79 425.21C670.73 425.25 670.66 425.27 670.59 425.27C670.52 425.27 670.45 425.25 670.39 425.21C670.33 425.17 670.29 425.11 670.26 425.05L669.59 423.25C669.59 423.25 669.55 423.16 669.51 423.13C669.48 423.1 669.43 423.07 669.39 423.05L667.59 422.38C667.52 422.36 667.47 422.31 667.43 422.25C667.39 422.19 667.37 422.12 667.37 422.05C667.37 421.98 667.39 421.91 667.43 421.85C667.47 421.79 667.53 421.75 667.59 421.72L669.39 421.05C669.39 421.05 669.48 421.01 669.51 420.97C669.55 420.93 669.57 420.89 669.59 420.85L670.26 419.05C670.28 418.98 670.33 418.93 670.39 418.89C670.45 418.85 670.52 418.83 670.59 418.83C670.66 418.83 670.73 418.85 670.79 418.89C670.85 418.93 670.89 418.99 670.92 419.05L671.59 420.85C671.59 420.85 671.63 420.94 671.67 420.97C671.71 421.01 671.75 421.03 671.79 421.05L673.59 421.72C673.66 421.75 673.71 421.79 673.75 421.85C673.79 421.91 673.81 421.97 673.81 422.05C673.81 422.13 673.79 422.19 673.75 422.24C673.71 422.29 673.66 422.34 673.59 422.37V422.38Z" fill="#FFD670"/>
<path d="M578.7 362.39L576.9 363.06C576.9 363.06 576.81 363.1 576.78 363.14C576.75 363.18 576.72 363.22 576.7 363.26L576.03 365.06C576.01 365.13 575.96 365.18 575.9 365.22C575.84 365.26 575.77 365.28 575.7 365.28C575.63 365.28 575.56 365.26 575.5 365.22C575.44 365.18 575.4 365.12 575.37 365.06L574.7 363.26C574.7 363.26 574.66 363.17 574.62 363.14C574.59 363.11 574.54 363.08 574.5 363.06L572.7 362.39C572.63 362.37 572.58 362.32 572.54 362.26C572.5 362.2 572.48 362.13 572.48 362.06C572.48 361.99 572.5 361.92 572.54 361.86C572.58 361.8 572.64 361.76 572.7 361.73L574.5 361.06C574.5 361.06 574.59 361.01 574.62 360.98C574.65 360.95 574.68 360.9 574.7 360.86L575.37 359.06C575.39 358.99 575.44 358.94 575.5 358.9C575.56 358.86 575.63 358.84 575.7 358.84C575.77 358.84 575.84 358.86 575.9 358.9C575.96 358.94 576 359 576.03 359.06L576.7 360.85C576.7 360.85 576.74 360.94 576.78 360.97C576.82 361.01 576.86 361.03 576.9 361.05L578.7 361.72C578.77 361.74 578.82 361.79 578.86 361.85C578.9 361.91 578.92 361.98 578.92 362.05C578.92 362.12 578.9 362.19 578.86 362.25C578.82 362.31 578.76 362.35 578.7 362.38V362.39Z" fill="#E7B521"/>
<path d="M588.31 452.16L584.18 453.71C584.07 453.75 583.98 453.81 583.89 453.89C583.81 453.97 583.75 454.07 583.71 454.17L582.17 458.3C582.12 458.46 582.02 458.59 581.88 458.69C581.75 458.79 581.58 458.84 581.42 458.84C581.26 458.84 581.09 458.79 580.96 458.69C580.83 458.59 580.73 458.46 580.67 458.3L579.13 454.17C579.09 454.06 579.03 453.97 578.95 453.89C578.87 453.81 578.78 453.75 578.67 453.71L574.54 452.17C574.38 452.12 574.25 452.02 574.15 451.88C574.05 451.75 574 451.58 574 451.42C574 451.26 574.05 451.09 574.15 450.96C574.25 450.83 574.38 450.73 574.54 450.67L578.67 449.13C578.77 449.09 578.87 449.03 578.95 448.95C579.03 448.87 579.09 448.78 579.13 448.67L580.67 444.54C580.72 444.38 580.83 444.25 580.96 444.15C581.1 444.05 581.26 444 581.42 444C581.58 444 581.75 444.05 581.88 444.15C582.01 444.25 582.12 444.38 582.17 444.54L583.7 448.67C583.74 448.78 583.8 448.88 583.88 448.96C583.96 449.04 584.06 449.1 584.16 449.14L588.29 450.68C588.44 450.74 588.57 450.84 588.67 450.97C588.76 451.1 588.81 451.26 588.81 451.42C588.81 451.58 588.76 451.74 588.67 451.87C588.58 452 588.45 452.1 588.29 452.16H588.31Z" fill="#FFD670"/>
<path d="M661.78 374.01L657.65 375.55C657.54 375.59 657.45 375.65 657.36 375.73C657.28 375.81 657.22 375.91 657.18 376.01L655.64 380.14C655.58 380.29 655.48 380.42 655.35 380.51C655.22 380.6 655.06 380.65 654.9 380.65C654.74 380.65 654.58 380.6 654.45 380.51C654.32 380.42 654.22 380.29 654.16 380.14L652.62 376.01C652.58 375.9 652.52 375.8 652.44 375.72C652.36 375.64 652.26 375.58 652.15 375.54L648.01 374C647.86 373.94 647.73 373.84 647.63 373.71C647.54 373.58 647.49 373.42 647.49 373.26C647.49 373.1 647.54 372.94 647.63 372.81C647.72 372.68 647.86 372.58 648.01 372.52L652.14 370.98C652.25 370.94 652.34 370.88 652.43 370.8C652.51 370.72 652.57 370.62 652.61 370.52L654.15 366.39C654.2 366.23 654.3 366.1 654.44 366C654.58 365.9 654.74 365.85 654.9 365.85C655.06 365.85 655.23 365.9 655.36 366C655.5 366.1 655.6 366.23 655.65 366.39L657.19 370.52C657.23 370.63 657.29 370.72 657.37 370.8C657.45 370.88 657.55 370.94 657.65 370.98L661.78 372.52C661.93 372.58 662.06 372.68 662.16 372.81C662.25 372.94 662.3 373.1 662.3 373.26C662.3 373.42 662.25 373.58 662.16 373.71C662.07 373.84 661.94 373.94 661.78 374V374.01Z" fill="#FFCB0D"/>
<path d="M669.65 407.99L665.52 409.53C665.41 409.57 665.32 409.63 665.24 409.71C665.16 409.79 665.1 409.89 665.06 409.99L663.52 414.12C663.46 414.27 663.36 414.4 663.23 414.5C663.1 414.59 662.94 414.64 662.78 414.64C662.62 414.64 662.46 414.59 662.33 414.5C662.2 414.41 662.09 414.28 662.04 414.12L660.51 409.99C660.47 409.88 660.41 409.79 660.33 409.71C660.25 409.63 660.15 409.57 660.05 409.53L655.91 407.99C655.76 407.93 655.63 407.83 655.54 407.7C655.45 407.57 655.4 407.41 655.4 407.25C655.4 407.09 655.45 406.93 655.54 406.8C655.63 406.67 655.76 406.56 655.91 406.51L660.04 404.97C660.15 404.93 660.25 404.87 660.33 404.79C660.41 404.71 660.47 404.61 660.51 404.5L662.05 400.37C662.11 400.22 662.21 400.09 662.34 399.99C662.47 399.9 662.63 399.85 662.79 399.85C662.95 399.85 663.11 399.9 663.24 399.99C663.37 400.08 663.47 400.21 663.53 400.37L665.07 404.5C665.11 404.61 665.17 404.7 665.25 404.79C665.33 404.87 665.43 404.93 665.53 404.97L669.66 406.51C669.81 406.57 669.94 406.67 670.04 406.8C670.13 406.93 670.18 407.09 670.18 407.25C670.18 407.41 670.13 407.57 670.04 407.7C669.95 407.83 669.81 407.93 669.66 407.99H669.65Z" fill="#E7B521"/>
<path d="M566.48 394.3L562.35 395.84C562.24 395.88 562.14 395.94 562.06 396.02C561.98 396.1 561.92 396.2 561.88 396.31L560.34 400.44C560.28 400.59 560.18 400.72 560.05 400.81C559.92 400.9 559.76 400.95 559.6 400.95C559.44 400.95 559.28 400.9 559.15 400.81C559.02 400.72 558.91 400.59 558.86 400.44L557.32 396.31C557.28 396.2 557.22 396.11 557.14 396.02C557.06 395.94 556.96 395.88 556.85 395.84L552.71 394.3C552.56 394.24 552.43 394.14 552.33 394.01C552.23 393.88 552.19 393.72 552.19 393.56C552.19 393.4 552.24 393.24 552.33 393.11C552.42 392.98 552.55 392.87 552.71 392.82L556.85 391.27C556.96 391.23 557.06 391.17 557.14 391.09C557.22 391.01 557.28 390.91 557.32 390.81L558.86 386.68C558.92 386.53 559.02 386.4 559.15 386.3C559.28 386.21 559.44 386.16 559.6 386.16C559.76 386.16 559.92 386.21 560.05 386.3C560.18 386.39 560.28 386.52 560.34 386.68L561.88 390.81C561.92 390.92 561.98 391.01 562.06 391.1C562.14 391.19 562.24 391.24 562.35 391.28L566.48 392.82C566.63 392.88 566.77 392.98 566.86 393.11C566.95 393.24 567 393.4 567 393.57C567 393.74 566.95 393.89 566.86 394.03C566.77 394.16 566.63 394.27 566.48 394.32V394.3Z" fill="#FFD670"/>
<mask id="mask0_336_7280" style="mask-type:luminance" maskUnits="userSpaceOnUse" x="351" y="531" width="90" height="24">
<path d="M441 531H351V555H441V531Z" fill="white"/>
</mask>
<g mask="url(#mask0_336_7280)">
<path d="M384.56 533.9H391.9C392.09 533.9 392.24 534.05 392.24 534.24V535.96C392.24 536.15 392.09 536.3 391.9 536.3H387.27C387.08 536.3 386.93 536.45 386.93 536.64V538.69C386.93 538.88 387.08 539.03 387.27 539.03H390.64C390.83 539.03 390.98 539.18 390.98 539.37V541.02C390.98 541.21 390.83 541.36 390.64 541.36H387.27C387.08 541.36 386.93 541.51 386.93 541.7V545.62C386.93 545.81 386.78 545.96 386.59 545.96H384.57C384.38 545.96 384.23 545.81 384.23 545.62V534.23C384.23 534.04 384.38 533.89 384.57 533.89L384.56 533.9Z" fill="#211E1F"/>
<path d="M393.18 537.48H395C395.18 537.48 395.32 537.62 395.34 537.79C395.36 538.06 395.69 538.21 395.89 538.03C396.01 537.92 396.14 537.82 396.29 537.72C396.67 537.45 397.15 537.32 397.75 537.32C397.98 537.32 398.17 537.33 398.33 537.36C398.38 537.36 398.44 537.38 398.49 537.39C398.67 537.43 398.79 537.61 398.75 537.79L398.46 539.44C398.43 539.62 398.25 539.74 398.07 539.71C397.89 539.68 397.68 539.66 397.47 539.66C396.86 539.66 396.37 539.84 395.99 540.21C395.61 540.58 395.43 541.1 395.43 541.78V545.64C395.43 545.83 395.28 545.98 395.09 545.98H393.19C393 545.98 392.85 545.83 392.85 545.64V537.83C392.85 537.64 393 537.49 393.19 537.49L393.18 537.48Z" fill="#211E1F"/>
<path d="M407.65 544.78C407.75 544.94 407.71 545.14 407.56 545.24C407.51 545.27 407.46 545.31 407.4 545.35C407.21 545.49 406.96 545.63 406.66 545.76C406.36 545.89 406 546.01 405.58 546.11C405.16 546.21 404.69 546.26 404.15 546.26C403.44 546.26 402.79 546.15 402.22 545.92C401.65 545.7 401.16 545.39 400.76 544.99C400.36 544.59 400.06 544.11 399.85 543.55C399.64 542.99 399.54 542.37 399.54 541.69C399.54 541.1 399.64 540.53 399.84 539.98C400.04 539.43 400.32 538.95 400.69 538.54C401.06 538.13 401.51 537.8 402.05 537.55C402.59 537.3 403.19 537.18 403.87 537.18C404.55 537.18 405.15 537.3 405.66 537.54C406.17 537.78 406.61 538.12 406.96 538.55C407.31 538.98 407.58 539.49 407.76 540.09C407.94 540.69 408.03 541.34 408.03 542.06V542.49H402.46C402.23 542.49 402.06 542.72 402.14 542.95C402.23 543.22 402.41 543.47 402.66 543.7C403.05 544.04 403.58 544.22 404.26 544.22C404.94 544.22 405.47 544.12 405.89 543.92C406.15 543.8 406.36 543.68 406.53 543.58C406.69 543.49 406.88 543.54 406.98 543.69L407.67 544.77L407.65 544.78ZM405.58 540.85C405.58 540.67 405.54 540.48 405.47 540.3C405.4 540.11 405.29 539.94 405.15 539.78C405.01 539.62 404.83 539.49 404.61 539.39C404.4 539.29 404.14 539.24 403.84 539.24C403.54 539.24 403.28 539.29 403.05 539.39C402.82 539.49 402.64 539.62 402.49 539.78C402.34 539.94 402.23 540.11 402.15 540.3C402.07 540.49 402.03 540.67 402.03 540.85H405.57H405.58Z" fill="#211E1F"/>
<path d="M416.97 544.61C417.09 544.75 417.08 544.97 416.94 545.09C416.63 545.37 416.26 545.63 415.81 545.84C415.24 546.12 414.57 546.26 413.8 546.26C413.12 546.26 412.5 546.15 411.95 545.92C411.4 545.7 410.92 545.38 410.53 544.98C410.14 544.58 409.83 544.09 409.61 543.54C409.39 542.98 409.28 542.37 409.28 541.71C409.28 541.08 409.39 540.49 409.62 539.94C409.85 539.39 410.16 538.91 410.56 538.5C410.96 538.09 411.44 537.77 411.99 537.53C412.54 537.3 413.15 537.18 413.81 537.18C414.57 537.18 415.23 537.31 415.8 537.56C416.25 537.76 416.63 538.02 416.97 538.33C417.11 538.46 417.12 538.68 416.99 538.82L415.89 540.02C415.77 540.16 415.56 540.17 415.42 540.04C415.28 539.92 415.13 539.8 414.96 539.7C414.69 539.53 414.32 539.45 413.87 539.45C413.56 539.45 413.28 539.51 413.04 539.64C412.8 539.77 412.59 539.93 412.42 540.14C412.25 540.35 412.12 540.58 412.03 540.86C411.94 541.14 411.89 541.42 411.89 541.72C411.89 542 411.94 542.27 412.03 542.55C412.12 542.82 412.25 543.06 412.42 543.27C412.59 543.48 412.8 543.65 413.04 543.79C413.29 543.92 413.56 543.99 413.87 543.99C414.31 543.99 414.68 543.9 414.98 543.73C415.16 543.62 415.32 543.51 415.46 543.39C415.6 543.27 415.81 543.28 415.93 543.42L416.99 544.62L416.97 544.61Z" fill="#211E1F"/>
<path d="M418.88 533.9H420.78C420.97 533.9 421.12 534.05 421.12 534.24V539.32C421.12 539.63 421.49 539.78 421.7 539.56L423.58 537.59C423.64 537.52 423.73 537.49 423.82 537.49H425.79C426.09 537.49 426.24 537.85 426.03 538.07L423.77 540.43C423.66 540.54 423.64 540.72 423.73 540.85L426.66 545.46C426.8 545.69 426.64 545.99 426.38 545.99H424.2C424.08 545.99 423.97 545.93 423.91 545.83L422.09 542.79C421.98 542.6 421.71 542.57 421.56 542.73L421.21 543.09C421.15 543.15 421.11 543.24 421.11 543.33V545.66C421.11 545.85 420.96 546 420.77 546H418.87C418.68 546 418.53 545.85 418.53 545.66V534.27C418.53 534.08 418.68 533.93 418.87 533.93L418.88 533.9Z" fill="#211E1F"/>
<path d="M428.59 533.9H430.49C430.68 533.9 430.83 534.05 430.83 534.24V545.64C430.83 545.83 430.68 545.98 430.49 545.98H428.59C428.4 545.98 428.25 545.83 428.25 545.64V534.24C428.25 534.05 428.4 533.9 428.59 533.9Z" fill="#211E1F"/>
<path d="M440.64 544.78C440.74 544.94 440.7 545.14 440.55 545.24C440.5 545.27 440.45 545.31 440.39 545.35C440.2 545.49 439.95 545.63 439.65 545.76C439.35 545.89 438.98 546.01 438.57 546.11C438.15 546.21 437.68 546.26 437.14 546.26C436.43 546.26 435.78 546.15 435.21 545.92C434.64 545.7 434.15 545.39 433.75 544.99C433.35 544.59 433.05 544.11 432.84 543.55C432.63 542.99 432.53 542.37 432.53 541.69C432.53 541.1 432.63 540.53 432.83 539.98C433.03 539.43 433.31 538.95 433.68 538.54C434.05 538.13 434.5 537.8 435.04 537.55C435.58 537.3 436.18 537.18 436.86 537.18C437.54 537.18 438.14 537.3 438.65 537.54C439.16 537.78 439.6 538.12 439.95 538.55C440.3 538.98 440.57 539.49 440.75 540.09C440.93 540.69 441.02 541.34 441.02 542.06V542.49H435.45C435.22 542.49 435.05 542.72 435.13 542.95C435.22 543.22 435.4 543.47 435.65 543.7C436.04 544.04 436.57 544.22 437.25 544.22C437.93 544.22 438.46 544.12 438.88 543.92C439.14 543.8 439.35 543.68 439.53 543.58C439.68 543.49 439.88 543.54 439.98 543.69L440.67 544.77L440.64 544.78ZM438.57 540.85C438.57 540.67 438.53 540.48 438.46 540.3C438.39 540.11 438.28 539.94 438.14 539.78C438 539.62 437.82 539.49 437.6 539.39C437.39 539.29 437.13 539.24 436.83 539.24C436.53 539.24 436.27 539.29 436.04 539.39C435.81 539.49 435.63 539.62 435.48 539.78C435.33 539.94 435.22 540.11 435.14 540.3C435.06 540.49 435.02 540.67 435.02 540.85H438.56H438.57Z" fill="#211E1F"/>
<path d="M386.88 553.09C386.63 553.42 386.28 553.58 385.83 553.58C385.59 553.58 385.38 553.53 385.2 553.44C385.02 553.34 384.87 553.2 384.76 553.02L384.68 553.51H384.13V548.17H384.8V550.24C384.91 550.08 385.06 549.95 385.23 549.86C385.4 549.77 385.6 549.73 385.83 549.73C386.28 549.73 386.63 549.91 386.88 550.28C387.13 550.65 387.26 551.12 387.26 551.72V551.79C387.26 552.32 387.13 552.75 386.88 553.08V553.09ZM386.36 550.69C386.21 550.42 385.97 550.29 385.66 550.29C385.46 550.29 385.28 550.34 385.14 550.44C385 550.54 384.89 550.68 384.8 550.85V552.45C384.89 552.63 385 552.77 385.14 552.88C385.28 552.98 385.46 553.03 385.67 553.03C385.98 553.03 386.22 552.92 386.37 552.69C386.52 552.46 386.6 552.16 386.6 551.79V551.72C386.6 551.3 386.52 550.95 386.37 550.68L386.36 550.69Z" fill="#211E1F"/>
<path d="M389.27 552.6H389.29L390.19 549.8H390.93L389.39 554.07C389.3 554.32 389.17 554.54 388.99 554.72C388.82 554.9 388.59 555 388.29 555C388.24 555 388.17 555 388.08 554.98C388 554.97 387.93 554.95 387.89 554.94L387.96 554.41C387.96 554.41 387.99 554.41 388.08 554.41C388.17 554.41 388.23 554.41 388.26 554.41C388.4 554.41 388.52 554.35 388.61 554.22C388.7 554.09 388.77 553.95 388.84 553.8L389 553.41L387.64 549.78H388.38L389.15 552.11L389.27 552.57V552.6Z" fill="#211E1F"/>
<path d="M394.03 553.5H393.36V548.52H395.14C395.68 548.52 396.09 548.64 396.37 548.88C396.65 549.12 396.79 549.47 396.79 549.93C396.79 550.19 396.72 550.41 396.59 550.6C396.46 550.79 396.27 550.94 396.01 551.05C396.28 551.14 396.47 551.28 396.59 551.48C396.71 551.68 396.77 551.93 396.77 552.22V552.69C396.77 552.84 396.79 552.98 396.82 553.11C396.85 553.23 396.91 553.33 397 553.41V553.49H396.32C396.23 553.41 396.18 553.3 396.15 553.15C396.13 553 396.11 552.85 396.11 552.69V552.23C396.11 551.96 396.03 551.75 395.88 551.58C395.73 551.42 395.52 551.33 395.26 551.33H394.02V553.49L394.03 553.5ZM395.08 550.81C395.46 550.81 395.73 550.74 395.89 550.59C396.05 550.45 396.14 550.22 396.14 549.93C396.14 549.64 396.06 549.43 395.9 549.28C395.74 549.13 395.49 549.05 395.15 549.05H394.03V550.81H395.08Z" fill="#211E1F"/>
<path d="M398.12 553.06C397.82 552.72 397.67 552.27 397.67 551.72V551.57C397.67 551.04 397.83 550.6 398.13 550.25C398.44 549.9 398.8 549.73 399.23 549.73C399.72 549.73 400.1 549.88 400.35 550.18C400.6 550.48 400.73 550.88 400.73 551.38V551.8H398.36V551.82C398.36 552.18 398.45 552.47 398.62 552.7C398.79 552.93 399.03 553.04 399.34 553.04C399.56 553.04 399.76 553.01 399.93 552.94C400.1 552.87 400.25 552.78 400.37 552.67L400.63 553.11C400.5 553.24 400.33 553.35 400.11 553.43C399.9 553.52 399.64 553.56 399.33 553.56C398.82 553.56 398.42 553.39 398.12 553.05V553.06ZM398.66 550.55C398.5 550.74 398.41 550.98 398.37 551.27V551.29H400.06V551.2C400.06 550.93 399.99 550.71 399.85 550.54C399.71 550.36 399.5 550.27 399.23 550.27C399.01 550.27 398.82 550.36 398.66 550.56V550.55Z" fill="#211E1F"/>
<path d="M402.12 550.35C402.24 550.15 402.39 550 402.58 549.89C402.76 549.78 402.97 549.73 403.21 549.73C403.61 549.73 403.91 549.85 404.13 550.08C404.35 550.31 404.45 550.67 404.45 551.16V553.5H403.78V551.18C403.78 550.85 403.72 550.62 403.59 550.49C403.46 550.35 403.27 550.29 403.01 550.29C402.82 550.29 402.65 550.34 402.5 550.43C402.35 550.52 402.24 550.65 402.15 550.81V553.51H401.48V549.81H402.08L402.13 550.36L402.12 550.35Z" fill="#211E1F"/>
<path d="M407.6 553.21C407.59 553.12 407.58 553.04 407.58 552.95C407.46 553.13 407.29 553.28 407.1 553.4C406.9 553.52 406.69 553.58 406.46 553.58C406.08 553.58 405.79 553.48 405.59 553.29C405.39 553.09 405.29 552.82 405.29 552.47C405.29 552.12 405.43 551.84 405.71 551.64C405.99 551.44 406.38 551.34 406.86 551.34H407.58V550.97C407.58 550.75 407.52 550.58 407.38 550.45C407.24 550.32 407.06 550.26 406.83 550.26C406.62 550.26 406.44 550.31 406.31 550.43C406.17 550.54 406.11 550.67 406.11 550.83H405.48V550.81C405.46 550.54 405.59 550.29 405.85 550.07C406.11 549.85 406.46 549.74 406.87 549.74C407.28 549.74 407.62 549.85 407.87 550.06C408.12 550.27 408.25 550.58 408.25 550.98V552.76C408.25 552.89 408.25 553.02 408.27 553.14C408.28 553.26 408.31 553.38 408.34 553.5H407.66C407.64 553.39 407.62 553.29 407.61 553.2L407.6 553.21ZM407.2 552.82C407.39 552.7 407.52 552.55 407.58 552.39V551.79H406.83C406.56 551.79 406.35 551.86 406.19 551.99C406.03 552.13 405.95 552.29 405.95 552.47C405.95 552.64 406 552.76 406.1 552.86C406.2 552.96 406.35 553.01 406.55 553.01C406.79 553.01 407.01 552.95 407.2 552.82Z" fill="#211E1F"/>
<path d="M409.27 548.85V548.16H409.94V548.85H409.27ZM409.27 553.5V549.8H409.94V553.5H409.27Z" fill="#211E1F"/>
<path d="M412.91 552.16C412.8 552.06 412.59 551.98 412.28 551.91C411.84 551.81 411.5 551.68 411.28 551.51C411.06 551.34 410.94 551.11 410.94 550.82C410.94 550.53 411.07 550.26 411.32 550.05C411.57 549.84 411.9 549.73 412.31 549.73C412.72 549.73 413.07 549.84 413.32 550.06C413.57 550.28 413.69 550.55 413.68 550.87V550.89H413.04C413.04 550.73 412.97 550.58 412.84 550.45C412.71 550.32 412.53 550.26 412.31 550.26C412.07 550.26 411.9 550.31 411.78 550.42C411.66 550.52 411.61 550.65 411.61 550.8C411.61 550.95 411.66 551.06 411.76 551.14C411.86 551.22 412.07 551.3 412.38 551.37C412.84 551.47 413.18 551.61 413.41 551.78C413.64 551.95 413.75 552.18 413.75 552.47C413.75 552.8 413.62 553.06 413.36 553.27C413.1 553.48 412.76 553.57 412.33 553.57C411.86 553.57 411.5 553.45 411.23 553.21C410.96 552.97 410.84 552.69 410.85 552.37V552.35H411.49C411.5 552.59 411.59 552.77 411.75 552.88C411.92 552.99 412.11 553.05 412.33 553.05C412.57 553.05 412.75 553 412.89 552.9C413.02 552.8 413.09 552.68 413.09 552.52C413.09 552.37 413.03 552.25 412.92 552.16H412.91Z" fill="#211E1F"/>
<path d="M416.53 552.16C416.42 552.06 416.21 551.98 415.9 551.91C415.46 551.81 415.12 551.68 414.9 551.51C414.68 551.34 414.56 551.11 414.56 550.82C414.56 550.53 414.68 550.26 414.94 550.05C415.19 549.84 415.52 549.73 415.93 549.73C416.34 549.73 416.69 549.84 416.94 550.06C417.19 550.28 417.31 550.55 417.3 550.87V550.89H416.66C416.66 550.73 416.59 550.58 416.46 550.45C416.33 550.32 416.15 550.26 415.93 550.26C415.69 550.26 415.52 550.31 415.4 550.42C415.28 550.53 415.23 550.65 415.23 550.8C415.23 550.95 415.28 551.06 415.38 551.14C415.48 551.22 415.69 551.3 416 551.37C416.46 551.47 416.8 551.61 417.03 551.78C417.26 551.95 417.37 552.18 417.37 552.47C417.37 552.8 417.24 553.06 416.98 553.27C416.72 553.47 416.37 553.57 415.95 553.57C415.48 553.57 415.12 553.45 414.85 553.21C414.58 552.97 414.46 552.69 414.47 552.37V552.35H415.11C415.12 552.59 415.21 552.77 415.37 552.88C415.54 552.99 415.73 553.05 415.95 553.05C416.19 553.05 416.37 553 416.51 552.9C416.65 552.8 416.71 552.68 416.71 552.52C416.71 552.37 416.65 552.25 416.54 552.16H416.53Z" fill="#211E1F"/>
<path d="M420.38 553.21C420.37 553.12 420.36 553.04 420.36 552.95C420.24 553.13 420.07 553.28 419.88 553.4C419.68 553.52 419.47 553.58 419.24 553.58C418.86 553.58 418.57 553.48 418.37 553.29C418.17 553.09 418.07 552.82 418.07 552.47C418.07 552.12 418.21 551.84 418.49 551.64C418.77 551.44 419.16 551.34 419.64 551.34H420.36V550.97C420.36 550.75 420.29 550.58 420.16 550.45C420.03 550.32 419.85 550.26 419.61 550.26C419.4 550.26 419.22 550.31 419.09 550.43C418.95 550.54 418.89 550.67 418.89 550.83H418.25V550.81C418.23 550.54 418.36 550.29 418.62 550.07C418.88 549.85 419.23 549.74 419.65 549.74C420.07 549.74 420.4 549.85 420.65 550.06C420.9 550.27 421.03 550.58 421.03 550.98V552.76C421.03 552.89 421.03 553.02 421.05 553.14C421.06 553.26 421.09 553.38 421.13 553.5H420.45C420.43 553.39 420.41 553.29 420.4 553.2L420.38 553.21ZM419.98 552.82C420.17 552.7 420.3 552.55 420.36 552.39V551.79H419.61C419.34 551.79 419.13 551.86 418.97 551.99C418.81 552.13 418.73 552.29 418.73 552.47C418.73 552.64 418.78 552.76 418.88 552.86C418.98 552.96 419.13 553.01 419.33 553.01C419.57 553.01 419.79 552.95 419.98 552.82Z" fill="#211E1F"/>
<path d="M422.63 550.35C422.75 550.15 422.9 550 423.09 549.89C423.28 549.78 423.48 549.73 423.72 549.73C424.11 549.73 424.42 549.85 424.64 550.08C424.86 550.31 424.96 550.67 424.96 551.16V553.5H424.29V551.18C424.29 550.85 424.23 550.62 424.1 550.49C423.97 550.35 423.78 550.29 423.52 550.29C423.33 550.29 423.16 550.34 423.01 550.43C422.86 550.52 422.74 550.65 422.66 550.81V553.51H421.99V549.81H422.59L422.64 550.36L422.63 550.35Z" fill="#211E1F"/>
<path d="M427.99 552.84C428.16 552.7 428.24 552.53 428.24 552.33H428.84V552.35C428.86 552.67 428.72 552.95 428.43 553.2C428.14 553.45 427.8 553.57 427.41 553.57C426.88 553.57 426.47 553.39 426.19 553.04C425.91 552.69 425.77 552.25 425.77 551.72V551.58C425.77 551.05 425.91 550.61 426.19 550.26C426.47 549.91 426.88 549.73 427.41 549.73C427.84 549.73 428.19 549.86 428.46 550.11C428.73 550.37 428.86 550.68 428.85 551.05V551.07H428.24C428.24 550.84 428.16 550.65 428 550.49C427.84 550.33 427.64 550.25 427.4 550.25C427.05 550.25 426.8 550.38 426.65 550.63C426.5 550.88 426.43 551.2 426.43 551.57V551.71C426.43 552.09 426.5 552.4 426.65 552.66C426.8 552.92 427.05 553.04 427.4 553.04C427.62 553.04 427.81 552.97 427.98 552.83L427.99 552.84Z" fill="#211E1F"/>
<path d="M429.9 553.06C429.6 552.72 429.45 552.27 429.45 551.72V551.57C429.45 551.04 429.6 550.6 429.91 550.25C430.22 549.9 430.59 549.73 431.01 549.73C431.5 549.73 431.88 549.88 432.13 550.18C432.38 550.48 432.51 550.88 432.51 551.38V551.8H430.14V551.82C430.14 552.18 430.23 552.47 430.4 552.7C430.57 552.93 430.81 553.04 431.12 553.04C431.34 553.04 431.54 553.01 431.71 552.94C431.88 552.87 432.03 552.78 432.15 552.67L432.41 553.11C432.28 553.24 432.11 553.35 431.89 553.43C431.68 553.52 431.42 553.56 431.11 553.56C430.6 553.56 430.2 553.39 429.9 553.05V553.06ZM430.44 550.55C430.28 550.74 430.18 550.98 430.15 551.27V551.29H431.84V551.2C431.84 550.93 431.77 550.71 431.63 550.54C431.49 550.36 431.28 550.27 431.01 550.27C430.79 550.27 430.6 550.36 430.44 550.56V550.55Z" fill="#211E1F"/>
<path d="M374.22 545.66C374 547.14 373.55 548.58 372.9 549.93C372.62 550.55 372.22 551.1 371.71 551.55C371.25 551.93 370.73 552.25 370.19 552.49C369.25 552.91 368.26 553.2 367.24 553.36C366.66 553.45 366.07 553.52 365.49 553.57C365.04 553.61 364.59 553.63 364.14 553.61C362.44 553.55 360.77 553.2 359.18 552.58C358.39 552.28 357.67 551.81 357.06 551.21C356.71 550.83 356.42 550.39 356.21 549.91C355.64 548.76 355.24 547.53 355.01 546.27C354.9 545.68 354.82 545.08 354.76 544.49C354.72 544.11 354.71 543.72 354.71 543.33C354.71 542.92 354.7 542.5 354.71 542.09C354.75 541.11 354.9 540.13 355.15 539.18C355.17 539.09 355.2 539.07 355.3 539.09C355.8 539.21 356.31 539.28 356.82 539.3C357.02 539.32 357.23 539.31 357.43 539.3C357.74 539.25 357.95 538.94 357.9 538.62C357.86 538.33 357.84 538.05 357.83 537.76C357.83 537.02 358 536.3 358.29 535.62C358.38 535.41 358.48 535.21 358.57 535.01C358.61 534.92 358.69 534.85 358.78 534.81C359.79 534.38 360.85 534.08 361.93 533.89C363.05 533.68 364.18 533.6 365.31 533.65C366.52 533.69 367.72 533.9 368.88 534.27C369.38 534.43 369.87 534.64 370.36 534.83C370.45 534.87 370.52 534.94 370.57 535.03C370.89 535.62 371.11 536.25 371.24 536.91C371.33 537.4 371.34 537.89 371.28 538.39C371.27 538.5 371.26 538.61 371.25 538.73C371.23 539.06 371.48 539.35 371.81 539.37H371.88C372.54 539.37 373.2 539.29 373.84 539.15C373.94 539.13 373.97 539.15 373.99 539.24C374.09 539.78 374.22 540.31 374.29 540.85C374.36 541.36 374.38 541.88 374.41 542.38C374.42 542.58 374.43 542.78 374.43 542.9C374.43 543.83 374.35 544.75 374.21 545.67L374.22 545.66Z" fill="#F37D92"/>
<path d="M377.85 534.13C377.51 533.43 377 532.83 376.37 532.39C375.21 531.52 373.81 531.05 372.37 531.06C372.07 531.06 371.77 531.1 371.47 531.16C370.39 531.4 369.5 531.84 369.33 532.94C368.95 532.88 368.57 532.81 368.2 532.77C367.64 532.7 367.08 532.63 366.52 532.59C365.96 532.55 365.39 532.51 364.82 532.5C363.99 532.48 363.15 532.51 362.32 532.6C361.91 532.65 361.5 532.7 361.09 532.76C360.68 532.83 360.29 532.92 359.89 533.01C359.87 532.97 359.85 532.92 359.84 532.88C359.74 532.24 359.31 531.7 358.72 531.46C357.7 531 356.57 530.89 355.48 531.12C355.06 531.2 354.64 531.33 354.24 531.5C353.22 531.89 352.33 532.57 351.67 533.45C350.98 534.33 350.8 535.51 351.19 536.57C351.51 537.43 352.09 538.16 352.85 538.64C353.18 538.87 353.54 539.05 353.9 539.26H353.91C353.74 540.02 353.64 540.79 353.58 541.57C353.55 542.03 353.54 542.78 353.55 543.25C353.55 543.7 353.56 544.15 353.61 544.59C353.68 545.26 353.77 545.92 353.89 546.58C354.14 547.99 354.59 549.36 355.23 550.65C355.47 551.18 355.79 551.67 356.18 552.1C356.86 552.77 357.66 553.29 358.55 553.63C360.34 554.33 362.24 554.72 364.15 554.78C364.47 554.8 364.78 554.79 365.1 554.78C365.91 554.72 366.73 554.63 367.53 554.5C368.66 554.33 369.77 554 370.82 553.54C371.43 553.27 372 552.92 372.52 552.49C373.08 551.99 373.54 551.37 373.85 550.68C374.58 549.18 375.08 547.58 375.33 545.92C375.48 544.9 375.56 543.87 375.58 542.83C375.58 542.7 375.58 542.47 375.56 542.25C375.52 541.68 375.5 541.1 375.42 540.54C375.37 540.16 375.29 539.79 375.22 539.41C375.22 539.33 375.26 539.29 375.36 539.26C375.39 539.25 375.42 539.23 375.45 539.22C376.32 538.84 377.07 538.21 377.6 537.41C378.27 536.46 378.37 535.2 377.86 534.15L377.85 534.13ZM353.18 537.37C352.8 537.06 352.5 536.64 352.32 536.18C352.06 535.49 352.18 534.7 352.65 534.14C353.19 533.45 353.9 532.92 354.71 532.62C355.26 532.39 355.85 532.26 356.45 532.23C357.04 532.19 357.63 532.3 358.18 532.53C358.26 532.57 358.33 532.61 358.41 532.66C358.64 532.81 358.74 533.09 358.66 533.35C358.55 533.73 358.39 534.1 358.18 534.44C357.81 535.1 357.53 535.81 357.35 536.55C357.23 537.08 357.19 537.63 357.24 538.18C357.26 538.35 357.27 538.52 357.28 538.71C356.93 538.68 356.6 538.67 356.26 538.63C355.14 538.53 354.06 538.1 353.18 537.38V537.37ZM374.21 545.66C373.99 547.14 373.54 548.58 372.89 549.93C372.61 550.55 372.21 551.1 371.7 551.55C371.24 551.93 370.72 552.25 370.18 552.49C369.24 552.91 368.25 553.2 367.23 553.35C366.65 553.44 366.06 553.51 365.48 553.56C365.03 553.61 364.58 553.62 364.13 553.6C362.43 553.54 360.76 553.19 359.17 552.57C358.38 552.27 357.66 551.8 357.05 551.2C356.7 550.82 356.41 550.38 356.2 549.9C355.63 548.75 355.23 547.52 355 546.26C354.89 545.67 354.81 545.07 354.75 544.48C354.71 544.1 354.7 543.71 354.7 543.32C354.7 542.91 354.69 542.49 354.71 542.08C354.75 541.1 354.9 540.12 355.15 539.17C355.18 539.08 355.21 539.06 355.3 539.08C355.8 539.2 356.31 539.27 356.82 539.29C357.02 539.31 357.23 539.31 357.43 539.29C357.74 539.24 357.95 538.93 357.9 538.61C357.86 538.32 357.84 538.04 357.83 537.75C357.83 537.01 358 536.29 358.29 535.61C358.38 535.4 358.48 535.2 358.57 535C358.61 534.91 358.69 534.84 358.78 534.8C359.79 534.37 360.85 534.07 361.93 533.88C363.05 533.67 364.18 533.59 365.31 533.64C366.52 533.68 367.72 533.89 368.88 534.26C369.38 534.42 369.87 534.63 370.36 534.82C370.45 534.86 370.52 534.93 370.57 535.02C370.89 535.61 371.11 536.24 371.24 536.9C371.33 537.39 371.34 537.88 371.28 538.38C371.27 538.49 371.26 538.6 371.25 538.72C371.23 539.05 371.48 539.34 371.81 539.36H371.88C372.54 539.36 373.2 539.28 373.84 539.14C373.94 539.12 373.97 539.14 373.99 539.23C374.09 539.76 374.22 540.3 374.29 540.84C374.36 541.35 374.38 541.87 374.41 542.38C374.42 542.58 374.43 542.78 374.43 542.9C374.43 543.83 374.35 544.75 374.21 545.67V545.66ZM373.04 538.64C372.65 538.69 372.27 538.71 371.88 538.74C371.9 538.41 371.92 538.12 371.93 537.81C371.95 536.97 371.77 536.14 371.43 535.38C371.2 534.86 370.94 534.36 370.7 533.85C370.63 533.69 370.57 533.52 370.53 533.35C370.45 533.08 370.57 532.78 370.82 532.65C371.12 532.47 371.45 532.36 371.78 532.31C372.04 532.26 372.3 532.24 372.55 532.24C373.99 532.26 375.36 532.88 376.34 533.96C376.64 534.27 376.84 534.66 376.94 535.08C377.4 537.23 374.67 538.42 373.04 538.62V538.64Z" fill="#211E1F"/>
<path d="M364.56 544.91C365.17 544.91 365.78 544.97 366.38 545.11C366.76 545.19 367.11 545.38 367.39 545.65C367.64 545.9 367.8 546.23 367.83 546.59C367.86 546.99 367.86 547.4 367.83 547.8C367.77 548.37 367.48 548.88 367.04 549.24C366.49 549.71 365.81 550.01 365.09 550.08C364.27 550.2 363.43 550.05 362.69 549.67C362.11 549.4 361.65 548.91 361.4 548.3C361.31 548.09 361.27 547.86 361.25 547.64C361.23 547.25 361.25 546.86 361.3 546.47C361.38 545.94 361.73 545.49 362.22 545.28C362.59 545.11 362.98 545.01 363.38 544.98C363.77 544.94 364.17 544.93 364.56 544.91ZM364.46 545.52C364.21 545.53 363.86 545.54 363.51 545.58C363.14 545.6 362.78 545.69 362.44 545.85C362.17 545.97 361.97 546.21 361.9 546.5C361.82 546.91 361.8 547.33 361.86 547.75C361.93 548.23 362.2 548.65 362.6 548.91C363.08 549.27 363.65 549.47 364.25 549.5C364.99 549.58 365.73 549.4 366.37 549C366.82 548.75 367.14 548.31 367.23 547.79C367.27 547.41 367.27 547.03 367.23 546.66C367.2 546.28 366.95 545.95 366.6 545.82C366.51 545.78 366.42 545.74 366.32 545.72C365.71 545.57 365.08 545.5 364.45 545.51L364.46 545.52Z" fill="#211E1F"/>
<path d="M372.22 544.93C372.23 545.25 372.14 545.57 371.95 545.82C371.75 546.13 371.35 546.21 371.05 546.01C370.98 545.96 370.93 545.91 370.88 545.84C370.47 545.28 370.5 544.51 370.95 543.99C371.19 543.73 371.59 543.72 371.85 543.97C371.87 543.99 371.89 544.02 371.91 544.04C372.12 544.29 372.23 544.61 372.22 544.93Z" fill="#211E1F"/>
<path d="M359.11 544.91C359.12 545.26 359 545.6 358.77 545.86C358.54 546.13 358.15 546.15 357.88 545.92C357.85 545.89 357.82 545.87 357.8 545.83C357.42 545.34 357.38 544.66 357.69 544.13C357.84 543.82 358.2 543.67 358.52 543.79C358.7 543.87 358.84 544.01 358.93 544.19C359.05 544.41 359.11 544.66 359.1 544.91H359.11Z" fill="#211E1F"/>
<path d="M361.99 551.68C361.26 551.66 360.61 551.22 360.31 550.55C360.21 550.37 360.26 550.14 360.41 550.01C360.52 549.89 360.71 549.89 360.83 550.01C360.87 550.05 360.9 550.09 360.91 550.15C361.12 550.64 361.59 550.95 362.11 550.95C362.19 550.95 362.26 550.93 362.34 550.93C362.49 550.91 362.63 551.02 362.65 551.18C362.65 551.2 362.65 551.23 362.65 551.25C362.65 551.44 362.52 551.61 362.33 551.65C362.21 551.68 362.1 551.69 361.98 551.69L361.99 551.68Z" fill="#211E1F"/>
<path d="M363.38 547.23C363.38 547.38 363.31 547.52 363.21 547.62C363.1 547.73 362.93 547.73 362.82 547.62C362.59 547.36 362.59 546.97 362.82 546.71C362.92 546.59 363.1 546.59 363.22 546.69C363.22 546.69 363.23 546.7 363.24 546.71C363.36 546.85 363.42 547.04 363.4 547.22L363.38 547.23Z" fill="#211E1F"/>
<path d="M366.48 547.2C366.45 547.32 366.4 547.45 366.34 547.56C366.27 547.71 366.09 547.77 365.94 547.69C365.89 547.66 365.84 547.62 365.81 547.56C365.66 547.31 365.67 547 365.83 546.77C365.92 546.63 366.1 546.6 366.23 546.69C366.26 546.71 366.28 546.73 366.3 546.76C366.4 546.89 366.45 547.04 366.46 547.21L366.48 547.2Z" fill="#211E1F"/>
<path d="M353.18 537.37C352.8 537.06 352.5 536.64 352.32 536.18C352.06 535.49 352.18 534.7 352.65 534.14C353.19 533.45 353.9 532.92 354.71 532.62C355.26 532.39 355.85 532.26 356.45 532.23C357.04 532.19 357.63 532.3 358.18 532.53C358.26 532.57 358.33 532.61 358.41 532.66C358.64 532.81 358.74 533.09 358.66 533.35C358.55 533.73 358.39 534.1 358.18 534.44C357.81 535.1 357.53 535.81 357.35 536.55C357.23 537.08 357.19 537.63 357.24 538.18C357.26 538.35 357.27 538.52 357.28 538.71C356.93 538.68 356.6 538.67 356.26 538.63C355.14 538.53 354.06 538.1 353.18 537.38V537.37Z" fill="#F37D92"/>
<path d="M373.04 538.65C372.65 538.7 372.27 538.72 371.88 538.75C371.9 538.42 371.92 538.13 371.93 537.82C371.94 536.98 371.77 536.15 371.43 535.39C371.2 534.87 370.94 534.37 370.7 533.86C370.63 533.7 370.57 533.53 370.53 533.36C370.45 533.09 370.57 532.79 370.82 532.66C371.12 532.48 371.44 532.37 371.78 532.32C372.04 532.27 372.29 532.25 372.55 532.25C373.99 532.27 375.36 532.89 376.34 533.97C376.64 534.28 376.84 534.67 376.94 535.09C377.4 537.24 374.68 538.43 373.04 538.63V538.65Z" fill="#F37D92"/>
</g>
</g>
<defs>
<clipPath id="clip0_336_7280">
<rect width="728.37" height="541.14" fill="white" transform="translate(32 36)"/>
</clipPath>
</defs>
</svg>
