<svg width="792" height="612" viewBox="0 0 792 612" fill="none" xmlns="http://www.w3.org/2000/svg">
<g clip-path="url(#clip0_336_7277)">
<rect width="792" height="612" fill="white"/>
<g clip-path="url(#clip1_336_7277)">
<path d="M79.7 112C98.4777 112 113.7 96.7777 113.7 78C113.7 59.2223 98.4777 44 79.7 44C60.9223 44 45.7 59.2223 45.7 78C45.7 96.7777 60.9223 112 79.7 112Z" fill="#40BEAD"/>
<path d="M79.7 560.5C98.4777 560.5 113.7 545.278 113.7 526.5C113.7 507.722 98.4777 492.5 79.7 492.5C60.9223 492.5 45.7 507.722 45.7 526.5C45.7 545.278 60.9223 560.5 79.7 560.5Z" fill="#40BEAD"/>
<path d="M714.7 112C733.478 112 748.7 96.7777 748.7 78C748.7 59.2223 733.478 44 714.7 44C695.922 44 680.7 59.2223 680.7 78C680.7 96.7777 695.922 112 714.7 112Z" fill="#40BEAD"/>
<path d="M212.14 160.47L211.26 158.12C211.24 158.06 211.2 158 211.16 157.96C211.11 157.91 211.06 157.88 211 157.86L208.65 156.99C208.56 156.96 208.49 156.9 208.44 156.83C208.39 156.75 208.36 156.66 208.36 156.57C208.36 156.48 208.39 156.39 208.44 156.31C208.49 156.23 208.57 156.18 208.65 156.14L210.99 155.27C211.05 155.25 211.11 155.21 211.15 155.17C211.19 155.13 211.23 155.07 211.26 155.01L212.13 152.66C212.16 152.57 212.22 152.5 212.3 152.45C212.38 152.4 212.47 152.37 212.56 152.37C212.65 152.37 212.74 152.4 212.82 152.45C212.9 152.5 212.95 152.58 212.98 152.66L213.85 155.01C213.87 155.07 213.91 155.13 213.95 155.17C213.99 155.21 214.05 155.25 214.11 155.27L216.46 156.14C216.55 156.17 216.62 156.23 216.67 156.31C216.72 156.39 216.75 156.48 216.75 156.57C216.75 156.66 216.72 156.75 216.67 156.83C216.62 156.91 216.54 156.96 216.46 157L214.11 157.87C214.05 157.89 214 157.93 213.95 157.97C213.9 158.02 213.87 158.07 213.85 158.13L212.98 160.48C212.95 160.56 212.89 160.64 212.81 160.69C212.74 160.74 212.65 160.77 212.56 160.77C212.47 160.77 212.38 160.74 212.31 160.69C212.24 160.64 212.18 160.57 212.14 160.48V160.47Z" fill="#FFD670"/>
<path d="M267.66 147.67L266.78 145.32C266.76 145.26 266.72 145.2 266.68 145.16C266.64 145.12 266.58 145.08 266.52 145.06L264.17 144.19C264.08 144.16 264.01 144.1 263.96 144.02C263.91 143.94 263.88 143.85 263.88 143.76C263.88 143.67 263.91 143.58 263.96 143.5C264.01 143.42 264.09 143.37 264.17 143.33L266.52 142.46C266.58 142.44 266.63 142.4 266.68 142.36C266.73 142.31 266.76 142.26 266.78 142.2L267.65 139.85C267.68 139.76 267.74 139.69 267.81 139.64C267.89 139.59 267.98 139.56 268.07 139.56C268.16 139.56 268.25 139.59 268.33 139.64C268.41 139.69 268.46 139.77 268.5 139.85L269.37 142.2C269.39 142.26 269.43 142.32 269.47 142.36C269.52 142.41 269.57 142.44 269.63 142.46L271.98 143.33C272.07 143.36 272.14 143.42 272.19 143.49C272.24 143.57 272.27 143.66 272.27 143.75C272.27 143.84 272.24 143.93 272.19 144.01C272.14 144.09 272.06 144.14 271.98 144.18L269.64 145.05C269.58 145.07 269.52 145.11 269.48 145.15C269.43 145.2 269.4 145.25 269.37 145.31L268.5 147.66C268.47 147.75 268.41 147.82 268.33 147.87C268.25 147.92 268.17 147.95 268.07 147.95C267.97 147.95 267.89 147.92 267.81 147.87C267.73 147.82 267.68 147.74 267.64 147.66L267.66 147.67Z" fill="#E7B521"/>
<path d="M316.39 144.93L315.51 142.58C315.49 142.52 315.45 142.46 315.41 142.42C315.36 142.37 315.31 142.34 315.25 142.32L312.9 141.45C312.81 141.42 312.74 141.36 312.69 141.29C312.64 141.21 312.61 141.12 312.61 141.03C312.61 140.94 312.64 140.85 312.69 140.77C312.74 140.69 312.82 140.64 312.9 140.6L315.25 139.73C315.31 139.71 315.37 139.67 315.41 139.63C315.45 139.58 315.49 139.53 315.51 139.47L316.38 137.12C316.41 137.03 316.47 136.96 316.54 136.91C316.62 136.86 316.71 136.83 316.8 136.83C316.89 136.83 316.98 136.86 317.06 136.91C317.14 136.96 317.19 137.04 317.23 137.12L318.11 139.47C318.13 139.53 318.17 139.59 318.21 139.63C318.25 139.67 318.31 139.71 318.37 139.73L320.72 140.6C320.81 140.63 320.88 140.69 320.93 140.76C320.98 140.84 321.01 140.93 321.01 141.02C321.01 141.11 320.98 141.2 320.93 141.28C320.88 141.36 320.8 141.41 320.72 141.44L318.38 142.31C318.32 142.33 318.26 142.37 318.22 142.41C318.17 142.46 318.14 142.51 318.12 142.57L317.25 144.92C317.22 145.01 317.16 145.08 317.09 145.13C317.02 145.18 316.93 145.21 316.83 145.21C316.73 145.21 316.65 145.18 316.57 145.13C316.5 145.08 316.44 145 316.41 144.92L316.39 144.93Z" fill="#E7B521"/>
<path d="M506.39 139.93L505.51 137.58C505.49 137.52 505.45 137.46 505.41 137.42C505.36 137.37 505.31 137.34 505.25 137.32L502.9 136.45C502.81 136.42 502.74 136.36 502.69 136.29C502.64 136.21 502.61 136.12 502.61 136.03C502.61 135.94 502.64 135.85 502.69 135.77C502.74 135.69 502.82 135.64 502.9 135.6L505.25 134.73C505.31 134.71 505.36 134.67 505.41 134.63C505.45 134.58 505.49 134.53 505.51 134.47L506.38 132.12C506.41 132.03 506.47 131.96 506.55 131.91C506.63 131.86 506.72 131.83 506.81 131.83C506.9 131.83 506.99 131.86 507.07 131.91C507.15 131.96 507.2 132.04 507.23 132.12L508.11 134.47C508.13 134.53 508.17 134.59 508.21 134.63C508.26 134.68 508.31 134.71 508.37 134.73L510.72 135.6C510.81 135.63 510.88 135.69 510.93 135.76C510.98 135.84 511.01 135.93 511.01 136.02C511.01 136.11 510.98 136.2 510.93 136.28C510.88 136.36 510.8 136.41 510.72 136.44L508.38 137.31C508.32 137.33 508.26 137.37 508.22 137.41C508.17 137.46 508.14 137.51 508.11 137.57L507.24 139.92C507.21 140.01 507.15 140.08 507.07 140.13C506.99 140.18 506.91 140.21 506.81 140.21C506.71 140.21 506.63 140.18 506.56 140.13C506.48 140.08 506.43 140 506.39 139.92V139.93Z" fill="#E7B521"/>
<path d="M226.01 120.24L223.99 114.85C223.94 114.71 223.86 114.58 223.75 114.48C223.65 114.37 223.52 114.29 223.38 114.24L217.99 112.24C217.79 112.17 217.61 112.04 217.48 111.86C217.35 111.68 217.29 111.47 217.29 111.26C217.29 111.05 217.36 110.83 217.48 110.66C217.61 110.48 217.78 110.35 217.99 110.28L223.38 108.27C223.52 108.22 223.64 108.14 223.75 108.04C223.85 107.94 223.94 107.81 223.99 107.68L226 102.28C226.07 102.08 226.2 101.9 226.38 101.77C226.56 101.64 226.77 101.58 226.98 101.58C227.19 101.58 227.41 101.65 227.58 101.77C227.76 101.9 227.89 102.07 227.96 102.28L229.97 107.67C230.02 107.81 230.1 107.93 230.2 108.03C230.3 108.13 230.43 108.21 230.56 108.27L235.95 110.28C236.15 110.35 236.33 110.48 236.46 110.66C236.59 110.84 236.65 111.05 236.65 111.26C236.65 111.47 236.58 111.69 236.46 111.86C236.33 112.04 236.16 112.17 235.95 112.24L230.56 114.24C230.42 114.29 230.29 114.37 230.19 114.48C230.09 114.59 230 114.71 229.95 114.85L227.95 120.24C227.88 120.44 227.74 120.61 227.57 120.73C227.4 120.85 227.19 120.92 226.98 120.92C226.77 120.92 226.56 120.86 226.39 120.73C226.22 120.61 226.08 120.44 226.01 120.24Z" fill="#FFD670"/>
<path d="M282.18 100.65L280.17 95.26C280.12 95.12 280.04 94.99 279.93 94.89C279.82 94.79 279.7 94.7 279.56 94.65L274.17 92.64C273.97 92.57 273.8 92.43 273.68 92.26C273.56 92.09 273.5 91.88 273.5 91.67C273.5 91.46 273.56 91.25 273.68 91.08C273.8 90.91 273.97 90.77 274.17 90.7L279.56 88.69C279.7 88.64 279.83 88.56 279.93 88.45C280.04 88.34 280.12 88.22 280.17 88.08L282.17 82.67C282.24 82.47 282.38 82.3 282.55 82.18C282.72 82.06 282.93 81.99 283.14 81.99C283.35 81.99 283.56 82.05 283.73 82.18C283.9 82.3 284.04 82.47 284.11 82.67L286.12 88.06C286.17 88.2 286.25 88.33 286.36 88.43C286.46 88.54 286.59 88.62 286.73 88.67L292.13 90.67C292.33 90.74 292.51 90.87 292.64 91.05C292.76 91.23 292.83 91.44 292.83 91.65C292.83 91.86 292.76 92.08 292.64 92.25C292.51 92.43 292.34 92.56 292.13 92.63L286.74 94.64C286.6 94.69 286.47 94.77 286.37 94.88C286.27 94.99 286.19 95.11 286.13 95.25L284.12 100.64C284.05 100.84 283.91 101.01 283.74 101.13C283.57 101.25 283.36 101.32 283.15 101.31C282.94 101.31 282.73 101.24 282.56 101.12C282.39 101 282.25 100.83 282.18 100.63V100.65Z" fill="#E7B521"/>
<path d="M192.19 156.44L190.18 151.05C190.13 150.91 190.05 150.78 189.94 150.68C189.83 150.57 189.71 150.49 189.57 150.44L184.18 148.44C183.98 148.37 183.81 148.23 183.69 148.06C183.57 147.89 183.5 147.68 183.5 147.47C183.5 147.26 183.56 147.05 183.69 146.88C183.81 146.71 183.98 146.57 184.18 146.5L189.57 144.5C189.71 144.45 189.84 144.37 189.94 144.26C190.05 144.15 190.13 144.03 190.18 143.89L192.18 138.49C192.25 138.29 192.39 138.12 192.56 138C192.73 137.88 192.94 137.82 193.15 137.82C193.36 137.82 193.57 137.88 193.74 138C193.91 138.12 194.05 138.29 194.12 138.49L196.13 143.88C196.18 144.02 196.26 144.15 196.37 144.25C196.48 144.36 196.6 144.44 196.74 144.49L202.13 146.5C202.33 146.57 202.5 146.71 202.62 146.88C202.74 147.05 202.81 147.26 202.81 147.47C202.81 147.68 202.75 147.89 202.62 148.06C202.5 148.23 202.33 148.37 202.13 148.44L196.74 150.45C196.6 150.5 196.47 150.58 196.37 150.69C196.26 150.8 196.18 150.92 196.13 151.06L194.12 156.45C194.05 156.65 193.91 156.82 193.74 156.94C193.57 157.06 193.36 157.12 193.15 157.12C192.94 157.12 192.73 157.05 192.56 156.93C192.39 156.81 192.26 156.64 192.18 156.44H192.19Z" fill="#E7B521"/>
<path d="M324.31 162.68L322.3 157.29C322.25 157.15 322.17 157.02 322.06 156.92C321.95 156.81 321.83 156.73 321.69 156.68L316.3 154.67C316.1 154.6 315.93 154.46 315.81 154.29C315.69 154.12 315.62 153.91 315.62 153.7C315.62 153.49 315.68 153.28 315.81 153.11C315.93 152.94 316.1 152.8 316.3 152.73L321.69 150.72C321.83 150.67 321.96 150.59 322.06 150.48C322.16 150.37 322.25 150.25 322.3 150.11L324.3 144.7C324.37 144.5 324.51 144.33 324.68 144.21C324.85 144.09 325.06 144.02 325.27 144.02C325.48 144.02 325.69 144.09 325.86 144.21C326.03 144.33 326.17 144.5 326.24 144.7L328.26 150.1C328.31 150.24 328.39 150.37 328.5 150.47C328.6 150.58 328.73 150.66 328.87 150.71L334.27 152.71C334.47 152.78 334.64 152.92 334.76 153.09C334.88 153.26 334.95 153.47 334.95 153.68C334.95 153.89 334.89 154.1 334.76 154.27C334.63 154.44 334.47 154.58 334.27 154.65L328.88 156.66C328.74 156.71 328.61 156.79 328.51 156.9C328.4 157.01 328.32 157.13 328.27 157.27L326.26 162.66C326.19 162.86 326.06 163.03 325.88 163.16C325.71 163.28 325.5 163.35 325.28 163.35C325.06 163.35 324.86 163.28 324.68 163.16C324.51 163.04 324.37 162.86 324.3 162.66L324.31 162.68Z" fill="#FFD670"/>
<path d="M643.21 140.13L640.86 141.01C640.8 141.03 640.74 141.07 640.7 141.11C640.66 141.15 640.62 141.21 640.6 141.27L639.73 143.62C639.7 143.71 639.64 143.78 639.56 143.83C639.49 143.88 639.4 143.91 639.3 143.91C639.2 143.91 639.12 143.88 639.04 143.83C638.96 143.78 638.91 143.7 638.87 143.62L638 141.28C637.98 141.22 637.94 141.16 637.9 141.12C637.85 141.07 637.8 141.04 637.74 141.01L635.39 140.14C635.3 140.11 635.23 140.05 635.18 139.98C635.13 139.9 635.1 139.81 635.1 139.72C635.1 139.63 635.13 139.54 635.18 139.46C635.23 139.38 635.31 139.33 635.39 139.29L637.74 138.42C637.8 138.4 637.86 138.36 637.9 138.32C637.94 138.27 637.98 138.22 638 138.16L638.87 135.81C638.9 135.72 638.96 135.65 639.03 135.6C639.11 135.55 639.2 135.52 639.29 135.52C639.38 135.52 639.47 135.55 639.55 135.6C639.62 135.65 639.68 135.73 639.72 135.81L640.59 138.16C640.61 138.22 640.65 138.27 640.69 138.32C640.74 138.37 640.79 138.4 640.85 138.42L643.2 139.29C643.28 139.32 643.36 139.38 643.41 139.46C643.46 139.53 643.49 139.62 643.49 139.71C643.49 139.8 643.46 139.89 643.41 139.96C643.36 140.03 643.29 140.09 643.2 140.13H643.21Z" fill="#FFD670"/>
<path d="M504.86 87.92L502.51 88.8C502.45 88.82 502.39 88.86 502.35 88.9C502.31 88.95 502.27 89 502.25 89.06L501.38 91.41C501.35 91.5 501.29 91.57 501.22 91.62C501.14 91.67 501.05 91.7 500.96 91.7C500.87 91.7 500.78 91.67 500.7 91.62C500.62 91.57 500.57 91.49 500.53 91.41L499.66 89.06C499.64 89 499.6 88.95 499.56 88.9C499.51 88.85 499.46 88.82 499.4 88.8L497.05 87.93C496.96 87.9 496.89 87.84 496.84 87.77C496.79 87.69 496.76 87.6 496.76 87.51C496.76 87.42 496.79 87.33 496.84 87.25C496.89 87.17 496.97 87.12 497.05 87.09L499.4 86.22C499.46 86.2 499.52 86.16 499.56 86.12C499.61 86.07 499.64 86.02 499.66 85.96L500.53 83.61C500.56 83.52 500.62 83.45 500.69 83.4C500.77 83.35 500.86 83.32 500.95 83.32C501.04 83.32 501.13 83.35 501.21 83.4C501.29 83.45 501.34 83.53 501.37 83.61L502.24 85.95C502.26 86.01 502.3 86.07 502.34 86.11C502.38 86.16 502.44 86.19 502.5 86.22L504.85 87.09C504.94 87.12 505.01 87.18 505.06 87.26C505.11 87.34 505.14 87.42 505.14 87.52C505.14 87.62 505.11 87.7 505.06 87.78C505.01 87.86 504.94 87.91 504.85 87.95L504.86 87.92Z" fill="#E7B521"/>
<path d="M561.09 102.56L555.7 104.57C555.56 104.62 555.43 104.7 555.33 104.81C555.22 104.92 555.14 105.04 555.09 105.18L553.08 110.57C553.01 110.77 552.87 110.94 552.7 111.06C552.53 111.18 552.32 111.24 552.11 111.24C551.9 111.24 551.69 111.18 551.52 111.06C551.35 110.94 551.21 110.77 551.14 110.57L549.13 105.18C549.08 105.04 549 104.91 548.89 104.81C548.78 104.7 548.66 104.62 548.52 104.57L543.11 102.57C542.91 102.5 542.74 102.36 542.62 102.19C542.5 102.02 542.43 101.81 542.43 101.6C542.43 101.39 542.5 101.18 542.62 101.01C542.74 100.84 542.91 100.7 543.11 100.63L548.5 98.62C548.64 98.57 548.77 98.49 548.87 98.38C548.98 98.28 549.06 98.15 549.11 98.01L551.11 92.61C551.18 92.41 551.31 92.23 551.49 92.1C551.66 91.97 551.88 91.91 552.09 91.91C552.3 91.91 552.52 91.98 552.69 92.1C552.87 92.23 553 92.4 553.07 92.61L555.08 98C555.13 98.14 555.21 98.27 555.32 98.37C555.42 98.47 555.55 98.56 555.69 98.61L561.08 100.62C561.28 100.69 561.45 100.83 561.57 101C561.69 101.17 561.76 101.38 561.75 101.59C561.75 101.8 561.68 102.01 561.56 102.18C561.44 102.35 561.27 102.49 561.07 102.56H561.09Z" fill="#E7B521"/>
<path d="M638.07 121.34L632.68 123.35C632.54 123.4 632.41 123.48 632.31 123.59C632.2 123.7 632.12 123.82 632.07 123.96L630.07 129.35C630 129.55 629.86 129.72 629.69 129.84C629.52 129.96 629.31 130.03 629.1 130.03C628.89 130.03 628.68 129.97 628.51 129.84C628.34 129.72 628.2 129.55 628.13 129.35L626.13 123.96C626.08 123.82 626 123.69 625.89 123.59C625.78 123.48 625.66 123.4 625.52 123.35L620.12 121.35C619.92 121.28 619.75 121.14 619.63 120.97C619.51 120.8 619.45 120.59 619.45 120.38C619.45 120.17 619.51 119.96 619.63 119.79C619.75 119.62 619.92 119.48 620.12 119.41L625.51 117.4C625.65 117.35 625.78 117.27 625.88 117.16C625.99 117.05 626.07 116.93 626.12 116.79L628.13 111.4C628.2 111.2 628.33 111.03 628.51 110.91C628.68 110.79 628.89 110.72 629.1 110.72C629.31 110.72 629.52 110.78 629.69 110.91C629.86 111.03 630 111.2 630.07 111.4L632.08 116.79C632.13 116.93 632.21 117.06 632.32 117.16C632.43 117.27 632.55 117.35 632.69 117.4L638.08 119.41C638.28 119.48 638.45 119.62 638.57 119.79C638.69 119.96 638.75 120.17 638.75 120.38C638.75 120.59 638.68 120.8 638.56 120.97C638.44 121.14 638.27 121.27 638.07 121.35V121.34Z" fill="#E7B521"/>
<path d="M504.94 125.7L499.55 127.71C499.41 127.76 499.28 127.84 499.18 127.95C499.08 128.06 498.99 128.18 498.94 128.32L496.93 133.71C496.86 133.91 496.72 134.08 496.55 134.2C496.38 134.32 496.17 134.38 495.96 134.38C495.75 134.38 495.54 134.32 495.37 134.2C495.2 134.08 495.06 133.91 494.99 133.71L492.98 128.32C492.93 128.18 492.85 128.05 492.74 127.95C492.63 127.84 492.51 127.76 492.37 127.71L486.96 125.71C486.76 125.64 486.59 125.5 486.47 125.33C486.35 125.16 486.28 124.95 486.28 124.74C486.28 124.53 486.35 124.32 486.47 124.15C486.59 123.98 486.76 123.84 486.96 123.77L492.36 121.75C492.5 121.7 492.63 121.62 492.73 121.51C492.84 121.41 492.92 121.28 492.97 121.14L494.97 115.74C495.04 115.54 495.18 115.37 495.35 115.25C495.52 115.13 495.73 115.06 495.94 115.06C496.15 115.06 496.36 115.13 496.53 115.25C496.7 115.37 496.84 115.54 496.91 115.74L498.92 121.13C498.97 121.27 499.05 121.4 499.16 121.5C499.27 121.61 499.39 121.69 499.53 121.74L504.92 123.75C505.12 123.82 505.3 123.95 505.42 124.13C505.54 124.3 505.61 124.51 505.61 124.73C505.61 124.95 505.54 125.15 505.42 125.33C505.3 125.5 505.12 125.64 504.92 125.71L504.94 125.7Z" fill="#FFD670"/>
<path d="M136.68 424C139.98 424 142.66 426.68 142.66 429.98C142.66 433.28 139.98 435.96 136.68 435.96C133.38 435.96 130.7 433.28 130.7 429.98C130.7 426.68 133.38 424 136.68 424ZM161.46 429.98C161.46 433.28 164.14 435.96 167.44 435.96C170.74 435.96 173.42 433.28 173.42 429.98C173.42 426.68 170.74 424 167.44 424C164.14 424 161.46 426.68 161.46 429.98ZM192.22 429.98C192.22 433.28 194.9 435.96 198.2 435.96C201.5 435.96 204.18 433.28 204.18 429.98C204.18 426.68 201.5 424 198.2 424C194.9 424 192.22 426.68 192.22 429.98ZM222.98 429.98C222.98 433.28 225.66 435.96 228.96 435.96C232.26 435.96 234.94 433.28 234.94 429.98C234.94 426.68 232.26 424 228.96 424C225.66 424 222.98 426.68 222.98 429.98ZM253.74 429.98C253.74 433.28 256.42 435.96 259.72 435.96C263.02 435.96 265.7 433.28 265.7 429.98C265.7 426.68 263.02 424 259.72 424C256.42 424 253.74 426.68 253.74 429.98ZM284.5 429.98C284.5 433.28 287.18 435.96 290.48 435.96C293.78 435.96 296.46 433.28 296.46 429.98C296.46 426.68 293.78 424 290.48 424C287.18 424 284.5 426.68 284.5 429.98ZM315.26 429.98C315.26 433.28 317.94 435.96 321.24 435.96C324.54 435.96 327.22 433.28 327.22 429.98C327.22 426.68 324.54 424 321.24 424C317.94 424 315.26 426.68 315.26 429.98ZM346.02 429.98C346.02 433.28 348.7 435.96 352 435.96C355.3 435.96 357.98 433.28 357.98 429.98C357.98 426.68 355.3 424 352 424C348.7 424 346.02 426.68 346.02 429.98ZM376.78 429.98C376.78 433.28 379.46 435.96 382.76 435.96C386.06 435.96 388.74 433.28 388.74 429.98C388.74 426.68 386.06 424 382.76 424C379.46 424 376.78 426.68 376.78 429.98ZM407.54 429.98C407.54 433.28 410.22 435.96 413.52 435.96C416.82 435.96 419.5 433.28 419.5 429.98C419.5 426.68 416.82 424 413.52 424C410.22 424 407.54 426.68 407.54 429.98ZM438.3 429.98C438.3 433.28 440.98 435.96 444.28 435.96C447.58 435.96 450.26 433.28 450.26 429.98C450.26 426.68 447.58 424 444.28 424C440.98 424 438.3 426.68 438.3 429.98ZM469.06 429.98C469.06 433.28 471.74 435.96 475.04 435.96C478.34 435.96 481.02 433.28 481.02 429.98C481.02 426.68 478.34 424 475.04 424C471.74 424 469.06 426.68 469.06 429.98ZM499.82 429.98C499.82 433.28 502.5 435.96 505.8 435.96C509.1 435.96 511.78 433.28 511.78 429.98C511.78 426.68 509.1 424 505.8 424C502.5 424 499.82 426.68 499.82 429.98ZM530.58 429.98C530.58 433.28 533.26 435.96 536.56 435.96C539.86 435.96 542.54 433.28 542.54 429.98C542.54 426.68 539.86 424 536.56 424C533.26 424 530.58 426.68 530.58 429.98ZM561.34 429.98C561.34 433.28 564.02 435.96 567.32 435.96C570.62 435.96 573.3 433.28 573.3 429.98C573.3 426.68 570.62 424 567.32 424C564.02 424 561.34 426.68 561.34 429.98ZM592.1 429.98C592.1 433.28 594.78 435.96 598.08 435.96C601.38 435.96 604.06 433.28 604.06 429.98C604.06 426.68 601.38 424 598.08 424C594.78 424 592.1 426.68 592.1 429.98ZM622.86 429.98C622.86 433.28 625.54 435.96 628.84 435.96C632.14 435.96 634.82 433.28 634.82 429.98C634.82 426.68 632.14 424 628.84 424C625.54 424 622.86 426.68 622.86 429.98ZM653.62 429.98C653.62 433.28 656.3 435.96 659.6 435.96C662.9 435.96 665.58 433.28 665.58 429.98C665.58 426.68 662.9 424 659.6 424C656.3 424 653.62 426.68 653.62 429.98Z" fill="#B9E1F8"/>
<path fill-rule="evenodd" clip-rule="evenodd" d="M67.7 70H727.7V540H67.7V70ZM61.57 95.18C59.22 93.35 57.7 90.49 57.7 87.28V86.29C57.7 83.08 59.21 80.22 61.57 78.39C59.22 76.56 57.7 73.7 57.7 70.49V60H68.2C71.45 60 74.34 61.55 76.16 63.95C77.99 61.55 80.87 60 84.12 60H85.12C88.37 60 91.26 61.55 93.08 63.95C94.91 61.55 97.79 60 101.04 60H102.04C105.29 60 108.18 61.55 110 63.95C111.83 61.55 114.72 60 117.96 60H118.96C122.21 60 125.1 61.55 126.92 63.95C128.75 61.55 131.64 60 134.88 60H135.88C139.13 60 142.02 61.55 143.84 63.95C145.67 61.55 148.55 60 151.8 60H152.8C156.05 60 158.94 61.55 160.76 63.95C162.59 61.55 165.47 60 168.72 60H169.72C172.97 60 175.86 61.55 177.68 63.95C179.51 61.55 182.39 60 185.64 60H186.63C189.88 60 192.77 61.55 194.59 63.95C196.42 61.55 199.3 60 202.55 60H203.55C206.8 60 209.69 61.55 211.51 63.95C213.34 61.55 216.22 60 219.47 60H220.46C223.71 60 226.6 61.55 228.42 63.95C230.25 61.55 233.13 60 236.38 60H237.37C240.62 60 243.51 61.55 245.33 63.95C247.16 61.55 250.04 60 253.29 60H254.28C257.53 60 260.42 61.55 262.24 63.95C264.07 61.55 266.95 60 270.2 60H271.2C274.45 60 277.34 61.55 279.16 63.95C280.99 61.55 283.87 60 287.12 60H288.12C291.37 60 294.26 61.55 296.08 63.95C297.91 61.55 300.79 60 304.04 60H305.04C308.29 60 311.18 61.55 313 63.95C314.83 61.55 317.71 60 320.96 60H321.96C325.21 60 328.1 61.55 329.92 63.95C331.75 61.55 334.63 60 337.88 60H338.88C342.13 60 345.02 61.55 346.84 63.95C348.67 61.55 351.55 60 354.8 60H355.79C359.04 60 361.93 61.55 363.75 63.95C365.58 61.55 368.46 60 371.71 60H372.7C375.95 60 378.84 61.55 380.66 63.95C382.49 61.55 385.37 60 388.62 60H389.62C392.87 60 395.76 61.55 397.58 63.95C399.41 61.55 402.29 60 405.54 60H406.54C409.79 60 412.68 61.55 414.5 63.95C416.33 61.55 419.21 60 422.46 60H423.45C426.7 60 429.59 61.55 431.41 63.95C433.24 61.55 436.12 60 439.37 60H440.36C443.61 60 446.5 61.55 448.32 63.95C450.15 61.55 453.03 60 456.28 60H457.28C460.53 60 463.42 61.55 465.24 63.95C467.07 61.55 469.96 60 473.2 60H474.2C477.45 60 480.34 61.55 482.16 63.95C483.99 61.55 486.87 60 490.12 60H491.12C494.37 60 497.26 61.55 499.08 63.95C500.91 61.55 503.79 60 507.04 60H508.04C511.29 60 514.18 61.55 516 63.95C517.83 61.55 520.71 60 523.96 60H524.96C528.21 60 531.1 61.55 532.92 63.95C534.75 61.55 537.63 60 540.88 60H541.88C545.13 60 548.02 61.55 549.84 63.95C551.67 61.55 554.55 60 557.8 60H558.8C562.05 60 564.94 61.55 566.76 63.95C568.59 61.55 571.47 60 574.72 60H575.71C578.96 60 581.85 61.55 583.67 63.95C585.5 61.55 588.38 60 591.63 60H592.62C595.87 60 598.76 61.55 600.58 63.95C602.41 61.55 605.29 60 608.54 60H609.53C612.78 60 615.67 61.55 617.49 63.95C619.32 61.55 622.2 60 625.45 60H626.44C629.69 60 632.58 61.55 634.4 63.95C636.23 61.55 639.11 60 642.36 60H643.35C646.6 60 649.49 61.55 651.31 63.95C653.14 61.55 656.02 60 659.27 60H660.26C663.51 60 666.4 61.55 668.22 63.95C670.05 61.55 672.93 60 676.18 60H677.18C680.43 60 683.32 61.55 685.14 63.95C686.97 61.55 689.85 60 693.1 60H694.1C697.35 60 700.24 61.55 702.06 63.95C703.89 61.55 706.78 60 710.02 60H711.02C714.27 60 717.16 61.55 718.98 63.95C720.81 61.55 723.69 60 726.94 60H737.44V70.49C737.44 73.7 735.93 76.56 733.57 78.39C735.92 80.22 737.44 83.08 737.44 86.29V87.28C737.44 90.49 735.93 93.35 733.57 95.18C735.92 97.01 737.44 99.87 737.44 103.08V104.07C737.44 107.28 735.93 110.14 733.57 111.97C735.92 113.8 737.44 116.66 737.44 119.87V120.86C737.44 124.07 735.93 126.93 733.57 128.76C735.92 130.59 737.44 133.45 737.44 136.66V137.65C737.44 140.86 735.93 143.72 733.57 145.55C735.92 147.38 737.44 150.24 737.44 153.45V154.44C737.44 157.65 735.93 160.51 733.57 162.34C735.92 164.17 737.44 167.03 737.44 170.24V171.23C737.44 174.44 735.93 177.3 733.57 179.13C735.92 180.96 737.44 183.82 737.44 187.03V188.02C737.44 191.23 735.93 194.09 733.57 195.92C735.92 197.75 737.44 200.61 737.44 203.82V204.81C737.44 208.02 735.93 210.88 733.57 212.71C735.92 214.54 737.44 217.4 737.44 220.61V221.6C737.44 224.81 735.93 227.67 733.57 229.5C735.92 231.33 737.44 234.19 737.44 237.4V238.39C737.44 241.6 735.93 244.46 733.57 246.29C735.92 248.12 737.44 250.98 737.44 254.19V255.18C737.44 258.39 735.93 261.25 733.57 263.08C735.92 264.91 737.44 267.77 737.44 270.98V271.97C737.44 275.18 735.93 278.04 733.57 279.87C735.92 281.7 737.44 284.56 737.44 287.77V288.76C737.44 291.97 735.93 294.83 733.57 296.66C735.92 298.49 737.44 301.35 737.44 304.56V305.55C737.44 308.76 735.93 311.62 733.57 313.45C735.92 315.28 737.44 318.14 737.44 321.35V322.34C737.44 325.55 735.93 328.41 733.57 330.24C735.92 332.07 737.44 334.93 737.44 338.14V339.13C737.44 342.34 735.93 345.2 733.57 347.03C735.92 348.86 737.44 351.72 737.44 354.93V355.92C737.44 359.13 735.93 361.99 733.57 363.82C735.92 365.65 737.44 368.51 737.44 371.72V372.71C737.44 375.92 735.93 378.78 733.57 380.61C735.92 382.44 737.44 385.3 737.44 388.51V389.5C737.44 392.71 735.93 395.57 733.57 397.4C735.92 399.23 737.44 402.09 737.44 405.3V406.29C737.44 409.5 735.93 412.36 733.57 414.19C735.92 416.02 737.44 418.88 737.44 422.09V423.08C737.44 426.29 735.93 429.15 733.57 430.98C735.92 432.81 737.44 435.67 737.44 438.88V439.87C737.44 443.08 735.93 445.94 733.57 447.77C735.92 449.6 737.44 452.46 737.44 455.67V456.66C737.44 459.87 735.93 462.73 733.57 464.56C735.92 466.39 737.44 469.25 737.44 472.46V473.45C737.44 476.66 735.93 479.52 733.57 481.35C735.92 483.18 737.44 486.04 737.44 489.25V490.24C737.44 493.45 735.93 496.31 733.57 498.14C735.92 499.97 737.44 502.83 737.44 506.04V507.03C737.44 510.24 735.93 513.1 733.57 514.93C735.92 516.76 737.44 519.62 737.44 522.83V523.82C737.44 527.03 735.93 529.89 733.57 531.72C735.92 533.55 737.44 536.41 737.44 539.62V550.11H726.94C723.69 550.11 720.8 548.56 718.98 546.16C717.15 548.56 714.27 550.11 711.02 550.11H710.03C706.78 550.11 703.89 548.56 702.07 546.16C700.24 548.56 697.36 550.11 694.11 550.11H693.11C689.86 550.11 686.97 548.56 685.15 546.16C683.32 548.56 680.44 550.11 677.19 550.11H676.19C672.94 550.11 670.05 548.56 668.23 546.16C666.4 548.56 663.51 550.11 660.27 550.11H659.27C656.02 550.11 653.13 548.56 651.31 546.16C649.48 548.56 646.6 550.11 643.35 550.11H642.35C639.1 550.11 636.21 548.56 634.39 546.16C632.56 548.56 629.68 550.11 626.43 550.11H625.43C622.18 550.11 619.29 548.56 617.47 546.16C615.64 548.56 612.76 550.11 609.51 550.11H608.52C605.27 550.11 602.38 548.56 600.56 546.16C598.73 548.56 595.85 550.11 592.6 550.11H591.61C588.36 550.11 585.47 548.56 583.65 546.16C581.82 548.56 578.94 550.11 575.69 550.11H574.7C571.45 550.11 568.56 548.56 566.74 546.16C564.91 548.56 562.03 550.11 558.78 550.11H557.78C554.53 550.11 551.64 548.56 549.82 546.16C547.99 548.56 545.11 550.11 541.86 550.11H540.87C537.62 550.11 534.73 548.56 532.91 546.16C531.08 548.56 528.2 550.11 524.95 550.11H523.95C520.7 550.11 517.81 548.56 515.99 546.16C514.16 548.56 511.28 550.11 508.03 550.11H507.03C503.78 550.11 500.89 548.56 499.07 546.16C497.24 548.56 494.36 550.11 491.11 550.11H490.11C486.86 550.11 483.97 548.56 482.15 546.16C480.32 548.56 477.44 550.11 474.19 550.11H473.19C469.94 550.11 467.05 548.56 465.23 546.16C463.4 548.56 460.52 550.11 457.27 550.11H456.27C453.02 550.11 450.13 548.56 448.31 546.16C446.48 548.56 443.6 550.11 440.35 550.11H439.36C436.11 550.11 433.22 548.56 431.4 546.16C429.57 548.56 426.69 550.11 423.44 550.11H422.45C419.2 550.11 416.31 548.56 414.49 546.16C412.66 548.56 409.78 550.11 406.53 550.11H405.53C402.28 550.11 399.39 548.56 397.57 546.16C395.74 548.56 392.86 550.11 389.61 550.11H388.61C385.36 550.11 382.47 548.56 380.65 546.16C378.82 548.56 375.94 550.11 372.69 550.11H371.7C368.45 550.11 365.56 548.56 363.74 546.16C361.91 548.56 359.03 550.11 355.78 550.11H354.79C351.54 550.11 348.65 548.56 346.83 546.16C345 548.56 342.12 550.11 338.87 550.11H337.87C334.62 550.11 331.73 548.56 329.91 546.16C328.08 548.56 325.19 550.11 321.95 550.11H320.95C317.7 550.11 314.81 548.56 312.99 546.16C311.16 548.56 308.28 550.11 305.03 550.11H304.03C300.78 550.11 297.89 548.56 296.07 546.16C294.24 548.56 291.36 550.11 288.11 550.11H287.11C283.86 550.11 280.97 548.56 279.15 546.16C277.32 548.56 274.44 550.11 271.19 550.11H270.19C266.94 550.11 264.05 548.56 262.23 546.16C260.4 548.56 257.52 550.11 254.27 550.11H253.27C250.02 550.11 247.13 548.56 245.31 546.16C243.48 548.56 240.6 550.11 237.35 550.11H236.36C233.11 550.11 230.22 548.56 228.4 546.16C226.57 548.56 223.69 550.11 220.44 550.11H219.45C216.2 550.11 213.31 548.56 211.49 546.16C209.66 548.56 206.78 550.11 203.53 550.11H202.53C199.28 550.11 196.39 548.56 194.57 546.16C192.74 548.56 189.86 550.11 186.61 550.11H185.62C182.37 550.11 179.48 548.56 177.66 546.16C175.83 548.56 172.95 550.11 169.7 550.11H168.71C165.46 550.11 162.57 548.56 160.75 546.16C158.92 548.56 156.04 550.11 152.79 550.11H151.79C148.54 550.11 145.65 548.56 143.83 546.16C142 548.56 139.12 550.11 135.87 550.11H134.88C131.63 550.11 128.74 548.56 126.92 546.16C125.09 548.56 122.21 550.11 118.96 550.11H117.96C114.71 550.11 111.82 548.56 110 546.16C108.17 548.56 105.29 550.11 102.04 550.11H101.04C97.79 550.11 94.9 548.56 93.08 546.16C91.25 548.56 88.37 550.11 85.12 550.11H84.12C80.87 550.11 77.98 548.56 76.16 546.16C74.33 548.56 71.45 550.11 68.2 550.11H57.7V539.62C57.7 536.41 59.21 533.55 61.57 531.72C59.22 529.89 57.7 527.03 57.7 523.82V522.83C57.7 519.62 59.21 516.76 61.57 514.93C59.22 513.1 57.7 510.24 57.7 507.03V506.04C57.7 502.83 59.21 499.97 61.57 498.14C59.22 496.31 57.7 493.45 57.7 490.24V489.25C57.7 486.04 59.21 483.18 61.57 481.35C59.22 479.52 57.7 476.66 57.7 473.45V472.46C57.7 469.25 59.21 466.39 61.57 464.56C59.22 462.73 57.7 459.87 57.7 456.66V455.67C57.7 452.46 59.21 449.6 61.57 447.77C59.22 445.94 57.7 443.08 57.7 439.87V438.88C57.7 435.67 59.21 432.81 61.57 430.98C59.22 429.15 57.7 426.29 57.7 423.08V422.09C57.7 418.88 59.21 416.02 61.57 414.19C59.22 412.36 57.7 409.5 57.7 406.29V405.3C57.7 402.09 59.21 399.23 61.57 397.4C59.22 395.57 57.7 392.71 57.7 389.5V388.51C57.7 385.3 59.21 382.44 61.57 380.61C59.22 378.78 57.7 375.92 57.7 372.71V371.72C57.7 368.51 59.21 365.65 61.57 363.82C59.22 361.99 57.7 359.13 57.7 355.92V354.93C57.7 351.72 59.21 348.86 61.57 347.03C59.22 345.2 57.7 342.34 57.7 339.13V338.14C57.7 334.93 59.21 332.07 61.57 330.24C59.22 328.41 57.7 325.55 57.7 322.34V321.35C57.7 318.14 59.21 315.28 61.57 313.45C59.22 311.62 57.7 308.76 57.7 305.55V304.56C57.7 301.35 59.21 298.49 61.57 296.66C59.22 294.83 57.7 291.97 57.7 288.76V287.77C57.7 284.56 59.21 281.7 61.57 279.87C59.22 278.04 57.7 275.18 57.7 271.97V270.98C57.7 267.77 59.21 264.91 61.57 263.08C59.22 261.25 57.7 258.39 57.7 255.18V254.19C57.7 250.98 59.21 248.12 61.57 246.29C59.22 244.46 57.7 241.6 57.7 238.39V237.4C57.7 234.19 59.21 231.33 61.57 229.5C59.22 227.67 57.7 224.81 57.7 221.6V220.61C57.7 217.4 59.21 214.54 61.57 212.71C59.22 210.88 57.7 208.02 57.7 204.81V203.82C57.7 200.61 59.21 197.75 61.57 195.92C59.22 194.09 57.7 191.23 57.7 188.02V187.03C57.7 183.82 59.21 180.96 61.57 179.13C59.22 177.3 57.7 174.44 57.7 171.23V170.24C57.7 167.03 59.21 164.17 61.57 162.34C59.22 160.51 57.7 157.65 57.7 154.44V153.45C57.7 150.24 59.21 147.38 61.57 145.55C59.22 143.72 57.7 140.86 57.7 137.65V136.66C57.7 133.45 59.21 130.59 61.57 128.76C59.22 126.93 57.7 124.07 57.7 120.86V119.87C57.7 116.66 59.21 113.8 61.57 111.97C59.22 110.14 57.7 107.28 57.7 104.07V103.08C57.7 99.87 59.21 97.01 61.57 95.18Z" fill="#40BEAD"/>
<path d="M714.7 560.5C733.478 560.5 748.7 545.278 748.7 526.5C748.7 507.722 733.478 492.5 714.7 492.5C695.922 492.5 680.7 507.722 680.7 526.5C680.7 545.278 695.922 560.5 714.7 560.5Z" fill="#40BEAD"/>
<path d="M698.7 82V74H730.7V82H698.7Z" fill="white"/>
<path fill-rule="evenodd" clip-rule="evenodd" d="M83.7 62H75.7V74H63.7V82H75.7V94H83.7V82H95.7V74H83.7V62Z" fill="white"/>
<path fill-rule="evenodd" clip-rule="evenodd" d="M707.35 512.28L701.64 517.88L710.04 526.45L701.47 534.85L707.07 540.56L715.64 532.16L724.04 540.73L729.75 535.13L721.35 526.56L729.92 518.16L724.32 512.45L715.75 520.85L707.35 512.28Z" fill="white"/>
<path fill-rule="evenodd" clip-rule="evenodd" d="M63.7 530.5V522.5H95.7V530.5H63.7ZM85.7 512.5C85.7 515.81 83.01 518.5 79.7 518.5C76.39 518.5 73.7 515.81 73.7 512.5C73.7 509.19 76.39 506.5 79.7 506.5C83.01 506.5 85.7 509.19 85.7 512.5ZM79.7 545.5C83.01 545.5 85.7 542.81 85.7 539.5C85.7 536.19 83.01 533.5 79.7 533.5C76.39 533.5 73.7 536.19 73.7 539.5C73.7 542.81 76.39 545.5 79.7 545.5Z" fill="white"/>
<path d="M760.86 378.23L756.33 376.16C736.61 367.16 705.08 358.13 679.75 350.87C672.61 348.83 665.86 346.89 660.21 345.2L658.71 344.75L675.83 272.99L677.44 273.37C701.54 279.03 749.76 294.05 776.54 310.23L779.59 312.08L776.21 313.23C760.68 318.51 750.9 321.96 734.93 329.7C739.93 338.05 744.88 347.69 749.67 357.03C752.57 362.69 755.57 368.54 758.47 373.86L760.85 378.24L760.86 378.23Z" fill="#1397E1"/>
<path d="M662.66 342.47C667.97 344.05 674.15 345.82 680.65 347.68C704.28 354.45 733.28 362.75 753.27 371.19C751.08 367.06 748.87 362.75 746.71 358.54C741.64 348.66 736.4 338.45 731.14 329.86L730.19 328.3L731.83 327.5C747.66 319.74 757.82 315.99 771.7 311.24C745.37 296.3 701.72 282.63 678.28 276.98L662.66 342.46V342.47Z" fill="white"/>
<path d="M659.1 344.56L668.05 305.02L710.98 309.24L709.01 332.21L659.1 344.56Z" fill="#1397E1"/>
<path d="M670.65 308.61L663.53 340.04L705.9 329.55L707.39 312.23L670.65 308.61Z" fill="#40BEAD"/>
<path d="M34.29 380.69L36.67 376.31C45.19 360.67 52.31 345.03 57.67 332.85C52.59 330.77 35.8 323.97 16.25 316.53L13 315.29L16.01 313.54C48.25 294.76 97.44 278.3 122.06 272.62L123.67 272.25L124.05 273.86C127.14 286.81 141.4 342.88 141.54 343.45L141.93 344.99L140.41 345.45C135.83 346.83 130.4 348.41 124.43 350.16C97.08 358.16 59.63 369.12 38.83 378.61L34.3 380.68L34.29 380.69Z" fill="#1397E1"/>
<path d="M20.72 314.68C42.65 323.07 60.33 330.35 60.51 330.42L62.08 331.07L61.4 332.63C56.42 344.01 49.8 358.67 41.87 373.65C63.44 364.54 97.88 354.46 123.49 346.97C128.81 345.42 133.69 343.99 137.93 342.72C135.69 333.92 124.58 290.17 121.2 276.24C97.69 281.88 51.67 297.37 20.72 314.68Z" fill="white"/>
<path d="M141.67 344.56L95.8 332.66L94.72 309.58L131.83 305.52L141.67 344.56Z" fill="#1397E1"/>
<path d="M99 330.05L137.08 339.93L129.31 309.14L98.18 312.54L99 330.05Z" fill="#40BEAD"/>
<path d="M95.77 332.59L76.2 237.78L77.82 237.45C175.95 217.58 287.05 206.79 399.1 206.25C516.16 205.66 627.68 216.5 721.71 237.53L723.21 237.87L708.95 332.13L707.18 331.68C530.62 286.82 262.8 287.02 97.46 332.13L95.77 332.59Z" fill="#1397E1"/>
<path d="M80.1 240.36L98.29 328.49C263.68 283.86 529.79 283.66 706.23 328.04L719.48 240.43C626 219.67 515.26 208.99 399.11 209.56C287.88 210.1 177.62 220.75 80.09 240.37L80.1 240.36Z" fill="white"/>
<path d="M471.58 159.59L466.19 161.61C466.05 161.66 465.92 161.74 465.82 161.85C465.71 161.95 465.63 162.08 465.58 162.22L463.58 167.61C463.51 167.81 463.38 167.99 463.2 168.12C463.02 168.25 462.81 168.31 462.6 168.31C462.39 168.31 462.17 168.24 462 168.12C461.82 167.99 461.69 167.82 461.62 167.61L459.61 162.22C459.56 162.08 459.48 161.96 459.38 161.85C459.28 161.74 459.15 161.66 459.02 161.61L453.62 159.6C453.42 159.53 453.24 159.4 453.11 159.22C452.99 159.04 452.92 158.83 452.92 158.62C452.92 158.41 452.99 158.19 453.11 158.02C453.24 157.84 453.41 157.71 453.62 157.64L459.01 155.63C459.15 155.58 459.27 155.5 459.38 155.4C459.48 155.3 459.56 155.17 459.62 155.04L461.63 149.65C461.7 149.45 461.83 149.27 462.01 149.14C462.18 149.01 462.4 148.95 462.61 148.95C462.82 148.95 463.04 149.02 463.21 149.14C463.39 149.27 463.52 149.44 463.59 149.65L465.59 155.04C465.64 155.18 465.72 155.31 465.83 155.41C465.94 155.52 466.06 155.6 466.2 155.65L471.59 157.65C471.79 157.72 471.96 157.86 472.08 158.03C472.2 158.2 472.27 158.41 472.27 158.62C472.27 158.83 472.2 159.04 472.08 159.21C471.96 159.38 471.79 159.52 471.59 159.59H471.58Z" fill="#FFD670"/>
<path d="M386.26 231.41C375.19 222.06 369.77 214.98 367.91 202.13C364.07 204.23 350.73 211.87 339.2 215.21C336.91 193.23 353.03 158.02 377.41 133.23C403.36 148.99 424.23 156.95 424.23 156.95C424.23 156.95 396.46 183.17 386.27 231.41H386.26Z" fill="white" stroke="#1397E1" stroke-width="15" stroke-miterlimit="10"/>
<path d="M437.73 135.59C437.73 135.59 434.31 171.73 460.61 213.44C435.06 213.78 427.04 205.22 427.04 205.22C427.04 205.22 421.5 224.16 415.56 234.61C398.61 220.43 385.64 183.95 385.86 149.18C415.46 142.41 437.73 135.59 437.73 135.59Z" fill="white" stroke="#1397E1" stroke-width="15" stroke-miterlimit="10"/>
<path d="M424.22 156.96C424.22 156.96 396.45 183.18 386.26 231.42C376.69 223.57 369.27 214.32 367.91 202.14C364.49 204.01 350.73 211.88 339.2 215.22C336.91 193.24 353.03 158.03 377.41 133.24C403.36 149 424.23 156.96 424.23 156.96H424.22Z" fill="#1397E1" stroke="white" stroke-width="5" stroke-miterlimit="10"/>
<path d="M437.73 135.59C437.73 135.59 434.31 171.73 460.61 213.44C435.06 213.78 427.04 205.22 427.04 205.22C427.04 205.22 421.5 224.16 415.56 234.61C398.61 220.43 385.64 183.95 385.86 149.18C415.46 142.41 437.73 135.59 437.73 135.59Z" fill="#1397E1" stroke="white" stroke-width="5" stroke-miterlimit="10"/>
<path d="M418.44 179.05C419.52 183.09 422.08 187.54 424.82 191.48" stroke="white" stroke-width="5" stroke-miterlimit="10" stroke-linecap="round"/>
<path d="M379.13 177.46C376.93 181.5 375.24 186.88 374.74 190.39" stroke="white" stroke-width="5" stroke-miterlimit="10" stroke-linecap="round"/>
<path d="M398.11 169.82C439.21 169.82 472.52 136.51 472.52 95.41C472.52 54.31 439.21 21 398.11 21C357.01 21 323.7 54.31 323.7 95.41C323.7 136.51 357.01 169.82 398.11 169.82Z" fill="white"/>
<path d="M398.11 26C436.44 26 467.52 57.07 467.52 95.41C467.52 133.75 436.45 164.82 398.11 164.82C359.77 164.82 328.7 133.75 328.7 95.41C328.7 57.07 359.78 26 398.11 26ZM398.11 16C354.33 16 318.7 51.62 318.7 95.41C318.7 139.2 354.32 174.82 398.11 174.82C441.9 174.82 477.52 139.2 477.52 95.41C477.52 51.62 441.9 16 398.11 16Z" fill="#1397E1"/>
<path d="M398.11 167.32C437.82 167.32 470.02 135.12 470.02 95.41C470.02 55.7 437.82 23.5 398.11 23.5C358.4 23.5 326.2 55.7 326.2 95.41C326.2 135.12 358.4 167.32 398.11 167.32Z" fill="#1397E1"/>
<path d="M398.11 26C436.44 26 467.52 57.07 467.52 95.41C467.52 133.75 436.45 164.82 398.11 164.82C359.77 164.82 328.7 133.75 328.7 95.41C328.7 57.07 359.78 26 398.11 26ZM398.11 21C357.08 21 323.7 54.38 323.7 95.41C323.7 136.44 357.08 169.82 398.11 169.82C439.14 169.82 472.52 136.44 472.52 95.41C472.52 54.38 439.14 21 398.11 21Z" fill="white"/>
<path fill-rule="evenodd" clip-rule="evenodd" d="M430.77 145.48C429.91 145.48 429.07 145.22 428.35 144.73L397.24 123.55L366.11 144.74C365.4 145.23 364.57 145.48 363.72 145.48C362.79 145.48 361.9 145.18 361.13 144.6C359.7 143.57 359.07 141.69 359.6 139.95L370.57 104.14L340.36 80.7C338.91 79.56 338.33 77.63 338.92 75.9C339.51 74.13 341.17 72.88 342.95 72.86H380.75L393.2 36.4C393.78 34.68 395.4 33.51 397.24 33.51C399.08 33.51 400.69 34.67 401.29 36.41L413.72 72.86H451.46C453.32 72.9 454.95 74.13 455.54 75.91C456.12 77.64 455.55 79.56 454.13 80.68L423.9 104.14L434.86 139.95C435.4 141.68 434.76 143.57 433.29 144.65C432.58 145.19 431.7 145.48 430.77 145.48Z" fill="#F0C86A"/>
<path d="M397.24 35.51C398.21 35.51 399.08 36.14 399.4 37.06L412.29 74.86H451.46C452.48 74.88 453.34 75.62 453.65 76.54C453.96 77.48 453.65 78.51 452.9 79.11L421.59 103.4L432.96 140.53C433.24 141.45 432.92 142.45 432.12 143.03C431.73 143.33 431.26 143.48 430.78 143.48C430.33 143.48 429.88 143.35 429.49 143.08L397.25 121.13L365 143.08C364.62 143.34 364.18 143.48 363.74 143.48C363.26 143.48 362.77 143.32 362.34 143C361.57 142.45 361.25 141.45 361.53 140.53L372.9 103.41L341.6 79.13C340.82 78.52 340.51 77.49 340.83 76.56C341.13 75.65 342.02 74.89 342.98 74.88H382.2L395.12 37.06C395.43 36.14 396.29 35.53 397.26 35.53M397.26 31.53C394.57 31.53 392.18 33.24 391.33 35.79L379.34 70.89H342.98C340.32 70.92 337.89 72.73 337.03 75.31C336.18 77.82 337.01 80.63 339.12 82.29L368.26 104.9L357.7 139.38C356.93 141.95 357.84 144.7 359.97 146.25C361.08 147.07 362.38 147.5 363.73 147.5C364.99 147.5 366.2 147.12 367.25 146.4L397.24 125.99L427.23 146.41C428.28 147.13 429.5 147.51 430.77 147.51C432.04 147.51 433.43 147.07 434.49 146.27C436.64 144.68 437.55 141.91 436.77 139.37L426.21 104.89L455.34 82.29C457.45 80.63 458.28 77.83 457.43 75.29C456.57 72.71 454.2 70.94 451.54 70.88H415.15L403.18 35.79C402.3 33.24 399.91 31.53 397.23 31.53H397.26Z" fill="white"/>
<path d="M412.29 74.86L399.4 37.06C399.08 36.14 398.21 35.51 397.24 35.51C396.27 35.51 395.41 36.12 395.1 37.04L382.18 74.86H347.56C350.07 76.5 362.72 85.35 374.27 92.05C374.95 92.45 377.32 93.7 377.79 95.26C378.3 96.92 368.69 119.47 367.54 122.88C365.74 128.21 368.54 129.38 375.36 125.16C380.6 121.92 397.84 109.42 397.84 109.42C397.84 109.42 428.07 132.45 430.98 134.07L421.59 103.4L421.99 103.09L419.13 93.47L444.88 74.86H412.29Z" fill="#FFD570"/>
<path opacity="0.49" d="M401.1 58.42C402.7 57.87 404.42 58.71 405.05 60.31L405.12 60.51L407.63 68.69C408.19 70.42 407.28 72.29 405.62 72.87C404.02 73.42 402.3 72.58 401.67 70.98L401.6 70.78L399.09 62.6C398.53 60.87 399.44 59 401.1 58.42Z" fill="white"/>
<path d="M364.16 54.72L371.16 61.72" stroke="white" stroke-width="6" stroke-linecap="round" stroke-linejoin="round"/>
<path d="M432.16 54.72L425.16 61.72" stroke="white" stroke-width="6" stroke-linecap="round" stroke-linejoin="round"/>
<path d="M439.16 109.38L448.29 113.2" stroke="white" stroke-width="6" stroke-linecap="round" stroke-linejoin="round"/>
<path d="M355.29 108.38L346.16 112.2" stroke="white" stroke-width="6" stroke-linecap="round" stroke-linejoin="round"/>
<path d="M398.11 137.72V147.62" stroke="white" stroke-width="6" stroke-linecap="round" stroke-linejoin="round"/>
<path d="M135.7 522.5H319.7" stroke="#C9C9C9"/>
<path d="M476.7 522.5H660.7" stroke="#C9C9C9"/>
<path d="M161.57 184.45C162.71 185.2 163.42 186.34 163.7 187.88L166.08 200.89C166.54 203.38 166.7 205.32 166.56 206.71C166.43 208.1 165.94 209.26 165.11 210.18C164.27 211.1 162.94 212.02 161.09 212.92C159.24 213.77 157.15 214.55 154.84 215.26C152.52 215.97 150.34 216.51 148.3 216.88C142.57 217.93 137.4 217.75 132.79 216.35C128.18 214.95 124.39 212.43 121.4 208.77C118.42 205.12 116.41 200.5 115.39 194.92C114.39 189.44 114.64 184.46 116.14 179.99C117.64 175.52 120.26 171.81 123.99 168.86C127.73 165.91 132.36 163.93 137.89 162.92C141.38 162.28 144.58 162.12 147.5 162.44C150.42 162.76 153.23 163.54 155.93 164.8C156.89 165.24 157.62 165.78 158.12 166.41C158.62 167.04 158.97 167.9 159.17 169C159.45 170.55 159.27 171.93 158.62 173.16C157.97 174.39 157.04 175.11 155.85 175.33C155.05 175.48 154.35 175.49 153.73 175.37C153.12 175.25 152.31 175 151.31 174.61C149.28 173.95 147.42 173.54 145.72 173.39C144.02 173.24 142.22 173.33 140.33 173.68C135.59 174.55 132.31 176.51 130.48 179.58C128.65 182.65 128.23 186.92 129.23 192.4C130.26 198.03 132.23 201.99 135.14 204.26C138.05 206.54 142 207.22 146.99 206.3C149.38 205.86 151.7 205.18 153.96 204.25L152.17 194.46L146.79 195.44C145.15 195.74 143.8 195.56 142.75 194.9C141.7 194.24 141.04 193.16 140.77 191.67C140.5 190.17 140.73 188.93 141.48 187.95C142.23 186.96 143.42 186.32 145.07 186.02L157.41 183.77C159.06 183.47 160.45 183.69 161.59 184.44L161.57 184.45ZM197.38 171.32C198.51 172.11 199.21 173.41 199.46 175.21C199.74 177.22 199.48 178.74 198.68 179.77C197.88 180.8 196.29 181.61 193.92 182.2L191.69 182.74C189.22 183.39 187.54 184.43 186.64 185.86C185.74 187.29 185.44 189.11 185.75 191.32L187.54 204.19C187.83 206.25 187.4 207.88 186.27 209.09C185.13 210.3 183.61 211.03 181.71 211.3C179.8 211.57 178.14 211.27 176.72 210.42C175.3 209.57 174.44 208.12 174.16 206.06L170.53 180.02C170.26 178.11 170.7 176.54 171.83 175.31C172.96 174.08 174.43 173.34 176.24 173.08C178.1 172.82 179.66 173.12 180.93 173.96C182.2 174.81 182.96 176.13 183.21 177.94L183.41 179.37C183.9 177.05 184.98 175.16 186.65 173.7C188.31 172.24 190.14 171.32 192.14 170.94L193.18 170.72C194.86 170.33 196.27 170.53 197.41 171.32H197.38ZM236.31 193.42C237.14 194.24 237.64 195.39 237.8 196.85C238.03 198.86 237.22 200.51 235.37 201.79C233.75 202.84 231.81 203.78 229.53 204.62C227.25 205.46 225.13 205.99 223.17 206.21C219.04 206.67 215.35 206.3 212.11 205.08C208.86 203.86 206.25 201.89 204.26 199.15C202.27 196.42 201.06 193.08 200.62 189.16C200.2 185.43 200.62 182.01 201.88 178.89C203.14 175.77 205.09 173.23 207.76 171.27C210.42 169.32 213.54 168.14 217.11 167.74C220.58 167.35 223.71 167.76 226.5 168.98C229.29 170.2 231.55 172.11 233.3 174.72C235.05 177.33 236.13 180.5 236.54 184.22C236.67 185.38 236.51 186.3 236.05 186.99C235.59 187.68 234.86 188.08 233.85 188.19L213.91 190.42C214.53 192.8 215.51 194.45 216.83 195.37C218.16 196.29 220 196.62 222.37 196.36C223.63 196.22 224.77 195.95 225.8 195.56C226.83 195.17 227.97 194.64 229.22 193.99C229.94 193.6 230.65 193.26 231.36 192.95C232.06 192.64 232.72 192.45 233.32 192.39C234.48 192.26 235.47 192.61 236.3 193.43L236.31 193.42ZM214.46 178.93C213.53 180.18 213.08 181.9 213.13 184.09L224.99 182.76C224.19 178.36 222.03 176.36 218.51 176.76C216.75 176.96 215.4 177.68 214.47 178.93H214.46ZM270.85 166.82C273.83 169.34 275.56 173.4 276.04 179.01L277.38 194.84C277.54 196.76 277.1 198.31 276.06 199.49C275.02 200.67 273.48 201.35 271.46 201.52C269.69 201.67 268.2 201.29 266.98 200.37C265.76 199.46 265.03 198.15 264.78 196.44C264.23 198.32 263.16 199.83 261.58 200.98C260 202.13 258.05 202.8 255.73 203C253.16 203.22 250.79 202.89 248.63 202.04C246.47 201.18 244.72 199.88 243.38 198.14C242.04 196.4 241.27 194.36 241.07 192.04C240.84 189.36 241.36 187.17 242.61 185.46C243.86 183.75 245.98 182.42 248.95 181.46C251.92 180.5 255.98 179.8 261.13 179.36L263.17 179.19L263.09 178.28C262.94 176.51 262.43 175.27 261.56 174.56C260.69 173.85 259.29 173.57 257.37 173.73C255.3 173.9 252.33 174.87 248.46 176.62C247.33 177.12 246.36 177.41 245.56 177.47C244.3 177.58 243.25 177.21 242.42 176.36C241.59 175.51 241.11 174.36 240.98 172.9C240.89 171.79 241.04 170.86 241.43 170.12C241.83 169.38 242.5 168.68 243.47 168.04C245.16 166.98 247.32 166.06 249.95 165.28C252.58 164.5 255.18 164 257.76 163.78C263.52 163.29 267.88 164.31 270.87 166.83L270.85 166.82ZM262.44 191.4C263.49 190.02 263.93 188.31 263.76 186.29L263.68 185.38L262.47 185.48C259.24 185.75 256.97 186.24 255.65 186.93C254.34 187.63 253.74 188.65 253.85 190.02C253.95 191.18 254.39 192.11 255.19 192.81C255.98 193.51 256.96 193.8 258.13 193.71C259.95 193.56 261.38 192.79 262.44 191.4ZM311.1 193.8C311.21 195.57 310.61 196.93 309.3 197.87C307.99 198.81 306.06 199.29 303.53 199.29L301.4 199.27C296.83 199.2 293.29 198.04 290.79 195.78C288.29 193.53 286.91 190.25 286.64 185.95L285.81 172.52L283.61 172.66C279.56 172.91 277.44 171.37 277.23 168.03C277.03 164.74 278.95 162.97 282.99 162.72L285.19 162.58L284.88 157.65C284.76 155.73 285.27 154.16 286.42 152.95C287.56 151.74 289.17 151.07 291.24 150.94C293.31 150.81 294.99 151.28 296.28 152.34C297.56 153.4 298.27 154.89 298.39 156.82L298.7 161.75L302.87 161.49C306.91 161.24 309.04 162.76 309.24 166.04C309.45 169.38 307.53 171.17 303.48 171.42L299.31 171.68L300.22 186.24C300.28 187.2 300.62 187.99 301.24 188.61C301.86 189.23 302.63 189.54 303.54 189.53H305.75C309.15 189.53 310.94 190.95 311.12 193.78L311.1 193.8ZM551.37 149.86C552.56 149.18 553.84 148.89 555.2 148.98C556.87 149.1 558.28 149.73 559.45 150.88C560.61 152.03 561.13 153.51 561.01 155.33C560.95 156.14 560.68 157.14 560.19 158.32L542.07 198.5C541.47 199.88 540.47 200.92 539.07 201.61C537.68 202.3 536.17 202.59 534.55 202.48C532.93 202.37 531.49 201.87 530.23 201C528.97 200.12 528.14 198.96 527.73 197.51L519.84 168.69L507.57 196.1C506.91 197.48 505.9 198.51 504.53 199.2C503.16 199.89 501.69 200.18 500.13 200.07C498.51 199.96 497.07 199.46 495.81 198.59C494.55 197.71 493.72 196.55 493.31 195.1L480.87 152.79C480.59 151.75 480.48 150.78 480.54 149.87C480.67 148 481.44 146.57 482.86 145.58C484.28 144.59 485.87 144.15 487.64 144.28C489.06 144.38 490.33 144.84 491.47 145.65C492.61 146.47 493.38 147.62 493.78 149.13L502.08 179.73L515.16 150.63C515.76 149.25 516.66 148.22 517.85 147.54C519.04 146.86 520.32 146.57 521.68 146.66C523.05 146.76 524.26 147.22 525.32 148.06C526.38 148.9 527.11 150.06 527.51 151.57L535.7 182.77L548.67 152.97C549.27 151.59 550.17 150.56 551.36 149.88L551.37 149.86ZM563.86 202.61C560.92 200.7 558.76 198.2 557.37 195.11C555.98 192.01 555.49 188.5 555.89 184.57C556.3 180.64 557.49 177.31 559.48 174.59C561.47 171.87 564.08 169.88 567.31 168.63C570.54 167.38 574.23 166.97 578.36 167.4C582.49 167.82 586.02 168.98 588.93 170.86C591.84 172.74 593.99 175.21 595.39 178.29C596.78 181.36 597.27 184.86 596.87 188.79C596.46 192.72 595.27 196.06 593.28 198.81C591.29 201.56 588.68 203.57 585.44 204.84C582.2 206.11 578.52 206.53 574.38 206.11C570.3 205.69 566.79 204.53 563.85 202.62L563.86 202.61ZM583.57 187.41C584.21 181.16 582.14 177.79 577.35 177.3C572.56 176.81 569.85 179.69 569.2 185.94C568.56 192.19 570.63 195.56 575.42 196.05C580.21 196.54 582.92 193.66 583.57 187.41ZM632.1 175.11C632.99 176.17 633.31 177.6 633.08 179.41C632.82 181.42 632.17 182.82 631.13 183.6C630.08 184.39 628.34 184.75 625.89 184.69L623.6 184.63C621.05 184.61 619.15 185.17 617.91 186.32C616.66 187.46 615.9 189.14 615.62 191.35L613.97 204.24C613.71 206.3 612.87 207.76 611.46 208.63C610.05 209.5 608.38 209.81 606.48 209.56C604.57 209.32 603.04 208.6 601.89 207.4C600.74 206.21 600.3 204.58 600.56 202.52L603.89 176.44C604.13 174.53 604.96 173.13 606.38 172.24C607.8 171.35 609.41 171.02 611.22 171.25C613.08 171.49 614.51 172.18 615.51 173.33C616.51 174.48 616.9 175.96 616.67 177.77L616.49 179.2C617.58 177.09 619.11 175.55 621.1 174.58C623.09 173.61 625.09 173.2 627.12 173.36L628.18 173.42C629.91 173.49 631.22 174.05 632.1 175.11ZM671.4 212.47C671.14 214.12 670.32 215.51 668.93 216.62C667.55 217.74 666.03 218.16 664.38 217.9C662.98 217.68 661.68 216.83 660.47 215.36L647.52 198.46L645.92 208.59C645.6 210.64 644.71 212.09 643.27 212.94C641.83 213.79 640.15 214.06 638.25 213.76C636.35 213.46 634.84 212.68 633.73 211.43C632.62 210.18 632.23 208.53 632.55 206.47L639.07 165.26C639.39 163.21 640.28 161.76 641.72 160.91C643.16 160.06 644.83 159.79 646.74 160.09C648.64 160.39 650.15 161.17 651.26 162.42C652.37 163.67 652.76 165.33 652.44 167.38L648.41 192.83L664.53 180.92C665.99 179.82 667.54 179.4 669.19 179.66C670.79 179.91 672.11 180.75 673.14 182.17C674.17 183.59 674.56 185.08 674.32 186.63C674.07 188.18 673.2 189.51 671.69 190.6L662.22 197.41L670.11 207.82C671.21 209.28 671.63 210.83 671.37 212.48L671.4 212.47Z" fill="#1397E1"/>
<path d="M437.7 517H358.7C348.759 517 340.7 525.059 340.7 535V552C340.7 561.941 348.759 570 358.7 570H437.7C447.641 570 455.7 561.941 455.7 552V535C455.7 525.059 447.641 517 437.7 517Z" fill="white" stroke="#40BEAD" stroke-width="10"/>
<path d="M114.68 144.82L112.66 139.43C112.61 139.29 112.53 139.16 112.42 139.06C112.32 138.95 112.19 138.87 112.05 138.82L106.66 136.82C106.46 136.75 106.28 136.62 106.15 136.44C106.02 136.26 105.96 136.05 105.96 135.84C105.96 135.63 106.03 135.41 106.15 135.24C106.28 135.06 106.45 134.93 106.66 134.86L112.05 132.85C112.19 132.8 112.31 132.72 112.42 132.62C112.52 132.52 112.61 132.39 112.66 132.26L114.67 126.86C114.74 126.66 114.87 126.48 115.05 126.35C115.23 126.22 115.44 126.16 115.65 126.16C115.86 126.16 116.08 126.23 116.25 126.35C116.43 126.48 116.56 126.65 116.63 126.86L118.64 132.25C118.69 132.39 118.77 132.51 118.87 132.61C118.97 132.71 119.1 132.79 119.23 132.85L124.62 134.86C124.82 134.93 125 135.06 125.13 135.24C125.26 135.42 125.32 135.63 125.32 135.84C125.32 136.05 125.25 136.27 125.13 136.44C125 136.62 124.83 136.75 124.62 136.82L119.23 138.82C119.09 138.87 118.96 138.95 118.86 139.06C118.76 139.17 118.67 139.29 118.62 139.43L116.62 144.82C116.55 145.02 116.41 145.19 116.24 145.31C116.07 145.43 115.86 145.5 115.65 145.5C115.44 145.5 115.23 145.44 115.06 145.31C114.89 145.19 114.75 145.02 114.68 144.82Z" fill="#FFD670"/>
<path d="M134.61 125.15L132.26 126.03C132.2 126.05 132.14 126.09 132.1 126.13C132.06 126.17 132.02 126.23 132 126.29L131.13 128.64C131.1 128.73 131.04 128.8 130.96 128.85C130.89 128.9 130.8 128.93 130.7 128.93C130.6 128.93 130.52 128.9 130.44 128.85C130.36 128.8 130.31 128.72 130.27 128.64L129.4 126.3C129.38 126.24 129.34 126.18 129.3 126.14C129.25 126.09 129.2 126.06 129.14 126.03L126.79 125.16C126.7 125.13 126.63 125.07 126.58 125C126.53 124.92 126.5 124.83 126.5 124.74C126.5 124.65 126.53 124.56 126.58 124.48C126.63 124.4 126.71 124.35 126.79 124.31L129.14 123.44C129.2 123.42 129.26 123.38 129.3 123.34C129.34 123.29 129.38 123.24 129.4 123.18L130.27 120.83C130.3 120.74 130.36 120.67 130.43 120.62C130.51 120.57 130.6 120.54 130.69 120.54C130.78 120.54 130.87 120.57 130.95 120.62C131.02 120.67 131.08 120.75 131.12 120.83L131.99 123.18C132.01 123.24 132.05 123.29 132.09 123.34C132.14 123.39 132.19 123.42 132.25 123.44L134.6 124.31C134.68 124.34 134.76 124.4 134.81 124.48C134.86 124.55 134.89 124.64 134.89 124.73C134.89 124.82 134.86 124.91 134.81 124.98C134.76 125.05 134.69 125.11 134.6 125.15H134.61Z" fill="#FFD670"/>
<path d="M167.22 125.52L166.05 122.39C166.02 122.31 165.97 122.23 165.91 122.17C165.85 122.11 165.77 122.06 165.69 122.03L162.55 120.86C162.44 120.82 162.34 120.74 162.27 120.64C162.2 120.54 162.16 120.42 162.16 120.3C162.16 120.18 162.2 120.06 162.27 119.96C162.34 119.86 162.44 119.78 162.55 119.74L165.68 118.57C165.76 118.54 165.84 118.49 165.9 118.43C165.96 118.37 166.01 118.29 166.04 118.21L167.21 115.07C167.25 114.95 167.33 114.85 167.43 114.78C167.53 114.71 167.65 114.67 167.77 114.67C167.89 114.67 168.01 114.71 168.11 114.78C168.21 114.85 168.29 114.95 168.33 115.07L169.5 118.2C169.53 118.28 169.58 118.35 169.64 118.42C169.7 118.48 169.77 118.53 169.86 118.56L173 119.73C173.12 119.77 173.22 119.85 173.29 119.95C173.36 120.05 173.4 120.17 173.4 120.3C173.4 120.43 173.36 120.55 173.29 120.65C173.22 120.75 173.11 120.83 173 120.87L169.86 122.04C169.78 122.07 169.71 122.12 169.64 122.18C169.58 122.24 169.53 122.31 169.5 122.4L168.33 125.54C168.29 125.66 168.21 125.76 168.11 125.83C168.01 125.9 167.89 125.94 167.77 125.94C167.65 125.94 167.53 125.9 167.43 125.83C167.33 125.76 167.25 125.66 167.21 125.54L167.22 125.52Z" fill="#E7B521"/>
<mask id="mask0_336_7277" style="mask-type:luminance" maskUnits="userSpaceOnUse" x="353" y="532" width="90" height="24">
<path d="M443 532H353V556H443V532Z" fill="white"/>
</mask>
<g mask="url(#mask0_336_7277)">
<path d="M386.56 534.9H393.9C394.09 534.9 394.24 535.05 394.24 535.24V536.96C394.24 537.15 394.09 537.3 393.9 537.3H389.27C389.08 537.3 388.93 537.45 388.93 537.64V539.69C388.93 539.88 389.08 540.03 389.27 540.03H392.64C392.83 540.03 392.98 540.18 392.98 540.37V542.02C392.98 542.21 392.83 542.36 392.64 542.36H389.27C389.08 542.36 388.93 542.51 388.93 542.7V546.62C388.93 546.81 388.78 546.96 388.59 546.96H386.57C386.38 546.96 386.23 546.81 386.23 546.62V535.23C386.23 535.04 386.38 534.89 386.57 534.89L386.56 534.9Z" fill="#211E1F"/>
<path d="M395.18 538.48H397C397.18 538.48 397.32 538.62 397.34 538.79C397.36 539.06 397.69 539.21 397.89 539.03C398.01 538.92 398.14 538.82 398.29 538.72C398.67 538.45 399.15 538.32 399.75 538.32C399.98 538.32 400.17 538.33 400.33 538.36C400.38 538.36 400.44 538.38 400.49 538.39C400.67 538.43 400.79 538.61 400.75 538.79L400.46 540.44C400.43 540.62 400.25 540.74 400.07 540.71C399.89 540.68 399.68 540.66 399.47 540.66C398.86 540.66 398.37 540.84 397.99 541.21C397.61 541.58 397.43 542.1 397.43 542.78V546.64C397.43 546.83 397.28 546.98 397.09 546.98H395.19C395 546.98 394.85 546.83 394.85 546.64V538.83C394.85 538.64 395 538.49 395.19 538.49L395.18 538.48Z" fill="#211E1F"/>
<path d="M409.65 545.78C409.75 545.94 409.71 546.14 409.56 546.24C409.51 546.27 409.46 546.31 409.4 546.35C409.21 546.49 408.96 546.63 408.66 546.76C408.36 546.89 408 547.01 407.58 547.11C407.16 547.21 406.69 547.26 406.15 547.26C405.44 547.26 404.79 547.15 404.22 546.92C403.65 546.7 403.16 546.39 402.76 545.99C402.36 545.59 402.06 545.11 401.85 544.55C401.64 543.99 401.54 543.37 401.54 542.69C401.54 542.1 401.64 541.53 401.84 540.98C402.04 540.43 402.32 539.95 402.69 539.54C403.06 539.13 403.51 538.8 404.05 538.55C404.59 538.3 405.19 538.18 405.87 538.18C406.55 538.18 407.15 538.3 407.66 538.54C408.17 538.78 408.61 539.12 408.96 539.55C409.31 539.98 409.58 540.49 409.76 541.09C409.94 541.69 410.03 542.34 410.03 543.06V543.49H404.46C404.23 543.49 404.06 543.72 404.14 543.95C404.23 544.22 404.41 544.47 404.66 544.7C405.05 545.04 405.58 545.22 406.26 545.22C406.94 545.22 407.47 545.12 407.89 544.92C408.15 544.8 408.36 544.68 408.53 544.58C408.69 544.49 408.88 544.54 408.98 544.69L409.67 545.77L409.65 545.78ZM407.58 541.85C407.58 541.67 407.54 541.48 407.47 541.3C407.4 541.11 407.29 540.94 407.15 540.78C407.01 540.62 406.83 540.49 406.61 540.39C406.4 540.29 406.14 540.24 405.84 540.24C405.54 540.24 405.28 540.29 405.05 540.39C404.82 540.49 404.64 540.62 404.49 540.78C404.34 540.94 404.23 541.11 404.15 541.3C404.07 541.49 404.03 541.67 404.03 541.85H407.57H407.58Z" fill="#211E1F"/>
<path d="M418.97 545.61C419.09 545.75 419.08 545.97 418.94 546.09C418.63 546.37 418.26 546.63 417.81 546.84C417.24 547.12 416.57 547.26 415.8 547.26C415.12 547.26 414.5 547.15 413.95 546.92C413.4 546.7 412.92 546.38 412.53 545.98C412.14 545.58 411.83 545.09 411.61 544.54C411.39 543.98 411.28 543.37 411.28 542.71C411.28 542.08 411.39 541.49 411.62 540.94C411.85 540.39 412.16 539.91 412.56 539.5C412.96 539.09 413.44 538.77 413.99 538.53C414.54 538.3 415.15 538.18 415.81 538.18C416.57 538.18 417.23 538.31 417.8 538.56C418.25 538.76 418.63 539.02 418.97 539.33C419.11 539.46 419.12 539.68 418.99 539.82L417.89 541.02C417.77 541.16 417.56 541.17 417.42 541.04C417.28 540.92 417.13 540.8 416.96 540.7C416.69 540.53 416.32 540.45 415.87 540.45C415.56 540.45 415.28 540.51 415.04 540.64C414.8 540.77 414.59 540.93 414.42 541.14C414.25 541.35 414.12 541.58 414.03 541.86C413.94 542.14 413.89 542.42 413.89 542.72C413.89 543 413.94 543.27 414.03 543.55C414.12 543.82 414.25 544.06 414.42 544.27C414.59 544.48 414.8 544.65 415.04 544.79C415.29 544.92 415.56 544.99 415.87 544.99C416.31 544.99 416.68 544.9 416.98 544.73C417.16 544.62 417.32 544.51 417.46 544.39C417.6 544.27 417.81 544.28 417.93 544.42L418.99 545.62L418.97 545.61Z" fill="#211E1F"/>
<path d="M420.88 534.9H422.78C422.97 534.9 423.12 535.05 423.12 535.24V540.32C423.12 540.63 423.49 540.78 423.7 540.56L425.58 538.59C425.64 538.52 425.73 538.49 425.82 538.49H427.79C428.09 538.49 428.24 538.85 428.03 539.07L425.77 541.43C425.66 541.54 425.64 541.72 425.73 541.85L428.66 546.46C428.8 546.69 428.64 546.99 428.38 546.99H426.2C426.08 546.99 425.97 546.93 425.91 546.83L424.09 543.79C423.98 543.6 423.71 543.57 423.56 543.73L423.21 544.09C423.15 544.15 423.11 544.24 423.11 544.33V546.66C423.11 546.85 422.96 547 422.77 547H420.87C420.68 547 420.53 546.85 420.53 546.66V535.27C420.53 535.08 420.68 534.93 420.87 534.93L420.88 534.9Z" fill="#211E1F"/>
<path d="M430.59 534.9H432.49C432.68 534.9 432.83 535.05 432.83 535.24V546.64C432.83 546.83 432.68 546.98 432.49 546.98H430.59C430.4 546.98 430.25 546.83 430.25 546.64V535.24C430.25 535.05 430.4 534.9 430.59 534.9Z" fill="#211E1F"/>
<path d="M442.64 545.78C442.74 545.94 442.7 546.14 442.55 546.24C442.5 546.27 442.45 546.31 442.39 546.35C442.2 546.49 441.95 546.63 441.65 546.76C441.35 546.89 440.98 547.01 440.57 547.11C440.15 547.21 439.68 547.26 439.14 547.26C438.43 547.26 437.78 547.15 437.21 546.92C436.64 546.7 436.15 546.39 435.75 545.99C435.35 545.59 435.05 545.11 434.84 544.55C434.63 543.99 434.53 543.37 434.53 542.69C434.53 542.1 434.63 541.53 434.83 540.98C435.03 540.43 435.31 539.95 435.68 539.54C436.05 539.13 436.5 538.8 437.04 538.55C437.58 538.3 438.18 538.18 438.86 538.18C439.54 538.18 440.14 538.3 440.65 538.54C441.16 538.78 441.6 539.12 441.95 539.55C442.3 539.98 442.57 540.49 442.75 541.09C442.93 541.69 443.02 542.34 443.02 543.06V543.49H437.45C437.22 543.49 437.05 543.72 437.13 543.95C437.22 544.22 437.4 544.47 437.65 544.7C438.04 545.04 438.57 545.22 439.25 545.22C439.93 545.22 440.46 545.12 440.88 544.92C441.14 544.8 441.35 544.68 441.53 544.58C441.68 544.49 441.88 544.54 441.98 544.69L442.67 545.77L442.64 545.78ZM440.57 541.85C440.57 541.67 440.53 541.48 440.46 541.3C440.39 541.11 440.28 540.94 440.14 540.78C440 540.62 439.82 540.49 439.6 540.39C439.39 540.29 439.13 540.24 438.83 540.24C438.53 540.24 438.27 540.29 438.04 540.39C437.81 540.49 437.63 540.62 437.48 540.78C437.33 540.94 437.22 541.11 437.14 541.3C437.06 541.49 437.02 541.67 437.02 541.85H440.56H440.57Z" fill="#211E1F"/>
<path d="M388.88 554.09C388.63 554.42 388.28 554.58 387.83 554.58C387.59 554.58 387.38 554.53 387.2 554.44C387.02 554.34 386.87 554.2 386.76 554.02L386.68 554.51H386.13V549.17H386.8V551.24C386.91 551.08 387.06 550.95 387.23 550.86C387.4 550.77 387.6 550.73 387.83 550.73C388.28 550.73 388.63 550.91 388.88 551.28C389.13 551.65 389.26 552.12 389.26 552.72V552.79C389.26 553.32 389.13 553.75 388.88 554.08V554.09ZM388.36 551.69C388.21 551.42 387.97 551.29 387.66 551.29C387.46 551.29 387.28 551.34 387.14 551.44C387 551.54 386.89 551.68 386.8 551.85V553.45C386.89 553.63 387 553.77 387.14 553.88C387.28 553.98 387.46 554.03 387.67 554.03C387.98 554.03 388.22 553.92 388.37 553.69C388.52 553.46 388.6 553.16 388.6 552.79V552.72C388.6 552.3 388.52 551.95 388.37 551.68L388.36 551.69Z" fill="#211E1F"/>
<path d="M391.27 553.6H391.29L392.19 550.8H392.93L391.39 555.07C391.3 555.32 391.17 555.54 390.99 555.72C390.82 555.9 390.59 556 390.29 556C390.24 556 390.17 556 390.08 555.98C390 555.97 389.93 555.95 389.89 555.94L389.96 555.41C389.96 555.41 389.99 555.41 390.08 555.41C390.17 555.41 390.23 555.41 390.26 555.41C390.4 555.41 390.52 555.35 390.61 555.22C390.7 555.09 390.77 554.95 390.84 554.8L391 554.41L389.64 550.78H390.38L391.15 553.11L391.27 553.57V553.6Z" fill="#211E1F"/>
<path d="M396.03 554.5H395.36V549.52H397.14C397.68 549.52 398.09 549.64 398.37 549.88C398.65 550.12 398.79 550.47 398.79 550.93C398.79 551.19 398.72 551.41 398.59 551.6C398.46 551.79 398.27 551.94 398.01 552.05C398.28 552.14 398.47 552.28 398.59 552.48C398.71 552.68 398.77 552.93 398.77 553.22V553.69C398.77 553.84 398.79 553.98 398.82 554.11C398.85 554.23 398.91 554.33 399 554.41V554.49H398.32C398.23 554.41 398.18 554.3 398.15 554.15C398.13 554 398.11 553.85 398.11 553.69V553.23C398.11 552.96 398.03 552.75 397.88 552.58C397.73 552.42 397.52 552.33 397.26 552.33H396.02V554.49L396.03 554.5ZM397.08 551.81C397.46 551.81 397.73 551.74 397.89 551.59C398.05 551.45 398.14 551.22 398.14 550.93C398.14 550.64 398.06 550.43 397.9 550.28C397.74 550.13 397.49 550.05 397.15 550.05H396.03V551.81H397.08Z" fill="#211E1F"/>
<path d="M400.12 554.06C399.82 553.72 399.67 553.27 399.67 552.72V552.57C399.67 552.04 399.83 551.6 400.13 551.25C400.44 550.9 400.8 550.73 401.23 550.73C401.72 550.73 402.1 550.88 402.35 551.18C402.6 551.48 402.73 551.88 402.73 552.38V552.8H400.36V552.82C400.36 553.18 400.45 553.47 400.62 553.7C400.79 553.93 401.03 554.04 401.34 554.04C401.56 554.04 401.76 554.01 401.93 553.94C402.1 553.87 402.25 553.78 402.37 553.67L402.63 554.11C402.5 554.24 402.33 554.35 402.11 554.43C401.9 554.52 401.64 554.56 401.33 554.56C400.82 554.56 400.42 554.39 400.12 554.05V554.06ZM400.66 551.55C400.5 551.74 400.41 551.98 400.37 552.27V552.29H402.06V552.2C402.06 551.93 401.99 551.71 401.85 551.54C401.71 551.36 401.5 551.27 401.23 551.27C401.01 551.27 400.82 551.36 400.66 551.56V551.55Z" fill="#211E1F"/>
<path d="M404.12 551.35C404.24 551.15 404.39 551 404.58 550.89C404.76 550.78 404.97 550.73 405.21 550.73C405.61 550.73 405.91 550.85 406.13 551.08C406.35 551.31 406.45 551.67 406.45 552.16V554.5H405.78V552.18C405.78 551.85 405.72 551.62 405.59 551.49C405.46 551.35 405.27 551.29 405.01 551.29C404.82 551.29 404.65 551.34 404.5 551.43C404.35 551.52 404.24 551.65 404.15 551.81V554.51H403.48V550.81H404.08L404.13 551.36L404.12 551.35Z" fill="#211E1F"/>
<path d="M409.6 554.21C409.59 554.12 409.58 554.04 409.58 553.95C409.46 554.13 409.29 554.28 409.1 554.4C408.9 554.52 408.69 554.58 408.46 554.58C408.08 554.58 407.79 554.48 407.59 554.29C407.39 554.09 407.29 553.82 407.29 553.47C407.29 553.12 407.43 552.84 407.71 552.64C407.99 552.44 408.38 552.34 408.86 552.34H409.58V551.97C409.58 551.75 409.52 551.58 409.38 551.45C409.24 551.32 409.06 551.26 408.83 551.26C408.62 551.26 408.44 551.31 408.31 551.43C408.17 551.54 408.11 551.67 408.11 551.83H407.48V551.81C407.46 551.54 407.59 551.29 407.85 551.07C408.11 550.85 408.46 550.74 408.87 550.74C409.28 550.74 409.62 550.85 409.87 551.06C410.12 551.27 410.25 551.58 410.25 551.98V553.76C410.25 553.89 410.25 554.02 410.27 554.14C410.28 554.26 410.31 554.38 410.34 554.5H409.66C409.64 554.39 409.62 554.29 409.61 554.2L409.6 554.21ZM409.2 553.82C409.39 553.7 409.52 553.55 409.58 553.39V552.79H408.83C408.56 552.79 408.35 552.86 408.19 552.99C408.03 553.13 407.95 553.29 407.95 553.47C407.95 553.64 408 553.76 408.1 553.86C408.2 553.96 408.35 554.01 408.55 554.01C408.79 554.01 409.01 553.95 409.2 553.82Z" fill="#211E1F"/>
<path d="M411.27 549.85V549.16H411.94V549.85H411.27ZM411.27 554.5V550.8H411.94V554.5H411.27Z" fill="#211E1F"/>
<path d="M414.91 553.16C414.8 553.06 414.59 552.98 414.28 552.91C413.84 552.81 413.5 552.68 413.28 552.51C413.06 552.34 412.94 552.11 412.94 551.82C412.94 551.53 413.07 551.26 413.32 551.05C413.57 550.84 413.9 550.73 414.31 550.73C414.72 550.73 415.07 550.84 415.32 551.06C415.57 551.28 415.69 551.55 415.68 551.87V551.89H415.04C415.04 551.73 414.97 551.58 414.84 551.45C414.71 551.32 414.53 551.26 414.31 551.26C414.07 551.26 413.9 551.31 413.78 551.42C413.66 551.52 413.61 551.65 413.61 551.8C413.61 551.95 413.66 552.06 413.76 552.14C413.86 552.22 414.07 552.3 414.38 552.37C414.84 552.47 415.18 552.61 415.41 552.78C415.64 552.95 415.75 553.18 415.75 553.47C415.75 553.8 415.62 554.06 415.36 554.27C415.1 554.48 414.76 554.57 414.33 554.57C413.86 554.57 413.5 554.45 413.23 554.21C412.96 553.97 412.84 553.69 412.85 553.37V553.35H413.49C413.5 553.59 413.59 553.77 413.75 553.88C413.92 553.99 414.11 554.05 414.33 554.05C414.57 554.05 414.75 554 414.89 553.9C415.02 553.8 415.09 553.68 415.09 553.52C415.09 553.37 415.03 553.25 414.92 553.16H414.91Z" fill="#211E1F"/>
<path d="M418.53 553.16C418.42 553.06 418.21 552.98 417.9 552.91C417.46 552.81 417.12 552.68 416.9 552.51C416.68 552.34 416.56 552.11 416.56 551.82C416.56 551.53 416.68 551.26 416.94 551.05C417.19 550.84 417.52 550.73 417.93 550.73C418.34 550.73 418.69 550.84 418.94 551.06C419.19 551.28 419.31 551.55 419.3 551.87V551.89H418.66C418.66 551.73 418.59 551.58 418.46 551.45C418.33 551.32 418.15 551.26 417.93 551.26C417.69 551.26 417.52 551.31 417.4 551.42C417.28 551.53 417.23 551.65 417.23 551.8C417.23 551.95 417.28 552.06 417.38 552.14C417.48 552.22 417.69 552.3 418 552.37C418.46 552.47 418.8 552.61 419.03 552.78C419.26 552.95 419.37 553.18 419.37 553.47C419.37 553.8 419.24 554.06 418.98 554.27C418.72 554.47 418.37 554.57 417.95 554.57C417.48 554.57 417.12 554.45 416.85 554.21C416.58 553.97 416.46 553.69 416.47 553.37V553.35H417.11C417.12 553.59 417.21 553.77 417.37 553.88C417.54 553.99 417.73 554.05 417.95 554.05C418.19 554.05 418.37 554 418.51 553.9C418.65 553.8 418.71 553.68 418.71 553.52C418.71 553.37 418.65 553.25 418.54 553.16H418.53Z" fill="#211E1F"/>
<path d="M422.38 554.21C422.37 554.12 422.36 554.04 422.36 553.95C422.24 554.13 422.07 554.28 421.88 554.4C421.68 554.52 421.47 554.58 421.24 554.58C420.86 554.58 420.57 554.48 420.37 554.29C420.17 554.09 420.07 553.82 420.07 553.47C420.07 553.12 420.21 552.84 420.49 552.64C420.77 552.44 421.16 552.34 421.64 552.34H422.36V551.97C422.36 551.75 422.29 551.58 422.16 551.45C422.03 551.32 421.85 551.26 421.61 551.26C421.4 551.26 421.22 551.31 421.09 551.43C420.95 551.54 420.89 551.67 420.89 551.83H420.25V551.81C420.23 551.54 420.36 551.29 420.62 551.07C420.88 550.85 421.23 550.74 421.65 550.74C422.07 550.74 422.4 550.85 422.65 551.06C422.9 551.27 423.03 551.58 423.03 551.98V553.76C423.03 553.89 423.03 554.02 423.05 554.14C423.06 554.26 423.09 554.38 423.13 554.5H422.45C422.43 554.39 422.41 554.29 422.4 554.2L422.38 554.21ZM421.98 553.82C422.17 553.7 422.3 553.55 422.36 553.39V552.79H421.61C421.34 552.79 421.13 552.86 420.97 552.99C420.81 553.13 420.73 553.29 420.73 553.47C420.73 553.64 420.78 553.76 420.88 553.86C420.98 553.96 421.13 554.01 421.33 554.01C421.57 554.01 421.79 553.95 421.98 553.82Z" fill="#211E1F"/>
<path d="M424.63 551.35C424.75 551.15 424.9 551 425.09 550.89C425.28 550.78 425.48 550.73 425.72 550.73C426.11 550.73 426.42 550.85 426.64 551.08C426.86 551.31 426.96 551.67 426.96 552.16V554.5H426.29V552.18C426.29 551.85 426.23 551.62 426.1 551.49C425.97 551.35 425.78 551.29 425.52 551.29C425.33 551.29 425.16 551.34 425.01 551.43C424.86 551.52 424.74 551.65 424.66 551.81V554.51H423.99V550.81H424.59L424.64 551.36L424.63 551.35Z" fill="#211E1F"/>
<path d="M429.99 553.84C430.16 553.7 430.24 553.53 430.24 553.33H430.84V553.35C430.86 553.67 430.72 553.95 430.43 554.2C430.14 554.45 429.8 554.57 429.41 554.57C428.88 554.57 428.47 554.39 428.19 554.04C427.91 553.69 427.77 553.25 427.77 552.72V552.58C427.77 552.05 427.91 551.61 428.19 551.26C428.47 550.91 428.88 550.73 429.41 550.73C429.84 550.73 430.19 550.86 430.46 551.11C430.73 551.37 430.86 551.68 430.85 552.05V552.07H430.24C430.24 551.84 430.16 551.65 430 551.49C429.84 551.33 429.64 551.25 429.4 551.25C429.05 551.25 428.8 551.38 428.65 551.63C428.5 551.88 428.43 552.2 428.43 552.57V552.71C428.43 553.09 428.5 553.4 428.65 553.66C428.8 553.92 429.05 554.04 429.4 554.04C429.62 554.04 429.81 553.97 429.98 553.83L429.99 553.84Z" fill="#211E1F"/>
<path d="M431.9 554.06C431.6 553.72 431.45 553.27 431.45 552.72V552.57C431.45 552.04 431.6 551.6 431.91 551.25C432.22 550.9 432.59 550.73 433.01 550.73C433.5 550.73 433.88 550.88 434.13 551.18C434.38 551.48 434.51 551.88 434.51 552.38V552.8H432.14V552.82C432.14 553.18 432.23 553.47 432.4 553.7C432.57 553.93 432.81 554.04 433.12 554.04C433.34 554.04 433.54 554.01 433.71 553.94C433.88 553.87 434.03 553.78 434.15 553.67L434.41 554.11C434.28 554.24 434.11 554.35 433.89 554.43C433.68 554.52 433.42 554.56 433.11 554.56C432.6 554.56 432.2 554.39 431.9 554.05V554.06ZM432.44 551.55C432.28 551.74 432.18 551.98 432.15 552.27V552.29H433.84V552.2C433.84 551.93 433.77 551.71 433.63 551.54C433.49 551.36 433.28 551.27 433.01 551.27C432.79 551.27 432.6 551.36 432.44 551.56V551.55Z" fill="#211E1F"/>
<path d="M376.22 546.66C376 548.14 375.55 549.58 374.9 550.93C374.62 551.55 374.22 552.1 373.71 552.55C373.25 552.93 372.73 553.25 372.19 553.49C371.25 553.91 370.26 554.2 369.24 554.36C368.66 554.45 368.07 554.52 367.49 554.57C367.04 554.61 366.59 554.63 366.14 554.61C364.44 554.55 362.77 554.2 361.18 553.58C360.39 553.28 359.67 552.81 359.06 552.21C358.71 551.83 358.42 551.39 358.21 550.91C357.64 549.76 357.24 548.53 357.01 547.27C356.9 546.68 356.82 546.08 356.76 545.49C356.72 545.11 356.71 544.72 356.71 544.33C356.71 543.92 356.7 543.5 356.71 543.09C356.75 542.11 356.9 541.13 357.15 540.18C357.17 540.09 357.2 540.07 357.3 540.09C357.8 540.21 358.31 540.28 358.82 540.3C359.02 540.32 359.23 540.31 359.43 540.3C359.74 540.25 359.95 539.94 359.9 539.62C359.86 539.33 359.84 539.05 359.83 538.76C359.83 538.02 360 537.3 360.29 536.62C360.38 536.41 360.48 536.21 360.57 536.01C360.61 535.92 360.69 535.85 360.78 535.81C361.79 535.38 362.85 535.08 363.93 534.89C365.05 534.68 366.18 534.6 367.31 534.65C368.52 534.69 369.72 534.9 370.88 535.27C371.38 535.43 371.87 535.64 372.36 535.83C372.45 535.87 372.52 535.94 372.57 536.03C372.89 536.62 373.11 537.25 373.24 537.91C373.33 538.4 373.34 538.89 373.28 539.39C373.27 539.5 373.26 539.61 373.25 539.73C373.23 540.06 373.48 540.35 373.81 540.37H373.88C374.54 540.37 375.2 540.29 375.84 540.15C375.94 540.13 375.97 540.15 375.99 540.24C376.09 540.78 376.22 541.31 376.29 541.85C376.36 542.36 376.38 542.88 376.41 543.38C376.42 543.58 376.43 543.78 376.43 543.9C376.43 544.83 376.35 545.75 376.21 546.67L376.22 546.66Z" fill="#F37D92"/>
<path d="M379.85 535.13C379.51 534.43 379 533.83 378.37 533.39C377.21 532.52 375.81 532.05 374.37 532.06C374.07 532.06 373.77 532.1 373.47 532.16C372.39 532.4 371.5 532.84 371.33 533.94C370.95 533.88 370.57 533.81 370.2 533.77C369.64 533.7 369.08 533.63 368.52 533.59C367.96 533.55 367.39 533.51 366.82 533.5C365.99 533.48 365.15 533.51 364.32 533.6C363.91 533.65 363.5 533.7 363.09 533.76C362.68 533.83 362.29 533.92 361.89 534.01C361.87 533.97 361.85 533.92 361.84 533.88C361.74 533.24 361.31 532.7 360.72 532.46C359.7 532 358.57 531.89 357.48 532.12C357.06 532.2 356.64 532.33 356.24 532.5C355.22 532.89 354.33 533.57 353.67 534.45C352.98 535.33 352.8 536.51 353.19 537.57C353.51 538.43 354.09 539.16 354.85 539.64C355.18 539.87 355.54 540.05 355.9 540.26H355.91C355.74 541.02 355.64 541.79 355.58 542.57C355.55 543.03 355.54 543.78 355.55 544.25C355.55 544.7 355.56 545.15 355.61 545.59C355.68 546.26 355.77 546.92 355.89 547.58C356.14 548.99 356.59 550.36 357.23 551.65C357.47 552.18 357.79 552.67 358.18 553.1C358.86 553.77 359.66 554.29 360.55 554.63C362.34 555.33 364.24 555.72 366.15 555.78C366.47 555.8 366.78 555.79 367.1 555.78C367.91 555.72 368.73 555.63 369.53 555.5C370.66 555.33 371.77 555 372.82 554.54C373.43 554.27 374 553.92 374.52 553.49C375.08 552.99 375.54 552.37 375.85 551.68C376.58 550.18 377.08 548.58 377.33 546.92C377.48 545.9 377.56 544.87 377.58 543.83C377.58 543.7 377.58 543.47 377.56 543.25C377.52 542.68 377.5 542.1 377.42 541.54C377.37 541.16 377.29 540.79 377.22 540.41C377.22 540.33 377.26 540.29 377.36 540.26C377.39 540.25 377.42 540.23 377.45 540.22C378.32 539.84 379.07 539.21 379.6 538.41C380.27 537.46 380.37 536.2 379.86 535.15L379.85 535.13ZM355.18 538.37C354.8 538.06 354.5 537.64 354.32 537.18C354.06 536.49 354.18 535.7 354.65 535.14C355.19 534.45 355.9 533.92 356.71 533.62C357.26 533.39 357.85 533.26 358.45 533.23C359.04 533.19 359.63 533.3 360.18 533.53C360.26 533.57 360.33 533.61 360.41 533.66C360.64 533.81 360.74 534.09 360.66 534.35C360.55 534.73 360.39 535.1 360.18 535.44C359.81 536.1 359.53 536.81 359.35 537.55C359.23 538.08 359.19 538.63 359.24 539.18C359.26 539.35 359.27 539.52 359.28 539.71C358.93 539.68 358.6 539.67 358.26 539.63C357.14 539.53 356.06 539.1 355.18 538.38V538.37ZM376.21 546.66C375.99 548.14 375.54 549.58 374.89 550.93C374.61 551.55 374.21 552.1 373.7 552.55C373.24 552.93 372.72 553.25 372.18 553.49C371.24 553.91 370.25 554.2 369.23 554.35C368.65 554.44 368.06 554.51 367.48 554.56C367.03 554.61 366.58 554.62 366.13 554.6C364.43 554.54 362.76 554.19 361.17 553.57C360.38 553.27 359.66 552.8 359.05 552.2C358.7 551.82 358.41 551.38 358.2 550.9C357.63 549.75 357.23 548.52 357 547.26C356.89 546.67 356.81 546.07 356.75 545.48C356.71 545.1 356.7 544.71 356.7 544.32C356.7 543.91 356.69 543.49 356.71 543.08C356.75 542.1 356.9 541.12 357.15 540.17C357.18 540.08 357.21 540.06 357.3 540.08C357.8 540.2 358.31 540.27 358.82 540.29C359.02 540.31 359.23 540.31 359.43 540.29C359.74 540.24 359.95 539.93 359.9 539.61C359.86 539.32 359.84 539.04 359.83 538.75C359.83 538.01 360 537.29 360.29 536.61C360.38 536.4 360.48 536.2 360.57 536C360.61 535.91 360.69 535.84 360.78 535.8C361.79 535.37 362.85 535.07 363.93 534.88C365.05 534.67 366.18 534.59 367.31 534.64C368.52 534.68 369.72 534.89 370.88 535.26C371.38 535.42 371.87 535.63 372.36 535.82C372.45 535.86 372.52 535.93 372.57 536.02C372.89 536.61 373.11 537.24 373.24 537.9C373.33 538.39 373.34 538.88 373.28 539.38C373.27 539.49 373.26 539.6 373.25 539.72C373.23 540.05 373.48 540.34 373.81 540.36H373.88C374.54 540.36 375.2 540.28 375.84 540.14C375.94 540.12 375.97 540.14 375.99 540.23C376.09 540.76 376.22 541.3 376.29 541.84C376.36 542.35 376.38 542.87 376.41 543.38C376.42 543.58 376.43 543.78 376.43 543.9C376.43 544.83 376.35 545.75 376.21 546.67V546.66ZM375.04 539.64C374.65 539.69 374.27 539.71 373.88 539.74C373.9 539.41 373.92 539.12 373.93 538.81C373.95 537.97 373.77 537.14 373.43 536.38C373.2 535.86 372.94 535.36 372.7 534.85C372.63 534.69 372.57 534.52 372.53 534.35C372.45 534.08 372.57 533.78 372.82 533.65C373.12 533.47 373.45 533.36 373.78 533.31C374.04 533.26 374.3 533.24 374.55 533.24C375.99 533.26 377.36 533.88 378.34 534.96C378.64 535.27 378.84 535.66 378.94 536.08C379.4 538.23 376.67 539.42 375.04 539.62V539.64Z" fill="#211E1F"/>
<path d="M366.56 545.91C367.17 545.91 367.78 545.97 368.38 546.11C368.76 546.19 369.11 546.38 369.39 546.65C369.64 546.9 369.8 547.23 369.83 547.59C369.86 547.99 369.86 548.4 369.83 548.8C369.77 549.37 369.48 549.88 369.04 550.24C368.49 550.71 367.81 551.01 367.09 551.08C366.27 551.2 365.43 551.05 364.69 550.67C364.11 550.4 363.65 549.91 363.4 549.3C363.31 549.09 363.27 548.86 363.25 548.64C363.23 548.25 363.25 547.86 363.3 547.47C363.38 546.94 363.73 546.49 364.22 546.28C364.59 546.11 364.98 546.01 365.38 545.98C365.77 545.94 366.17 545.93 366.56 545.91ZM366.46 546.52C366.21 546.53 365.86 546.54 365.51 546.58C365.14 546.6 364.78 546.69 364.44 546.85C364.17 546.97 363.97 547.21 363.9 547.5C363.82 547.91 363.8 548.33 363.86 548.75C363.93 549.23 364.2 549.65 364.6 549.91C365.08 550.27 365.65 550.47 366.25 550.5C366.99 550.58 367.73 550.4 368.37 550C368.82 549.75 369.14 549.31 369.23 548.79C369.27 548.41 369.27 548.03 369.23 547.66C369.2 547.28 368.95 546.95 368.6 546.82C368.51 546.78 368.42 546.74 368.32 546.72C367.71 546.57 367.08 546.5 366.45 546.51L366.46 546.52Z" fill="#211E1F"/>
<path d="M374.22 545.93C374.23 546.25 374.14 546.57 373.95 546.82C373.75 547.13 373.35 547.21 373.05 547.01C372.98 546.96 372.93 546.91 372.88 546.84C372.47 546.28 372.5 545.51 372.95 544.99C373.19 544.73 373.59 544.72 373.85 544.97C373.87 544.99 373.89 545.02 373.91 545.04C374.12 545.29 374.23 545.61 374.22 545.93Z" fill="#211E1F"/>
<path d="M361.11 545.91C361.12 546.26 361 546.6 360.77 546.86C360.54 547.13 360.15 547.15 359.88 546.92C359.85 546.89 359.82 546.87 359.8 546.83C359.42 546.34 359.38 545.66 359.69 545.13C359.84 544.82 360.2 544.67 360.52 544.79C360.7 544.87 360.84 545.01 360.93 545.19C361.05 545.41 361.11 545.66 361.1 545.91H361.11Z" fill="#211E1F"/>
<path d="M363.99 552.68C363.26 552.66 362.61 552.22 362.31 551.55C362.21 551.37 362.26 551.14 362.41 551.01C362.52 550.89 362.71 550.89 362.83 551.01C362.87 551.05 362.9 551.09 362.91 551.15C363.12 551.64 363.59 551.95 364.11 551.95C364.19 551.95 364.26 551.93 364.34 551.93C364.49 551.91 364.63 552.02 364.65 552.18C364.65 552.2 364.65 552.23 364.65 552.25C364.65 552.44 364.52 552.61 364.33 552.65C364.21 552.68 364.1 552.69 363.98 552.69L363.99 552.68Z" fill="#211E1F"/>
<path d="M365.38 548.23C365.38 548.38 365.31 548.52 365.21 548.62C365.1 548.73 364.93 548.73 364.82 548.62C364.59 548.36 364.59 547.97 364.82 547.71C364.92 547.59 365.1 547.59 365.22 547.69C365.22 547.69 365.23 547.7 365.24 547.71C365.36 547.85 365.42 548.04 365.4 548.22L365.38 548.23Z" fill="#211E1F"/>
<path d="M368.48 548.2C368.45 548.32 368.4 548.45 368.34 548.56C368.27 548.71 368.09 548.77 367.94 548.69C367.89 548.66 367.84 548.62 367.81 548.56C367.66 548.31 367.67 548 367.83 547.77C367.92 547.63 368.1 547.6 368.23 547.69C368.26 547.71 368.28 547.73 368.3 547.76C368.4 547.89 368.45 548.04 368.46 548.21L368.48 548.2Z" fill="#211E1F"/>
<path d="M355.18 538.37C354.8 538.06 354.5 537.64 354.32 537.18C354.06 536.49 354.18 535.7 354.65 535.14C355.19 534.45 355.9 533.92 356.71 533.62C357.26 533.39 357.85 533.26 358.45 533.23C359.04 533.19 359.63 533.3 360.18 533.53C360.26 533.57 360.33 533.61 360.41 533.66C360.64 533.81 360.74 534.09 360.66 534.35C360.55 534.73 360.39 535.1 360.18 535.44C359.81 536.1 359.53 536.81 359.35 537.55C359.23 538.08 359.19 538.63 359.24 539.18C359.26 539.35 359.27 539.52 359.28 539.71C358.93 539.68 358.6 539.67 358.26 539.63C357.14 539.53 356.06 539.1 355.18 538.38V538.37Z" fill="#F37D92"/>
<path d="M375.04 539.65C374.65 539.7 374.27 539.72 373.88 539.75C373.9 539.42 373.92 539.13 373.93 538.82C373.94 537.98 373.77 537.15 373.43 536.39C373.2 535.87 372.94 535.37 372.7 534.86C372.63 534.7 372.57 534.53 372.53 534.36C372.45 534.09 372.57 533.79 372.82 533.66C373.12 533.48 373.44 533.37 373.78 533.32C374.04 533.27 374.29 533.25 374.55 533.25C375.99 533.27 377.36 533.89 378.34 534.97C378.64 535.28 378.84 535.67 378.94 536.09C379.4 538.24 376.68 539.43 375.04 539.63V539.65Z" fill="#F37D92"/>
</g>
</g>
</g>
<defs>
<clipPath id="clip0_336_7277">
<rect width="792" height="612" fill="white"/>
</clipPath>
<clipPath id="clip1_336_7277">
<rect width="766.6" height="559" fill="white" transform="translate(13 16)"/>
</clipPath>
</defs>
</svg>
