<svg width="792" height="612" viewBox="0 0 792 612" fill="none" xmlns="http://www.w3.org/2000/svg">
<rect width="792" height="612" fill="white"/>
<g clip-path="url(#clip0_336_7284)">
<path fill-rule="evenodd" clip-rule="evenodd" d="M67 68.6H727V538.6H67V68.6ZM60.87 93.78C58.52 91.95 57 89.09 57 85.88V84.89C57 81.68 58.51 78.82 60.87 76.99C58.52 75.16 57 72.3 57 69.09V58.6H67.5C70.75 58.6 73.64 60.15 75.46 62.55C77.29 60.15 80.17 58.6 83.42 58.6H84.42C87.67 58.6 90.56 60.15 92.38 62.55C94.21 60.15 97.09 58.6 100.34 58.6H101.34C104.59 58.6 107.48 60.15 109.3 62.55C111.13 60.15 114.02 58.6 117.26 58.6H118.26C121.51 58.6 124.4 60.15 126.22 62.55C128.05 60.15 130.94 58.6 134.18 58.6H135.18C138.43 58.6 141.32 60.15 143.14 62.55C144.97 60.15 147.85 58.6 151.1 58.6H152.1C155.35 58.6 158.24 60.15 160.06 62.55C161.89 60.15 164.77 58.6 168.02 58.6H169.02C172.27 58.6 175.16 60.15 176.98 62.55C178.81 60.15 181.69 58.6 184.94 58.6H185.93C189.18 58.6 192.07 60.15 193.89 62.55C195.72 60.15 198.6 58.6 201.85 58.6H202.85C206.1 58.6 208.99 60.15 210.81 62.55C212.64 60.15 215.52 58.6 218.77 58.6H219.76C223.01 58.6 225.9 60.15 227.72 62.55C229.55 60.15 232.43 58.6 235.68 58.6H236.67C239.92 58.6 242.81 60.15 244.63 62.55C246.46 60.15 249.34 58.6 252.59 58.6H253.58C256.83 58.6 259.72 60.15 261.54 62.55C263.37 60.15 266.25 58.6 269.5 58.6H270.5C273.75 58.6 276.64 60.15 278.46 62.55C280.29 60.15 283.17 58.6 286.42 58.6H287.42C290.67 58.6 293.56 60.15 295.38 62.55C297.21 60.15 300.09 58.6 303.34 58.6H304.34C307.59 58.6 310.48 60.15 312.3 62.55C314.13 60.15 317.01 58.6 320.26 58.6H321.26C324.51 58.6 327.4 60.15 329.22 62.55C331.05 60.15 333.93 58.6 337.18 58.6H338.18C341.43 58.6 344.32 60.15 346.14 62.55C347.97 60.15 350.85 58.6 354.1 58.6H355.09C358.34 58.6 361.23 60.15 363.05 62.55C364.88 60.15 367.76 58.6 371.01 58.6H372C375.25 58.6 378.14 60.15 379.96 62.55C381.79 60.15 384.67 58.6 387.92 58.6H388.92C392.17 58.6 395.06 60.15 396.88 62.55C398.71 60.15 401.59 58.6 404.84 58.6H405.84C409.09 58.6 411.98 60.15 413.8 62.55C415.63 60.15 418.51 58.6 421.76 58.6H422.75C426 58.6 428.89 60.15 430.71 62.55C432.54 60.15 435.42 58.6 438.67 58.6H439.66C442.91 58.6 445.8 60.15 447.62 62.55C449.45 60.15 452.33 58.6 455.58 58.6H456.58C459.83 58.6 462.72 60.15 464.54 62.55C466.37 60.15 469.26 58.6 472.5 58.6H473.5C476.75 58.6 479.64 60.15 481.46 62.55C483.29 60.15 486.17 58.6 489.42 58.6H490.42C493.67 58.6 496.56 60.15 498.38 62.55C500.21 60.15 503.09 58.6 506.34 58.6H507.34C510.59 58.6 513.48 60.15 515.3 62.55C517.13 60.15 520.01 58.6 523.26 58.6H524.26C527.51 58.6 530.4 60.15 532.22 62.55C534.05 60.15 536.93 58.6 540.18 58.6H541.18C544.43 58.6 547.32 60.15 549.14 62.55C550.97 60.15 553.85 58.6 557.1 58.6H558.1C561.35 58.6 564.24 60.15 566.06 62.55C567.89 60.15 570.77 58.6 574.02 58.6H575.01C578.26 58.6 581.15 60.15 582.97 62.55C584.8 60.15 587.68 58.6 590.93 58.6H591.92C595.17 58.6 598.06 60.15 599.88 62.55C601.71 60.15 604.59 58.6 607.84 58.6H608.83C612.08 58.6 614.97 60.15 616.79 62.55C618.62 60.15 621.5 58.6 624.75 58.6H625.74C628.99 58.6 631.88 60.15 633.7 62.55C635.53 60.15 638.41 58.6 641.66 58.6H642.65C645.9 58.6 648.79 60.15 650.61 62.55C652.44 60.15 655.32 58.6 658.57 58.6H659.56C662.81 58.6 665.7 60.15 667.52 62.55C669.35 60.15 672.23 58.6 675.48 58.6H676.48C679.73 58.6 682.62 60.15 684.44 62.55C686.27 60.15 689.15 58.6 692.4 58.6H693.4C696.65 58.6 699.54 60.15 701.36 62.55C703.19 60.15 706.08 58.6 709.32 58.6H710.32C713.57 58.6 716.46 60.15 718.28 62.55C720.11 60.15 722.99 58.6 726.24 58.6H736.74V69.09C736.74 72.3 735.23 75.16 732.87 76.99C735.22 78.82 736.74 81.68 736.74 84.89V85.88C736.74 89.09 735.23 91.95 732.87 93.78C735.22 95.61 736.74 98.47 736.74 101.68V102.67C736.74 105.88 735.23 108.74 732.87 110.57C735.22 112.4 736.74 115.26 736.74 118.47V119.46C736.74 122.67 735.23 125.53 732.87 127.36C735.22 129.19 736.74 132.05 736.74 135.26V136.25C736.74 139.46 735.23 142.32 732.87 144.15C735.22 145.98 736.74 148.84 736.74 152.05V153.04C736.74 156.25 735.23 159.11 732.87 160.94C735.22 162.77 736.74 165.63 736.74 168.84V169.83C736.74 173.04 735.23 175.9 732.87 177.73C735.22 179.56 736.74 182.42 736.74 185.63V186.62C736.74 189.83 735.23 192.69 732.87 194.52C735.22 196.35 736.74 199.21 736.74 202.42V203.41C736.74 206.62 735.23 209.48 732.87 211.31C735.22 213.14 736.74 216 736.74 219.21V220.2C736.74 223.41 735.23 226.27 732.87 228.1C735.22 229.93 736.74 232.79 736.74 236V236.99C736.74 240.2 735.23 243.06 732.87 244.89C735.22 246.72 736.74 249.58 736.74 252.79V253.78C736.74 256.99 735.23 259.85 732.87 261.68C735.22 263.51 736.74 266.37 736.74 269.58V270.57C736.74 273.78 735.23 276.64 732.87 278.47C735.22 280.3 736.74 283.16 736.74 286.37V287.36C736.74 290.57 735.23 293.43 732.87 295.26C735.22 297.09 736.74 299.95 736.74 303.16V304.15C736.74 307.36 735.23 310.22 732.87 312.05C735.22 313.88 736.74 316.74 736.74 319.95V320.94C736.74 324.15 735.23 327.01 732.87 328.84C735.22 330.67 736.74 333.53 736.74 336.74V337.73C736.74 340.94 735.23 343.8 732.87 345.63C735.22 347.46 736.74 350.32 736.74 353.53V354.52C736.74 357.73 735.23 360.59 732.87 362.42C735.22 364.25 736.74 367.11 736.74 370.32V371.31C736.74 374.52 735.23 377.38 732.87 379.21C735.22 381.04 736.74 383.9 736.74 387.11V388.1C736.74 391.31 735.23 394.17 732.87 396C735.22 397.83 736.74 400.69 736.74 403.9V404.89C736.74 408.1 735.23 410.96 732.87 412.79C735.22 414.62 736.74 417.48 736.74 420.69V421.68C736.74 424.89 735.23 427.75 732.87 429.58C735.22 431.41 736.74 434.27 736.74 437.48V438.47C736.74 441.68 735.23 444.54 732.87 446.37C735.22 448.2 736.74 451.06 736.74 454.27V455.26C736.74 458.47 735.23 461.33 732.87 463.16C735.22 464.99 736.74 467.85 736.74 471.06V472.05C736.74 475.26 735.23 478.12 732.87 479.95C735.22 481.78 736.74 484.64 736.74 487.85V488.84C736.74 492.05 735.23 494.91 732.87 496.74C735.22 498.57 736.74 501.43 736.74 504.64V505.63C736.74 508.84 735.23 511.7 732.87 513.53C735.22 515.36 736.74 518.22 736.74 521.43V522.42C736.74 525.63 735.23 528.49 732.87 530.32C735.22 532.15 736.74 535.01 736.74 538.22V548.71H726.24C722.99 548.71 720.1 547.16 718.28 544.76C716.45 547.16 713.57 548.71 710.32 548.71H709.33C706.08 548.71 703.19 547.16 701.37 544.76C699.54 547.16 696.66 548.71 693.41 548.71H692.41C689.16 548.71 686.27 547.16 684.45 544.76C682.62 547.16 679.74 548.71 676.49 548.71H675.49C672.24 548.71 669.35 547.16 667.53 544.76C665.7 547.16 662.81 548.71 659.57 548.71H658.57C655.32 548.71 652.43 547.16 650.61 544.76C648.78 547.16 645.9 548.71 642.65 548.71H641.65C638.4 548.71 635.51 547.16 633.69 544.76C631.86 547.16 628.98 548.71 625.73 548.71H624.73C621.48 548.71 618.59 547.16 616.77 544.76C614.94 547.16 612.06 548.71 608.81 548.71H607.82C604.57 548.71 601.68 547.16 599.86 544.76C598.03 547.16 595.15 548.71 591.9 548.71H590.91C587.66 548.71 584.77 547.16 582.95 544.76C581.12 547.16 578.24 548.71 574.99 548.71H574C570.75 548.71 567.86 547.16 566.04 544.76C564.21 547.16 561.33 548.71 558.08 548.71H557.08C553.83 548.71 550.94 547.16 549.12 544.76C547.29 547.16 544.41 548.71 541.16 548.71H540.17C536.92 548.71 534.03 547.16 532.21 544.76C530.38 547.16 527.5 548.71 524.25 548.71H523.25C520 548.71 517.11 547.16 515.29 544.76C513.46 547.16 510.58 548.71 507.33 548.71H506.33C503.08 548.71 500.19 547.16 498.37 544.76C496.54 547.16 493.66 548.71 490.41 548.71H489.41C486.16 548.71 483.27 547.16 481.45 544.76C479.62 547.16 476.74 548.71 473.49 548.71H472.49C469.24 548.71 466.35 547.16 464.53 544.76C462.7 547.16 459.82 548.71 456.57 548.71H455.57C452.32 548.71 449.43 547.16 447.61 544.76C445.78 547.16 442.9 548.71 439.65 548.71H438.66C435.41 548.71 432.52 547.16 430.7 544.76C428.87 547.16 425.99 548.71 422.74 548.71H421.75C418.5 548.71 415.61 547.16 413.79 544.76C411.96 547.16 409.08 548.71 405.83 548.71H404.83C401.58 548.71 398.69 547.16 396.87 544.76C395.04 547.16 392.16 548.71 388.91 548.71H387.91C384.66 548.71 381.77 547.16 379.95 544.76C378.12 547.16 375.24 548.71 371.99 548.71H371C367.75 548.71 364.86 547.16 363.04 544.76C361.21 547.16 358.33 548.71 355.08 548.71H354.09C350.84 548.71 347.95 547.16 346.13 544.76C344.3 547.16 341.42 548.71 338.17 548.71H337.17C333.92 548.71 331.03 547.16 329.21 544.76C327.38 547.16 324.49 548.71 321.25 548.71H320.25C317 548.71 314.11 547.16 312.29 544.76C310.46 547.16 307.58 548.71 304.33 548.71H303.33C300.08 548.71 297.19 547.16 295.37 544.76C293.54 547.16 290.66 548.71 287.41 548.71H286.41C283.16 548.71 280.27 547.16 278.45 544.76C276.62 547.16 273.74 548.71 270.49 548.71H269.49C266.24 548.71 263.35 547.16 261.53 544.76C259.7 547.16 256.82 548.71 253.57 548.71H252.57C249.32 548.71 246.43 547.16 244.61 544.76C242.78 547.16 239.9 548.71 236.65 548.71H235.66C232.41 548.71 229.52 547.16 227.7 544.76C225.87 547.16 222.99 548.71 219.74 548.71H218.75C215.5 548.71 212.61 547.16 210.79 544.76C208.96 547.16 206.08 548.71 202.83 548.71H201.83C198.58 548.71 195.69 547.16 193.87 544.76C192.04 547.16 189.16 548.71 185.91 548.71H184.92C181.67 548.71 178.78 547.16 176.96 544.76C175.13 547.16 172.25 548.71 169 548.71H168.01C164.76 548.71 161.87 547.16 160.05 544.76C158.22 547.16 155.34 548.71 152.09 548.71H151.09C147.84 548.71 144.95 547.16 143.13 544.76C141.3 547.16 138.42 548.71 135.17 548.71H134.18C130.93 548.71 128.04 547.16 126.22 544.76C124.39 547.16 121.51 548.71 118.26 548.71H117.26C114.01 548.71 111.12 547.16 109.3 544.76C107.47 547.16 104.59 548.71 101.34 548.71H100.34C97.09 548.71 94.2 547.16 92.38 544.76C90.55 547.16 87.67 548.71 84.42 548.71H83.42C80.17 548.71 77.28 547.16 75.46 544.76C73.63 547.16 70.75 548.71 67.5 548.71H57V538.22C57 535.01 58.51 532.15 60.87 530.32C58.52 528.49 57 525.63 57 522.42V521.43C57 518.22 58.51 515.36 60.87 513.53C58.52 511.7 57 508.84 57 505.63V504.64C57 501.43 58.51 498.57 60.87 496.74C58.52 494.91 57 492.05 57 488.84V487.85C57 484.64 58.51 481.78 60.87 479.95C58.52 478.12 57 475.26 57 472.05V471.06C57 467.85 58.51 464.99 60.87 463.16C58.52 461.33 57 458.47 57 455.26V454.27C57 451.06 58.51 448.2 60.87 446.37C58.52 444.54 57 441.68 57 438.47V437.48C57 434.27 58.51 431.41 60.87 429.58C58.52 427.75 57 424.89 57 421.68V420.69C57 417.48 58.51 414.62 60.87 412.79C58.52 410.96 57 408.1 57 404.89V403.9C57 400.69 58.51 397.83 60.87 396C58.52 394.17 57 391.31 57 388.1V387.11C57 383.9 58.51 381.04 60.87 379.21C58.52 377.38 57 374.52 57 371.31V370.32C57 367.11 58.51 364.25 60.87 362.42C58.52 360.59 57 357.73 57 354.52V353.53C57 350.32 58.51 347.46 60.87 345.63C58.52 343.8 57 340.94 57 337.73V336.74C57 333.53 58.51 330.67 60.87 328.84C58.52 327.01 57 324.15 57 320.94V319.95C57 316.74 58.51 313.88 60.87 312.05C58.52 310.22 57 307.36 57 304.15V303.16C57 299.95 58.51 297.09 60.87 295.26C58.52 293.43 57 290.57 57 287.36V286.37C57 283.16 58.51 280.3 60.87 278.47C58.52 276.64 57 273.78 57 270.57V269.58C57 266.37 58.51 263.51 60.87 261.68C58.52 259.85 57 256.99 57 253.78V252.79C57 249.58 58.51 246.72 60.87 244.89C58.52 243.06 57 240.2 57 236.99V236C57 232.79 58.51 229.93 60.87 228.1C58.52 226.27 57 223.41 57 220.2V219.21C57 216 58.51 213.14 60.87 211.31C58.52 209.48 57 206.62 57 203.41V202.42C57 199.21 58.51 196.35 60.87 194.52C58.52 192.69 57 189.83 57 186.62V185.63C57 182.42 58.51 179.56 60.87 177.73C58.52 175.9 57 173.04 57 169.83V168.84C57 165.63 58.51 162.77 60.87 160.94C58.52 159.11 57 156.25 57 153.04V152.05C57 148.84 58.51 145.98 60.87 144.15C58.52 142.32 57 139.46 57 136.25V135.26C57 132.05 58.51 129.19 60.87 127.36C58.52 125.53 57 122.67 57 119.46V118.47C57 115.26 58.51 112.4 60.87 110.57C58.52 108.74 57 105.88 57 102.67V101.68C57 98.47 58.51 95.61 60.87 93.78Z" fill="#F37778"/>
<path d="M79 110.6C97.7777 110.6 113 95.3777 113 76.6C113 57.8223 97.7777 42.6 79 42.6C60.2223 42.6 45 57.8223 45 76.6C45 95.3777 60.2223 110.6 79 110.6Z" fill="#F37778"/>
<path d="M714 110.6C732.778 110.6 748 95.3777 748 76.6C748 57.8223 732.778 42.6 714 42.6C695.222 42.6 680 57.8223 680 76.6C680 95.3777 695.222 110.6 714 110.6Z" fill="#F37778"/>
<path d="M714 557.6C732.778 557.6 748 542.378 748 523.6C748 504.822 732.778 489.6 714 489.6C695.222 489.6 680 504.822 680 523.6C680 542.378 695.222 557.6 714 557.6Z" fill="#F37778"/>
<path d="M79 557.6C97.7777 557.6 113 542.378 113 523.6C113 504.822 97.7777 489.6 79 489.6C60.2223 489.6 45 504.822 45 523.6C45 542.378 60.2223 557.6 79 557.6Z" fill="#F37778"/>
<path d="M437 515.6H358C348.059 515.6 340 523.659 340 533.6V550.6C340 560.541 348.059 568.6 358 568.6H437C446.941 568.6 455 560.541 455 550.6V533.6C455 523.659 446.941 515.6 437 515.6Z" fill="white" stroke="#F37778" stroke-width="10"/>
<path d="M135 521.1H319" stroke="#C9C9C9"/>
<path d="M476 521.1H660" stroke="#C9C9C9"/>
<path opacity="0.49" d="M400.4 57.02C402 56.47 403.72 57.31 404.35 58.91L404.42 59.11L406.93 67.29C407.49 69.02 406.58 70.89 404.92 71.47C403.32 72.02 401.6 71.18 400.97 69.58L400.9 69.38L398.39 61.2C397.83 59.47 398.74 57.6 400.4 57.02Z" fill="white"/>
<path d="M363.46 53.3199L370.46 60.3199" stroke="white" stroke-width="6" stroke-linecap="round" stroke-linejoin="round"/>
<path d="M431.46 53.3199L424.46 60.3199" stroke="white" stroke-width="6" stroke-linecap="round" stroke-linejoin="round"/>
<mask id="mask0_336_7284" style="mask-type:luminance" maskUnits="userSpaceOnUse" x="211" y="18" width="370" height="159">
<path d="M580.77 18H211.96V176.81H580.77V18Z" fill="white"/>
</mask>
<g mask="url(#mask0_336_7284)">
<path d="M347.05 149.65C347.05 149.65 295.73 151.51 243.41 159.23C247.41 133.23 258.43 123.16 258.43 123.16C258.43 123.16 238.39 115.97 228.39 109.31C253.25 88.75 296.7 77.65 343.7 78.84C348.37 108.84 347.03 149.65 347.03 149.65H347.05Z" fill="#41BEAC" stroke="#F37778" stroke-width="15" stroke-miterlimit="10"/>
<path d="M446.68 149.65C446.68 149.65 498 151.51 550.32 159.23C546.32 133.23 535.3 123.16 535.3 123.16C535.3 123.16 555.34 115.97 565.34 109.31C531.75 86.375 497.03 77.65 450.03 78.84C445.36 108.84 446.7 149.65 446.7 149.65H446.68Z" fill="#41BEAC" stroke="#F37778" stroke-width="15" stroke-miterlimit="10"/>
<path d="M395.95 166.82C434.28 166.82 465.36 135.74 465.36 97.41C465.36 59.08 434.28 28 395.95 28C357.62 28 326.54 59.08 326.54 97.41C326.54 135.74 357.62 166.82 395.95 166.82Z" fill="white" stroke="#F37778" stroke-width="20" stroke-miterlimit="10"/>
<path d="M347.05 149.65C347.05 149.65 295.73 151.51 243.41 159.23C247.41 133.23 258.43 123.16 258.43 123.16C258.43 123.16 238.39 115.97 228.39 109.31C257.25 87.25 296.7 77.65 343.7 78.84C348.37 108.84 347.03 149.65 347.03 149.65H347.05Z" fill="#41BEAC" stroke="white" stroke-width="5" stroke-miterlimit="10"/>
<path d="M446.68 149.65C446.68 149.65 498 151.51 550.32 159.23C546.32 133.23 535.3 123.16 535.3 123.16C535.3 123.16 555.34 115.97 565.34 109.31C530.375 85.75 497.03 77.65 450.03 78.84C445.36 108.84 446.7 149.65 446.7 149.65H446.68Z" fill="#41BEAC" stroke="white" stroke-width="5" stroke-miterlimit="10"/>
<path d="M395.95 169.32C435.66 169.32 467.86 137.12 467.86 97.41C467.86 57.7 435.66 25.5 395.95 25.5C356.24 25.5 324.04 57.7 324.04 97.41C324.04 137.12 356.24 169.32 395.95 169.32Z" fill="#41BEAC"/>
<path d="M395.95 28C434.28 28 465.36 59.07 465.36 97.41C465.36 135.75 434.29 166.82 395.95 166.82C357.61 166.82 326.54 135.75 326.54 97.41C326.54 59.07 357.62 28 395.95 28ZM395.95 23C354.92 23 321.54 56.38 321.54 97.41C321.54 138.44 354.92 171.82 395.95 171.82C436.98 171.82 470.36 138.44 470.36 97.41C470.36 56.38 436.97 23 395.95 23Z" fill="white"/>
<path fill-rule="evenodd" clip-rule="evenodd" d="M429.43 147.98C428.46 147.98 427.53 147.69 426.73 147.14L395.9 126.15L365.05 147.15C364.26 147.69 363.33 147.98 362.38 147.98C361.34 147.98 360.34 147.64 359.49 147C357.89 145.85 357.19 143.75 357.78 141.8L368.65 106.32L338.71 83.09C337.09 81.81 336.45 79.67 337.11 77.74C337.76 75.78 339.61 74.38 341.6 74.36H379.05L391.39 38.23C392.04 36.3 393.85 35.01 395.9 35.01C397.95 35.01 399.76 36.31 400.42 38.24L412.74 74.36H450.12C452.21 74.41 454.02 75.77 454.68 77.75C455.33 79.68 454.69 81.82 453.1 83.07L423.14 106.32L434 141.8C434.6 143.73 433.89 145.84 432.25 147.05C431.45 147.65 430.47 147.98 429.43 147.98Z" fill="#F0C86A"/>
<path d="M395.89 37.51C396.86 37.51 397.73 38.14 398.05 39.06L410.94 76.86H450.11C451.13 76.88 451.99 77.62 452.3 78.54C452.61 79.48 452.31 80.51 451.55 81.11L420.24 105.4L431.61 142.53C431.89 143.45 431.57 144.45 430.77 145.03C430.38 145.33 429.91 145.48 429.43 145.48C428.98 145.48 428.53 145.35 428.14 145.08L395.9 123.13L363.65 145.08C363.27 145.34 362.83 145.48 362.39 145.48C361.91 145.48 361.42 145.32 360.99 145C360.22 144.45 359.9 143.45 360.18 142.53L371.55 105.41L340.25 81.13C339.47 80.52 339.16 79.49 339.48 78.56C339.78 77.65 340.67 76.89 341.63 76.88H380.85L393.77 39.06C394.08 38.14 394.94 37.53 395.91 37.53M395.91 32.53C392.79 32.53 390.02 34.51 389.03 37.47L377.28 71.88H341.64C338.55 71.91 335.74 74.01 334.75 76.98C333.76 79.88 334.73 83.14 337.17 85.06L365.77 107.25L355.41 141.07C354.51 144.05 355.57 147.24 358.05 149.04C359.34 149.99 360.84 150.49 362.41 150.49C363.87 150.49 365.28 150.05 366.5 149.22L395.93 129.19L425.36 149.23C426.57 150.06 427.99 150.5 429.47 150.5C430.95 150.5 432.55 149.99 433.79 149.07C436.28 147.23 437.34 144.02 436.43 141.08L426.08 107.27L454.67 85.09C457.11 83.17 458.08 79.92 457.1 76.98C456.11 74 453.37 71.96 450.29 71.89H414.58L402.84 37.48C401.82 34.52 399.05 32.55 395.95 32.55L395.91 32.53Z" fill="white"/>
<path d="M410.95 76.86L398.06 39.06C397.74 38.14 396.87 37.51 395.9 37.51C394.93 37.51 394.07 38.12 393.76 39.04L380.84 76.86H346.22C348.73 78.5 361.38 87.35 372.93 94.05C373.61 94.45 375.98 95.7 376.45 97.26C376.96 98.92 367.35 121.47 366.2 124.88C364.4 130.21 367.2 131.38 374.02 127.16C379.26 123.92 396.5 111.42 396.5 111.42C396.5 111.42 426.73 134.45 429.64 136.07L420.25 105.4L420.65 105.09L417.79 95.47L443.54 76.86H410.95Z" fill="#FFD570"/>
<path opacity="0.49" d="M399.76 60.42C401.36 59.87 403.08 60.71 403.71 62.31L403.78 62.51L406.29 70.69C406.85 72.42 405.94 74.29 404.28 74.87C402.68 75.42 400.96 74.58 400.33 72.98L400.26 72.78L397.75 64.6C397.19 62.87 398.1 61 399.76 60.42Z" fill="white"/>
<path d="M362.82 55.84L369.82 62.84" stroke="white" stroke-width="6" stroke-linecap="round" stroke-linejoin="round"/>
<path d="M430.82 55.84L423.82 62.84" stroke="white" stroke-width="6" stroke-linecap="round" stroke-linejoin="round"/>
<path d="M437.82 110.49L446.95 114.31" stroke="white" stroke-width="6" stroke-linecap="round" stroke-linejoin="round"/>
<path d="M353.95 109.49L344.82 113.31" stroke="white" stroke-width="6" stroke-linecap="round" stroke-linejoin="round"/>
<path d="M396.77 138.84V148.74" stroke="white" stroke-width="6" stroke-linecap="round" stroke-linejoin="round"/>
<path d="M278.07 118.5C287.451 116.077 297.953 114.69 306.96 114" stroke="white" stroke-width="5" stroke-linecap="round" stroke-linejoin="round"/>
<path d="M516.47 118.125C506.954 115.427 495.707 113.885 484.46 113.5" stroke="white" stroke-width="5" stroke-linecap="round" stroke-linejoin="round"/>
</g>
<path d="M217.6 168.47L216.72 166.12C216.7 166.06 216.66 166.01 216.62 165.96C216.58 165.91 216.52 165.88 216.46 165.86L214.11 164.99C214.02 164.96 213.95 164.9 213.9 164.83C213.85 164.75 213.82 164.66 213.82 164.57C213.82 164.48 213.85 164.39 213.9 164.31C213.95 164.24 214.03 164.18 214.11 164.15L216.45 163.28C216.51 163.26 216.57 163.22 216.61 163.18C216.66 163.13 216.69 163.08 216.71 163.02L217.58 160.67C217.61 160.58 217.67 160.51 217.74 160.46C217.81 160.41 217.91 160.38 218 160.38C218.09 160.38 218.18 160.41 218.26 160.46C218.34 160.51 218.39 160.59 218.43 160.67L219.3 163.02C219.32 163.08 219.36 163.14 219.4 163.18C219.45 163.23 219.5 163.26 219.56 163.28L221.91 164.15C222 164.18 222.07 164.24 222.12 164.32C222.17 164.39 222.2 164.48 222.2 164.58C222.2 164.68 222.17 164.76 222.12 164.84C222.07 164.92 221.99 164.97 221.91 165L219.56 165.88C219.5 165.9 219.45 165.94 219.4 165.98C219.35 166.02 219.32 166.08 219.3 166.14L218.43 168.49C218.4 168.57 218.34 168.65 218.27 168.7C218.2 168.75 218.11 168.78 218.02 168.78C217.93 168.78 217.84 168.75 217.77 168.7C217.69 168.65 217.64 168.58 217.6 168.49V168.47Z" fill="#FFD670"/>
<path d="M183.12 91.6699L182.24 89.3199C182.22 89.2599 182.18 89.2 182.14 89.16C182.09 89.11 182.04 89.0799 181.98 89.0599L179.63 88.1899C179.54 88.1599 179.47 88.0999 179.42 88.0299C179.37 87.9499 179.34 87.8599 179.34 87.7699C179.34 87.6799 179.37 87.5899 179.42 87.5099C179.47 87.4299 179.55 87.3799 179.63 87.3399L181.98 86.4699C182.04 86.4499 182.09 86.4099 182.14 86.3699C182.19 86.3199 182.22 86.2699 182.25 86.2099L183.12 83.8599C183.15 83.7699 183.21 83.6999 183.28 83.6499C183.35 83.5999 183.44 83.5699 183.54 83.5699C183.64 83.5699 183.72 83.5999 183.8 83.6499C183.87 83.6999 183.93 83.7799 183.97 83.8599L184.84 86.2099C184.86 86.2699 184.9 86.3299 184.94 86.3699C184.98 86.4199 185.04 86.4499 185.1 86.4699L187.45 87.3399C187.54 87.3699 187.61 87.4299 187.66 87.5099C187.71 87.5899 187.74 87.6799 187.74 87.7699C187.74 87.8599 187.71 87.9499 187.66 88.0299C187.61 88.1099 187.53 88.1599 187.45 88.1999L185.11 89.0699C185.05 89.0899 184.99 89.1299 184.95 89.1699C184.9 89.2199 184.87 89.2699 184.85 89.3299L183.98 91.6799C183.95 91.7699 183.89 91.8399 183.82 91.8899C183.75 91.9399 183.66 91.9699 183.56 91.9699C183.46 91.9699 183.38 91.9399 183.31 91.8899C183.23 91.8399 183.18 91.7599 183.14 91.6799L183.12 91.6699Z" fill="#E7B521"/>
<path d="M281.85 178.93L280.97 176.58C280.95 176.52 280.91 176.46 280.87 176.42C280.83 176.38 280.77 176.34 280.71 176.32L278.36 175.45C278.27 175.42 278.2 175.36 278.15 175.28C278.1 175.2 278.07 175.12 278.07 175.02C278.07 174.92 278.1 174.84 278.15 174.76C278.2 174.68 278.28 174.63 278.36 174.6L280.71 173.72C280.77 173.7 280.83 173.66 280.87 173.62C280.91 173.58 280.95 173.52 280.97 173.46L281.84 171.11C281.87 171.02 281.93 170.95 282 170.9C282.08 170.85 282.17 170.82 282.26 170.82C282.35 170.82 282.44 170.85 282.52 170.9C282.6 170.95 282.65 171.03 282.69 171.11L283.57 173.46C283.59 173.52 283.63 173.57 283.67 173.62C283.72 173.66 283.77 173.7 283.83 173.72L286.18 174.59C286.27 174.62 286.34 174.68 286.39 174.75C286.44 174.83 286.47 174.92 286.47 175.01C286.47 175.1 286.44 175.19 286.39 175.27C286.34 175.35 286.26 175.4 286.18 175.44L283.84 176.32C283.78 176.34 283.72 176.38 283.68 176.42C283.64 176.46 283.6 176.52 283.58 176.58L282.71 178.93C282.68 179.02 282.62 179.09 282.55 179.14C282.48 179.19 282.39 179.22 282.29 179.22C282.19 179.22 282.11 179.19 282.03 179.14C281.96 179.09 281.9 179.02 281.87 178.93H281.85Z" fill="#E7B521"/>
<path d="M511.85 173.93L510.97 171.58C510.95 171.52 510.91 171.46 510.87 171.42C510.82 171.37 510.77 171.34 510.71 171.32L508.36 170.45C508.27 170.42 508.2 170.36 508.15 170.28C508.1 170.2 508.07 170.12 508.07 170.02C508.07 169.92 508.1 169.84 508.15 169.76C508.2 169.68 508.28 169.63 508.36 169.6L510.71 168.72C510.77 168.7 510.82 168.66 510.87 168.62C510.91 168.58 510.95 168.52 510.97 168.46L511.84 166.11C511.87 166.02 511.93 165.95 512.01 165.9C512.09 165.85 512.18 165.82 512.27 165.82C512.36 165.82 512.45 165.85 512.53 165.9C512.61 165.95 512.66 166.03 512.69 166.11L513.57 168.46C513.59 168.52 513.63 168.57 513.67 168.62C513.72 168.66 513.77 168.7 513.83 168.72L516.18 169.59C516.27 169.62 516.34 169.68 516.39 169.75C516.44 169.83 516.47 169.92 516.47 170.01C516.47 170.1 516.44 170.19 516.39 170.27C516.34 170.35 516.26 170.4 516.18 170.44L513.84 171.32C513.78 171.34 513.72 171.38 513.68 171.42C513.64 171.46 513.6 171.52 513.57 171.58L512.7 173.93C512.67 174.02 512.61 174.09 512.53 174.14C512.45 174.19 512.37 174.22 512.27 174.22C512.17 174.22 512.09 174.19 512.02 174.14C511.94 174.09 511.89 174.02 511.85 173.93Z" fill="#E7B521"/>
<path d="M221.47 144.24L219.45 138.85C219.4 138.71 219.32 138.58 219.21 138.48C219.11 138.38 218.98 138.29 218.84 138.24L213.45 136.24C213.25 136.17 213.07 136.04 212.94 135.86C212.81 135.68 212.75 135.47 212.75 135.26C212.75 135.05 212.82 134.83 212.94 134.66C213.07 134.49 213.24 134.35 213.45 134.28L218.84 132.27C218.98 132.22 219.1 132.14 219.21 132.04C219.31 131.94 219.4 131.81 219.45 131.68L221.46 126.28C221.53 126.08 221.66 125.9 221.84 125.77C222.02 125.65 222.23 125.58 222.44 125.58C222.65 125.58 222.87 125.65 223.04 125.77C223.22 125.9 223.35 126.07 223.42 126.28L225.43 131.67C225.48 131.81 225.56 131.93 225.66 132.04C225.76 132.14 225.89 132.22 226.02 132.28L231.41 134.29C231.61 134.36 231.79 134.49 231.92 134.67C232.05 134.85 232.11 135.06 232.11 135.27C232.11 135.48 232.04 135.7 231.92 135.87C231.8 136.05 231.62 136.18 231.41 136.25L226.02 138.25C225.88 138.3 225.75 138.38 225.65 138.49C225.55 138.6 225.46 138.72 225.41 138.86L223.41 144.25C223.34 144.45 223.2 144.62 223.03 144.74C222.86 144.86 222.65 144.93 222.44 144.93C222.23 144.93 222.02 144.86 221.85 144.74C221.68 144.62 221.55 144.45 221.47 144.25V144.24Z" fill="#FFD670"/>
<path d="M157.64 104.65L155.63 99.26C155.58 99.12 155.5 98.99 155.39 98.89C155.28 98.78 155.16 98.7 155.02 98.65L149.63 96.64C149.43 96.57 149.26 96.43 149.14 96.26C149.02 96.09 148.96 95.88 148.96 95.67C148.96 95.46 149.02 95.25 149.14 95.08C149.26 94.91 149.43 94.77 149.63 94.7L155.02 92.69C155.16 92.64 155.29 92.56 155.39 92.45C155.49 92.34 155.58 92.22 155.63 92.08L157.63 86.67C157.7 86.47 157.84 86.3 158.01 86.18C158.18 86.06 158.39 85.99 158.6 85.99C158.81 85.99 159.02 86.05 159.19 86.18C159.36 86.3 159.5 86.47 159.57 86.67L161.58 92.06C161.63 92.2 161.71 92.33 161.82 92.43C161.92 92.54 162.05 92.62 162.19 92.67L167.59 94.67C167.79 94.74 167.97 94.87 168.1 95.05C168.22 95.23 168.29 95.44 168.29 95.65C168.29 95.86 168.22 96.08 168.1 96.25C167.97 96.43 167.8 96.56 167.59 96.63L162.2 98.64C162.06 98.69 161.93 98.77 161.83 98.88C161.73 98.99 161.65 99.11 161.59 99.25L159.58 104.64C159.51 104.84 159.37 105.01 159.2 105.13C159.03 105.25 158.82 105.32 158.61 105.31C158.4 105.31 158.19 105.24 158.02 105.12C157.85 105 157.71 104.83 157.64 104.63V104.65Z" fill="#E7B521"/>
<path d="M197.65 170.44L195.64 165.05C195.59 164.91 195.51 164.78 195.4 164.68C195.29 164.57 195.17 164.49 195.03 164.44L189.64 162.44C189.44 162.37 189.27 162.23 189.15 162.06C189.03 161.89 188.96 161.68 188.96 161.47C188.96 161.26 189.03 161.05 189.15 160.88C189.27 160.71 189.44 160.57 189.64 160.5L195.03 158.5C195.17 158.45 195.3 158.37 195.4 158.26C195.51 158.16 195.59 158.03 195.64 157.89L197.64 152.49C197.71 152.29 197.85 152.12 198.02 152C198.19 151.88 198.4 151.82 198.61 151.82C198.82 151.82 199.03 151.88 199.2 152C199.37 152.12 199.51 152.29 199.58 152.49L201.59 157.88C201.64 158.02 201.72 158.15 201.83 158.25C201.94 158.36 202.06 158.44 202.2 158.49L207.59 160.5C207.79 160.57 207.96 160.71 208.08 160.88C208.2 161.05 208.27 161.26 208.27 161.47C208.27 161.68 208.2 161.89 208.08 162.06C207.96 162.23 207.79 162.36 207.59 162.44L202.2 164.45C202.06 164.5 201.93 164.58 201.83 164.69C201.72 164.79 201.64 164.92 201.59 165.06L199.58 170.45C199.51 170.65 199.37 170.82 199.2 170.94C199.03 171.06 198.82 171.12 198.61 171.12C198.4 171.12 198.19 171.05 198.02 170.93C197.85 170.81 197.72 170.64 197.64 170.44H197.65Z" fill="#E7B521"/>
<path d="M312.77 180.68L310.76 175.29C310.71 175.15 310.63 175.02 310.52 174.92C310.41 174.81 310.29 174.73 310.15 174.68L304.76 172.67C304.56 172.6 304.39 172.46 304.27 172.29C304.15 172.12 304.09 171.91 304.09 171.7C304.09 171.49 304.15 171.28 304.27 171.11C304.39 170.94 304.56 170.81 304.76 170.73L310.15 168.72C310.29 168.67 310.42 168.59 310.52 168.48C310.62 168.37 310.71 168.25 310.76 168.11L312.76 162.7C312.83 162.5 312.96 162.33 313.14 162.21C313.31 162.09 313.52 162.02 313.73 162.02C313.94 162.02 314.15 162.09 314.32 162.21C314.49 162.33 314.63 162.5 314.7 162.7L316.72 168.1C316.77 168.24 316.85 168.37 316.96 168.47C317.06 168.58 317.19 168.66 317.33 168.71L322.73 170.71C322.93 170.78 323.1 170.92 323.22 171.09C323.34 171.26 323.41 171.47 323.41 171.68C323.41 171.89 323.34 172.1 323.22 172.27C323.1 172.44 322.93 172.58 322.73 172.65L317.34 174.66C317.2 174.71 317.07 174.79 316.97 174.9C316.86 175.01 316.78 175.13 316.73 175.27L314.72 180.66C314.65 180.86 314.52 181.03 314.34 181.16C314.17 181.28 313.96 181.35 313.74 181.35C313.52 181.35 313.32 181.28 313.14 181.16C312.97 181.04 312.83 180.86 312.76 180.66L312.77 180.68Z" fill="#FFD670"/>
<path d="M648.67 144.13L646.32 145.01C646.26 145.03 646.21 145.07 646.16 145.11C646.11 145.16 646.08 145.21 646.06 145.27L645.19 147.62C645.16 147.71 645.1 147.78 645.03 147.83C644.95 147.88 644.86 147.91 644.77 147.91C644.68 147.91 644.59 147.88 644.51 147.83C644.43 147.78 644.38 147.7 644.35 147.62L643.48 145.28C643.46 145.22 643.42 145.16 643.38 145.12C643.33 145.07 643.28 145.04 643.22 145.02L640.87 144.15C640.78 144.12 640.71 144.06 640.66 143.98C640.61 143.9 640.58 143.81 640.58 143.72C640.58 143.63 640.61 143.54 640.66 143.46C640.71 143.39 640.79 143.33 640.87 143.29L643.22 142.42C643.28 142.4 643.34 142.36 643.38 142.32C643.43 142.28 643.46 142.22 643.48 142.16L644.35 139.81C644.38 139.72 644.44 139.65 644.52 139.6C644.59 139.55 644.68 139.52 644.78 139.52C644.88 139.52 644.96 139.55 645.04 139.6C645.12 139.65 645.17 139.73 645.21 139.81L646.08 142.16C646.1 142.22 646.14 142.27 646.18 142.32C646.23 142.36 646.28 142.4 646.34 142.42L648.69 143.29C648.77 143.32 648.85 143.38 648.9 143.46C648.95 143.53 648.98 143.62 648.98 143.71C648.98 143.8 648.95 143.89 648.9 143.96C648.85 144.04 648.78 144.09 648.69 144.13H648.67Z" fill="#FFD670"/>
<path d="M560.32 81.92L557.97 82.8001C557.91 82.8201 557.85 82.8601 557.81 82.9001C557.77 82.9501 557.73 83 557.71 83.06L556.84 85.4101C556.81 85.5001 556.75 85.5701 556.68 85.6201C556.6 85.6701 556.51 85.7 556.42 85.7C556.33 85.7 556.24 85.6701 556.16 85.6201C556.08 85.5701 556.03 85.4901 555.99 85.4101L555.12 83.06C555.1 83 555.06 82.9501 555.02 82.9001C554.97 82.8501 554.92 82.8201 554.86 82.8001L552.51 81.93C552.42 81.9 552.35 81.84 552.3 81.76C552.25 81.68 552.22 81.59 552.22 81.5C552.22 81.41 552.25 81.3201 552.3 81.2401C552.35 81.1601 552.43 81.11 552.51 81.07L554.86 80.2001C554.92 80.1801 554.98 80.14 555.02 80.1C555.07 80.05 555.1 80 555.12 79.94L555.99 77.59C556.02 77.5 556.08 77.4301 556.15 77.3801C556.23 77.3301 556.32 77.3 556.41 77.3C556.5 77.3 556.59 77.3301 556.67 77.3801C556.75 77.4301 556.8 77.51 556.83 77.59L557.7 79.93C557.72 79.99 557.76 80.05 557.8 80.09C557.84 80.14 557.9 80.1701 557.96 80.2001L560.31 81.07C560.4 81.1 560.47 81.1601 560.52 81.2401C560.57 81.3201 560.6 81.4 560.6 81.5C560.6 81.6 560.57 81.68 560.52 81.76C560.47 81.84 560.4 81.89 560.31 81.93L560.32 81.92Z" fill="#E7B521"/>
<path d="M470.55 172.09L465.16 174.11C465.02 174.16 464.89 174.24 464.79 174.35C464.68 174.45 464.6 174.58 464.55 174.72L462.55 180.11C462.48 180.32 462.35 180.49 462.17 180.62C461.99 180.74 461.78 180.81 461.57 180.81C461.36 180.81 461.14 180.74 460.97 180.62C460.79 180.49 460.66 180.32 460.59 180.11L458.58 174.72C458.53 174.58 458.45 174.46 458.35 174.35C458.25 174.25 458.12 174.16 457.99 174.11L452.59 172.1C452.39 172.03 452.21 171.9 452.08 171.72C451.96 171.54 451.89 171.33 451.89 171.12C451.89 170.91 451.96 170.69 452.08 170.52C452.21 170.34 452.38 170.21 452.59 170.14L457.98 168.13C458.12 168.08 458.24 168 458.35 167.9C458.45 167.8 458.53 167.67 458.59 167.54L460.6 162.15C460.67 161.95 460.8 161.77 460.98 161.64C461.15 161.52 461.37 161.45 461.58 161.45C461.79 161.45 462.01 161.52 462.18 161.64C462.36 161.77 462.49 161.94 462.56 162.15L464.56 167.54C464.61 167.68 464.69 167.81 464.8 167.91C464.91 168.01 465.03 168.1 465.17 168.15L470.56 170.15C470.76 170.22 470.93 170.36 471.05 170.53C471.17 170.7 471.24 170.91 471.24 171.12C471.24 171.33 471.17 171.54 471.05 171.71C470.93 171.88 470.76 172.02 470.56 172.09H470.55Z" fill="#FFD670"/>
<path d="M606.55 135.36L601.16 137.37C601.02 137.42 600.89 137.5 600.79 137.61C600.69 137.72 600.6 137.84 600.55 137.98L598.54 143.37C598.47 143.57 598.33 143.74 598.16 143.86C597.99 143.98 597.78 144.05 597.57 144.05C597.36 144.05 597.15 143.98 596.98 143.86C596.81 143.74 596.67 143.57 596.6 143.37L594.59 137.98C594.54 137.84 594.46 137.71 594.35 137.61C594.24 137.5 594.12 137.42 593.98 137.37L588.57 135.37C588.37 135.3 588.2 135.16 588.08 134.99C587.96 134.82 587.89 134.61 587.89 134.4C587.89 134.19 587.96 133.98 588.08 133.81C588.2 133.64 588.37 133.5 588.57 133.43L593.96 131.42C594.1 131.37 594.23 131.29 594.33 131.18C594.44 131.08 594.52 130.95 594.57 130.81L596.57 125.41C596.64 125.21 596.77 125.03 596.95 124.9C597.13 124.77 597.34 124.71 597.55 124.71C597.76 124.71 597.98 124.78 598.15 124.9C598.33 125.02 598.46 125.2 598.53 125.41L600.54 130.8C600.59 130.94 600.67 131.06 600.78 131.17C600.88 131.27 601.01 131.36 601.15 131.41L606.54 133.42C606.74 133.49 606.91 133.63 607.03 133.8C607.15 133.97 607.21 134.18 607.21 134.39C607.21 134.6 607.14 134.81 607.02 134.98C606.9 135.15 606.73 135.29 606.53 135.36H606.55Z" fill="#E7B521"/>
<path d="M643.53 125.34L638.14 127.35C638 127.4 637.87 127.48 637.77 127.59C637.67 127.7 637.58 127.82 637.53 127.96L635.53 133.35C635.46 133.55 635.32 133.72 635.15 133.84C634.98 133.96 634.77 134.03 634.56 134.03C634.35 134.03 634.14 133.97 633.97 133.84C633.8 133.72 633.67 133.55 633.59 133.35L631.59 127.96C631.54 127.82 631.46 127.7 631.35 127.59C631.25 127.48 631.12 127.4 630.98 127.35L625.58 125.35C625.38 125.28 625.21 125.14 625.09 124.97C624.97 124.8 624.91 124.59 624.91 124.38C624.91 124.17 624.97 123.96 625.09 123.79C625.21 123.62 625.38 123.48 625.58 123.41L630.97 121.4C631.11 121.35 631.24 121.27 631.34 121.16C631.45 121.06 631.53 120.93 631.58 120.79L633.59 115.4C633.66 115.2 633.79 115.03 633.97 114.91C634.14 114.79 634.35 114.72 634.56 114.72C634.77 114.72 634.98 114.78 635.15 114.91C635.32 115.03 635.46 115.2 635.53 115.4L637.54 120.79C637.59 120.93 637.67 121.06 637.78 121.16C637.88 121.27 638.01 121.35 638.15 121.4L643.54 123.41C643.74 123.48 643.91 123.62 644.03 123.79C644.15 123.96 644.21 124.17 644.21 124.38C644.21 124.59 644.14 124.8 644.02 124.97C643.9 125.14 643.73 125.28 643.53 125.35V125.34Z" fill="#FFD570"/>
<path d="M590.4 169.71L585.01 171.72C584.87 171.77 584.74 171.85 584.64 171.96C584.54 172.07 584.45 172.19 584.4 172.33L582.39 177.72C582.32 177.92 582.18 178.09 582.01 178.21C581.84 178.33 581.63 178.39 581.42 178.39C581.21 178.39 581 178.33 580.83 178.21C580.66 178.09 580.52 177.92 580.45 177.72L578.44 172.33C578.39 172.19 578.31 172.06 578.2 171.96C578.1 171.85 577.97 171.77 577.83 171.72L572.42 169.72C572.22 169.65 572.05 169.51 571.93 169.34C571.81 169.17 571.74 168.96 571.74 168.75C571.74 168.54 571.81 168.33 571.93 168.16C572.05 167.99 572.22 167.85 572.42 167.78L577.82 165.76C577.96 165.71 578.09 165.63 578.19 165.52C578.3 165.42 578.38 165.29 578.43 165.15L580.43 159.75C580.5 159.55 580.64 159.38 580.81 159.26C580.98 159.14 581.19 159.07 581.4 159.07C581.61 159.07 581.82 159.13 581.99 159.26C582.16 159.38 582.3 159.55 582.37 159.75L584.38 165.14C584.43 165.28 584.51 165.41 584.62 165.51C584.72 165.62 584.85 165.7 584.99 165.75L590.38 167.76C590.58 167.83 590.76 167.96 590.88 168.14C591 168.31 591.07 168.52 591.07 168.74C591.07 168.96 591 169.16 590.88 169.34C590.76 169.52 590.58 169.65 590.38 169.72L590.4 169.71Z" fill="#FFD670"/>
<path d="M135.56 423.01C138.86 423.01 141.54 425.69 141.54 428.99C141.54 432.29 138.86 434.97 135.56 434.97C132.26 434.97 129.58 432.29 129.58 428.99C129.58 425.69 132.26 423.01 135.56 423.01ZM166.32 423.01C169.62 423.01 172.3 425.69 172.3 428.99C172.3 432.29 169.62 434.97 166.32 434.97C163.02 434.97 160.34 432.29 160.34 428.99C160.34 425.69 163.02 423.01 166.32 423.01ZM197.08 423.01C200.38 423.01 203.06 425.69 203.06 428.99C203.06 432.29 200.38 434.97 197.08 434.97C193.78 434.97 191.1 432.29 191.1 428.99C191.1 425.69 193.78 423.01 197.08 423.01ZM227.84 423.01C231.14 423.01 233.82 425.69 233.82 428.99C233.82 432.29 231.14 434.97 227.84 434.97C224.54 434.97 221.86 432.29 221.86 428.99C221.86 425.69 224.54 423.01 227.84 423.01ZM258.6 423.01C261.9 423.01 264.58 425.69 264.58 428.99C264.58 432.29 261.9 434.97 258.6 434.97C255.3 434.97 252.62 432.29 252.62 428.99C252.62 425.69 255.3 423.01 258.6 423.01ZM289.36 423.01C292.66 423.01 295.34 425.69 295.34 428.99C295.34 432.29 292.66 434.97 289.36 434.97C286.06 434.97 283.38 432.29 283.38 428.99C283.38 425.69 286.06 423.01 289.36 423.01ZM320.12 423.01C323.42 423.01 326.1 425.69 326.1 428.99C326.1 432.29 323.42 434.97 320.12 434.97C316.82 434.97 314.14 432.29 314.14 428.99C314.14 425.69 316.82 423.01 320.12 423.01ZM350.88 423.01C354.18 423.01 356.86 425.69 356.86 428.99C356.86 432.29 354.18 434.97 350.88 434.97C347.58 434.97 344.9 432.29 344.9 428.99C344.9 425.69 347.58 423.01 350.88 423.01ZM381.64 423.01C384.94 423.01 387.62 425.69 387.62 428.99C387.62 432.29 384.94 434.97 381.64 434.97C378.34 434.97 375.66 432.29 375.66 428.99C375.66 425.69 378.34 423.01 381.64 423.01ZM412.4 423.01C415.7 423.01 418.38 425.69 418.38 428.99C418.38 432.29 415.7 434.97 412.4 434.97C409.1 434.97 406.42 432.29 406.42 428.99C406.42 425.69 409.1 423.01 412.4 423.01ZM443.16 423.01C446.46 423.01 449.14 425.69 449.14 428.99C449.14 432.29 446.46 434.97 443.16 434.97C439.86 434.97 437.18 432.29 437.18 428.99C437.18 425.69 439.86 423.01 443.16 423.01ZM473.92 423.01C477.22 423.01 479.9 425.69 479.9 428.99C479.9 432.29 477.22 434.97 473.92 434.97C470.62 434.97 467.94 432.29 467.94 428.99C467.94 425.69 470.62 423.01 473.92 423.01ZM504.68 423.01C507.98 423.01 510.66 425.69 510.66 428.99C510.66 432.29 507.98 434.97 504.68 434.97C501.38 434.97 498.7 432.29 498.7 428.99C498.7 425.69 501.38 423.01 504.68 423.01ZM535.44 423.01C538.74 423.01 541.42 425.69 541.42 428.99C541.42 432.29 538.74 434.97 535.44 434.97C532.14 434.97 529.46 432.29 529.46 428.99C529.46 425.69 532.14 423.01 535.44 423.01ZM566.2 423.01C569.5 423.01 572.18 425.69 572.18 428.99C572.18 432.29 569.5 434.97 566.2 434.97C562.9 434.97 560.22 432.29 560.22 428.99C560.22 425.69 562.9 423.01 566.2 423.01ZM596.96 423.01C600.26 423.01 602.94 425.69 602.94 428.99C602.94 432.29 600.26 434.97 596.96 434.97C593.66 434.97 590.98 432.29 590.98 428.99C590.98 425.69 593.66 423.01 596.96 423.01ZM627.72 423.01C631.02 423.01 633.7 425.69 633.7 428.99C633.7 432.29 631.02 434.97 627.72 434.97C624.42 434.97 621.74 432.29 621.74 428.99C621.74 425.69 624.42 423.01 627.72 423.01ZM658.48 423.01C661.78 423.01 664.46 425.69 664.46 428.99C664.46 432.29 661.78 434.97 658.48 434.97C655.18 434.97 652.5 432.29 652.5 428.99C652.5 425.69 655.18 423.01 658.48 423.01Z" fill="#A2D9D3"/>
<path d="M95.81 86.59C96 87.07 96.1 87.53 96.1 87.98C96.1 89.07 95.65 90 94.76 90.76C93.86 91.5 92.86 91.86 91.74 91.86C91 91.86 90.33 91.67 89.72 91.28C89.11 90.86 88.66 90.26 88.38 89.46L86.65 84.56H71.63L69.18 89.41C68.76 90.21 68.22 90.8 67.55 91.19C66.91 91.57 66.22 91.77 65.49 91.77C64.43 91.77 63.49 91.43 62.66 90.76C61.86 90.09 61.46 89.24 61.46 88.22C61.46 87.58 61.65 86.91 62.04 86.2L76.3 60.14C76.78 59.24 77.45 58.57 78.32 58.12C79.18 57.64 80.11 57.4 81.1 57.4C82.09 57.4 82.99 57.64 83.79 58.12C84.59 58.57 85.15 59.22 85.47 60.09L95.84 86.59H95.81ZM84.34 77.95L80.5 67.05L74.98 77.95H84.34Z" fill="white"/>
<path d="M725.48 75.11C727.21 75.62 728.54 76.6 729.46 78.04C730.42 79.48 730.9 81.13 730.9 82.98C730.9 86.05 729.75 88.42 727.44 90.08C725.17 91.74 722.1 92.58 718.22 92.58H705.31C704 92.58 703.02 92.24 702.38 91.57C701.74 90.87 701.47 89.86 701.56 88.55L703.62 62.82C703.75 61.51 704.18 60.5 704.92 59.8C705.69 59.1 706.73 58.74 708.04 58.74H719.8C723.51 58.74 726.34 59.54 728.3 61.14C730.28 62.71 731.28 64.76 731.28 67.28C731.28 70.96 729.34 73.57 725.47 75.1L725.48 75.11ZM717.66 72.04C719.52 72.04 720.83 71.8 721.6 71.32C722.4 70.81 722.8 69.93 722.8 68.68C722.8 67.59 722.43 66.78 721.7 66.23C721 65.69 719.84 65.41 718.24 65.41H712.05L711.52 72.03H717.66V72.04ZM717.47 85.91C719.29 85.91 720.62 85.64 721.45 85.09C722.31 84.55 722.75 83.6 722.75 82.26C722.75 81.08 722.37 80.2 721.6 79.62C720.86 79.01 719.68 78.71 718.05 78.71H710.99L710.41 85.91H717.47Z" fill="white"/>
<path d="M715.15 542.01C711.76 542.01 708.81 541.35 706.32 540.04C703.86 538.7 701.95 536.81 700.61 534.38C699.3 531.92 698.64 529.02 698.64 525.69C698.64 522.01 699.39 518.78 700.9 515.99C702.4 513.21 704.52 511.06 707.24 509.56C709.99 508.06 713.18 507.3 716.79 507.3C718.81 507.3 720.66 507.54 722.36 508.02C724.09 508.47 725.53 508.98 726.68 509.56C728.15 510.46 728.89 511.66 728.89 513.16C728.89 514.09 728.57 514.9 727.93 515.61C727.32 516.28 726.55 516.62 725.63 516.62C724.96 516.62 724.27 516.41 723.57 516C721.27 514.88 719.15 514.32 717.23 514.32C714.16 514.32 711.79 515.33 710.13 517.34C708.47 519.36 707.63 522.14 707.63 525.69C707.63 528.73 708.29 531.05 709.6 532.65C710.91 534.22 712.85 535 715.41 535C716.56 535 717.6 534.86 718.53 534.57C719.46 534.25 720.69 533.79 722.23 533.18C722.93 532.83 723.57 532.65 724.15 532.65C725.01 532.65 725.72 532.97 726.26 533.61C726.8 534.22 727.08 534.95 727.08 535.82C727.08 536.46 726.92 537.08 726.6 537.69C726.31 538.3 725.85 538.84 725.21 539.32C724.25 540.02 722.84 540.65 720.99 541.19C719.17 541.73 717.23 542.01 715.18 542.01H715.15Z" fill="white"/>
<path d="M67.44 541.58C66.13 541.58 65.15 541.24 64.51 540.57C63.87 539.87 63.6 538.86 63.69 537.55L65.75 511.82C65.88 510.51 66.31 509.5 67.05 508.8C67.82 508.1 68.86 507.74 70.17 507.74H79.82C83.21 507.74 86.16 508.4 88.65 509.71C91.18 510.99 93.13 512.83 94.51 515.23C95.89 517.6 96.57 520.4 96.57 523.63C96.57 527.41 95.82 530.64 94.31 533.33C92.81 536.02 90.63 538.07 87.78 539.47C84.96 540.88 81.57 541.58 77.6 541.58H67.42H67.44ZM76.8 534.48C80.54 534.48 83.31 533.62 85.1 531.89C86.89 530.13 87.79 527.36 87.79 523.59C87.79 520.74 87.01 518.58 85.44 517.11C83.87 515.61 81.6 514.85 78.62 514.85H74.3L72.76 534.48H76.79H76.8Z" fill="white"/>
<path d="M246.14 218.8C247.12 217.39 247.48 215.69 247.22 213.71L247.1 212.82L245.91 212.97C242.74 213.38 240.52 213.96 239.25 214.7C237.98 215.44 237.44 216.48 237.61 217.82C237.76 218.96 238.24 219.86 239.05 220.51C239.86 221.16 240.84 221.41 241.98 221.27C243.77 221.04 245.15 220.22 246.12 218.81L246.14 218.8Z" fill="#F15C5C" stroke="white" stroke-width="10" stroke-miterlimit="10"/>
<path d="M342.01 226.6C337.96 226.6 335.35 224.96 333.86 223.55C332.31 222.09 330.43 219.45 330.3 215.13L329.07 175.02C328.94 170.77 330.55 168.13 331.93 166.67C333.31 165.21 335.84 163.43 340.09 163.3L359.28 162.71C366.41 162.49 372.17 164.26 376.47 167.96C380.9 171.77 383.25 177.12 383.46 183.85C383.67 190.53 381.63 196 377.42 200.1C373.33 204.09 367.67 206.21 360.61 206.43L353.84 206.64L354.08 214.39C354.21 218.73 352.46 221.49 350.97 223.05C349.49 224.59 346.82 226.45 342.47 226.58C342.31 226.58 342.16 226.58 342 226.58L342.01 226.6Z" fill="white"/>
<g clip-path="url(#clip1_336_7284)">
<path fill-rule="evenodd" clip-rule="evenodd" d="M678.145 289.159C683.535 289.409 688.175 285.329 688.585 279.919C688.615 279.509 688.635 279.099 688.635 278.689C688.635 278.279 688.615 277.859 688.585 277.449C688.175 272.039 683.535 267.949 678.145 268.209C678.535 264.309 676.595 260.369 672.925 258.399C672.585 258.219 672.235 258.029 671.885 257.849C668.735 256.229 665.135 256.449 662.285 258.099C661.395 255.029 659.045 252.429 655.765 251.369C655.425 251.259 655.085 251.149 654.735 251.039C651.565 250.029 648.255 250.689 645.765 252.519C644.575 249.689 642.105 247.439 638.895 246.659C638.565 246.579 638.245 246.499 637.915 246.419C634.715 245.659 631.515 246.519 629.175 248.479C627.855 245.739 625.295 243.639 622.085 243.019C621.755 242.959 621.425 242.889 621.095 242.829C617.895 242.209 614.755 243.199 612.505 245.229C611.085 242.559 608.485 240.559 605.265 240.039C604.935 239.989 604.605 239.929 604.285 239.879C601.065 239.369 597.965 240.449 595.785 242.539C594.305 239.909 591.645 237.979 588.425 237.539C588.095 237.499 587.775 237.449 587.445 237.409C584.235 236.979 581.175 238.109 579.045 240.229C577.505 237.649 574.825 235.789 571.615 235.419C571.285 235.379 570.945 235.339 570.615 235.299C567.405 234.929 564.375 236.119 562.285 238.269C560.705 235.729 557.995 233.919 554.785 233.599C554.455 233.569 554.125 233.529 553.805 233.499C550.585 233.179 547.575 234.429 545.525 236.609C543.905 234.079 541.175 232.309 537.955 232.039C537.625 232.009 537.285 231.979 536.955 231.949C533.735 231.679 530.745 232.959 528.725 235.169C527.075 232.669 524.315 230.939 521.105 230.709C520.775 230.689 520.455 230.659 520.125 230.639C516.915 230.409 513.945 231.729 511.955 233.959C510.275 231.489 507.505 229.799 504.285 229.609L503.295 229.549C500.075 229.359 497.115 230.719 495.155 232.979C493.445 230.519 490.655 228.849 487.425 228.699C487.095 228.679 486.755 228.669 486.425 228.649C483.205 228.499 480.265 229.879 478.325 232.159C476.585 229.729 473.785 228.089 470.565 227.969L469.585 227.929C466.365 227.809 463.445 229.219 461.535 231.509C459.775 229.099 456.955 227.499 453.735 227.409L452.745 227.379C449.525 227.289 446.615 228.729 444.725 231.049C442.945 228.649 440.105 227.079 436.885 227.009L435.895 226.989C432.675 226.929 429.785 228.399 427.905 230.739C426.095 228.359 423.245 226.809 420.025 226.769H419.035C415.815 226.729 412.935 228.229 411.085 230.579C409.255 228.209 406.395 226.689 403.165 226.689H402.165C398.945 226.689 396.075 228.219 394.245 230.579C392.395 228.229 389.515 226.729 386.295 226.759H385.305C382.085 226.799 379.235 228.349 377.425 230.729C375.555 228.399 372.665 226.919 369.435 226.979L368.445 226.999C365.225 227.059 362.385 228.639 360.605 231.039C358.715 228.729 355.805 227.279 352.585 227.369L351.595 227.399C348.375 227.489 345.555 229.089 343.795 231.499C341.875 229.209 338.955 227.799 335.745 227.919L334.765 227.959C331.545 228.079 328.735 229.719 327.005 232.149C325.065 229.869 322.125 228.489 318.905 228.639C318.575 228.659 318.235 228.669 317.905 228.689C314.685 228.849 311.885 230.509 310.175 232.969C308.205 230.709 305.255 229.349 302.035 229.539C301.705 229.559 301.375 229.579 301.045 229.599C297.825 229.789 295.055 231.479 293.375 233.949C291.385 231.719 288.415 230.399 285.205 230.629C284.875 230.649 284.545 230.679 284.225 230.699C281.005 230.929 278.255 232.659 276.605 235.159C274.585 232.949 271.595 231.669 268.375 231.939C268.045 231.969 267.705 231.999 267.375 232.029C264.155 232.299 261.425 234.069 259.805 236.599C257.755 234.409 254.745 233.169 251.525 233.489C251.195 233.519 250.865 233.559 250.545 233.589C247.335 233.909 244.625 235.719 243.045 238.259C240.955 236.109 237.925 234.919 234.715 235.289C234.385 235.329 234.045 235.369 233.715 235.409C230.505 235.789 227.825 237.649 226.285 240.219C224.155 238.099 221.095 236.959 217.885 237.399C217.555 237.439 217.235 237.489 216.905 237.529C213.685 237.969 211.025 239.899 209.545 242.529C207.365 240.439 204.255 239.359 201.045 239.869C200.715 239.919 200.385 239.979 200.055 240.029C196.845 240.549 194.235 242.549 192.815 245.219C190.565 243.189 187.425 242.209 184.225 242.819C183.895 242.879 183.565 242.949 183.235 243.009C180.015 243.639 177.465 245.739 176.145 248.469C173.805 246.509 170.595 245.649 167.405 246.409C167.075 246.489 166.745 246.569 166.425 246.649C163.215 247.429 160.745 249.679 159.555 252.509C157.065 250.679 153.765 250.019 150.585 251.029C150.235 251.139 149.895 251.249 149.555 251.359C146.285 252.419 143.935 255.009 143.035 258.089C140.185 256.439 136.585 256.219 133.435 257.839C133.085 258.019 132.735 258.199 132.395 258.389C128.725 260.359 126.785 264.299 127.175 268.199C121.785 267.949 117.145 272.029 116.735 277.439C116.705 277.849 116.685 278.259 116.685 278.669C116.685 279.079 116.705 279.499 116.735 279.909C117.145 285.319 121.785 289.409 127.175 289.149C126.785 293.049 128.725 296.989 132.395 298.959C132.735 299.149 133.085 299.329 133.435 299.509C136.585 301.129 140.185 300.909 143.035 299.259C143.925 302.329 146.275 304.929 149.555 305.989C149.895 306.099 150.235 306.209 150.585 306.319C153.755 307.329 157.065 306.669 159.555 304.839C160.745 307.669 163.215 309.919 166.425 310.699C166.755 310.779 167.075 310.859 167.405 310.939C170.595 311.699 173.805 310.839 176.145 308.879C177.475 311.619 180.025 313.719 183.235 314.339C183.565 314.399 183.895 314.469 184.225 314.529C187.425 315.149 190.565 314.159 192.815 312.129C194.235 314.799 196.845 316.799 200.055 317.319C200.385 317.369 200.715 317.429 201.045 317.479C204.265 317.989 207.365 316.909 209.545 314.819C211.025 317.449 213.685 319.379 216.905 319.819C217.225 319.859 217.555 319.909 217.885 319.949C221.095 320.379 224.155 319.249 226.285 317.129C227.825 319.709 230.505 321.569 233.715 321.939C234.045 321.979 234.385 322.019 234.715 322.059C237.925 322.429 240.955 321.239 243.045 319.089C244.625 321.629 247.335 323.439 250.545 323.759C250.875 323.789 251.205 323.829 251.525 323.859C254.745 324.179 257.755 322.929 259.805 320.749C261.425 323.269 264.155 325.039 267.375 325.319C267.705 325.349 268.045 325.379 268.375 325.399C271.595 325.669 274.575 324.389 276.605 322.179C278.255 324.679 281.015 326.409 284.225 326.639C284.555 326.659 284.875 326.689 285.205 326.709C288.415 326.939 291.385 325.619 293.375 323.389C295.055 325.859 297.825 327.549 301.045 327.749L301.465 327.769C301.655 327.779 301.845 327.789 302.045 327.799C305.265 327.989 308.225 326.629 310.185 324.369C311.895 326.829 314.685 328.499 317.915 328.649C318.245 328.669 318.585 328.679 318.915 328.699C322.135 328.849 325.075 327.469 327.015 325.189C328.755 327.619 331.555 329.259 334.775 329.379L335.755 329.419C338.975 329.539 341.895 328.129 343.805 325.839C345.565 328.249 348.385 329.849 351.605 329.949L352.595 329.979C355.815 330.069 358.725 328.629 360.615 326.309C362.395 328.709 365.235 330.289 368.455 330.349L369.445 330.369C372.665 330.429 375.555 328.959 377.435 326.619C379.245 328.999 382.095 330.549 385.315 330.579H386.305C389.525 330.619 392.405 329.119 394.255 326.769C396.085 329.139 398.945 330.659 402.175 330.659H403.175C406.395 330.659 409.265 329.129 411.095 326.769C412.945 329.119 415.825 330.619 419.045 330.589H420.035C423.255 330.549 426.105 328.999 427.915 326.619C429.785 328.949 432.675 330.419 435.905 330.369L436.895 330.349C440.115 330.289 442.955 328.709 444.735 326.309C446.625 328.619 449.535 330.069 452.755 329.979L453.745 329.949C456.965 329.859 459.785 328.259 461.545 325.839C463.465 328.129 466.385 329.539 469.595 329.419L470.575 329.379C473.795 329.259 476.605 327.619 478.335 325.189C480.275 327.469 483.215 328.849 486.435 328.699C486.765 328.679 487.105 328.669 487.435 328.649C490.655 328.489 493.455 326.829 495.165 324.369C497.135 326.629 500.085 327.989 503.305 327.799C503.635 327.779 503.965 327.759 504.295 327.739C507.515 327.549 510.285 325.859 511.965 323.379C513.955 325.609 516.925 326.929 520.135 326.699L521.115 326.629C524.335 326.399 527.085 324.669 528.735 322.169C530.755 324.379 533.745 325.659 536.965 325.389C537.295 325.359 537.635 325.329 537.965 325.309C541.185 325.039 543.915 323.259 545.535 320.739C547.585 322.929 550.595 324.169 553.815 323.849C554.145 323.819 554.475 323.779 554.795 323.749C558.005 323.429 560.715 321.619 562.295 319.079C564.385 321.229 567.415 322.419 570.625 322.049C570.955 322.009 571.295 321.969 571.625 321.929C574.835 321.549 577.515 319.699 579.055 317.119C581.185 319.239 584.245 320.379 587.455 319.939C587.785 319.899 588.105 319.849 588.435 319.809C591.655 319.369 594.315 317.439 595.795 314.809C597.975 316.899 601.085 317.979 604.295 317.469C604.485 317.439 604.665 317.409 604.855 317.379L605.285 317.309C608.505 316.789 611.105 314.789 612.525 312.119C614.775 314.149 617.915 315.139 621.115 314.519C621.445 314.459 621.775 314.389 622.105 314.329C625.325 313.699 627.875 311.599 629.195 308.869C631.535 310.829 634.745 311.689 637.935 310.929C638.265 310.849 638.595 310.769 638.915 310.689C642.125 309.909 644.595 307.659 645.785 304.829C648.275 306.659 651.575 307.319 654.755 306.309C655.105 306.199 655.445 306.089 655.785 305.979C659.055 304.919 661.405 302.329 662.305 299.249C665.155 300.899 668.765 301.119 671.905 299.499C672.255 299.319 672.605 299.139 672.945 298.949C676.615 296.979 678.555 293.039 678.165 289.139L678.145 289.159Z" fill="#F37778"/>
<path d="M402.655 321.399C554.716 321.399 677.985 302.273 677.985 278.679C677.985 255.085 554.716 235.959 402.655 235.959C250.594 235.959 127.325 255.085 127.325 278.679C127.325 302.273 250.594 321.399 402.655 321.399Z" fill="white"/>
</g>
<path d="M478.52 241.66C477.54 241.66 476.54 241.63 475.51 241.56C472.45 241.37 469.51 240.89 466.78 240.16C463.88 239.37 461.36 238.3 459.3 236.97C457.76 235.98 456.53 234.7 455.65 233.16C454.69 231.46 454.26 229.6 454.39 227.62C454.56 225.01 455.43 222.82 457 221.11C457.62 220.44 458.31 219.88 459.06 219.44C457.58 217.77 456.36 215.84 455.44 213.67C453.91 210.1 453.28 206.06 453.56 201.64C453.84 197.23 454.97 193.29 456.93 189.92C458.97 186.4 461.74 183.71 465.17 181.9C468.58 180.11 472.39 179.33 476.49 179.59C479.69 179.79 482.65 180.65 485.29 182.15C485.73 182.4 486.15 182.66 486.56 182.94C488.74 181.37 491.39 180.68 494.45 180.87C498.55 181.13 501.07 182.94 502.46 184.42C504.54 186.63 505.53 189.5 505.32 192.73L503.62 219.67C503.14 227.25 500.33 233.03 495.26 236.85C491.03 240.03 485.41 241.64 478.52 241.64V241.66Z" fill="white"/>
<path d="M552.2 202.34C551.01 203.32 550.18 204.86 549.7 206.96L561.37 208.5C561.65 204.1 560.05 201.67 556.58 201.21C554.84 200.98 553.38 201.36 552.2 202.33V202.34Z" fill="#F15C5C" stroke="white" stroke-width="10" stroke-miterlimit="10"/>
<path d="M182.27 210.31C183.44 210.98 184.2 212.07 184.56 213.57L187.63 226.25C188.22 228.68 188.49 230.58 188.43 231.96C188.38 233.34 187.97 234.5 187.19 235.46C186.42 236.42 185.15 237.39 183.39 238.39C181.61 239.34 179.6 240.22 177.36 241.05C175.12 241.88 173 242.53 171.01 243.01C165.42 244.36 160.32 244.48 155.7 243.36C151.08 242.24 147.2 239.97 144.05 236.53C140.9 233.1 138.67 228.66 137.35 223.22C136.06 217.88 136.02 212.96 137.25 208.47C138.48 203.98 140.85 200.18 144.37 197.06C147.89 193.95 152.34 191.74 157.74 190.43C161.14 189.61 164.29 189.27 167.18 189.42C170.07 189.57 172.88 190.19 175.62 191.27C176.59 191.65 177.34 192.14 177.87 192.73C178.4 193.32 178.79 194.15 179.05 195.22C179.42 196.73 179.31 198.1 178.74 199.35C178.17 200.6 177.3 201.36 176.13 201.64C175.35 201.83 174.66 201.88 174.05 201.8C173.44 201.72 172.63 201.51 171.63 201.19C169.6 200.65 167.74 200.36 166.05 200.3C164.36 200.24 162.6 200.44 160.75 200.89C156.13 202.01 153.01 204.13 151.37 207.25C149.73 210.37 149.56 214.61 150.86 219.95C152.19 225.44 154.35 229.23 157.35 231.3C160.35 233.38 164.28 233.83 169.14 232.65C171.47 232.09 173.72 231.28 175.89 230.24L173.58 220.69L168.33 221.96C166.73 222.35 165.39 222.25 164.32 221.66C163.25 221.07 162.54 220.05 162.19 218.59C161.84 217.13 162 215.9 162.68 214.88C163.36 213.86 164.5 213.17 166.11 212.78L178.14 209.87C179.74 209.48 181.13 209.62 182.29 210.29L182.27 210.31Z" fill="#F15C5C"/>
<path d="M218.44 196.02C219.58 196.76 220.31 198.02 220.61 199.79C220.95 201.76 220.74 203.27 219.98 204.31C219.22 205.35 217.68 206.2 215.36 206.86L213.18 207.46C210.77 208.18 209.14 209.26 208.3 210.7C207.46 212.14 207.22 213.94 207.6 216.11L209.78 228.75C210.13 230.77 209.76 232.39 208.68 233.62C207.6 234.85 206.12 235.62 204.25 235.94C202.38 236.26 200.73 236.03 199.3 235.23C197.87 234.44 196.98 233.03 196.63 231.01L192.22 205.44C191.9 203.57 192.28 202.01 193.35 200.75C194.42 199.49 195.85 198.72 197.63 198.41C199.45 198.1 201 198.34 202.28 199.13C203.56 199.93 204.35 201.21 204.66 202.98L204.9 204.38C205.31 202.08 206.32 200.18 207.91 198.69C209.5 197.2 211.28 196.23 213.23 195.79L214.25 195.54C215.9 195.1 217.3 195.26 218.44 196V196.02Z" fill="#F15C5C"/>
<path d="M253.36 194.2C256.41 196.55 258.29 200.48 259 205.99L261.01 221.54C261.25 223.43 260.89 224.97 259.91 226.18C258.93 227.39 257.45 228.12 255.47 228.38C253.73 228.6 252.24 228.29 251 227.45C249.76 226.6 248.98 225.34 248.66 223.67C248.2 225.55 247.21 227.08 245.7 228.29C244.19 229.5 242.3 230.24 240.02 230.54C237.49 230.87 235.14 230.65 232.98 229.9C230.81 229.15 229.03 227.94 227.63 226.28C226.23 224.62 225.38 222.65 225.09 220.37C224.75 217.74 225.16 215.56 226.32 213.82C227.48 212.08 229.51 210.67 232.39 209.59C235.27 208.51 239.25 207.65 244.3 206.99L246.31 206.73L246.19 205.84C245.97 204.11 245.41 202.9 244.52 202.24C243.63 201.57 242.24 201.36 240.35 201.61C238.32 201.87 235.43 202.95 231.69 204.85C230.6 205.4 229.66 205.72 228.87 205.82C227.63 205.98 226.58 205.66 225.72 204.87C224.86 204.08 224.34 202.96 224.15 201.52C224.01 200.43 224.12 199.51 224.47 198.76C224.83 198.01 225.46 197.3 226.39 196.62C228.01 195.5 230.1 194.5 232.66 193.62C235.22 192.74 237.76 192.13 240.29 191.8C245.94 191.07 250.29 191.88 253.35 194.23L253.36 194.2ZM246.14 218.8C247.12 217.39 247.48 215.69 247.22 213.71L247.1 212.82L245.91 212.97C242.74 213.38 240.52 213.96 239.25 214.7C237.98 215.44 237.44 216.48 237.61 217.82C237.76 218.96 238.24 219.86 239.05 220.51C239.86 221.16 240.84 221.41 241.98 221.27C243.77 221.04 245.15 220.22 246.12 218.81L246.14 218.8Z" fill="#F15C5C"/>
<path d="M300.24 189.6C302.61 192.03 304.03 195.91 304.49 201.24L305.9 217.38C306.07 219.27 305.6 220.82 304.5 222.02C303.4 223.22 301.83 223.91 299.79 224.09C297.75 224.27 296.08 223.86 294.79 222.87C293.5 221.88 292.77 220.44 292.61 218.54L291.25 203C291.06 200.81 290.53 199.25 289.67 198.32C288.81 197.39 287.61 196.99 286.07 197.13C284.08 197.3 282.55 198.08 281.49 199.45C280.43 200.82 279.99 202.58 280.18 204.72L281.47 219.51C281.64 221.4 281.17 222.95 280.07 224.15C278.97 225.35 277.4 226.04 275.36 226.22C273.32 226.4 271.65 225.99 270.36 225C269.07 224.01 268.34 222.57 268.18 220.67L265.93 194.82C265.78 193.08 266.27 191.59 267.42 190.36C268.57 189.13 270.14 188.43 272.13 188.26C274.02 188.09 275.58 188.49 276.79 189.43C278 190.38 278.68 191.7 278.83 193.39C279.96 191.38 281.5 189.8 283.46 188.62C285.42 187.45 287.64 186.75 290.13 186.53C294.51 186.15 297.89 187.17 300.26 189.6H300.24Z" fill="#F15C5C"/>
<path d="M337.28 219.91C336.02 218.72 335.36 217.08 335.29 214.98L334.06 174.87C334 172.82 334.5 171.23 335.56 170.1C336.62 168.97 338.18 168.37 340.23 168.31L359.42 167.72C365.27 167.54 369.86 168.89 373.2 171.76C376.54 174.63 378.29 178.72 378.45 184.02C378.61 189.27 377.1 193.44 373.92 196.54C370.74 199.64 366.25 201.28 360.45 201.45L348.68 201.81L349.07 214.55C349.13 216.65 348.56 218.33 347.35 219.59C346.14 220.85 344.46 221.52 342.31 221.58C340.21 221.64 338.53 221.08 337.27 219.9L337.28 219.91ZM358.27 191.17C360.82 191.09 362.69 190.51 363.88 189.42C365.07 188.33 365.63 186.69 365.57 184.49C365.44 180.14 362.87 178.04 357.87 178.2L347.97 178.5L348.37 191.47L358.27 191.17Z" fill="#F15C5C"/>
<path d="M411.53 183.55C412.53 184.47 413.04 185.83 413.05 187.63C413.05 189.63 412.6 191.08 411.68 191.99C410.76 192.89 409.1 193.48 406.7 193.73L404.45 193.96C401.95 194.27 400.17 195.06 399.1 196.34C398.03 197.62 397.5 199.36 397.51 201.56L397.56 214.38C397.56 216.43 396.94 217.97 395.67 219C394.4 220.03 392.81 220.55 390.91 220.56C389.01 220.57 387.42 220.06 386.14 219.04C384.86 218.02 384.22 216.49 384.21 214.43L384.11 188.48C384.11 186.58 384.73 185.1 386 184.05C387.27 182.99 388.81 182.46 390.61 182.46C392.46 182.46 393.95 182.95 395.08 183.94C396.21 184.94 396.78 186.33 396.78 188.13V189.55C397.58 187.35 398.88 185.64 400.7 184.43C402.52 183.22 404.43 182.57 406.43 182.46L407.48 182.38C409.18 182.22 410.53 182.61 411.53 183.53V183.55Z" fill="#F15C5C"/>
<path d="M422.49 218.53C419.46 216.87 417.14 214.57 415.55 211.63C413.95 208.69 413.21 205.26 413.31 201.37C413.42 197.47 414.34 194.11 416.1 191.28C417.85 188.45 420.27 186.3 423.36 184.84C426.45 183.37 430.05 182.69 434.14 182.8C438.23 182.91 441.79 183.78 444.8 185.41C447.81 187.04 450.11 189.32 451.71 192.24C453.31 195.16 454.05 198.57 453.95 202.47C453.84 206.37 452.92 209.75 451.16 212.6C449.41 215.45 446.98 217.63 443.89 219.12C440.8 220.61 437.2 221.3 433.1 221.19C429.05 221.08 425.51 220.2 422.48 218.54L422.49 218.53ZM440.75 202.1C440.92 195.9 438.63 192.74 433.88 192.61C429.13 192.48 426.67 195.52 426.51 201.71C426.34 207.91 428.63 211.07 433.38 211.2C438.13 211.33 440.59 208.29 440.75 202.1Z" fill="#F15C5C"/>
<path d="M498.81 187.86C499.94 189.06 500.44 190.58 500.33 192.43L498.63 219.38C498.25 225.47 496.12 229.97 492.25 232.88C488.38 235.79 482.91 237.02 475.82 236.58C473.08 236.41 470.5 235.99 468.08 235.34C465.67 234.69 463.64 233.83 462 232.78C461.13 232.22 460.46 231.53 459.99 230.7C459.52 229.87 459.31 228.95 459.37 227.96C459.46 226.51 459.9 225.36 460.68 224.51C461.46 223.66 462.42 223.27 463.57 223.34C464.47 223.4 466.07 223.87 468.36 224.77C469.87 225.37 471.22 225.84 472.4 226.19C473.58 226.54 474.79 226.75 476.04 226.83C479.08 227.02 481.36 226.53 482.86 225.34C484.36 224.16 485.2 222.19 485.37 219.45L485.55 216.61C484.35 218.19 482.69 219.4 480.59 220.24C478.48 221.08 476.23 221.43 473.84 221.28C470.64 221.08 467.85 220.15 465.45 218.5C463.05 216.85 461.24 214.59 460.02 211.73C458.8 208.87 458.3 205.62 458.53 201.98C458.76 198.34 459.66 195.16 461.24 192.46C462.81 189.75 464.89 187.72 467.49 186.35C470.08 184.99 472.97 184.4 476.17 184.6C478.61 184.75 480.83 185.4 482.81 186.52C484.79 187.65 486.28 189.12 487.27 190.93C487.48 189.24 488.2 187.95 489.43 187.05C490.66 186.15 492.23 185.76 494.13 185.88C496.12 186.01 497.69 186.67 498.81 187.87V187.86ZM484.13 209.74C485.52 208.38 486.3 206.37 486.46 203.73C486.63 201.09 486.11 198.97 484.91 197.39C483.71 195.81 481.93 194.95 479.59 194.8C477.3 194.66 475.45 195.28 474.06 196.67C472.67 198.06 471.89 200.1 471.72 202.8C471.56 205.4 472.09 207.47 473.32 209.03C474.55 210.59 476.29 211.43 478.53 211.57C480.87 211.72 482.74 211.11 484.13 209.74Z" fill="#F15C5C"/>
<path d="M536.54 190.91C537.45 191.93 537.81 193.33 537.64 195.12C537.45 197.11 536.85 198.51 535.84 199.32C534.83 200.13 533.12 200.54 530.71 200.55H528.45C525.93 200.61 524.08 201.22 522.88 202.39C521.68 203.56 520.98 205.23 520.77 207.42L519.53 220.18C519.33 222.22 518.55 223.69 517.18 224.59C515.81 225.49 514.18 225.84 512.29 225.66C510.4 225.48 508.87 224.81 507.7 223.67C506.53 222.53 506.04 220.94 506.24 218.89L508.75 193.06C508.93 191.17 509.71 189.76 511.08 188.84C512.45 187.92 514.03 187.54 515.82 187.72C517.66 187.9 519.09 188.54 520.11 189.64C521.13 190.74 521.56 192.19 521.38 193.98L521.24 195.4C522.25 193.29 523.72 191.72 525.65 190.7C527.58 189.68 529.55 189.22 531.55 189.31L532.6 189.34C534.31 189.36 535.61 189.87 536.52 190.89L536.54 190.91Z" fill="#F15C5C"/>
<path d="M569.7 221.41C570.3 222.4 570.5 223.61 570.32 225.05C570.06 227.03 568.89 228.42 566.82 229.2C565.02 229.82 562.94 230.26 560.55 230.53C558.16 230.8 556.01 230.8 554.08 230.55C550.02 230.01 546.57 228.78 543.75 226.84C540.93 224.91 538.89 222.39 537.63 219.3C536.37 216.21 536 212.73 536.51 208.86C536.99 205.19 538.21 202.01 540.15 199.32C542.09 196.63 544.57 194.66 547.59 193.42C550.6 192.18 553.87 191.79 557.39 192.25C560.81 192.7 563.71 193.84 566.09 195.67C568.47 197.5 570.19 199.87 571.24 202.78C572.29 205.69 572.58 208.98 572.09 212.65C571.94 213.79 571.56 214.64 570.96 215.19C570.36 215.74 569.56 215.95 568.57 215.82L548.94 213.23C548.97 215.66 549.52 217.47 550.57 218.67C551.62 219.87 553.31 220.62 555.64 220.93C556.88 221.09 558.04 221.11 559.11 220.97C560.19 220.84 561.4 220.6 562.76 220.28C563.54 220.08 564.31 219.92 565.06 219.79C565.81 219.66 566.48 219.64 567.07 219.71C568.21 219.86 569.08 220.43 569.68 221.42L569.7 221.41ZM552.21 202.34C551.02 203.32 550.19 204.86 549.71 206.96L561.38 208.5C561.66 204.1 560.06 201.67 556.59 201.21C554.85 200.98 553.39 201.36 552.21 202.33V202.34Z" fill="#F15C5C"/>
<path d="M580.97 233.79C578.79 232.89 576.94 231.75 575.41 230.36C574.78 229.89 574.35 229.21 574.1 228.3C573.85 227.39 573.83 226.42 574.01 225.39C574.25 224.06 574.8 223.03 575.67 222.3C576.54 221.57 577.51 221.3 578.6 221.49C579.34 221.62 580.01 221.83 580.62 222.12C581.23 222.41 581.97 222.83 582.83 223.39C584.31 224.21 585.62 224.88 586.78 225.39C587.93 225.9 589.44 226.32 591.32 226.66C592.65 226.9 593.73 226.9 594.56 226.66C595.39 226.43 595.86 225.97 595.99 225.28C596.09 224.74 595.98 224.29 595.66 223.93C595.34 223.57 594.69 223.16 593.71 222.71C592.73 222.26 591.05 221.56 588.67 220.63C584.44 219.01 581.5 217.18 579.86 215.13C578.22 213.09 577.67 210.51 578.23 207.41C578.63 205.15 579.7 203.23 581.43 201.66C583.16 200.09 585.34 199.01 587.99 198.41C590.63 197.82 593.48 197.79 596.54 198.34C598.75 198.74 600.86 199.39 602.85 200.31C604.84 201.23 606.57 202.32 608.02 203.59C609.39 204.75 609.9 206.31 609.54 208.28C609.29 209.66 608.72 210.75 607.81 211.55C606.91 212.35 605.91 212.66 604.83 212.47C603.55 212.24 602.1 211.55 600.48 210.4C599.4 209.65 598.42 209.06 597.56 208.62C596.7 208.19 595.65 207.86 594.42 207.64C593.19 207.42 592.2 207.43 591.44 207.68C590.68 207.93 590.25 208.39 590.12 209.08C589.98 209.87 590.35 210.57 591.23 211.18C592.11 211.79 593.93 212.63 596.69 213.68C601.31 215.37 604.46 217.24 606.13 219.29C607.8 221.34 608.34 223.96 607.77 227.16C607.13 230.75 605.13 233.35 601.77 234.96C598.41 236.57 594.22 236.93 589.2 236.03C585.9 235.44 583.16 234.7 580.99 233.8L580.97 233.79Z" fill="#F15C5C"/>
<path d="M618.44 239.37C615.83 237.11 614.06 234.37 613.12 231.15C612.18 227.93 612.18 224.43 613.12 220.65C614.05 216.86 615.67 213.77 617.99 211.38C620.3 208.99 623.12 207.4 626.46 206.63C629.79 205.85 633.45 205.95 637.43 206.93C641.41 207.91 644.7 209.51 647.29 211.75C649.88 213.98 651.65 216.7 652.59 219.89C653.53 223.08 653.54 226.57 652.6 230.36C651.67 234.15 650.04 237.25 647.72 239.66C645.4 242.08 642.57 243.69 639.24 244.49C635.91 245.29 632.24 245.2 628.26 244.22C624.33 243.25 621.05 241.64 618.45 239.38L618.44 239.37ZM639.77 227.2C641.25 221.18 639.68 217.6 635.07 216.47C630.46 215.34 627.41 217.78 625.93 223.8C624.45 229.82 626.02 233.4 630.63 234.53C635.24 235.66 638.29 233.22 639.77 227.2Z" fill="#F15C5C"/>
<mask id="mask1_336_7284" style="mask-type:luminance" maskUnits="userSpaceOnUse" x="353" y="530" width="90" height="24">
<path d="M443 530H353V554H443V530Z" fill="white"/>
</mask>
<g mask="url(#mask1_336_7284)">
</g>
<g clip-path="url(#clip2_336_7284)">
<path d="M356.33 536.48H360.04C361.07 536.48 361.94 536.66 362.63 537.02C363.33 537.38 363.84 537.86 364.18 538.47C364.52 539.08 364.69 539.77 364.69 540.55C364.69 541.33 364.49 542.07 364.09 542.76C364.67 543.86 364.95 545.24 364.95 546.9H363.47C363.47 545.69 363.34 544.68 363.08 543.87C362.45 544.33 361.74 544.56 360.93 544.56C360.25 544.56 359.7 544.38 359.28 544.02C358.86 543.66 358.65 543.18 358.65 542.6C358.65 542.02 358.85 541.54 359.26 541.19C359.67 540.84 360.22 540.66 360.93 540.66C361.74 540.66 362.47 540.94 363.11 541.49C363.18 541.17 363.21 540.87 363.21 540.58C363.21 539.78 362.94 539.11 362.41 538.57C361.87 538.04 361.08 537.77 360.02 537.77H357.81V546.89H356.33V536.48ZM360.31 543.09C360.5 543.21 360.76 543.28 361.1 543.28C361.34 543.28 361.58 543.23 361.82 543.12C362.06 543.02 362.28 542.87 362.47 542.68C362.06 542.18 361.56 541.93 360.95 541.93C360.68 541.93 360.46 541.99 360.29 542.12C360.12 542.24 360.03 542.4 360.03 542.59C360.03 542.8 360.12 542.97 360.31 543.09ZM367.58 546.62C367.02 546.3 366.59 545.84 366.29 545.25C365.99 544.66 365.84 543.97 365.84 543.19C365.84 542.41 365.99 541.72 366.29 541.13C366.59 540.54 367.03 540.08 367.59 539.76C368.16 539.44 368.82 539.28 369.59 539.28C370.36 539.28 370.95 539.44 371.48 539.76C372 540.08 372.39 540.5 372.66 541.03C372.92 541.56 373.05 542.13 373.05 542.76C373.05 543.06 373.02 543.36 372.96 543.65H367.31C367.39 544.36 367.62 544.9 368 545.3C368.38 545.69 368.89 545.89 369.53 545.89C370.01 545.89 370.42 545.78 370.76 545.55C371.1 545.33 371.34 545.02 371.48 544.63H372.99C372.77 545.41 372.36 546.01 371.75 546.46C371.14 546.9 370.4 547.12 369.53 547.12C368.78 547.12 368.13 546.96 367.58 546.64V546.62ZM371.62 542.5C371.64 541.93 371.47 541.46 371.1 541.08C370.73 540.7 370.22 540.51 369.55 540.51C368.93 540.51 368.44 540.68 368.06 541.02C367.68 541.36 367.44 541.86 367.34 542.5H371.62ZM374.44 539.46H375.83V541.04C376.06 540.47 376.39 540.04 376.84 539.73C377.28 539.42 377.82 539.27 378.44 539.27C379.17 539.27 379.7 539.46 380.06 539.85C380.41 540.24 380.63 540.68 380.71 541.16C380.79 541.65 380.83 542.2 380.83 542.83V546.91H379.44V542.87C379.44 542.4 379.42 542.01 379.37 541.7C379.32 541.39 379.19 541.11 378.98 540.88C378.77 540.65 378.44 540.53 378 540.53C377.35 540.53 376.83 540.78 376.43 541.29C376.03 541.8 375.83 542.46 375.83 543.29V546.91H374.44V539.47V539.46ZM387.47 545.75C387.14 546.21 386.75 546.55 386.29 546.77C385.83 546.99 385.26 547.11 384.58 547.11C383.81 547.11 383.2 546.91 382.72 546.5C382.25 546.09 382.01 545.56 382.01 544.89C382.01 544.15 382.3 543.57 382.89 543.15C383.48 542.72 384.23 542.51 385.16 542.51C385.96 542.51 386.66 542.68 387.23 543.03V542.88C387.23 542.14 387.08 541.57 386.78 541.14C386.48 540.72 386.02 540.51 385.4 540.51C384.93 540.51 384.54 540.64 384.21 540.9C383.89 541.16 383.73 541.54 383.74 542.04H382.32C382.3 541.48 382.42 540.99 382.69 540.57C382.95 540.15 383.33 539.82 383.81 539.6C384.29 539.38 384.83 539.26 385.41 539.26C386.47 539.26 387.28 539.6 387.82 540.27C388.36 540.95 388.63 541.81 388.63 542.86C388.63 543.36 388.56 543.84 388.42 544.31C388.78 545.01 388.96 545.87 388.96 546.9H387.57C387.57 546.44 387.54 546.06 387.47 545.74V545.75ZM383.8 545.66C384.04 545.84 384.37 545.93 384.78 545.93C385.27 545.93 385.71 545.8 386.1 545.53C386.49 545.26 386.79 544.87 386.99 544.35C386.78 544.11 386.52 543.93 386.2 543.81C385.88 543.69 385.53 543.62 385.16 543.62C384.67 543.62 384.27 543.74 383.94 543.97C383.61 544.2 383.45 544.51 383.45 544.9C383.45 545.23 383.57 545.48 383.81 545.66H383.8ZM390.25 538C390.07 537.81 389.97 537.58 389.97 537.31C389.97 537.04 390.06 536.8 390.25 536.62C390.43 536.44 390.66 536.34 390.94 536.34C391.22 536.34 391.45 536.43 391.63 536.62C391.81 536.8 391.91 537.04 391.91 537.31C391.91 537.58 391.82 537.81 391.63 538C391.45 538.19 391.21 538.28 390.94 538.28C390.66 538.28 390.43 538.19 390.25 538ZM390.25 539.46H391.64V546.91H390.25V539.47V539.46ZM394.9 545.5C395.24 545.81 395.73 545.96 396.38 545.96C396.9 545.96 397.31 545.87 397.62 545.68C397.93 545.49 398.08 545.24 398.08 544.92C398.08 544.66 397.99 544.46 397.81 544.31C397.63 544.16 397.41 544.05 397.15 543.98C396.89 543.91 396.52 543.84 396.05 543.76C395.44 543.66 394.95 543.55 394.57 543.43C394.19 543.31 393.86 543.11 393.59 542.83C393.32 542.55 393.19 542.15 393.19 541.63C393.19 540.91 393.47 540.34 394.04 539.92C394.61 539.49 395.34 539.28 396.23 539.28C396.88 539.28 397.45 539.4 397.94 539.65C398.44 539.89 398.81 540.23 399.06 540.65C399.31 541.07 399.41 541.54 399.36 542.06H398.02C398.05 541.58 397.9 541.19 397.57 540.89C397.24 540.59 396.78 540.44 396.21 540.44C395.74 540.44 395.36 540.54 395.07 540.73C394.78 540.92 394.63 541.19 394.63 541.53C394.63 541.89 394.79 542.14 395.12 542.28C395.45 542.42 395.95 542.55 396.63 542.66C397.25 542.76 397.74 542.87 398.12 542.99C398.5 543.11 398.82 543.32 399.1 543.61C399.37 543.9 399.51 544.31 399.51 544.82C399.51 545.54 399.22 546.1 398.65 546.51C398.08 546.92 397.32 547.13 396.38 547.13C395.72 547.13 395.14 547.02 394.63 546.79C394.12 546.56 393.73 546.23 393.45 545.8C393.18 545.37 393.06 544.86 393.1 544.27H394.44C394.42 544.8 394.58 545.21 394.92 545.52L394.9 545.5ZM402.34 545.5C402.68 545.81 403.17 545.96 403.82 545.96C404.34 545.96 404.75 545.87 405.06 545.68C405.37 545.49 405.52 545.24 405.52 544.92C405.52 544.66 405.43 544.46 405.25 544.31C405.07 544.16 404.85 544.05 404.59 543.98C404.33 543.91 403.96 543.84 403.49 543.76C402.88 543.66 402.39 543.55 402.01 543.43C401.63 543.31 401.3 543.11 401.03 542.83C400.76 542.55 400.63 542.15 400.63 541.63C400.63 540.91 400.91 540.34 401.48 539.92C402.05 539.49 402.78 539.28 403.67 539.28C404.32 539.28 404.89 539.4 405.38 539.65C405.88 539.89 406.25 540.23 406.5 540.65C406.75 541.07 406.85 541.54 406.8 542.06H405.46C405.49 541.58 405.34 541.19 405.01 540.89C404.68 540.59 404.22 540.44 403.65 540.44C403.18 540.44 402.8 540.54 402.51 540.73C402.22 540.92 402.07 541.19 402.07 541.53C402.07 541.89 402.23 542.14 402.56 542.28C402.89 542.42 403.39 542.55 404.07 542.66C404.69 542.76 405.18 542.87 405.56 542.99C405.94 543.11 406.26 543.32 406.54 543.61C406.81 543.9 406.95 544.31 406.95 544.82C406.95 545.54 406.66 546.1 406.09 546.51C405.52 546.92 404.76 547.13 403.82 547.13C403.16 547.13 402.58 547.02 402.07 546.79C401.56 546.56 401.17 546.23 400.89 545.8C400.62 545.37 400.5 544.86 400.54 544.27H401.88C401.86 544.8 402.02 545.21 402.36 545.52L402.34 545.5ZM413.37 545.75C413.04 546.21 412.65 546.55 412.19 546.77C411.73 546.99 411.16 547.11 410.48 547.11C409.71 547.11 409.1 546.91 408.62 546.5C408.15 546.09 407.91 545.56 407.91 544.89C407.91 544.15 408.2 543.57 408.79 543.15C409.38 542.72 410.13 542.51 411.06 542.51C411.86 542.51 412.56 542.68 413.13 543.03V542.88C413.13 542.14 412.98 541.57 412.68 541.14C412.38 540.72 411.92 540.51 411.3 540.51C410.83 540.51 410.44 540.64 410.11 540.9C409.79 541.16 409.63 541.54 409.64 542.04H408.22C408.2 541.48 408.32 540.99 408.59 540.57C408.85 540.15 409.23 539.82 409.71 539.6C410.19 539.38 410.73 539.26 411.31 539.26C412.37 539.26 413.18 539.6 413.72 540.27C414.26 540.95 414.53 541.81 414.53 542.86C414.53 543.36 414.46 543.84 414.32 544.31C414.68 545.01 414.86 545.87 414.86 546.9H413.47C413.47 546.44 413.44 546.06 413.37 545.74V545.75ZM409.7 545.66C409.94 545.84 410.27 545.93 410.68 545.93C411.17 545.93 411.61 545.8 412 545.53C412.39 545.26 412.69 544.87 412.89 544.35C412.68 544.11 412.42 543.93 412.1 543.81C411.78 543.69 411.43 543.62 411.06 543.62C410.57 543.62 410.17 543.74 409.84 543.97C409.51 544.2 409.35 544.51 409.35 544.9C409.35 545.23 409.47 545.48 409.71 545.66H409.7ZM416.07 539.46H417.46V541.04C417.69 540.47 418.02 540.04 418.47 539.73C418.91 539.42 419.45 539.27 420.07 539.27C420.8 539.27 421.33 539.46 421.69 539.85C422.04 540.24 422.26 540.68 422.34 541.16C422.42 541.65 422.46 542.2 422.46 542.83V546.91H421.07V542.87C421.07 542.4 421.05 542.01 421 541.7C420.95 541.39 420.82 541.11 420.61 540.88C420.4 540.65 420.07 540.53 419.63 540.53C418.98 540.53 418.46 540.78 418.06 541.29C417.66 541.8 417.46 542.46 417.46 543.29V546.91H416.07V539.47V539.46ZM424.16 541.13C424.47 540.53 424.91 540.07 425.47 539.75C426.04 539.43 426.7 539.27 427.45 539.27C428.27 539.27 428.95 539.43 429.48 539.75C430.01 540.07 430.39 540.49 430.63 541.02C430.86 541.55 430.96 542.13 430.92 542.76H429.46C429.46 542.7 429.48 542.61 429.48 542.48C429.48 541.85 429.3 541.37 428.94 541.03C428.58 540.69 428.07 540.52 427.43 540.52C426.74 540.52 426.19 540.77 425.78 541.26C425.37 541.75 425.16 542.4 425.16 543.21C425.16 544.02 425.37 544.66 425.78 545.16C426.19 545.65 426.73 545.9 427.4 545.9C427.91 545.9 428.34 545.76 428.7 545.47C429.06 545.18 429.31 544.78 429.46 544.28H430.97C430.8 545.08 430.41 545.76 429.79 546.31C429.17 546.86 428.37 547.14 427.39 547.14C426.66 547.14 426.02 546.98 425.47 546.65C424.91 546.32 424.48 545.86 424.17 545.27C423.86 544.68 423.71 544 423.71 543.22C423.71 542.44 423.86 541.76 424.17 541.16L424.16 541.13ZM433.61 546.62C433.05 546.3 432.62 545.84 432.32 545.25C432.02 544.66 431.87 543.97 431.87 543.19C431.87 542.41 432.02 541.72 432.32 541.13C432.62 540.54 433.06 540.08 433.62 539.76C434.19 539.44 434.85 539.28 435.62 539.28C436.39 539.28 436.98 539.44 437.51 539.76C438.03 540.08 438.42 540.5 438.69 541.03C438.95 541.56 439.08 542.13 439.08 542.76C439.08 543.06 439.05 543.36 438.99 543.65H433.34C433.42 544.36 433.65 544.9 434.03 545.3C434.41 545.69 434.92 545.89 435.56 545.89C436.04 545.89 436.45 545.78 436.79 545.55C437.13 545.33 437.37 545.02 437.51 544.63H439.02C438.8 545.41 438.39 546.01 437.78 546.46C437.17 546.9 436.43 547.12 435.56 547.12C434.81 547.12 434.16 546.96 433.61 546.64V546.62ZM437.65 542.5C437.67 541.93 437.5 541.46 437.13 541.08C436.76 540.7 436.25 540.51 435.58 540.51C434.96 540.51 434.47 540.68 434.09 541.02C433.71 541.36 433.47 541.86 433.37 542.5H437.65Z" fill="black"/>
</g>
</g>
<defs>
<clipPath id="clip0_336_7284">
<rect width="703" height="555.6" fill="white" transform="translate(45 18)"/>
</clipPath>
<clipPath id="clip1_336_7284">
<rect width="571.95" height="103.97" fill="white" transform="translate(116.685 226.689)"/>
</clipPath>
<clipPath id="clip2_336_7284">
<rect width="82.75" height="10.76" fill="white" transform="translate(356.33 536.35)"/>
</clipPath>
</defs>
</svg>
