<svg width="792" height="612" viewBox="0 0 792 612" fill="none" xmlns="http://www.w3.org/2000/svg">
<rect width="792" height="612" fill="white"/>
<g clip-path="url(#clip0_336_7283)">
<path d="M79.7 112C98.4777 112 113.7 96.7777 113.7 78C113.7 59.2223 98.4777 44 79.7 44C60.9223 44 45.7 59.2223 45.7 78C45.7 96.7777 60.9223 112 79.7 112Z" fill="#40BEAD"/>
<path d="M79.7 561C98.4777 561 113.7 545.778 113.7 527C113.7 508.222 98.4777 493 79.7 493C60.9223 493 45.7 508.222 45.7 527C45.7 545.778 60.9223 561 79.7 561Z" fill="#40BEAD"/>
<path d="M714.7 112C733.478 112 748.7 96.7777 748.7 78C748.7 59.2223 733.478 44 714.7 44C695.922 44 680.7 59.2223 680.7 78C680.7 96.7777 695.922 112 714.7 112Z" fill="#40BEAD"/>
<path d="M212.14 160.47L211.26 158.12C211.24 158.06 211.2 158 211.16 157.96C211.11 157.91 211.06 157.88 211 157.86L208.65 156.99C208.56 156.96 208.49 156.9 208.44 156.83C208.39 156.75 208.36 156.66 208.36 156.57C208.36 156.48 208.39 156.39 208.44 156.31C208.49 156.23 208.57 156.18 208.65 156.14L210.99 155.27C211.05 155.25 211.11 155.21 211.15 155.17C211.19 155.13 211.23 155.07 211.26 155.01L212.13 152.66C212.16 152.57 212.22 152.5 212.3 152.45C212.38 152.4 212.47 152.37 212.56 152.37C212.65 152.37 212.74 152.4 212.82 152.45C212.9 152.5 212.95 152.58 212.98 152.66L213.85 155.01C213.87 155.07 213.91 155.13 213.95 155.17C213.99 155.21 214.05 155.25 214.11 155.27L216.46 156.14C216.55 156.17 216.62 156.23 216.67 156.31C216.72 156.39 216.75 156.48 216.75 156.57C216.75 156.66 216.72 156.75 216.67 156.83C216.62 156.91 216.54 156.96 216.46 157L214.11 157.87C214.05 157.89 214 157.93 213.95 157.97C213.9 158.02 213.87 158.07 213.85 158.13L212.98 160.48C212.95 160.56 212.89 160.64 212.81 160.69C212.74 160.74 212.65 160.77 212.56 160.77C212.47 160.77 212.38 160.74 212.31 160.69C212.24 160.64 212.18 160.57 212.14 160.48V160.47Z" fill="#FFD670"/>
<path d="M267.66 147.67L266.78 145.32C266.76 145.26 266.72 145.2 266.68 145.16C266.64 145.12 266.58 145.08 266.52 145.06L264.17 144.19C264.08 144.16 264.01 144.1 263.96 144.02C263.91 143.94 263.88 143.85 263.88 143.76C263.88 143.67 263.91 143.58 263.96 143.5C264.01 143.42 264.09 143.37 264.17 143.33L266.52 142.46C266.58 142.44 266.63 142.4 266.68 142.36C266.73 142.31 266.76 142.26 266.78 142.2L267.65 139.85C267.68 139.76 267.74 139.69 267.81 139.64C267.89 139.59 267.98 139.56 268.07 139.56C268.16 139.56 268.25 139.59 268.33 139.64C268.41 139.69 268.46 139.77 268.5 139.85L269.37 142.2C269.39 142.26 269.43 142.32 269.47 142.36C269.52 142.41 269.57 142.44 269.63 142.46L271.98 143.33C272.07 143.36 272.14 143.42 272.19 143.49C272.24 143.57 272.27 143.66 272.27 143.75C272.27 143.84 272.24 143.93 272.19 144.01C272.14 144.09 272.06 144.14 271.98 144.18L269.64 145.05C269.58 145.07 269.52 145.11 269.48 145.15C269.43 145.2 269.4 145.25 269.37 145.31L268.5 147.66C268.47 147.75 268.41 147.82 268.33 147.87C268.25 147.92 268.17 147.95 268.07 147.95C267.97 147.95 267.89 147.92 267.81 147.87C267.73 147.82 267.68 147.74 267.64 147.66L267.66 147.67Z" fill="#E7B521"/>
<path d="M298.39 136.43L297.51 134.08C297.49 134.02 297.45 133.96 297.41 133.92C297.36 133.87 297.31 133.84 297.25 133.82L294.9 132.95C294.81 132.92 294.74 132.86 294.69 132.79C294.64 132.71 294.61 132.62 294.61 132.53C294.61 132.44 294.64 132.35 294.69 132.27C294.74 132.19 294.82 132.14 294.9 132.1L297.25 131.23C297.31 131.21 297.37 131.17 297.41 131.13C297.45 131.08 297.49 131.03 297.51 130.97L298.38 128.62C298.41 128.53 298.47 128.46 298.54 128.41C298.62 128.36 298.71 128.33 298.8 128.33C298.89 128.33 298.98 128.36 299.06 128.41C299.14 128.46 299.19 128.54 299.23 128.62L300.11 130.97C300.13 131.03 300.17 131.09 300.21 131.13C300.25 131.17 300.31 131.21 300.37 131.23L302.72 132.1C302.81 132.13 302.88 132.19 302.93 132.26C302.98 132.34 303.01 132.43 303.01 132.52C303.01 132.61 302.98 132.7 302.93 132.78C302.88 132.86 302.8 132.91 302.72 132.94L300.38 133.81C300.32 133.83 300.26 133.87 300.22 133.91C300.17 133.96 300.14 134.01 300.12 134.07L299.25 136.42C299.22 136.51 299.16 136.58 299.09 136.63C299.02 136.68 298.93 136.71 298.83 136.71C298.73 136.71 298.65 136.68 298.57 136.63C298.5 136.58 298.44 136.5 298.41 136.42L298.39 136.43Z" fill="#E7B521"/>
<path d="M506.39 139.93L505.51 137.58C505.49 137.52 505.45 137.46 505.41 137.42C505.36 137.37 505.31 137.34 505.25 137.32L502.9 136.45C502.81 136.42 502.74 136.36 502.69 136.29C502.64 136.21 502.61 136.12 502.61 136.03C502.61 135.94 502.64 135.85 502.69 135.77C502.74 135.69 502.82 135.64 502.9 135.6L505.25 134.73C505.31 134.71 505.36 134.67 505.41 134.63C505.45 134.58 505.49 134.53 505.51 134.47L506.38 132.12C506.41 132.03 506.47 131.96 506.55 131.91C506.63 131.86 506.72 131.83 506.81 131.83C506.9 131.83 506.99 131.86 507.07 131.91C507.15 131.96 507.2 132.04 507.23 132.12L508.11 134.47C508.13 134.53 508.17 134.59 508.21 134.63C508.26 134.68 508.31 134.71 508.37 134.73L510.72 135.6C510.81 135.63 510.88 135.69 510.93 135.76C510.98 135.84 511.01 135.93 511.01 136.02C511.01 136.11 510.98 136.2 510.93 136.28C510.88 136.36 510.8 136.41 510.72 136.44L508.38 137.31C508.32 137.33 508.26 137.37 508.22 137.41C508.17 137.46 508.14 137.51 508.11 137.57L507.24 139.92C507.21 140.01 507.15 140.08 507.07 140.13C506.99 140.18 506.91 140.21 506.81 140.21C506.71 140.21 506.63 140.18 506.56 140.13C506.48 140.08 506.43 140 506.39 139.92V139.93Z" fill="#E7B521"/>
<path d="M226.01 120.24L223.99 114.85C223.94 114.71 223.86 114.58 223.75 114.48C223.65 114.37 223.52 114.29 223.38 114.24L217.99 112.24C217.79 112.17 217.61 112.04 217.48 111.86C217.35 111.68 217.29 111.47 217.29 111.26C217.29 111.05 217.36 110.83 217.48 110.66C217.61 110.48 217.78 110.35 217.99 110.28L223.38 108.27C223.52 108.22 223.64 108.14 223.75 108.04C223.85 107.94 223.94 107.81 223.99 107.68L226 102.28C226.07 102.08 226.2 101.9 226.38 101.77C226.56 101.64 226.77 101.58 226.98 101.58C227.19 101.58 227.41 101.65 227.58 101.77C227.76 101.9 227.89 102.07 227.96 102.28L229.97 107.67C230.02 107.81 230.1 107.93 230.2 108.03C230.3 108.13 230.43 108.21 230.56 108.27L235.95 110.28C236.15 110.35 236.33 110.48 236.46 110.66C236.59 110.84 236.65 111.05 236.65 111.26C236.65 111.47 236.58 111.69 236.46 111.86C236.33 112.04 236.16 112.17 235.95 112.24L230.56 114.24C230.42 114.29 230.29 114.37 230.19 114.48C230.09 114.59 230 114.71 229.95 114.85L227.95 120.24C227.88 120.44 227.74 120.61 227.57 120.73C227.4 120.85 227.19 120.92 226.98 120.92C226.77 120.92 226.56 120.86 226.39 120.73C226.22 120.61 226.08 120.44 226.01 120.24Z" fill="#FFD670"/>
<path d="M282.18 100.65L280.17 95.26C280.12 95.12 280.04 94.99 279.93 94.89C279.82 94.79 279.7 94.7 279.56 94.65L274.17 92.64C273.97 92.57 273.8 92.43 273.68 92.26C273.56 92.09 273.5 91.88 273.5 91.67C273.5 91.46 273.56 91.25 273.68 91.08C273.8 90.91 273.97 90.77 274.17 90.7L279.56 88.69C279.7 88.64 279.83 88.56 279.93 88.45C280.04 88.34 280.12 88.22 280.17 88.08L282.17 82.67C282.24 82.47 282.38 82.3 282.55 82.18C282.72 82.06 282.93 81.99 283.14 81.99C283.35 81.99 283.56 82.05 283.73 82.18C283.9 82.3 284.04 82.47 284.11 82.67L286.12 88.06C286.17 88.2 286.25 88.33 286.36 88.43C286.46 88.54 286.59 88.62 286.73 88.67L292.13 90.67C292.33 90.74 292.51 90.87 292.64 91.05C292.76 91.23 292.83 91.44 292.83 91.65C292.83 91.86 292.76 92.08 292.64 92.25C292.51 92.43 292.34 92.56 292.13 92.63L286.74 94.64C286.6 94.69 286.47 94.77 286.37 94.88C286.27 94.99 286.19 95.11 286.13 95.25L284.12 100.64C284.05 100.84 283.91 101.01 283.74 101.13C283.57 101.25 283.36 101.32 283.15 101.31C282.94 101.31 282.73 101.24 282.56 101.12C282.39 101 282.25 100.83 282.18 100.63V100.65Z" fill="#E7B521"/>
<path d="M114.68 144.82L112.66 139.43C112.61 139.29 112.53 139.16 112.42 139.06C112.32 138.95 112.19 138.87 112.05 138.82L106.66 136.82C106.46 136.75 106.28 136.62 106.15 136.44C106.02 136.26 105.96 136.05 105.96 135.84C105.96 135.63 106.03 135.41 106.15 135.24C106.28 135.06 106.45 134.93 106.66 134.86L112.05 132.85C112.19 132.8 112.31 132.72 112.42 132.62C112.52 132.52 112.61 132.39 112.66 132.26L114.67 126.86C114.74 126.66 114.87 126.48 115.05 126.35C115.23 126.22 115.44 126.16 115.65 126.16C115.86 126.16 116.08 126.23 116.25 126.35C116.43 126.48 116.56 126.65 116.63 126.86L118.64 132.25C118.69 132.39 118.77 132.51 118.87 132.61C118.97 132.71 119.1 132.79 119.23 132.85L124.62 134.86C124.82 134.93 125 135.06 125.13 135.24C125.26 135.42 125.32 135.63 125.32 135.84C125.32 136.05 125.25 136.27 125.13 136.44C125 136.62 124.83 136.75 124.62 136.82L119.23 138.82C119.09 138.87 118.96 138.95 118.86 139.06C118.76 139.17 118.67 139.29 118.62 139.43L116.62 144.82C116.55 145.02 116.41 145.19 116.24 145.31C116.07 145.43 115.86 145.5 115.65 145.5C115.44 145.5 115.23 145.44 115.06 145.31C114.89 145.19 114.75 145.02 114.68 144.82Z" fill="#FFD670"/>
<path d="M167.22 125.52L166.05 122.39C166.02 122.31 165.97 122.23 165.91 122.17C165.85 122.11 165.77 122.06 165.69 122.03L162.55 120.86C162.44 120.82 162.34 120.74 162.27 120.64C162.2 120.54 162.16 120.42 162.16 120.3C162.16 120.18 162.2 120.06 162.27 119.96C162.34 119.86 162.44 119.78 162.55 119.74L165.68 118.57C165.76 118.54 165.84 118.49 165.9 118.43C165.96 118.37 166.01 118.29 166.04 118.21L167.21 115.07C167.25 114.95 167.33 114.85 167.43 114.78C167.53 114.71 167.65 114.67 167.77 114.67C167.89 114.67 168.01 114.71 168.11 114.78C168.21 114.85 168.29 114.95 168.33 115.07L169.5 118.2C169.53 118.28 169.58 118.35 169.64 118.42C169.7 118.48 169.77 118.53 169.86 118.56L173 119.73C173.12 119.77 173.22 119.85 173.29 119.95C173.36 120.05 173.4 120.17 173.4 120.3C173.4 120.43 173.36 120.55 173.29 120.65C173.22 120.75 173.11 120.83 173 120.87L169.86 122.04C169.78 122.07 169.71 122.12 169.64 122.18C169.58 122.24 169.53 122.31 169.5 122.4L168.33 125.54C168.29 125.66 168.21 125.76 168.11 125.83C168.01 125.9 167.89 125.94 167.77 125.94C167.65 125.94 167.53 125.9 167.43 125.83C167.33 125.76 167.25 125.66 167.21 125.54L167.22 125.52Z" fill="#E7B521"/>
<path d="M192.19 156.44L190.18 151.05C190.13 150.91 190.05 150.78 189.94 150.68C189.83 150.57 189.71 150.49 189.57 150.44L184.18 148.44C183.98 148.37 183.81 148.23 183.69 148.06C183.57 147.89 183.5 147.68 183.5 147.47C183.5 147.26 183.56 147.05 183.69 146.88C183.81 146.71 183.98 146.57 184.18 146.5L189.57 144.5C189.71 144.45 189.84 144.37 189.94 144.26C190.05 144.15 190.13 144.03 190.18 143.89L192.18 138.49C192.25 138.29 192.39 138.12 192.56 138C192.73 137.88 192.94 137.82 193.15 137.82C193.36 137.82 193.57 137.88 193.74 138C193.91 138.12 194.05 138.29 194.12 138.49L196.13 143.88C196.18 144.02 196.26 144.15 196.37 144.25C196.48 144.36 196.6 144.44 196.74 144.49L202.13 146.5C202.33 146.57 202.5 146.71 202.62 146.88C202.74 147.05 202.81 147.26 202.81 147.47C202.81 147.68 202.75 147.89 202.62 148.06C202.5 148.23 202.33 148.37 202.13 148.44L196.74 150.45C196.6 150.5 196.47 150.58 196.37 150.69C196.26 150.8 196.18 150.92 196.13 151.06L194.12 156.45C194.05 156.65 193.91 156.82 193.74 156.94C193.57 157.06 193.36 157.12 193.15 157.12C192.94 157.12 192.73 157.05 192.56 156.93C192.39 156.81 192.26 156.64 192.18 156.44H192.19Z" fill="#E7B521"/>
<path d="M311.31 158.68L309.3 153.29C309.25 153.15 309.17 153.02 309.06 152.92C308.95 152.81 308.83 152.73 308.69 152.68L303.3 150.67C303.1 150.6 302.93 150.46 302.81 150.29C302.69 150.12 302.62 149.91 302.62 149.7C302.62 149.49 302.68 149.28 302.81 149.11C302.93 148.94 303.1 148.8 303.3 148.73L308.69 146.72C308.83 146.67 308.96 146.59 309.06 146.48C309.16 146.37 309.25 146.25 309.3 146.11L311.3 140.7C311.37 140.5 311.51 140.33 311.68 140.21C311.85 140.09 312.06 140.02 312.27 140.02C312.48 140.02 312.69 140.09 312.86 140.21C313.03 140.33 313.17 140.5 313.24 140.7L315.26 146.1C315.31 146.24 315.39 146.37 315.5 146.47C315.6 146.58 315.73 146.66 315.87 146.71L321.27 148.71C321.47 148.78 321.64 148.92 321.76 149.09C321.88 149.26 321.95 149.47 321.95 149.68C321.95 149.89 321.89 150.1 321.76 150.27C321.63 150.44 321.47 150.58 321.27 150.65L315.88 152.66C315.74 152.71 315.61 152.79 315.51 152.9C315.4 153.01 315.32 153.13 315.27 153.27L313.26 158.66C313.19 158.86 313.06 159.03 312.88 159.16C312.71 159.28 312.5 159.35 312.28 159.35C312.06 159.35 311.86 159.28 311.68 159.16C311.51 159.04 311.37 158.86 311.3 158.66L311.31 158.68Z" fill="#FFD670"/>
<path d="M643.21 140.13L640.86 141.01C640.8 141.03 640.74 141.07 640.7 141.11C640.66 141.15 640.62 141.21 640.6 141.27L639.73 143.62C639.7 143.71 639.64 143.78 639.56 143.83C639.49 143.88 639.4 143.91 639.3 143.91C639.2 143.91 639.12 143.88 639.04 143.83C638.96 143.78 638.91 143.7 638.87 143.62L638 141.28C637.98 141.22 637.94 141.16 637.9 141.12C637.85 141.07 637.8 141.04 637.74 141.01L635.39 140.14C635.3 140.11 635.23 140.05 635.18 139.98C635.13 139.9 635.1 139.81 635.1 139.72C635.1 139.63 635.13 139.54 635.18 139.46C635.23 139.38 635.31 139.33 635.39 139.29L637.74 138.42C637.8 138.4 637.86 138.36 637.9 138.32C637.94 138.27 637.98 138.22 638 138.16L638.87 135.81C638.9 135.72 638.96 135.65 639.03 135.6C639.11 135.55 639.2 135.52 639.29 135.52C639.38 135.52 639.47 135.55 639.55 135.6C639.62 135.65 639.68 135.73 639.72 135.81L640.59 138.16C640.61 138.22 640.65 138.27 640.69 138.32C640.74 138.37 640.79 138.4 640.85 138.42L643.2 139.29C643.28 139.32 643.36 139.38 643.41 139.46C643.46 139.53 643.49 139.62 643.49 139.71C643.49 139.8 643.46 139.89 643.41 139.96C643.36 140.03 643.29 140.09 643.2 140.13H643.21Z" fill="#FFD670"/>
<path d="M134.61 125.15L132.26 126.03C132.2 126.05 132.14 126.09 132.1 126.13C132.06 126.17 132.02 126.23 132 126.29L131.13 128.64C131.1 128.73 131.04 128.8 130.96 128.85C130.89 128.9 130.8 128.93 130.7 128.93C130.6 128.93 130.52 128.9 130.44 128.85C130.36 128.8 130.31 128.72 130.27 128.64L129.4 126.3C129.38 126.24 129.34 126.18 129.3 126.14C129.25 126.09 129.2 126.06 129.14 126.03L126.79 125.16C126.7 125.13 126.63 125.07 126.58 125C126.53 124.92 126.5 124.83 126.5 124.74C126.5 124.65 126.53 124.56 126.58 124.48C126.63 124.4 126.71 124.35 126.79 124.31L129.14 123.44C129.2 123.42 129.26 123.38 129.3 123.34C129.34 123.29 129.38 123.24 129.4 123.18L130.27 120.83C130.3 120.74 130.36 120.67 130.43 120.62C130.51 120.57 130.6 120.54 130.69 120.54C130.78 120.54 130.87 120.57 130.95 120.62C131.02 120.67 131.08 120.75 131.12 120.83L131.99 123.18C132.01 123.24 132.05 123.29 132.09 123.34C132.14 123.39 132.19 123.42 132.25 123.44L134.6 124.31C134.68 124.34 134.76 124.4 134.81 124.48C134.86 124.55 134.89 124.64 134.89 124.73C134.89 124.82 134.86 124.91 134.81 124.98C134.76 125.05 134.69 125.11 134.6 125.15H134.61Z" fill="#FFD670"/>
<path d="M504.86 87.9199L502.51 88.7999C502.45 88.8199 502.39 88.8599 502.35 88.8999C502.31 88.9499 502.27 88.9999 502.25 89.0599L501.38 91.41C501.35 91.5 501.29 91.5699 501.22 91.6199C501.14 91.6699 501.05 91.6999 500.96 91.6999C500.87 91.6999 500.78 91.6699 500.7 91.6199C500.62 91.5699 500.57 91.49 500.53 91.41L499.66 89.0599C499.64 88.9999 499.6 88.9499 499.56 88.8999C499.51 88.8499 499.46 88.8199 499.4 88.7999L497.05 87.9299C496.96 87.8999 496.89 87.8399 496.84 87.7699C496.79 87.6899 496.76 87.5999 496.76 87.5099C496.76 87.4199 496.79 87.3299 496.84 87.2499C496.89 87.1699 496.97 87.1199 497.05 87.0899L499.4 86.2199C499.46 86.1999 499.52 86.1599 499.56 86.1199C499.61 86.0699 499.64 86.0199 499.66 85.9599L500.53 83.6099C500.56 83.5199 500.62 83.4499 500.69 83.3999C500.77 83.3499 500.86 83.3199 500.95 83.3199C501.04 83.3199 501.13 83.3499 501.21 83.3999C501.29 83.4499 501.34 83.5299 501.37 83.6099L502.24 85.9499C502.26 86.0099 502.3 86.0699 502.34 86.1099C502.38 86.1599 502.44 86.1899 502.5 86.2199L504.85 87.0899C504.94 87.1199 505.01 87.1799 505.06 87.2599C505.11 87.3399 505.14 87.4199 505.14 87.5199C505.14 87.6199 505.11 87.6999 505.06 87.7799C505.01 87.8599 504.94 87.9099 504.85 87.9499L504.86 87.9199Z" fill="#E7B521"/>
<path d="M561.09 102.56L555.7 104.57C555.56 104.62 555.43 104.7 555.33 104.81C555.22 104.92 555.14 105.04 555.09 105.18L553.08 110.57C553.01 110.77 552.87 110.94 552.7 111.06C552.53 111.18 552.32 111.24 552.11 111.24C551.9 111.24 551.69 111.18 551.52 111.06C551.35 110.94 551.21 110.77 551.14 110.57L549.13 105.18C549.08 105.04 549 104.91 548.89 104.81C548.78 104.7 548.66 104.62 548.52 104.57L543.11 102.57C542.91 102.5 542.74 102.36 542.62 102.19C542.5 102.02 542.43 101.81 542.43 101.6C542.43 101.39 542.5 101.18 542.62 101.01C542.74 100.84 542.91 100.7 543.11 100.63L548.5 98.62C548.64 98.57 548.77 98.49 548.87 98.38C548.98 98.28 549.06 98.15 549.11 98.01L551.11 92.61C551.18 92.41 551.31 92.23 551.49 92.1C551.66 91.97 551.88 91.91 552.09 91.91C552.3 91.91 552.52 91.98 552.69 92.1C552.87 92.23 553 92.4 553.07 92.61L555.08 98C555.13 98.14 555.21 98.27 555.32 98.37C555.42 98.47 555.55 98.56 555.69 98.61L561.08 100.62C561.28 100.69 561.45 100.83 561.57 101C561.69 101.17 561.76 101.38 561.75 101.59C561.75 101.8 561.68 102.01 561.56 102.18C561.44 102.35 561.27 102.49 561.07 102.56H561.09Z" fill="#E7B521"/>
<path d="M638.07 121.34L632.68 123.35C632.54 123.4 632.41 123.48 632.31 123.59C632.2 123.7 632.12 123.82 632.07 123.96L630.07 129.35C630 129.55 629.86 129.72 629.69 129.84C629.52 129.96 629.31 130.03 629.1 130.03C628.89 130.03 628.68 129.97 628.51 129.84C628.34 129.72 628.2 129.55 628.13 129.35L626.13 123.96C626.08 123.82 626 123.69 625.89 123.59C625.78 123.48 625.66 123.4 625.52 123.35L620.12 121.35C619.92 121.28 619.75 121.14 619.63 120.97C619.51 120.8 619.45 120.59 619.45 120.38C619.45 120.17 619.51 119.96 619.63 119.79C619.75 119.62 619.92 119.48 620.12 119.41L625.51 117.4C625.65 117.35 625.78 117.27 625.88 117.16C625.99 117.05 626.07 116.93 626.12 116.79L628.13 111.4C628.2 111.2 628.33 111.03 628.51 110.91C628.68 110.79 628.89 110.72 629.1 110.72C629.31 110.72 629.52 110.78 629.69 110.91C629.86 111.03 630 111.2 630.07 111.4L632.08 116.79C632.13 116.93 632.21 117.06 632.32 117.16C632.43 117.27 632.55 117.35 632.69 117.4L638.08 119.41C638.28 119.48 638.45 119.62 638.57 119.79C638.69 119.96 638.75 120.17 638.75 120.38C638.75 120.59 638.68 120.8 638.56 120.97C638.44 121.14 638.27 121.27 638.07 121.35V121.34Z" fill="#E7B521"/>
<path d="M504.94 125.7L499.55 127.71C499.41 127.76 499.28 127.84 499.18 127.95C499.08 128.06 498.99 128.18 498.94 128.32L496.93 133.71C496.86 133.91 496.72 134.08 496.55 134.2C496.38 134.32 496.17 134.38 495.96 134.38C495.75 134.38 495.54 134.32 495.37 134.2C495.2 134.08 495.06 133.91 494.99 133.71L492.98 128.32C492.93 128.18 492.85 128.05 492.74 127.95C492.63 127.84 492.51 127.76 492.37 127.71L486.96 125.71C486.76 125.64 486.59 125.5 486.47 125.33C486.35 125.16 486.28 124.95 486.28 124.74C486.28 124.53 486.35 124.32 486.47 124.15C486.59 123.98 486.76 123.84 486.96 123.77L492.36 121.75C492.5 121.7 492.63 121.62 492.73 121.51C492.84 121.41 492.92 121.28 492.97 121.14L494.97 115.74C495.04 115.54 495.18 115.37 495.35 115.25C495.52 115.13 495.73 115.06 495.94 115.06C496.15 115.06 496.36 115.13 496.53 115.25C496.7 115.37 496.84 115.54 496.91 115.74L498.92 121.13C498.97 121.27 499.05 121.4 499.16 121.5C499.27 121.61 499.39 121.69 499.53 121.74L504.92 123.75C505.12 123.82 505.3 123.95 505.42 124.13C505.54 124.3 505.61 124.51 505.61 124.73C505.61 124.95 505.54 125.15 505.42 125.33C505.3 125.5 505.12 125.64 504.92 125.71L504.94 125.7Z" fill="#FFD670"/>
<path d="M136.68 424C139.98 424 142.66 426.68 142.66 429.98C142.66 433.28 139.98 435.96 136.68 435.96C133.38 435.96 130.7 433.28 130.7 429.98C130.7 426.68 133.38 424 136.68 424ZM161.46 429.98C161.46 433.28 164.14 435.96 167.44 435.96C170.74 435.96 173.42 433.28 173.42 429.98C173.42 426.68 170.74 424 167.44 424C164.14 424 161.46 426.68 161.46 429.98ZM192.22 429.98C192.22 433.28 194.9 435.96 198.2 435.96C201.5 435.96 204.18 433.28 204.18 429.98C204.18 426.68 201.5 424 198.2 424C194.9 424 192.22 426.68 192.22 429.98ZM222.98 429.98C222.98 433.28 225.66 435.96 228.96 435.96C232.26 435.96 234.94 433.28 234.94 429.98C234.94 426.68 232.26 424 228.96 424C225.66 424 222.98 426.68 222.98 429.98ZM253.74 429.98C253.74 433.28 256.42 435.96 259.72 435.96C263.02 435.96 265.7 433.28 265.7 429.98C265.7 426.68 263.02 424 259.72 424C256.42 424 253.74 426.68 253.74 429.98ZM284.5 429.98C284.5 433.28 287.18 435.96 290.48 435.96C293.78 435.96 296.46 433.28 296.46 429.98C296.46 426.68 293.78 424 290.48 424C287.18 424 284.5 426.68 284.5 429.98ZM315.26 429.98C315.26 433.28 317.94 435.96 321.24 435.96C324.54 435.96 327.22 433.28 327.22 429.98C327.22 426.68 324.54 424 321.24 424C317.94 424 315.26 426.68 315.26 429.98ZM346.02 429.98C346.02 433.28 348.7 435.96 352 435.96C355.3 435.96 357.98 433.28 357.98 429.98C357.98 426.68 355.3 424 352 424C348.7 424 346.02 426.68 346.02 429.98ZM376.78 429.98C376.78 433.28 379.46 435.96 382.76 435.96C386.06 435.96 388.74 433.28 388.74 429.98C388.74 426.68 386.06 424 382.76 424C379.46 424 376.78 426.68 376.78 429.98ZM407.54 429.98C407.54 433.28 410.22 435.96 413.52 435.96C416.82 435.96 419.5 433.28 419.5 429.98C419.5 426.68 416.82 424 413.52 424C410.22 424 407.54 426.68 407.54 429.98ZM438.3 429.98C438.3 433.28 440.98 435.96 444.28 435.96C447.58 435.96 450.26 433.28 450.26 429.98C450.26 426.68 447.58 424 444.28 424C440.98 424 438.3 426.68 438.3 429.98ZM469.06 429.98C469.06 433.28 471.74 435.96 475.04 435.96C478.34 435.96 481.02 433.28 481.02 429.98C481.02 426.68 478.34 424 475.04 424C471.74 424 469.06 426.68 469.06 429.98ZM499.82 429.98C499.82 433.28 502.5 435.96 505.8 435.96C509.1 435.96 511.78 433.28 511.78 429.98C511.78 426.68 509.1 424 505.8 424C502.5 424 499.82 426.68 499.82 429.98ZM530.58 429.98C530.58 433.28 533.26 435.96 536.56 435.96C539.86 435.96 542.54 433.28 542.54 429.98C542.54 426.68 539.86 424 536.56 424C533.26 424 530.58 426.68 530.58 429.98ZM561.34 429.98C561.34 433.28 564.02 435.96 567.32 435.96C570.62 435.96 573.3 433.28 573.3 429.98C573.3 426.68 570.62 424 567.32 424C564.02 424 561.34 426.68 561.34 429.98ZM592.1 429.98C592.1 433.28 594.78 435.96 598.08 435.96C601.38 435.96 604.06 433.28 604.06 429.98C604.06 426.68 601.38 424 598.08 424C594.78 424 592.1 426.68 592.1 429.98ZM622.86 429.98C622.86 433.28 625.54 435.96 628.84 435.96C632.14 435.96 634.82 433.28 634.82 429.98C634.82 426.68 632.14 424 628.84 424C625.54 424 622.86 426.68 622.86 429.98ZM653.62 429.98C653.62 433.28 656.3 435.96 659.6 435.96C662.9 435.96 665.58 433.28 665.58 429.98C665.58 426.68 662.9 424 659.6 424C656.3 424 653.62 426.68 653.62 429.98Z" fill="#B9E1F8"/>
<path fill-rule="evenodd" clip-rule="evenodd" d="M67.7 70H727.7V540H67.7V70ZM61.57 95.18C59.22 93.35 57.7 90.49 57.7 87.28V86.29C57.7 83.08 59.21 80.22 61.57 78.39C59.22 76.56 57.7 73.7 57.7 70.49V60H68.2C71.45 60 74.34 61.55 76.16 63.95C77.99 61.55 80.87 60 84.12 60H85.12C88.37 60 91.26 61.55 93.08 63.95C94.91 61.55 97.79 60 101.04 60H102.04C105.29 60 108.18 61.55 110 63.95C111.83 61.55 114.72 60 117.96 60H118.96C122.21 60 125.1 61.55 126.92 63.95C128.75 61.55 131.64 60 134.88 60H135.88C139.13 60 142.02 61.55 143.84 63.95C145.67 61.55 148.55 60 151.8 60H152.8C156.05 60 158.94 61.55 160.76 63.95C162.59 61.55 165.47 60 168.72 60H169.72C172.97 60 175.86 61.55 177.68 63.95C179.51 61.55 182.39 60 185.64 60H186.63C189.88 60 192.77 61.55 194.59 63.95C196.42 61.55 199.3 60 202.55 60H203.55C206.8 60 209.69 61.55 211.51 63.95C213.34 61.55 216.22 60 219.47 60H220.46C223.71 60 226.6 61.55 228.42 63.95C230.25 61.55 233.13 60 236.38 60H237.37C240.62 60 243.51 61.55 245.33 63.95C247.16 61.55 250.04 60 253.29 60H254.28C257.53 60 260.42 61.55 262.24 63.95C264.07 61.55 266.95 60 270.2 60H271.2C274.45 60 277.34 61.55 279.16 63.95C280.99 61.55 283.87 60 287.12 60H288.12C291.37 60 294.26 61.55 296.08 63.95C297.91 61.55 300.79 60 304.04 60H305.04C308.29 60 311.18 61.55 313 63.95C314.83 61.55 317.71 60 320.96 60H321.96C325.21 60 328.1 61.55 329.92 63.95C331.75 61.55 334.63 60 337.88 60H338.88C342.13 60 345.02 61.55 346.84 63.95C348.67 61.55 351.55 60 354.8 60H355.79C359.04 60 361.93 61.55 363.75 63.95C365.58 61.55 368.46 60 371.71 60H372.7C375.95 60 378.84 61.55 380.66 63.95C382.49 61.55 385.37 60 388.62 60H389.62C392.87 60 395.76 61.55 397.58 63.95C399.41 61.55 402.29 60 405.54 60H406.54C409.79 60 412.68 61.55 414.5 63.95C416.33 61.55 419.21 60 422.46 60H423.45C426.7 60 429.59 61.55 431.41 63.95C433.24 61.55 436.12 60 439.37 60H440.36C443.61 60 446.5 61.55 448.32 63.95C450.15 61.55 453.03 60 456.28 60H457.28C460.53 60 463.42 61.55 465.24 63.95C467.07 61.55 469.96 60 473.2 60H474.2C477.45 60 480.34 61.55 482.16 63.95C483.99 61.55 486.87 60 490.12 60H491.12C494.37 60 497.26 61.55 499.08 63.95C500.91 61.55 503.79 60 507.04 60H508.04C511.29 60 514.18 61.55 516 63.95C517.83 61.55 520.71 60 523.96 60H524.96C528.21 60 531.1 61.55 532.92 63.95C534.75 61.55 537.63 60 540.88 60H541.88C545.13 60 548.02 61.55 549.84 63.95C551.67 61.55 554.55 60 557.8 60H558.8C562.05 60 564.94 61.55 566.76 63.95C568.59 61.55 571.47 60 574.72 60H575.71C578.96 60 581.85 61.55 583.67 63.95C585.5 61.55 588.38 60 591.63 60H592.62C595.87 60 598.76 61.55 600.58 63.95C602.41 61.55 605.29 60 608.54 60H609.53C612.78 60 615.67 61.55 617.49 63.95C619.32 61.55 622.2 60 625.45 60H626.44C629.69 60 632.58 61.55 634.4 63.95C636.23 61.55 639.11 60 642.36 60H643.35C646.6 60 649.49 61.55 651.31 63.95C653.14 61.55 656.02 60 659.27 60H660.26C663.51 60 666.4 61.55 668.22 63.95C670.05 61.55 672.93 60 676.18 60H677.18C680.43 60 683.32 61.55 685.14 63.95C686.97 61.55 689.85 60 693.1 60H694.1C697.35 60 700.24 61.55 702.06 63.95C703.89 61.55 706.78 60 710.02 60H711.02C714.27 60 717.16 61.55 718.98 63.95C720.81 61.55 723.69 60 726.94 60H737.44V70.49C737.44 73.7 735.93 76.56 733.57 78.39C735.92 80.22 737.44 83.08 737.44 86.29V87.28C737.44 90.49 735.93 93.35 733.57 95.18C735.92 97.01 737.44 99.87 737.44 103.08V104.07C737.44 107.28 735.93 110.14 733.57 111.97C735.92 113.8 737.44 116.66 737.44 119.87V120.86C737.44 124.07 735.93 126.93 733.57 128.76C735.92 130.59 737.44 133.45 737.44 136.66V137.65C737.44 140.86 735.93 143.72 733.57 145.55C735.92 147.38 737.44 150.24 737.44 153.45V154.44C737.44 157.65 735.93 160.51 733.57 162.34C735.92 164.17 737.44 167.03 737.44 170.24V171.23C737.44 174.44 735.93 177.3 733.57 179.13C735.92 180.96 737.44 183.82 737.44 187.03V188.02C737.44 191.23 735.93 194.09 733.57 195.92C735.92 197.75 737.44 200.61 737.44 203.82V204.81C737.44 208.02 735.93 210.88 733.57 212.71C735.92 214.54 737.44 217.4 737.44 220.61V221.6C737.44 224.81 735.93 227.67 733.57 229.5C735.92 231.33 737.44 234.19 737.44 237.4V238.39C737.44 241.6 735.93 244.46 733.57 246.29C735.92 248.12 737.44 250.98 737.44 254.19V255.18C737.44 258.39 735.93 261.25 733.57 263.08C735.92 264.91 737.44 267.77 737.44 270.98V271.97C737.44 275.18 735.93 278.04 733.57 279.87C735.92 281.7 737.44 284.56 737.44 287.77V288.76C737.44 291.97 735.93 294.83 733.57 296.66C735.92 298.49 737.44 301.35 737.44 304.56V305.55C737.44 308.76 735.93 311.62 733.57 313.45C735.92 315.28 737.44 318.14 737.44 321.35V322.34C737.44 325.55 735.93 328.41 733.57 330.24C735.92 332.07 737.44 334.93 737.44 338.14V339.13C737.44 342.34 735.93 345.2 733.57 347.03C735.92 348.86 737.44 351.72 737.44 354.93V355.92C737.44 359.13 735.93 361.99 733.57 363.82C735.92 365.65 737.44 368.51 737.44 371.72V372.71C737.44 375.92 735.93 378.78 733.57 380.61C735.92 382.44 737.44 385.3 737.44 388.51V389.5C737.44 392.71 735.93 395.57 733.57 397.4C735.92 399.23 737.44 402.09 737.44 405.3V406.29C737.44 409.5 735.93 412.36 733.57 414.19C735.92 416.02 737.44 418.88 737.44 422.09V423.08C737.44 426.29 735.93 429.15 733.57 430.98C735.92 432.81 737.44 435.67 737.44 438.88V439.87C737.44 443.08 735.93 445.94 733.57 447.77C735.92 449.6 737.44 452.46 737.44 455.67V456.66C737.44 459.87 735.93 462.73 733.57 464.56C735.92 466.39 737.44 469.25 737.44 472.46V473.45C737.44 476.66 735.93 479.52 733.57 481.35C735.92 483.18 737.44 486.04 737.44 489.25V490.24C737.44 493.45 735.93 496.31 733.57 498.14C735.92 499.97 737.44 502.83 737.44 506.04V507.03C737.44 510.24 735.93 513.1 733.57 514.93C735.92 516.76 737.44 519.62 737.44 522.83V523.82C737.44 527.03 735.93 529.89 733.57 531.72C735.92 533.55 737.44 536.41 737.44 539.62V550.11H726.94C723.69 550.11 720.8 548.56 718.98 546.16C717.15 548.56 714.27 550.11 711.02 550.11H710.03C706.78 550.11 703.89 548.56 702.07 546.16C700.24 548.56 697.36 550.11 694.11 550.11H693.11C689.86 550.11 686.97 548.56 685.15 546.16C683.32 548.56 680.44 550.11 677.19 550.11H676.19C672.94 550.11 670.05 548.56 668.23 546.16C666.4 548.56 663.51 550.11 660.27 550.11H659.27C656.02 550.11 653.13 548.56 651.31 546.16C649.48 548.56 646.6 550.11 643.35 550.11H642.35C639.1 550.11 636.21 548.56 634.39 546.16C632.56 548.56 629.68 550.11 626.43 550.11H625.43C622.18 550.11 619.29 548.56 617.47 546.16C615.64 548.56 612.76 550.11 609.51 550.11H608.52C605.27 550.11 602.38 548.56 600.56 546.16C598.73 548.56 595.85 550.11 592.6 550.11H591.61C588.36 550.11 585.47 548.56 583.65 546.16C581.82 548.56 578.94 550.11 575.69 550.11H574.7C571.45 550.11 568.56 548.56 566.74 546.16C564.91 548.56 562.03 550.11 558.78 550.11H557.78C554.53 550.11 551.64 548.56 549.82 546.16C547.99 548.56 545.11 550.11 541.86 550.11H540.87C537.62 550.11 534.73 548.56 532.91 546.16C531.08 548.56 528.2 550.11 524.95 550.11H523.95C520.7 550.11 517.81 548.56 515.99 546.16C514.16 548.56 511.28 550.11 508.03 550.11H507.03C503.78 550.11 500.89 548.56 499.07 546.16C497.24 548.56 494.36 550.11 491.11 550.11H490.11C486.86 550.11 483.97 548.56 482.15 546.16C480.32 548.56 477.44 550.11 474.19 550.11H473.19C469.94 550.11 467.05 548.56 465.23 546.16C463.4 548.56 460.52 550.11 457.27 550.11H456.27C453.02 550.11 450.13 548.56 448.31 546.16C446.48 548.56 443.6 550.11 440.35 550.11H439.36C436.11 550.11 433.22 548.56 431.4 546.16C429.57 548.56 426.69 550.11 423.44 550.11H422.45C419.2 550.11 416.31 548.56 414.49 546.16C412.66 548.56 409.78 550.11 406.53 550.11H405.53C402.28 550.11 399.39 548.56 397.57 546.16C395.74 548.56 392.86 550.11 389.61 550.11H388.61C385.36 550.11 382.47 548.56 380.65 546.16C378.82 548.56 375.94 550.11 372.69 550.11H371.7C368.45 550.11 365.56 548.56 363.74 546.16C361.91 548.56 359.03 550.11 355.78 550.11H354.79C351.54 550.11 348.65 548.56 346.83 546.16C345 548.56 342.12 550.11 338.87 550.11H337.87C334.62 550.11 331.73 548.56 329.91 546.16C328.08 548.56 325.19 550.11 321.95 550.11H320.95C317.7 550.11 314.81 548.56 312.99 546.16C311.16 548.56 308.28 550.11 305.03 550.11H304.03C300.78 550.11 297.89 548.56 296.07 546.16C294.24 548.56 291.36 550.11 288.11 550.11H287.11C283.86 550.11 280.97 548.56 279.15 546.16C277.32 548.56 274.44 550.11 271.19 550.11H270.19C266.94 550.11 264.05 548.56 262.23 546.16C260.4 548.56 257.52 550.11 254.27 550.11H253.27C250.02 550.11 247.13 548.56 245.31 546.16C243.48 548.56 240.6 550.11 237.35 550.11H236.36C233.11 550.11 230.22 548.56 228.4 546.16C226.57 548.56 223.69 550.11 220.44 550.11H219.45C216.2 550.11 213.31 548.56 211.49 546.16C209.66 548.56 206.78 550.11 203.53 550.11H202.53C199.28 550.11 196.39 548.56 194.57 546.16C192.74 548.56 189.86 550.11 186.61 550.11H185.62C182.37 550.11 179.48 548.56 177.66 546.16C175.83 548.56 172.95 550.11 169.7 550.11H168.71C165.46 550.11 162.57 548.56 160.75 546.16C158.92 548.56 156.04 550.11 152.79 550.11H151.79C148.54 550.11 145.65 548.56 143.83 546.16C142 548.56 139.12 550.11 135.87 550.11H134.88C131.63 550.11 128.74 548.56 126.92 546.16C125.09 548.56 122.21 550.11 118.96 550.11H117.96C114.71 550.11 111.82 548.56 110 546.16C108.17 548.56 105.29 550.11 102.04 550.11H101.04C97.79 550.11 94.9 548.56 93.08 546.16C91.25 548.56 88.37 550.11 85.12 550.11H84.12C80.87 550.11 77.98 548.56 76.16 546.16C74.33 548.56 71.45 550.11 68.2 550.11H57.7V539.62C57.7 536.41 59.21 533.55 61.57 531.72C59.22 529.89 57.7 527.03 57.7 523.82V522.83C57.7 519.62 59.21 516.76 61.57 514.93C59.22 513.1 57.7 510.24 57.7 507.03V506.04C57.7 502.83 59.21 499.97 61.57 498.14C59.22 496.31 57.7 493.45 57.7 490.24V489.25C57.7 486.04 59.21 483.18 61.57 481.35C59.22 479.52 57.7 476.66 57.7 473.45V472.46C57.7 469.25 59.21 466.39 61.57 464.56C59.22 462.73 57.7 459.87 57.7 456.66V455.67C57.7 452.46 59.21 449.6 61.57 447.77C59.22 445.94 57.7 443.08 57.7 439.87V438.88C57.7 435.67 59.21 432.81 61.57 430.98C59.22 429.15 57.7 426.29 57.7 423.08V422.09C57.7 418.88 59.21 416.02 61.57 414.19C59.22 412.36 57.7 409.5 57.7 406.29V405.3C57.7 402.09 59.21 399.23 61.57 397.4C59.22 395.57 57.7 392.71 57.7 389.5V388.51C57.7 385.3 59.21 382.44 61.57 380.61C59.22 378.78 57.7 375.92 57.7 372.71V371.72C57.7 368.51 59.21 365.65 61.57 363.82C59.22 361.99 57.7 359.13 57.7 355.92V354.93C57.7 351.72 59.21 348.86 61.57 347.03C59.22 345.2 57.7 342.34 57.7 339.13V338.14C57.7 334.93 59.21 332.07 61.57 330.24C59.22 328.41 57.7 325.55 57.7 322.34V321.35C57.7 318.14 59.21 315.28 61.57 313.45C59.22 311.62 57.7 308.76 57.7 305.55V304.56C57.7 301.35 59.21 298.49 61.57 296.66C59.22 294.83 57.7 291.97 57.7 288.76V287.77C57.7 284.56 59.21 281.7 61.57 279.87C59.22 278.04 57.7 275.18 57.7 271.97V270.98C57.7 267.77 59.21 264.91 61.57 263.08C59.22 261.25 57.7 258.39 57.7 255.18V254.19C57.7 250.98 59.21 248.12 61.57 246.29C59.22 244.46 57.7 241.6 57.7 238.39V237.4C57.7 234.19 59.21 231.33 61.57 229.5C59.22 227.67 57.7 224.81 57.7 221.6V220.61C57.7 217.4 59.21 214.54 61.57 212.71C59.22 210.88 57.7 208.02 57.7 204.81V203.82C57.7 200.61 59.21 197.75 61.57 195.92C59.22 194.09 57.7 191.23 57.7 188.02V187.03C57.7 183.82 59.21 180.96 61.57 179.13C59.22 177.3 57.7 174.44 57.7 171.23V170.24C57.7 167.03 59.21 164.17 61.57 162.34C59.22 160.51 57.7 157.65 57.7 154.44V153.45C57.7 150.24 59.21 147.38 61.57 145.55C59.22 143.72 57.7 140.86 57.7 137.65V136.66C57.7 133.45 59.21 130.59 61.57 128.76C59.22 126.93 57.7 124.07 57.7 120.86V119.87C57.7 116.66 59.21 113.8 61.57 111.97C59.22 110.14 57.7 107.28 57.7 104.07V103.08C57.7 99.87 59.21 97.01 61.57 95.18Z" fill="#40BEAD"/>
<path d="M714.7 561C733.478 561 748.7 545.778 748.7 527C748.7 508.222 733.478 493 714.7 493C695.922 493 680.7 508.222 680.7 527C680.7 545.778 695.922 561 714.7 561Z" fill="#40BEAD"/>
<path d="M698.7 82V74H730.7V82H698.7Z" fill="white"/>
<path fill-rule="evenodd" clip-rule="evenodd" d="M83.7 62H75.7V74H63.7V82H75.7V94H83.7V82H95.7V74H83.7V62Z" fill="white"/>
<path fill-rule="evenodd" clip-rule="evenodd" d="M707.21 512.86L701.55 518.52L710.04 527L701.55 535.48L707.21 541.14L715.69 532.65L724.17 541.14L729.83 535.48L721.34 527L729.83 518.52L724.17 512.86L715.69 521.35L707.21 512.86Z" fill="white"/>
<path fill-rule="evenodd" clip-rule="evenodd" d="M63.7 531V523H95.7V531H63.7ZM85.7 513C85.7 516.31 83.01 519 79.7 519C76.39 519 73.7 516.31 73.7 513C73.7 509.69 76.39 507 79.7 507C83.01 507 85.7 509.69 85.7 513ZM79.7 546C83.01 546 85.7 543.31 85.7 540C85.7 536.69 83.01 534 79.7 534C76.39 534 73.7 536.69 73.7 540C73.7 543.31 76.39 546 79.7 546Z" fill="white"/>
<path d="M760.86 378.23L756.33 376.16C736.61 367.16 705.08 358.13 679.75 350.87C672.61 348.83 665.86 346.89 660.21 345.2L658.71 344.75L675.83 272.99L677.44 273.37C701.54 279.03 749.76 294.05 776.54 310.23L779.59 312.08L776.21 313.23C760.68 318.51 750.9 321.96 734.93 329.7C739.93 338.05 744.88 347.69 749.67 357.03C752.57 362.69 755.57 368.54 758.47 373.86L760.85 378.24L760.86 378.23Z" fill="#1397E1"/>
<path d="M662.66 342.47C667.97 344.05 674.15 345.82 680.65 347.68C704.28 354.45 733.28 362.75 753.27 371.19C751.08 367.06 748.87 362.75 746.71 358.54C741.64 348.66 736.4 338.45 731.14 329.86L730.19 328.3L731.83 327.5C747.66 319.74 757.82 315.99 771.7 311.24C745.37 296.3 701.72 282.63 678.28 276.98L662.66 342.46V342.47Z" fill="white"/>
<path d="M659.1 344.56L668.05 305.02L710.98 309.24L709.01 332.21L659.1 344.56Z" fill="#1397E1"/>
<path d="M670.65 308.61L663.53 340.04L705.9 329.55L707.39 312.23L670.65 308.61Z" fill="#40BEAD"/>
<path d="M34.29 380.69L36.67 376.31C45.19 360.67 52.31 345.03 57.67 332.85C52.59 330.77 35.8 323.97 16.25 316.53L13 315.29L16.01 313.54C48.25 294.76 97.44 278.3 122.06 272.62L123.67 272.25L124.05 273.86C127.14 286.81 141.4 342.88 141.54 343.45L141.93 344.99L140.41 345.45C135.83 346.83 130.4 348.41 124.43 350.16C97.08 358.16 59.63 369.12 38.83 378.61L34.3 380.68L34.29 380.69Z" fill="#1397E1"/>
<path d="M20.72 314.68C42.65 323.07 60.33 330.35 60.51 330.42L62.08 331.07L61.4 332.63C56.42 344.01 49.8 358.67 41.87 373.65C63.44 364.54 97.88 354.46 123.49 346.97C128.81 345.42 133.69 343.99 137.93 342.72C135.69 333.92 124.58 290.17 121.2 276.24C97.69 281.88 51.67 297.37 20.72 314.68Z" fill="white"/>
<path d="M141.67 344.56L95.8 332.66L94.72 309.58L131.83 305.52L141.67 344.56Z" fill="#1397E1"/>
<path d="M99 330.05L137.08 339.93L129.31 309.14L98.18 312.54L99 330.05Z" fill="#40BEAD"/>
<path d="M95.77 332.59L76.2 237.78L77.82 237.45C175.95 217.58 287.05 206.79 399.1 206.25C516.16 205.66 627.68 216.5 721.71 237.53L723.21 237.87L708.95 332.13L707.18 331.68C530.62 286.82 262.8 287.02 97.46 332.13L95.77 332.59Z" fill="#1397E1"/>
<path d="M80.1 240.36L98.29 328.49C263.68 283.86 529.79 283.66 706.23 328.04L719.48 240.43C626 219.67 515.26 208.99 399.11 209.56C287.88 210.1 177.62 220.75 80.09 240.37L80.1 240.36Z" fill="white"/>
<path d="M413.19 155.97C413.19 155.97 386.51 183.28 378.27 231.89C359.01 215.1 358.75 203.37 358.75 203.37C358.75 203.37 341.98 213.79 330.59 217.6C327.42 195.73 342.1 159.9 365.46 134.15C392.02 148.85 413.19 155.97 413.19 155.97Z" fill="white" stroke="#1397E1" stroke-width="15" stroke-miterlimit="10"/>
<path d="M425.84 134.07C425.84 134.07 423.88 170.32 451.84 210.93C426.32 212.3 417.97 204.07 417.97 204.07C417.97 204.07 413.2 223.22 407.68 233.9C390.17 220.42 375.74 184.49 374.56 149.74C403.86 141.78 425.84 134.07 425.84 134.07Z" fill="white" stroke="#1397E1" stroke-width="15" stroke-miterlimit="10"/>
<path d="M378.27 231.89C359.01 215.1 358.8 206.23 358.11 203.11C353.36 206.23 341.98 213.79 330.59 217.6C327.42 195.73 342.1 159.9 365.46 134.15C392.02 148.85 413.19 155.97 413.19 155.97C413.19 155.97 386.51 183.28 378.27 231.89Z" fill="#1397E1" stroke="white" stroke-width="5" stroke-miterlimit="10"/>
<path d="M425.84 134.07C425.84 134.07 423.88 170.32 451.84 210.93C426.32 212.3 417.97 204.07 417.97 204.07C417.97 204.07 413.2 223.22 407.68 233.9C390.17 220.42 375.74 184.49 374.56 149.74C403.86 141.78 425.84 134.07 425.84 134.07Z" fill="#1397E1" stroke="white" stroke-width="5" stroke-miterlimit="10"/>
<path d="M405.41 178.48C405.41 178.48 409.27 186.95 413.13 192.15" stroke="white" stroke-width="5" stroke-miterlimit="10" stroke-linecap="round"/>
<path d="M366.07 178.48C366.07 178.48 362.91 186.56 361.91 192.56" stroke="white" stroke-width="5" stroke-miterlimit="10" stroke-linecap="round"/>
<path d="M395.29 169.82C436.39 169.82 469.7 136.51 469.7 95.41C469.7 54.31 436.38 21 395.29 21C354.2 21 320.88 54.31 320.88 95.41C320.88 136.51 354.19 169.82 395.29 169.82Z" fill="white"/>
<path d="M395.29 26C433.62 26 464.7 57.07 464.7 95.41C464.7 133.75 433.63 164.82 395.29 164.82C356.95 164.82 325.88 133.75 325.88 95.41C325.88 57.07 356.96 26 395.29 26ZM395.29 16C351.51 16 315.88 51.62 315.88 95.41C315.88 139.2 351.5 174.82 395.29 174.82C439.08 174.82 474.7 139.2 474.7 95.41C474.7 51.62 439.08 16 395.29 16Z" fill="#1397E1"/>
<path d="M395.29 167.32C435 167.32 467.2 135.12 467.2 95.41C467.2 55.7 435 23.5 395.29 23.5C355.58 23.5 323.38 55.7 323.38 95.41C323.38 135.12 355.58 167.32 395.29 167.32Z" fill="#1397E1"/>
<path d="M395.29 26C433.62 26 464.7 57.07 464.7 95.41C464.7 133.75 433.63 164.82 395.29 164.82C356.95 164.82 325.88 133.75 325.88 95.41C325.88 57.07 356.96 26 395.29 26ZM395.29 21C354.26 21 320.88 54.38 320.88 95.41C320.88 136.44 354.26 169.82 395.29 169.82C436.32 169.82 469.7 136.44 469.7 95.41C469.7 54.38 436.32 21 395.29 21Z" fill="white"/>
<path fill-rule="evenodd" clip-rule="evenodd" d="M427.95 145.48C427.09 145.48 426.25 145.22 425.53 144.73L394.42 123.55L363.29 144.74C362.58 145.23 361.75 145.48 360.9 145.48C359.97 145.48 359.08 145.18 358.31 144.6C356.88 143.57 356.25 141.69 356.78 139.95L367.75 104.14L337.54 80.7C336.09 79.56 335.51 77.63 336.1 75.9C336.69 74.13 338.35 72.88 340.13 72.86H377.93L390.38 36.4C390.96 34.68 392.58 33.51 394.42 33.51C396.26 33.51 397.87 34.67 398.47 36.41L410.9 72.86H448.64C450.5 72.9 452.13 74.13 452.72 75.91C453.3 77.64 452.73 79.56 451.31 80.68L421.08 104.14L432.04 139.95C432.58 141.68 431.94 143.57 430.47 144.65C429.76 145.19 428.88 145.48 427.95 145.48Z" fill="#F0C86A"/>
<path d="M394.42 35.51C395.39 35.51 396.26 36.14 396.58 37.06L409.47 74.86H448.64C449.66 74.88 450.52 75.62 450.83 76.54C451.14 77.48 450.83 78.51 450.08 79.11L418.77 103.4L430.14 140.53C430.42 141.45 430.1 142.45 429.3 143.03C428.91 143.33 428.44 143.48 427.96 143.48C427.51 143.48 427.06 143.35 426.67 143.08L394.43 121.13L362.18 143.08C361.8 143.34 361.36 143.48 360.92 143.48C360.44 143.48 359.95 143.32 359.52 143C358.75 142.45 358.43 141.45 358.71 140.53L370.08 103.41L338.78 79.13C338 78.52 337.69 77.49 338.01 76.56C338.31 75.65 339.2 74.89 340.16 74.88H379.38L392.3 37.06C392.61 36.14 393.47 35.53 394.44 35.53M394.44 31.53C391.75 31.53 389.36 33.24 388.51 35.79L376.52 70.89H340.16C337.5 70.92 335.07 72.73 334.21 75.31C333.36 77.82 334.19 80.63 336.3 82.29L365.44 104.9L354.88 139.38C354.11 141.95 355.02 144.7 357.15 146.25C358.26 147.07 359.56 147.5 360.91 147.5C362.17 147.5 363.38 147.12 364.43 146.4L394.42 125.99L424.41 146.41C425.46 147.13 426.68 147.51 427.95 147.51C429.22 147.51 430.61 147.07 431.67 146.27C433.82 144.68 434.73 141.91 433.95 139.37L423.39 104.89L452.52 82.29C454.63 80.63 455.46 77.83 454.61 75.29C453.75 72.71 451.38 70.94 448.72 70.88H412.33L400.36 35.79C399.48 33.24 397.09 31.53 394.41 31.53H394.44Z" fill="white"/>
<path d="M409.47 74.86L396.58 37.06C396.26 36.14 395.39 35.51 394.42 35.51C393.45 35.51 392.59 36.12 392.28 37.04L379.36 74.86H344.74C347.25 76.5 359.9 85.35 371.45 92.05C372.13 92.45 374.5 93.7 374.97 95.26C375.48 96.92 365.87 119.47 364.72 122.88C362.92 128.21 365.72 129.38 372.54 125.16C377.78 121.92 395.02 109.42 395.02 109.42C395.02 109.42 425.25 132.45 428.16 134.07L418.77 103.4L419.17 103.09L416.31 93.47L442.06 74.86H409.47Z" fill="#FFD570"/>
<path opacity="0.49" d="M398.28 58.42C399.88 57.87 401.6 58.71 402.23 60.31L402.3 60.51L404.81 68.69C405.37 70.42 404.46 72.29 402.8 72.87C401.2 73.42 399.48 72.58 398.85 70.98L398.78 70.78L396.27 62.6C395.71 60.87 396.62 59 398.28 58.42Z" fill="white"/>
<path d="M361.34 54.72L368.34 61.72" stroke="white" stroke-width="6" stroke-linecap="round" stroke-linejoin="round"/>
<path d="M429.34 54.72L422.34 61.72" stroke="white" stroke-width="6" stroke-linecap="round" stroke-linejoin="round"/>
<path d="M436.34 109.38L445.47 113.2" stroke="white" stroke-width="6" stroke-linecap="round" stroke-linejoin="round"/>
<path d="M352.47 108.38L343.34 112.2" stroke="white" stroke-width="6" stroke-linecap="round" stroke-linejoin="round"/>
<path d="M395.29 137.72V147.62" stroke="white" stroke-width="6" stroke-linecap="round" stroke-linejoin="round"/>
<path d="M135.7 522.5H319.7" stroke="#C9C9C9"/>
<path d="M476.7 522.5H660.7" stroke="#C9C9C9"/>
<path d="M437.7 517H358.7C348.759 517 340.7 525.059 340.7 535V552C340.7 561.941 348.759 570 358.7 570H437.7C447.641 570 455.7 561.941 455.7 552V535C455.7 525.059 447.641 517 437.7 517Z" fill="white" stroke="#40BEAD" stroke-width="10"/>
<path d="M538.76 144.59L533.37 146.61C533.23 146.66 533.1 146.74 533 146.85C532.89 146.95 532.81 147.08 532.76 147.22L530.76 152.61C530.69 152.81 530.56 152.99 530.38 153.12C530.2 153.25 529.99 153.31 529.78 153.31C529.57 153.31 529.35 153.24 529.18 153.12C529 152.99 528.87 152.82 528.8 152.61L526.79 147.22C526.74 147.08 526.66 146.96 526.56 146.85C526.46 146.74 526.33 146.66 526.2 146.61L520.8 144.6C520.6 144.53 520.42 144.4 520.29 144.22C520.17 144.04 520.1 143.83 520.1 143.62C520.1 143.41 520.17 143.19 520.29 143.02C520.42 142.84 520.59 142.71 520.8 142.64L526.19 140.63C526.33 140.58 526.45 140.5 526.56 140.4C526.66 140.3 526.74 140.17 526.8 140.04L528.81 134.65C528.88 134.45 529.01 134.27 529.19 134.14C529.36 134.01 529.58 133.95 529.79 133.95C530 133.95 530.22 134.02 530.39 134.14C530.57 134.27 530.7 134.44 530.77 134.65L532.77 140.04C532.82 140.18 532.9 140.31 533.01 140.41C533.12 140.52 533.24 140.6 533.38 140.65L538.77 142.65C538.97 142.72 539.14 142.86 539.26 143.03C539.38 143.2 539.45 143.41 539.45 143.62C539.45 143.83 539.38 144.04 539.26 144.21C539.14 144.38 538.97 144.52 538.77 144.59H538.76Z" fill="#FFD670"/>
<path d="M461.86 160.86L452.32 160.51C448.69 160.38 446.94 158.73 447.05 155.56C447.12 153.56 447.69 152.13 448.75 151.28C449.81 150.43 451.39 150.05 453.5 150.12L484.93 151.26C488.56 151.39 490.31 153.07 490.19 156.28C490.12 158.29 489.56 159.7 488.52 160.53C487.48 161.36 485.89 161.73 483.74 161.65L474.27 161.31L461.86 160.86Z" fill="#1397E1" stroke="white" stroke-width="10" stroke-miterlimit="10"/>
<path d="M615.11 223.94C614.05 223.02 613.69 221.72 614.04 220.03C614.37 218.71 614.97 217.77 615.82 217.22C616.67 216.66 617.91 216.44 619.52 216.54L621.47 216.69C622.18 216.75 622.82 216.56 623.39 216.13C623.95 215.7 624.32 215.04 624.5 214.17L631.32 184.76C631.74 182.89 632.63 181.56 633.99 180.77C635.35 179.98 636.88 179.72 638.56 179.97C640.24 180.22 641.53 180.91 642.43 182.04C643.32 183.17 643.56 184.67 643.14 186.54L636.53 215.06C635.74 218.76 634.14 221.54 631.7 223.39C629.26 225.24 626.08 226.03 622.13 225.77L620.12 225.61C617.84 225.41 616.17 224.85 615.11 223.93V223.94ZM635.45 172.89C634.44 171.63 634.07 170.1 634.34 168.3C634.61 166.5 635.41 165.16 636.75 164.27C638.08 163.39 639.75 163.09 641.74 163.39C643.69 163.68 645.18 164.45 646.22 165.69C647.26 166.93 647.64 168.45 647.37 170.25C647.1 172.05 646.29 173.4 644.96 174.31C643.62 175.22 641.96 175.52 639.96 175.22C637.97 174.92 636.46 174.14 635.45 172.88V172.89Z" fill="#1397E1" stroke="white" stroke-width="10" stroke-miterlimit="10"/>
<path d="M182.26 191.69C184.04 193.54 185.13 195.81 185.54 198.48C186.22 202.91 184.98 206.59 181.82 209.53C178.66 212.47 174.09 214.4 168.12 215.32L148.21 218.39C146.19 218.7 144.6 218.44 143.46 217.6C142.32 216.76 141.68 215.38 141.54 213.47L139.01 175.9C138.92 173.98 139.37 172.42 140.37 171.23C141.37 170.04 142.89 169.28 144.91 168.97L163.05 166.18C168.77 165.3 173.33 165.76 176.72 167.58C180.11 169.4 182.08 172.13 182.64 175.77C183.46 181.07 181.05 185.29 175.42 188.43C178.2 188.76 180.48 189.85 182.25 191.7L182.26 191.69ZM168.62 183.84C169.72 182.94 170.13 181.59 169.85 179.79C169.61 178.22 168.87 177.13 167.64 176.52C166.41 175.91 164.56 175.79 162.09 176.17L152.54 177.64L153.2 187.31L162.67 185.85C165.53 185.41 167.51 184.74 168.61 183.84H168.62ZM171.46 203.76C172.65 202.77 173.09 201.31 172.79 199.38C172.53 197.67 171.75 196.48 170.46 195.81C169.17 195.14 167.26 194.99 164.75 195.38L153.87 197.06L154.58 207.57L165.46 205.89C168.27 205.46 170.27 204.75 171.46 203.76Z" fill="#1397E1"/>
<path d="M227.72 173.83C228.9 174.73 229.5 176.07 229.51 177.85L230.28 202.07C230.32 203.76 229.78 205.19 228.63 206.38C227.49 207.57 225.9 208.28 223.86 208.52C222.17 208.72 220.76 208.48 219.63 207.81C218.5 207.14 217.8 206.14 217.55 204.81C216.42 206.35 214.9 207.64 212.99 208.69C211.07 209.73 208.95 210.39 206.62 210.66C202.65 211.12 199.5 210.42 197.18 208.55C194.85 206.68 193.45 203.73 192.98 199.7C192.92 199.19 192.88 198.37 192.85 197.25L192.38 182.15C192.33 180.37 192.88 178.9 194.05 177.73C195.22 176.56 196.85 175.85 198.93 175.61C200.96 175.37 202.57 175.71 203.76 176.6C204.94 177.5 205.56 178.83 205.62 180.61L206.01 195.01L206.06 196.06C206.25 197.68 206.79 198.88 207.68 199.64C208.57 200.41 209.79 200.7 211.33 200.52C213.16 200.31 214.54 199.55 215.44 198.25C216.34 196.95 216.76 195.29 216.67 193.28L216.26 179.37C216.26 177.59 216.84 176.11 218.01 174.94C219.18 173.77 220.78 173.07 222.82 172.83C224.9 172.59 226.54 172.92 227.72 173.81V173.83Z" fill="#1397E1"/>
<path d="M272.56 187.75C271.99 188.39 271.16 188.75 270.06 188.85L250.59 190.55C251.55 194.68 254.45 196.54 259.27 196.11C260.71 195.98 261.89 195.75 262.82 195.41C263.74 195.07 264.95 194.53 266.44 193.79C267.3 193.34 268.06 193.09 268.7 193.03C269.79 192.93 270.69 193.25 271.38 193.99C272.07 194.73 272.46 195.65 272.56 196.77C272.65 197.75 272.5 198.7 272.13 199.62C271.76 200.54 271.12 201.3 270.22 201.89C268.99 202.7 267.38 203.42 265.41 204.03C263.43 204.65 261.33 205.06 259.09 205.25C255.16 205.59 251.63 205.2 248.5 204.07C245.37 202.94 242.86 201.18 240.97 198.79C239.08 196.4 237.99 193.51 237.69 190.12C237.38 186.54 237.9 183.25 239.27 180.25C240.64 177.25 242.69 174.81 245.43 172.93C248.17 171.05 251.33 169.95 254.92 169.64C260.24 169.17 264.51 170.31 267.74 173.05C270.96 175.79 272.81 179.86 273.28 185.25C273.37 186.27 273.13 187.1 272.56 187.74V187.75ZM251.94 179.86C250.96 180.95 250.38 182.56 250.22 184.68L262.08 183.64C261.86 181.65 261.24 180.17 260.23 179.2C259.22 178.23 257.84 177.83 256.1 177.98C254.31 178.14 252.92 178.76 251.94 179.86Z" fill="#1397E1"/>
<path d="M314.99 168.71C317.21 170.75 318.45 173.87 318.71 178.06C318.77 179.09 318.79 179.88 318.78 180.44L318.4 195.26C318.31 197.04 317.67 198.48 316.49 199.58C315.31 200.68 313.69 201.29 311.65 201.42C309.61 201.54 307.98 201.12 306.77 200.14C305.56 199.16 305 197.81 305.1 196.07L305.5 181.67C305.53 179.7 305.1 178.22 304.22 177.22C303.33 176.22 302.02 175.78 300.27 175.88C298.33 176 296.85 176.68 295.85 177.94C294.85 179.19 294.34 180.83 294.31 182.84L293.88 196.75C293.84 198.53 293.22 199.97 292.04 201.07C290.86 202.17 289.24 202.78 287.2 202.91C285.11 203.04 283.48 202.62 282.32 201.66C281.16 200.7 280.58 199.34 280.57 197.56L281.2 173.33C281.2 171.65 281.84 170.24 283.12 169.11C284.4 167.98 286.06 167.35 288.11 167.23C289.8 167.13 291.17 167.44 292.22 168.17C293.26 168.9 293.88 169.94 294.06 171.28C295.27 169.8 296.87 168.6 298.87 167.66C300.86 166.72 303.08 166.18 305.52 166.03C309.61 165.78 312.76 166.68 314.99 168.72V168.71Z" fill="#1397E1"/>
<path d="M459.25 198.35C458.24 197.17 457.86 195.63 458.11 193.72L461.86 160.86L452.32 160.51C448.69 160.38 446.94 158.73 447.05 155.56C447.12 153.56 447.69 152.13 448.75 151.28C449.81 150.43 451.39 150.05 453.5 150.12L484.93 151.26C488.56 151.39 490.31 153.07 490.19 156.28C490.12 158.29 489.56 159.7 488.52 160.53C487.48 161.36 485.89 161.73 483.74 161.65L474.27 161.31L470.52 194.1C470.32 196.01 469.59 197.52 468.34 198.64C467.09 199.76 465.5 200.29 463.58 200.22C461.7 200.15 460.25 199.53 459.24 198.35H459.25Z" fill="#1397E1"/>
<path d="M511.21 168.04C511.99 168.92 512.25 170.2 511.99 171.87C511.71 173.72 511.11 175.05 510.17 175.84C509.23 176.63 507.64 177.09 505.39 177.2L503.57 177.31C501.05 177.51 499.29 178.08 498.3 179.03C497.31 179.98 496.64 181.64 496.29 184.01L494.72 195.91C494.49 197.77 493.75 199.15 492.52 200.07C491.28 200.99 489.81 201.4 488.11 201.31C486.41 201.22 485.04 200.66 483.99 199.62C482.94 198.58 482.54 197.14 482.77 195.28L485.91 171.26C486.18 169.45 486.96 168.09 488.24 167.18C489.52 166.27 490.97 165.85 492.58 165.94C494.15 166.02 495.36 166.54 496.23 167.5C497.1 168.46 497.47 169.77 497.34 171.45C498.67 169.98 500.22 168.83 501.99 168.01C503.76 167.19 505.45 166.78 507.07 166.77L507.88 166.74C509.32 166.72 510.43 167.15 511.21 168.04Z" fill="#1397E1"/>
<path d="M540.43 172.27C542.75 174.73 543.74 178.26 543.42 182.87C543.35 183.85 543.27 184.61 543.19 185.17L541.14 198.92C540.88 200.73 540.17 202.09 539.03 203.02C537.89 203.95 536.44 204.35 534.7 204.22C533.23 204.12 532.05 203.6 531.17 202.67C530.29 201.74 529.86 200.58 529.87 199.17C528.96 200.65 527.73 201.75 526.2 202.49C524.67 203.22 522.94 203.52 521.02 203.38C518.87 203.23 516.95 202.65 515.25 201.64C513.55 200.63 512.25 199.31 511.35 197.68C510.45 196.05 510.08 194.28 510.21 192.37C510.4 189.72 511.18 187.63 512.54 186.11C513.9 184.59 515.98 183.56 518.76 183.01C521.54 182.46 525.18 182.34 529.7 182.66L532.11 182.83L532.21 182.35C532.62 179.06 530.98 177.28 527.27 177.02C525.48 176.89 522.94 177.32 519.63 178.3C518.85 178.57 518.08 178.68 517.32 178.63C516.2 178.55 515.31 178.09 514.66 177.25C514 176.41 513.71 175.45 513.79 174.38C513.85 173.54 514.14 172.73 514.67 171.95C515.2 171.17 515.97 170.53 517 170.05C520.44 168.38 524.6 167.71 529.47 168.06C534.47 168.42 538.14 169.82 540.46 172.28L540.43 172.27ZM529.06 193.81C530.19 192.7 530.9 191.19 531.17 189.29L531.29 188.53L529.48 188.4C526.8 188.21 524.87 188.36 523.69 188.86C522.51 189.36 521.87 190.33 521.77 191.78C521.7 192.76 521.97 193.57 522.57 194.22C523.17 194.87 524.01 195.23 525.09 195.31C526.61 195.42 527.94 194.92 529.07 193.8L529.06 193.81Z" fill="#1397E1"/>
<path d="M580.99 174.5C582.98 176.03 584.44 178.08 585.36 180.65C586.28 183.22 586.58 186.21 586.26 189.6C585.9 193.32 584.93 196.57 583.33 199.38C581.73 202.18 579.66 204.28 577.12 205.68C574.58 207.08 571.75 207.63 568.62 207.33C564.38 206.92 561.24 205.01 559.18 201.57C558.73 202.93 557.93 203.99 556.78 204.75C555.63 205.51 554.25 205.81 552.64 205.66C550.81 205.48 549.46 204.83 548.58 203.69C547.7 202.55 547.38 201.13 547.64 199.42L554.27 161.17C554.52 159.51 555.3 158.21 556.6 157.28C557.9 156.35 559.49 155.97 561.37 156.15C563.11 156.32 564.41 156.95 565.27 158.04C566.13 159.13 566.44 160.46 566.2 162.03L563.92 175.24C565.12 173.95 566.56 173.01 568.24 172.42C569.92 171.83 571.78 171.63 573.83 171.83C576.59 172.09 578.97 172.99 580.96 174.52L580.99 174.5ZM571.99 195.89C573.33 194.33 574.14 192.16 574.4 189.37C574.65 186.72 574.29 184.64 573.31 183.11C572.33 181.59 570.81 180.73 568.76 180.53C566.8 180.34 565.15 181.03 563.8 182.59C562.46 184.15 561.66 186.28 561.4 188.97C561.14 191.71 561.48 193.84 562.44 195.36C563.4 196.88 564.88 197.74 566.89 197.93C568.94 198.13 570.64 197.45 571.98 195.89H571.99Z" fill="#1397E1"/>
<path d="M620.12 180.59C622.3 183.17 623.11 186.75 622.54 191.33C622.42 192.3 622.3 193.06 622.19 193.61L619.4 207.23C619.04 209.02 618.27 210.35 617.07 211.21C615.87 212.07 614.42 212.39 612.68 212.18C611.21 212 610.07 211.42 609.24 210.45C608.41 209.48 608.04 208.29 608.13 206.89C607.14 208.32 605.86 209.36 604.29 210.01C602.72 210.66 600.98 210.87 599.07 210.63C596.94 210.36 595.05 209.68 593.4 208.58C591.75 207.48 590.53 206.09 589.72 204.42C588.91 202.74 588.63 200.96 588.87 199.06C589.2 196.42 590.09 194.38 591.53 192.94C592.97 191.5 595.1 190.58 597.9 190.17C600.7 189.77 604.35 189.85 608.84 190.41L611.24 190.71L611.37 190.23C611.96 186.97 610.41 185.1 606.72 184.64C604.94 184.42 602.38 184.71 599.03 185.51C598.23 185.74 597.46 185.81 596.7 185.71C595.59 185.57 594.73 185.06 594.11 184.19C593.5 183.31 593.26 182.34 593.39 181.28C593.49 180.45 593.83 179.65 594.4 178.9C594.97 178.15 595.78 177.56 596.82 177.12C600.35 175.63 604.53 175.19 609.38 175.8C614.36 176.42 617.94 178.02 620.12 180.6V180.59ZM607.62 201.5C608.81 200.45 609.59 198.98 609.96 197.1L610.12 196.34L608.32 196.11C605.65 195.78 603.72 195.83 602.51 196.27C601.3 196.71 600.61 197.64 600.43 199.08C600.31 200.05 600.53 200.88 601.1 201.56C601.67 202.24 602.49 202.65 603.55 202.78C605.06 202.97 606.41 202.54 607.61 201.49L607.62 201.5Z" fill="#1397E1"/>
<path d="M615.11 223.94C614.05 223.02 613.69 221.72 614.04 220.03C614.37 218.71 614.97 217.77 615.82 217.22C616.67 216.66 617.91 216.44 619.52 216.54L621.47 216.69C622.18 216.75 622.82 216.56 623.39 216.13C623.95 215.7 624.32 215.04 624.5 214.17L631.32 184.76C631.74 182.89 632.63 181.56 633.99 180.77C635.35 179.98 636.88 179.72 638.56 179.97C640.24 180.22 641.53 180.91 642.43 182.04C643.32 183.17 643.56 184.67 643.14 186.54L636.53 215.06C635.74 218.76 634.14 221.54 631.7 223.39C629.26 225.24 626.08 226.03 622.13 225.77L620.12 225.61C617.84 225.41 616.17 224.85 615.11 223.93V223.94ZM635.45 172.89C634.44 171.63 634.07 170.1 634.34 168.3C634.61 166.5 635.41 165.16 636.75 164.27C638.08 163.39 639.75 163.09 641.74 163.39C643.69 163.68 645.18 164.45 646.22 165.69C647.26 166.93 647.64 168.45 647.37 170.25C647.1 172.05 646.29 173.4 644.96 174.31C643.62 175.22 641.96 175.52 639.96 175.22C637.97 174.92 636.46 174.14 635.45 172.88V172.89Z" fill="#1397E1"/>
<path d="M651.44 216.04C649.01 214.16 647.31 211.81 646.34 208.99C645.37 206.17 645.19 203.09 645.82 199.74C646.54 195.93 647.9 192.78 649.92 190.29C651.94 187.8 654.44 186.07 657.42 185.11C660.4 184.15 663.7 184.01 667.31 184.69C670.92 185.37 673.94 186.65 676.37 188.53C678.8 190.41 680.5 192.75 681.48 195.54C682.46 198.34 682.63 201.41 682 204.76C681.28 208.61 679.9 211.79 677.88 214.28C675.86 216.77 673.36 218.5 670.38 219.46C667.4 220.42 664.1 220.56 660.49 219.88C656.88 219.2 653.86 217.92 651.43 216.04H651.44ZM667.56 209.03C668.94 207.39 669.9 205.15 670.43 202.3C670.9 199.78 670.76 197.82 670 196.41C669.24 195.01 667.84 194.12 665.82 193.74C663.49 193.3 661.63 193.89 660.26 195.51C658.88 197.13 657.93 199.33 657.41 202.13C656.93 204.7 657.06 206.69 657.82 208.12C658.58 209.54 659.97 210.45 661.99 210.83C664.32 211.27 666.18 210.67 667.56 209.03Z" fill="#1397E1"/>
<mask id="mask0_336_7283" style="mask-type:luminance" maskUnits="userSpaceOnUse" x="353" y="532" width="90" height="24">
<path d="M443 532H353V556H443V532Z" fill="white"/>
</mask>
<g mask="url(#mask0_336_7283)">
</g>
<g clip-path="url(#clip1_336_7283)">
<path d="M356.33 538.48H360.04C361.07 538.48 361.94 538.66 362.63 539.02C363.33 539.38 363.84 539.86 364.18 540.47C364.52 541.08 364.69 541.77 364.69 542.55C364.69 543.33 364.49 544.07 364.09 544.76C364.67 545.86 364.95 547.24 364.95 548.9H363.47C363.47 547.69 363.34 546.68 363.08 545.87C362.45 546.33 361.74 546.56 360.93 546.56C360.25 546.56 359.7 546.38 359.28 546.02C358.86 545.66 358.65 545.18 358.65 544.6C358.65 544.02 358.85 543.54 359.26 543.19C359.67 542.84 360.22 542.66 360.93 542.66C361.74 542.66 362.47 542.94 363.11 543.49C363.18 543.17 363.21 542.87 363.21 542.58C363.21 541.78 362.94 541.11 362.41 540.57C361.87 540.04 361.08 539.77 360.02 539.77H357.81V548.89H356.33V538.48ZM360.31 545.09C360.5 545.21 360.76 545.28 361.1 545.28C361.34 545.28 361.58 545.23 361.82 545.12C362.06 545.02 362.28 544.87 362.47 544.68C362.06 544.18 361.56 543.93 360.95 543.93C360.68 543.93 360.46 543.99 360.29 544.12C360.12 544.24 360.03 544.4 360.03 544.59C360.03 544.8 360.12 544.97 360.31 545.09ZM367.58 548.62C367.02 548.3 366.59 547.84 366.29 547.25C365.99 546.66 365.84 545.97 365.84 545.19C365.84 544.41 365.99 543.72 366.29 543.13C366.59 542.54 367.03 542.08 367.59 541.76C368.16 541.44 368.82 541.28 369.59 541.28C370.36 541.28 370.95 541.44 371.48 541.76C372 542.08 372.39 542.5 372.66 543.03C372.92 543.56 373.05 544.13 373.05 544.76C373.05 545.06 373.02 545.36 372.96 545.65H367.31C367.39 546.36 367.62 546.9 368 547.3C368.38 547.69 368.89 547.89 369.53 547.89C370.01 547.89 370.42 547.78 370.76 547.55C371.1 547.33 371.34 547.02 371.48 546.63H372.99C372.77 547.41 372.36 548.01 371.75 548.46C371.14 548.9 370.4 549.12 369.53 549.12C368.78 549.12 368.13 548.96 367.58 548.64V548.62ZM371.62 544.5C371.64 543.93 371.47 543.46 371.1 543.08C370.73 542.7 370.22 542.51 369.55 542.51C368.93 542.51 368.44 542.68 368.06 543.02C367.68 543.36 367.44 543.86 367.34 544.5H371.62ZM374.44 541.46H375.83V543.04C376.06 542.47 376.39 542.04 376.84 541.73C377.28 541.42 377.82 541.27 378.44 541.27C379.17 541.27 379.7 541.46 380.06 541.85C380.41 542.24 380.63 542.68 380.71 543.16C380.79 543.65 380.83 544.2 380.83 544.83V548.91H379.44V544.87C379.44 544.4 379.42 544.01 379.37 543.7C379.32 543.39 379.19 543.11 378.98 542.88C378.77 542.65 378.44 542.53 378 542.53C377.35 542.53 376.83 542.78 376.43 543.29C376.03 543.8 375.83 544.46 375.83 545.29V548.91H374.44V541.47V541.46ZM387.47 547.75C387.14 548.21 386.75 548.55 386.29 548.77C385.83 548.99 385.26 549.11 384.58 549.11C383.81 549.11 383.2 548.91 382.72 548.5C382.25 548.09 382.01 547.56 382.01 546.89C382.01 546.15 382.3 545.57 382.89 545.15C383.48 544.72 384.23 544.51 385.16 544.51C385.96 544.51 386.66 544.68 387.23 545.03V544.88C387.23 544.14 387.08 543.57 386.78 543.14C386.48 542.72 386.02 542.51 385.4 542.51C384.93 542.51 384.54 542.64 384.21 542.9C383.89 543.16 383.73 543.54 383.74 544.04H382.32C382.3 543.48 382.42 542.99 382.69 542.57C382.95 542.15 383.33 541.82 383.81 541.6C384.29 541.38 384.83 541.26 385.41 541.26C386.47 541.26 387.28 541.6 387.82 542.27C388.36 542.95 388.63 543.81 388.63 544.86C388.63 545.36 388.56 545.84 388.42 546.31C388.78 547.01 388.96 547.87 388.96 548.9H387.57C387.57 548.44 387.54 548.06 387.47 547.74V547.75ZM383.8 547.66C384.04 547.84 384.37 547.93 384.78 547.93C385.27 547.93 385.71 547.8 386.1 547.53C386.49 547.26 386.79 546.87 386.99 546.35C386.78 546.11 386.52 545.93 386.2 545.81C385.88 545.69 385.53 545.62 385.16 545.62C384.67 545.62 384.27 545.74 383.94 545.97C383.61 546.2 383.45 546.51 383.45 546.9C383.45 547.23 383.57 547.48 383.81 547.66H383.8ZM390.25 540C390.07 539.81 389.97 539.58 389.97 539.31C389.97 539.04 390.06 538.8 390.25 538.62C390.43 538.44 390.66 538.34 390.94 538.34C391.22 538.34 391.45 538.43 391.63 538.62C391.81 538.8 391.91 539.04 391.91 539.31C391.91 539.58 391.82 539.81 391.63 540C391.45 540.19 391.21 540.28 390.94 540.28C390.66 540.28 390.43 540.19 390.25 540ZM390.25 541.46H391.64V548.91H390.25V541.47V541.46ZM394.9 547.5C395.24 547.81 395.73 547.96 396.38 547.96C396.9 547.96 397.31 547.87 397.62 547.68C397.93 547.49 398.08 547.24 398.08 546.92C398.08 546.66 397.99 546.46 397.81 546.31C397.63 546.16 397.41 546.05 397.15 545.98C396.89 545.91 396.52 545.84 396.05 545.76C395.44 545.66 394.95 545.55 394.57 545.43C394.19 545.31 393.86 545.11 393.59 544.83C393.32 544.55 393.19 544.15 393.19 543.63C393.19 542.91 393.47 542.34 394.04 541.92C394.61 541.49 395.34 541.28 396.23 541.28C396.88 541.28 397.45 541.4 397.94 541.65C398.44 541.89 398.81 542.23 399.06 542.65C399.31 543.07 399.41 543.54 399.36 544.06H398.02C398.05 543.58 397.9 543.19 397.57 542.89C397.24 542.59 396.78 542.44 396.21 542.44C395.74 542.44 395.36 542.54 395.07 542.73C394.78 542.92 394.63 543.19 394.63 543.53C394.63 543.89 394.79 544.14 395.12 544.28C395.45 544.42 395.95 544.55 396.63 544.66C397.25 544.76 397.74 544.87 398.12 544.99C398.5 545.11 398.82 545.32 399.1 545.61C399.37 545.9 399.51 546.31 399.51 546.82C399.51 547.54 399.22 548.1 398.65 548.51C398.08 548.92 397.32 549.13 396.38 549.13C395.72 549.13 395.14 549.02 394.63 548.79C394.12 548.56 393.73 548.23 393.45 547.8C393.18 547.37 393.06 546.86 393.1 546.27H394.44C394.42 546.8 394.58 547.21 394.92 547.52L394.9 547.5ZM402.34 547.5C402.68 547.81 403.17 547.96 403.82 547.96C404.34 547.96 404.75 547.87 405.06 547.68C405.37 547.49 405.52 547.24 405.52 546.92C405.52 546.66 405.43 546.46 405.25 546.31C405.07 546.16 404.85 546.05 404.59 545.98C404.33 545.91 403.96 545.84 403.49 545.76C402.88 545.66 402.39 545.55 402.01 545.43C401.63 545.31 401.3 545.11 401.03 544.83C400.76 544.55 400.63 544.15 400.63 543.63C400.63 542.91 400.91 542.34 401.48 541.92C402.05 541.49 402.78 541.28 403.67 541.28C404.32 541.28 404.89 541.4 405.38 541.65C405.88 541.89 406.25 542.23 406.5 542.65C406.75 543.07 406.85 543.54 406.8 544.06H405.46C405.49 543.58 405.34 543.19 405.01 542.89C404.68 542.59 404.22 542.44 403.65 542.44C403.18 542.44 402.8 542.54 402.51 542.73C402.22 542.92 402.07 543.19 402.07 543.53C402.07 543.89 402.23 544.14 402.56 544.28C402.89 544.42 403.39 544.55 404.07 544.66C404.69 544.76 405.18 544.87 405.56 544.99C405.94 545.11 406.26 545.32 406.54 545.61C406.81 545.9 406.95 546.31 406.95 546.82C406.95 547.54 406.66 548.1 406.09 548.51C405.52 548.92 404.76 549.13 403.82 549.13C403.16 549.13 402.58 549.02 402.07 548.79C401.56 548.56 401.17 548.23 400.89 547.8C400.62 547.37 400.5 546.86 400.54 546.27H401.88C401.86 546.8 402.02 547.21 402.36 547.52L402.34 547.5ZM413.37 547.75C413.04 548.21 412.65 548.55 412.19 548.77C411.73 548.99 411.16 549.11 410.48 549.11C409.71 549.11 409.1 548.91 408.62 548.5C408.15 548.09 407.91 547.56 407.91 546.89C407.91 546.15 408.2 545.57 408.79 545.15C409.38 544.72 410.13 544.51 411.06 544.51C411.86 544.51 412.56 544.68 413.13 545.03V544.88C413.13 544.14 412.98 543.57 412.68 543.14C412.38 542.72 411.92 542.51 411.3 542.51C410.83 542.51 410.44 542.64 410.11 542.9C409.79 543.16 409.63 543.54 409.64 544.04H408.22C408.2 543.48 408.32 542.99 408.59 542.57C408.85 542.15 409.23 541.82 409.71 541.6C410.19 541.38 410.73 541.26 411.31 541.26C412.37 541.26 413.18 541.6 413.72 542.27C414.26 542.95 414.53 543.81 414.53 544.86C414.53 545.36 414.46 545.84 414.32 546.31C414.68 547.01 414.86 547.87 414.86 548.9H413.47C413.47 548.44 413.44 548.06 413.37 547.74V547.75ZM409.7 547.66C409.94 547.84 410.27 547.93 410.68 547.93C411.17 547.93 411.61 547.8 412 547.53C412.39 547.26 412.69 546.87 412.89 546.35C412.68 546.11 412.42 545.93 412.1 545.81C411.78 545.69 411.43 545.62 411.06 545.62C410.57 545.62 410.17 545.74 409.84 545.97C409.51 546.2 409.35 546.51 409.35 546.9C409.35 547.23 409.47 547.48 409.71 547.66H409.7ZM416.07 541.46H417.46V543.04C417.69 542.47 418.02 542.04 418.47 541.73C418.91 541.42 419.45 541.27 420.07 541.27C420.8 541.27 421.33 541.46 421.69 541.85C422.04 542.24 422.26 542.68 422.34 543.16C422.42 543.65 422.46 544.2 422.46 544.83V548.91H421.07V544.87C421.07 544.4 421.05 544.01 421 543.7C420.95 543.39 420.82 543.11 420.61 542.88C420.4 542.65 420.07 542.53 419.63 542.53C418.98 542.53 418.46 542.78 418.06 543.29C417.66 543.8 417.46 544.46 417.46 545.29V548.91H416.07V541.47V541.46ZM424.16 543.13C424.47 542.53 424.91 542.07 425.47 541.75C426.04 541.43 426.7 541.27 427.45 541.27C428.27 541.27 428.95 541.43 429.48 541.75C430.01 542.07 430.39 542.49 430.63 543.02C430.86 543.55 430.96 544.13 430.92 544.76H429.46C429.46 544.7 429.48 544.61 429.48 544.48C429.48 543.85 429.3 543.37 428.94 543.03C428.58 542.69 428.07 542.52 427.43 542.52C426.74 542.52 426.19 542.77 425.78 543.26C425.37 543.75 425.16 544.4 425.16 545.21C425.16 546.02 425.37 546.66 425.78 547.16C426.19 547.65 426.73 547.9 427.4 547.9C427.91 547.9 428.34 547.76 428.7 547.47C429.06 547.18 429.31 546.78 429.46 546.28H430.97C430.8 547.08 430.41 547.76 429.79 548.31C429.17 548.86 428.37 549.14 427.39 549.14C426.66 549.14 426.02 548.98 425.47 548.65C424.91 548.32 424.48 547.86 424.17 547.27C423.86 546.68 423.71 546 423.71 545.22C423.71 544.44 423.86 543.76 424.17 543.16L424.16 543.13ZM433.61 548.62C433.05 548.3 432.62 547.84 432.32 547.25C432.02 546.66 431.87 545.97 431.87 545.19C431.87 544.41 432.02 543.72 432.32 543.13C432.62 542.54 433.06 542.08 433.62 541.76C434.19 541.44 434.85 541.28 435.62 541.28C436.39 541.28 436.98 541.44 437.51 541.76C438.03 542.08 438.42 542.5 438.69 543.03C438.95 543.56 439.08 544.13 439.08 544.76C439.08 545.06 439.05 545.36 438.99 545.65H433.34C433.42 546.36 433.65 546.9 434.03 547.3C434.41 547.69 434.92 547.89 435.56 547.89C436.04 547.89 436.45 547.78 436.79 547.55C437.13 547.33 437.37 547.02 437.51 546.63H439.02C438.8 547.41 438.39 548.01 437.78 548.46C437.17 548.9 436.43 549.12 435.56 549.12C434.81 549.12 434.16 548.96 433.61 548.64V548.62ZM437.65 544.5C437.67 543.93 437.5 543.46 437.13 543.08C436.76 542.7 436.25 542.51 435.58 542.51C434.96 542.51 434.47 542.68 434.09 543.02C433.71 543.36 433.47 543.86 433.37 544.5H437.65Z" fill="black"/>
</g>
</g>
<defs>
<clipPath id="clip0_336_7283">
<rect width="766.6" height="559" fill="white" transform="translate(13 16)"/>
</clipPath>
<clipPath id="clip1_336_7283">
<rect width="82.75" height="10.76" fill="white" transform="translate(356.33 538.35)"/>
</clipPath>
</defs>
</svg>
