<?xml version="1.0" encoding="UTF-8"?><svg id="uuid-00f5f05d-f005-4821-9b23-07088c368409" xmlns="http://www.w3.org/2000/svg" viewBox="0 0 80 75.47"><path d="m78.52,34.45c.99.99,1.48,2.16,1.48,3.52v20c0,1.35-.5,2.53-1.48,3.52-.99.99-2.16,1.48-3.52,1.48h-12.5v12.5H17.5v-12.5H5c-1.35,0-2.53-.49-3.52-1.48-.99-.99-1.48-2.16-1.48-3.52v-20c0-1.35.49-2.53,1.48-3.52s2.16-1.48,3.52-1.48h70c1.35,0,2.53.5,3.52,1.48Zm-16.02-3.98H17.5V0h45v30.47ZM20,2.5v25.47h40V2.5H20Zm37.5,50.47H22.5v17.5h35v-17.5Zm17.73-15c-.68-.68-1.59-1.02-2.73-1.02s-2.06.3-2.73.9c-.68.6-1.02,1.47-1.02,2.62s.34,2.06,1.02,2.73c.68.68,1.59,1.02,2.73,1.02s2.06-.38,2.73-1.13c.68-.75,1.02-1.63,1.02-2.62s-.34-1.82-1.02-2.5Z"/></svg>