<svg width="83" height="100" viewBox="0 0 83 100" fill="none" xmlns="http://www.w3.org/2000/svg">
<path d="M80.2566 39.5265C79.3518 37.5883 78.1693 35.7583 76.7398 34.0841C75.3365 32.4418 73.7249 30.9839 71.9484 29.7513C71.3588 29.3416 70.7522 28.9558 70.1296 28.5939L75.7462 23.2208C78.7099 20.3847 79.9276 16.3467 79.0024 12.4191C78.0771 8.49143 75.1715 5.35822 71.2291 4.03801L61.0794 0.639617C59.8115 0.215102 58.4868 0 57.1438 0C56.2993 0 55.4537 0.0864957 54.6286 0.257212C45.6011 2.12371 37.4955 4.66625 30.5359 7.81654C23.7335 10.8951 17.9154 14.6031 13.2435 18.8346C10.9388 20.9219 8.88341 23.1753 7.133 25.5312C5.35983 27.919 3.88825 30.4274 2.76038 32.9881C1.60406 35.6137 0.799418 38.3122 0.370351 41.0084C-0.0700978 43.7762 -0.117898 46.5635 0.228087 49.2904C0.537653 52.1755 1.33319 55.0026 2.59194 57.6919C4.02482 60.7546 6.03473 63.5737 8.56361 66.0684C9.64709 67.1382 10.8341 68.1511 12.1054 69.0958C12.7279 72.4111 13.8558 75.5284 15.4662 78.3816C17.1063 81.2872 19.0536 83.9504 21.2547 86.2972C23.7175 88.9239 26.5594 91.2183 29.6983 93.1179C32.8486 95.023 36.3619 96.5675 40.1405 97.7056C43.7733 98.8004 47.7635 99.5539 52.0018 99.9465C52.3854 99.9818 52.7735 100 53.157 100C56.1366 100 58.9967 98.9336 61.2114 96.9977C63.4467 95.0435 64.8295 92.369 65.106 89.4668L66.1531 78.4488C66.3363 76.5174 66.0177 74.6122 65.2631 72.8857C67.8659 71.5416 70.7306 69.7149 73.3755 67.2793C75.4731 65.348 77.2406 63.2061 78.6268 60.9139C80.1757 58.3543 81.2683 55.5784 81.8749 52.6615C82.7854 48.2877 82.2255 43.7467 80.2566 39.5265ZM51.5591 45.3514C51.5591 45.3514 51.5568 45.3537 51.5523 45.3594C51.5568 45.3548 51.5591 45.3514 51.5591 45.3514Z" fill="#F1EFE3"/>
<path fill-rule="evenodd" clip-rule="evenodd" d="M29.0251 34.5502C23.6828 39.5806 22.8133 44.0443 23.1422 46.4468L23.1627 46.5948L23.1763 46.7427C23.2401 47.47 23.5576 48.7447 24.9347 50.1559C25.1931 50.42 25.4992 50.7011 25.8623 50.9913C25.9818 51.0869 26.1582 51.0505 26.2344 50.9173C30.0517 44.3037 37.0567 38.5643 47.8984 35.9637C55.3359 34.1791 61.4669 35.1021 65.8281 38.249C69.9276 41.207 72.1583 46.0929 71.266 50.5531C69.7546 58.1022 63.289 63.078 56.5434 65.6217C50.5581 67.8797 43.33 68.6889 35.9562 67.6339C35.7695 67.6077 35.6193 67.7852 35.6864 67.9616C35.8037 68.2712 35.9334 68.5557 36.0734 68.8129C37.5711 71.5694 39.5162 73.8354 42.275 75.5699C45.0292 77.301 50.096 78.8408 55.7786 79.3939C55.7786 79.3939 55.7786 79.3939 55.7661 79.5339L54.6519 91.6798C54.6394 91.8198 53.6117 91.6138 53.4728 91.6002C46.2948 90.9093 40.4449 89.044 35.716 86.0712C30.8961 83.0404 27.5774 79.0707 25.2261 74.7425C23.4973 71.5592 22.597 67.734 22.6574 63.7267C22.6585 63.63 22.605 63.5389 22.5196 63.4946C19.935 62.1459 17.8136 60.573 16.1064 58.8226C12.617 55.2455 11.2091 51.2826 10.887 47.9855C9.94695 40.6959 13.1325 32.5186 20.5746 25.5113C28.0543 18.4698 39.9999 12.365 57.5723 8.58987C57.6178 8.57963 57.6656 8.58304 57.7089 8.59784L68.1977 12.2489C68.3752 12.3104 68.4264 12.5368 68.2933 12.67L60.2753 20.6425C60.2412 20.6766 60.1968 20.7005 60.149 20.7107C43.9901 24.1842 34.3605 29.5254 29.0251 34.5502ZM38.3257 55.0691C38.2028 55.2205 38.295 55.4458 38.4896 55.4697C43.6168 56.0786 48.4424 55.4379 52.1959 54.0221C56.3784 52.4446 58.2995 50.3403 58.9426 48.7913C58.9779 48.706 58.9619 48.6081 58.8959 48.5443C58.8253 48.4749 58.7332 48.3964 58.6159 48.311C58.0048 47.8706 55.864 46.7951 50.7709 48.0174C44.6582 49.4822 40.7283 52.1135 38.3257 55.0691ZM59.1281 48.8664C59.1326 48.8642 59.1224 48.8687 59.1281 48.8664Z" fill="#F143AA"/>
<path d="M71.0037 43.3523C69.9544 41.01 68.2597 38.9523 66.1042 37.4022C61.4151 34.0312 54.9951 33.1912 47.5393 34.9747C35.5641 37.8381 29.3193 44.1763 26.1554 49.1407C25.1333 48.0845 24.974 47.4005 24.8147 46.7006L24.7646 46.234C24.6075 45.089 24.5324 40.9429 30.157 35.6632C34.3782 31.7014 42.8981 26.2169 59.5225 22.5738L60.1598 22.4304L60.5001 22.3576L68.3018 14.6253C68.7412 14.1894 68.9221 13.5691 68.7844 12.9647C68.6467 12.3616 68.2165 11.879 67.6315 11.6764L57.4466 8.14258L57.1142 8.21314C48.7434 10.0011 41.2934 12.4105 34.9678 15.373C29.0871 18.1284 24.1216 21.3868 20.2065 25.0606C16.5224 28.5182 13.7921 32.3138 12.0929 36.3415C10.4347 40.2726 9.84399 44.2081 10.3356 48.039C10.6236 50.9469 11.8049 55.266 15.7906 59.3393C17.401 60.985 19.601 62.6512 21.8761 63.9156C21.9398 67.7454 22.8526 71.5444 24.5302 74.623C25.7878 76.9311 27.2673 79.032 28.9289 80.8666C30.7647 82.8948 32.8862 84.6691 35.2318 86.1384C37.6719 87.668 40.4273 88.9131 43.4216 89.8384C46.4388 90.7716 49.8007 91.4124 53.4177 91.7436L54.6286 91.8551L54.8505 89.4332L53.6396 89.3217C50.1911 89.0053 46.9953 88.3975 44.1409 87.5143C41.348 86.6505 38.7861 85.4942 36.5236 84.0773C32.3626 81.4699 29.1384 77.9963 26.6652 73.4587C25.3701 71.0812 24.578 68.2814 24.3594 65.328C25.5499 65.8254 26.8064 66.2738 28.1767 66.6926C28.4373 68.9484 28.9324 70.4996 29.8656 71.9974C32.6415 76.4565 35.8202 79.6785 39.5805 81.8488C42.9505 83.7927 46.1929 84.5109 48.6421 84.9183L49.8417 85.1186L50.2412 82.7195L49.0416 82.5192C46.795 82.1447 43.8279 81.4903 40.796 79.7422C37.3897 77.7767 34.4898 74.8233 31.9301 70.7124C31.3326 69.7519 30.9639 68.7401 30.7329 67.4005C32.0075 67.7203 33.379 68.0174 34.9029 68.3065C34.986 68.4943 35.0725 68.6695 35.1601 68.8311C36.8172 71.8722 38.9432 74.178 41.6598 75.8806C44.9661 77.9531 49.1736 79.1982 54.5216 79.6887L55.7326 79.8002L55.9545 77.3783L54.7435 77.2668C49.8531 76.8184 45.8856 75.6587 42.9516 73.8195C40.8222 72.4845 39.1674 70.791 37.7891 68.525C41.0032 68.8516 44.2206 68.8357 47.3618 68.4795C50.6657 68.1039 53.8126 67.3607 56.717 66.2681C60.4295 64.8728 63.7289 62.8731 66.2612 60.4877C69.267 57.6549 71.1676 54.3441 71.9097 50.6487C72.3934 48.2723 72.077 45.7491 71.0037 43.3523ZM29.9885 64.685C28.9437 64.446 25.8526 63.3489 24.3128 62.6444L23.7437 62.3564C21.3423 61.1227 19.1845 59.3279 17.5319 57.639C14.0334 54.0642 13.0045 50.3073 12.7575 47.7852L12.753 47.7477C12.3194 44.3959 12.8657 40.7813 14.3338 37.2941C15.8976 33.5816 18.4344 30.0626 21.8727 26.8349C25.5283 23.4046 30.1786 20.3397 35.6939 17.7255C41.5995 14.9268 48.5511 12.6222 56.3608 10.874L56.9765 14.1575C49.3022 15.9409 42.51 18.2558 36.7808 21.0396C31.5557 23.5788 27.1922 26.5162 23.8109 29.7712C20.7607 32.7075 18.546 35.8533 17.2303 39.1219C16.0501 42.0526 15.6392 45.0367 16.0399 47.7522C16.2436 49.7143 17.0801 52.6393 19.9026 55.4527C22.9015 58.4402 27.454 60.6049 33.4347 61.8875C37.1256 62.6785 40.8768 62.9426 44.5836 62.6728C48.1163 62.4156 51.4328 61.6895 54.442 60.515C60.7016 58.0703 64.801 53.956 65.6888 49.2272C65.8982 48.113 65.7013 46.8201 65.1345 45.5887C64.5154 44.2423 63.4968 43.0461 62.1891 42.1311C59.9242 40.5457 55.72 39.0366 48.5477 40.8473C44.1899 41.9478 40.4739 43.5571 37.5023 45.6319C34.8517 47.4825 32.7086 49.761 31.1289 52.4116C29.9487 51.9382 28.8709 51.3964 27.9798 50.8262C30.8671 46.1179 36.6795 40.0734 48.1038 37.3408C54.8528 35.7269 60.5855 36.4314 64.6838 39.378C68.3497 42.0139 70.2981 46.3512 69.531 50.1707C68.8914 53.3585 67.2309 56.2345 64.5984 58.719C62.3051 60.8837 59.2857 62.707 55.8669 63.9919C51.7663 65.5329 47.1285 66.3239 42.378 66.3239C40.2304 66.3239 38.0577 66.1623 35.9033 65.8356L33.9571 65.5409C33.9571 65.5397 31.2541 65.0378 29.9885 64.685ZM23.235 41.084C22.2221 43.5287 22.197 45.4134 22.3552 46.5629L22.3712 46.6778L22.3814 46.7939C22.469 47.7807 22.9766 49.2158 24.4471 50.8718C24.6201 51.0675 25.3337 51.7788 26.0131 52.3468C27.3766 53.486 29.3227 54.4033 31.4533 55.1363C33.734 55.9216 36.082 56.2004 38.2114 56.3939C38.579 56.4269 38.5653 56.4417 38.6211 56.4257C43.5161 56.98 48.4282 56.4519 52.4628 54.9348C54.4829 54.1746 58.0953 52.4674 59.5794 49.5641C59.9402 48.8585 59.8696 47.8296 59.0365 47.2298C58.5699 46.8941 57.7152 46.4536 56.2948 46.2601C54.6468 46.0348 52.6483 46.1987 50.355 46.7473C44.7168 48.0959 40.4147 50.5315 37.5672 53.9879C36.2447 53.8718 34.8756 53.6112 33.4848 53.2129C34.8881 50.9992 36.7603 49.0827 39.0536 47.5109C41.7543 45.6615 45.1481 44.2116 49.1441 43.2032C55.4241 41.6178 58.9466 42.8265 60.7949 44.1216C62.9857 45.6558 63.4933 47.7454 63.2999 48.7765C62.5703 52.6632 59.0194 56.115 53.5588 58.2479C50.8159 59.3188 47.652 60.0097 44.4084 60.2464C40.9326 60.5002 37.4124 60.2509 33.9469 59.5089C28.4305 58.3264 24.2832 56.3825 21.6211 53.7296C19.2948 51.4124 18.6165 49.0508 18.4583 47.4791L18.4515 47.4199C18.1078 45.13 18.4652 42.5784 19.4838 40.0404C20.6685 37.0904 22.6921 34.2246 25.4998 31.5228C28.6922 28.451 32.8384 25.6626 37.8256 23.2373C43.3693 20.5411 49.9624 18.2922 57.4272 16.5509L58.1465 20.3898C51.1278 21.9809 44.9376 24.0408 39.7421 26.5139C35.1772 28.6877 31.393 31.1688 28.4953 33.8878C26.0211 36.2095 24.2513 38.6303 23.235 41.084ZM57.1165 48.9506C56.461 49.9021 54.9598 51.3987 51.6058 52.6597C48.4293 53.8548 44.5871 54.3851 40.705 54.1734C43.1781 51.8449 46.6095 50.1445 50.9195 49.1134C54.4351 48.2735 56.2789 48.624 57.1165 48.9506ZM58.9011 11.2212L65.8504 13.6317L60.3715 19.0616L58.9011 11.2212Z" fill="black"/>
</svg>
